<svg width="387" height="292" viewBox="0 0 387 292" fill="none" xmlns="http://www.w3.org/2000/svg">
<g clip-path="url(#clip0)">
<path d="M42.6293 384.716C33.9903 376.964 34.376 377.444 35.8415 375.845C37.0756 374.646 36.5357 374.327 27.2025 371.13C9.30737 365.057 1.74823 359.463 1.74823 352.35C1.74823 344.279 14.3982 336.767 38.5412 330.454C48.2601 327.976 64.4583 324.62 73.7143 323.261C77.1854 322.782 77.3397 322.702 76.7997 320.624C76.414 319.425 76.1826 316.309 76.1826 313.672C76.2598 302.563 84.0503 294.332 95.1576 293.453L100.48 293.054V254.455V215.776H105.108C107.653 215.776 109.736 215.616 109.736 215.377C109.736 215.137 112.821 200.992 116.678 183.97C122.463 158.238 124.083 152.004 126.474 147.05C130.562 138.659 132.568 137.46 141.824 137.46H149.074V132.265C149.074 125.872 150.386 122.356 153.857 119.479L156.556 117.241L151.774 112.207C143.984 103.896 139.587 92.3081 137.504 74.0076C136.116 62.1802 136.27 41.5623 137.736 34.6097C142.055 13.9917 156.711 2.16435 179.157 1.04554C198.672 0.0865669 214.947 8.63743 222.043 23.5815C226.363 32.7717 227.211 38.6054 226.748 57.9448C226.131 87.1136 221.966 101.738 211.322 112.686L206.771 117.321L209.47 119.879C211.013 121.237 212.633 123.715 213.173 125.313C213.713 126.911 215.41 130.347 217.107 132.825L220.115 137.46H224.434C231.762 137.46 235.696 141.376 239.321 152.324C240.555 155.92 251.663 212.66 251.663 215.217C251.663 215.536 253.745 215.776 256.291 215.776H260.919V256.533C260.919 278.989 260.996 297.289 261.15 297.289C261.227 297.289 264.081 296.41 267.475 295.291C278.043 291.935 285.447 293.134 291.387 299.287C295.783 303.762 297.403 308.397 297.018 315.51L296.786 321.104L301.8 321.663C304.577 321.983 312.753 323.261 319.926 324.46C365.281 332.292 388.344 342.761 385.568 354.428C383.793 361.7 369.369 369.372 346.538 375.046C342.064 376.165 337.05 377.364 335.353 377.683C333.656 377.923 331.419 379.042 330.34 380.001C328.565 381.679 327.563 381.839 317.227 382.238C311.056 382.398 299.949 383.357 292.544 384.316C258.528 388.472 209.856 390.39 166.815 389.191C152.16 388.711 136.039 388.072 131.025 387.673C122.926 387.033 121.383 387.113 117.604 388.472C113.67 389.91 110.816 389.99 80.8878 389.99H48.4144L42.6293 384.716ZM142.672 203.629C142.518 201.312 142.441 203.15 142.441 207.785C142.441 212.42 142.518 214.258 142.672 212.02C142.827 209.703 142.827 205.867 142.672 203.629Z" fill="#161715"/>
<path d="M42.6293 384.716C33.9903 376.964 34.376 377.444 35.8415 375.845C37.0756 374.646 36.5357 374.327 27.2025 371.13C9.30737 365.057 1.74823 359.463 1.74823 352.35C1.74823 344.279 14.3982 336.767 38.5412 330.454C48.2601 327.976 64.4583 324.62 73.7143 323.261C77.1854 322.782 77.3397 322.702 76.7997 320.624C76.414 319.425 76.1826 316.309 76.1826 313.672C76.2598 302.563 84.0503 294.332 95.1576 293.453L100.48 293.054V254.455V215.776H105.108C107.653 215.776 109.736 215.616 109.736 215.377C109.736 215.137 112.821 200.992 116.678 183.97C122.463 158.238 124.083 152.004 126.474 147.05C130.562 138.659 132.568 137.46 141.824 137.46H149.074V132.265C149.074 125.872 150.386 122.356 153.857 119.479L156.556 117.241L151.774 112.207C143.984 103.896 139.587 92.3081 137.504 74.0076C136.116 62.1802 136.27 41.5623 137.736 34.6097C142.055 13.9917 156.711 2.16435 179.157 1.04554C198.672 0.0865669 214.947 8.63743 222.043 23.5815C226.363 32.7717 227.211 38.6054 226.748 57.9448C226.131 87.1136 221.966 101.738 211.322 112.686L206.771 117.321L209.47 119.879C211.013 121.237 212.633 123.715 213.173 125.313C213.713 126.911 215.41 130.347 217.107 132.825L220.115 137.46H224.434C231.762 137.46 235.696 141.376 239.321 152.324C240.555 155.92 251.663 212.66 251.663 215.217C251.663 215.536 253.745 215.776 256.291 215.776H260.919V256.533C260.919 278.989 260.996 297.289 261.15 297.289C261.227 297.289 264.081 296.41 267.475 295.291C278.043 291.935 285.447 293.134 291.387 299.287C295.783 303.762 297.403 308.397 297.018 315.51L296.786 321.104L301.8 321.663C304.577 321.983 312.753 323.261 319.926 324.46C365.281 332.292 388.344 342.761 385.568 354.428C383.793 361.7 369.369 369.372 346.538 375.046C342.064 376.165 337.05 377.364 335.353 377.683C333.656 377.923 331.419 379.042 330.34 380.001C328.565 381.679 327.563 381.839 317.227 382.238C311.056 382.398 299.949 383.357 292.544 384.316C258.528 388.472 209.856 390.39 166.815 389.191C152.16 388.711 136.039 388.072 131.025 387.673C122.926 387.033 121.383 387.113 117.604 388.472C113.67 389.91 110.816 389.99 80.8878 389.99H48.4144L42.6293 384.716ZM142.672 203.629C142.518 201.312 142.441 203.15 142.441 207.785C142.441 212.42 142.518 214.258 142.672 212.02C142.827 209.703 142.827 205.867 142.672 203.629ZM163.19 62.3401C164.038 62.3401 164.501 61.7008 164.501 60.6619C164.501 59.0636 164.193 58.9837 160.953 59.4631C158.948 59.7029 156.865 60.3422 156.325 60.8217C154.628 62.2602 156.016 63.379 159.025 62.8196C160.567 62.5798 162.419 62.3401 163.19 62.3401ZM206.925 62.0204C206.925 60.4221 206.154 60.0225 201.988 59.4631C198.749 58.9837 198.44 59.0636 198.44 60.582C198.44 61.8606 199.057 62.3401 200.986 62.5798C206.076 63.2191 206.925 63.1392 206.925 62.0204Z" fill="#342017"/>
<path d="M42.6293 384.716C33.9903 376.964 34.376 377.443 35.8415 375.845C37.0757 374.646 36.5357 374.327 27.2025 371.13C9.30737 365.057 1.74823 359.463 1.74823 352.35C1.74823 344.279 14.3982 336.767 38.5412 330.454C48.2601 327.976 64.4583 324.62 73.7144 323.261C77.1854 322.782 77.3397 322.702 76.7997 320.624C76.414 319.425 76.1826 316.309 76.1826 313.672C76.2598 302.563 84.0503 294.332 95.1576 293.453L100.48 293.054V254.455V215.776H105.108C107.653 215.776 109.736 215.616 109.736 215.377C109.736 215.137 112.821 200.992 116.678 183.97C122.463 158.238 124.083 152.004 126.474 147.05C130.562 138.659 132.568 137.46 141.824 137.46H149.074V132.265C149.074 125.872 150.386 122.356 153.857 119.479L156.556 117.241L151.774 112.207C143.984 103.896 139.587 92.3081 137.504 74.0076C136.116 62.1802 136.27 41.5623 137.736 34.6097C142.055 13.9917 156.711 2.16435 179.157 1.04554C198.672 0.0865669 214.947 8.63743 222.043 23.5815C226.363 32.7717 227.211 38.6054 226.748 57.9448C226.131 87.1136 221.966 101.738 211.322 112.686L206.771 117.321L209.47 119.879C211.013 121.237 212.633 123.715 213.173 125.313C213.713 126.911 215.41 130.347 217.107 132.825L220.115 137.46H224.434C231.762 137.46 235.696 141.376 239.321 152.324C240.555 155.92 251.663 212.66 251.663 215.217C251.663 215.536 253.745 215.776 256.291 215.776H260.919V256.533C260.919 278.989 260.996 297.289 261.15 297.289C261.227 297.289 264.081 296.41 267.475 295.291C278.043 291.935 285.448 293.134 291.387 299.287C295.783 303.762 297.403 308.397 297.018 315.51L296.786 321.104L301.8 321.663C304.577 321.983 312.753 323.261 319.926 324.46C365.281 332.292 388.344 342.761 385.568 354.428C383.793 361.7 369.369 369.372 346.538 375.046C342.064 376.165 337.05 377.364 335.353 377.683C333.656 377.923 331.419 379.042 330.34 380.001C328.565 381.679 327.563 381.839 317.227 382.238C311.056 382.398 299.949 383.357 292.544 384.316C258.528 388.472 209.856 390.39 166.815 389.191C152.16 388.711 136.039 388.072 131.025 387.673C122.926 387.033 121.383 387.113 117.604 388.472C113.67 389.91 110.816 389.99 80.8878 389.99H48.4144L42.6293 384.716ZM142.672 203.629C142.518 201.312 142.441 203.15 142.441 207.785C142.441 212.42 142.518 214.258 142.672 212.02C142.827 209.703 142.827 205.867 142.672 203.629ZM163.73 77.4439C164.964 75.2063 164.347 74.0875 161.03 72.0097C158.87 70.7311 158.253 70.5713 158.562 71.4503C158.87 72.3294 158.639 72.4892 157.791 72.1696C157.019 71.8499 156.711 72.0097 157.019 72.4892C157.328 72.9687 157.096 73.608 156.634 73.7679C155.939 74.0875 155.862 74.4072 156.479 74.8867C156.942 75.2063 157.713 76.3251 158.253 77.364C159.41 79.6016 162.573 79.6815 163.73 77.4439ZM204.688 77.364C205.228 76.3251 205.999 75.2862 206.462 74.9666C207.079 74.4871 206.925 74.0875 206.154 73.5281C205.537 73.1285 205.305 72.729 205.614 72.729C205.922 72.729 205.768 72.2495 205.305 71.6901C203.917 70.1717 199.289 72.4892 198.749 74.8867C197.746 78.8025 202.914 80.8803 204.688 77.364ZM164.887 60.7418C164.887 59.3033 162.187 58.8238 158.562 59.5431C155.785 60.0225 154.32 62.1003 156.016 63.1392C157.482 64.0982 164.887 62.1003 164.887 60.7418ZM207.542 62.1003C207.851 60.3422 204.534 58.9837 200.831 59.3033C196.82 59.623 197.206 61.7008 201.526 62.8995C205.845 64.0982 207.234 63.8585 207.542 62.1003Z" fill="#D19AB4"/>
<path d="M47.7973 389.431C47.5659 389.031 62.2214 388.871 80.425 389.031L113.361 389.191L108.425 372.649C105.648 363.458 103.334 355.946 103.257 355.867C103.102 355.707 89.8354 358.664 73.6372 362.34C44.6348 368.893 44.172 369.052 41.1638 371.85L38.0784 374.726L31.6763 372.649C16.018 367.774 6.83908 362.899 3.44518 357.705C-3.18836 347.715 9.07597 338.126 38.5412 330.454C48.2601 327.976 64.4583 324.62 73.7144 323.261C77.1854 322.782 77.3397 322.702 76.7997 320.624C76.4141 319.425 76.1826 316.309 76.1826 313.672C76.2598 302.563 84.0503 294.332 95.1577 293.453L100.48 293.054V254.455V215.776H105.108C107.653 215.776 109.736 215.616 109.736 215.377C109.736 215.137 112.821 200.992 116.678 183.97C122.463 158.238 124.083 152.004 126.474 147.05C130.562 138.659 132.568 137.46 141.824 137.46H149.074V132.265C149.074 125.872 150.386 122.356 153.857 119.479L156.556 117.241L151.774 112.207C143.984 103.896 139.587 92.3081 137.504 74.0076C136.116 62.1802 136.27 41.5623 137.736 34.6097C142.055 13.9917 156.711 2.16435 179.157 1.04554C198.672 0.0865669 214.947 8.63743 222.043 23.5815C226.363 32.7717 227.211 38.6054 226.748 57.9448C226.131 87.1136 221.966 101.738 211.322 112.686L206.771 117.321L209.47 119.879C211.013 121.237 212.633 123.715 213.173 125.313C213.713 126.911 215.41 130.347 217.107 132.825L220.115 137.46H224.434C231.762 137.46 235.696 141.376 239.321 152.324C240.555 155.92 251.663 212.66 251.663 215.217C251.663 215.536 253.745 215.776 256.291 215.776H260.919V256.533C260.919 278.989 260.996 297.289 261.15 297.289C261.227 297.289 264.081 296.41 267.475 295.291C278.043 291.935 285.448 293.134 291.387 299.287C295.784 303.762 297.403 308.397 297.018 315.51L296.786 321.104L301.8 321.663C304.577 321.983 312.753 323.261 319.926 324.46C365.281 332.292 388.344 342.761 385.568 354.428C383.639 362.499 366.67 370.731 339.596 376.724L330.725 378.642L335.739 374.007L340.753 369.292L337.667 366.016C335.97 364.178 333.733 362.26 332.654 361.62C331.574 361.061 321.855 358.584 311.056 356.106C300.257 353.549 290.847 351.311 290.23 351.072C289.613 350.832 288.379 350.512 287.53 350.352C286.682 350.273 282.902 349.393 279.045 348.514C275.266 347.635 272.026 346.996 271.949 347.076C271.872 347.236 269.866 354.908 267.552 364.258L263.387 381.2H286.605C300.18 381.2 309.513 381.519 309.128 381.919C308.202 382.798 283.442 385.595 262.77 387.193C226.98 389.99 163.036 390.15 131.025 387.673C122.926 387.033 121.383 387.113 117.604 388.472C113.67 389.83 110.739 389.99 80.7336 389.99C62.7613 389.99 47.9516 389.75 47.7973 389.431ZM238.087 360.182L268.941 356.026L270.252 350.432C271.023 347.396 271.872 344.039 272.103 343.08C272.412 341.642 272.103 341.162 269.944 340.603C267.63 339.964 262.847 341.322 232.534 351.152C213.327 357.305 197.669 362.659 197.669 362.979C197.669 363.618 200.291 364.178 204.225 364.258C205.922 364.338 221.195 362.499 238.087 360.182ZM142.672 203.629C142.518 201.312 142.441 203.15 142.441 207.785C142.441 212.42 142.518 214.258 142.672 212.02C142.827 209.703 142.827 205.867 142.672 203.629ZM163.73 77.4439C164.964 75.2063 164.347 74.0875 161.03 72.0097C158.87 70.7311 158.253 70.5713 158.562 71.4503C158.87 72.3294 158.639 72.4892 157.791 72.1696C157.019 71.8499 156.711 72.0097 157.019 72.4892C157.328 72.9687 157.096 73.608 156.634 73.7679C155.939 74.0875 155.862 74.4072 156.479 74.8867C156.942 75.2063 157.713 76.3251 158.253 77.364C159.41 79.6016 162.573 79.6815 163.73 77.4439ZM204.688 77.364C205.228 76.3251 205.999 75.2862 206.462 74.9666C207.079 74.4871 206.925 74.0875 206.154 73.5281C205.537 73.1285 205.305 72.729 205.614 72.729C205.922 72.729 205.768 72.2495 205.305 71.6901C203.917 70.1717 199.289 72.4892 198.749 74.8867C197.746 78.8025 202.914 80.8803 204.688 77.364ZM164.887 60.7418C164.887 59.3033 162.187 58.8238 158.562 59.5431C155.785 60.0225 154.32 62.1003 156.016 63.1392C157.482 64.0982 164.887 62.1003 164.887 60.7418ZM207.542 62.1003C207.851 60.3422 204.534 58.9837 200.831 59.3033C196.82 59.623 197.206 61.7008 201.526 62.8995C205.845 64.0982 207.234 63.8585 207.542 62.1003Z" fill="black"/>
<path d="M186.87 317.667C176.38 314.79 157.559 309.756 141.361 305.361C133.108 303.123 120.612 299.687 113.593 297.849L100.866 294.332L100.634 255.094L100.48 215.776H105.108C107.653 215.776 109.736 215.616 109.736 215.377C109.736 215.137 112.821 200.992 116.678 183.97C122.463 158.238 124.083 152.004 126.474 147.05C130.562 138.659 132.568 137.46 141.824 137.46H149.074V132.265C149.074 125.872 150.386 122.356 153.857 119.479L156.556 117.241L151.774 112.207C143.983 103.896 139.587 92.3081 137.504 74.0076C136.116 62.1802 136.27 41.5623 137.736 34.6097C142.055 13.9917 156.711 2.16435 179.157 1.04554C198.672 0.0865669 214.947 8.63743 222.043 23.5815C226.363 32.7717 227.211 38.6054 226.748 57.9448C226.131 87.1136 221.966 101.738 211.322 112.686L206.771 117.321L209.47 119.879C211.013 121.237 212.633 123.715 213.173 125.313C213.713 126.911 215.41 130.347 217.107 132.905L220.115 137.46H224.434C231.762 137.46 235.696 141.376 239.321 152.324C240.555 155.92 251.663 212.66 251.663 215.217C251.663 215.536 253.745 215.776 256.291 215.776H260.919V256.852V297.928L256.136 299.607C253.437 300.486 246.572 302.643 240.864 304.481C235.156 306.319 226.826 309.037 222.352 310.475C202.605 316.948 194.121 319.665 193.812 319.585C193.581 319.505 190.495 318.626 186.87 317.667ZM142.672 203.629C142.518 201.312 142.441 203.15 142.441 207.785C142.441 212.42 142.518 214.258 142.672 212.02C142.826 209.703 142.826 205.867 142.672 203.629ZM163.73 77.4439C164.964 75.2063 164.347 74.0875 161.03 72.0097C158.87 70.7311 158.253 70.5713 158.562 71.4503C158.87 72.3294 158.639 72.4892 157.79 72.1696C157.019 71.8499 156.711 72.0097 157.019 72.4892C157.328 72.9687 157.096 73.608 156.633 73.7679C155.939 74.0875 155.862 74.4072 156.479 74.8867C156.942 75.2063 157.713 76.3251 158.253 77.364C159.41 79.6016 162.573 79.6815 163.73 77.4439ZM204.688 77.364C205.228 76.3251 205.999 75.2862 206.462 74.9666C207.079 74.4871 206.925 74.0875 206.154 73.5281C205.536 73.1285 205.305 72.729 205.614 72.729C205.922 72.729 205.768 72.2495 205.305 71.6901C203.917 70.1717 199.289 72.4892 198.749 74.8867C197.746 78.8025 202.914 80.8803 204.688 77.364ZM164.887 60.7418C164.887 59.3033 162.187 58.8238 158.562 59.5431C155.785 60.0225 154.319 62.1003 156.016 63.1392C157.482 64.0982 164.887 62.1003 164.887 60.7418ZM207.542 62.1003C207.851 60.3422 204.534 58.9837 200.831 59.3033C196.82 59.623 197.206 61.7008 201.526 62.8995C205.845 64.0982 207.233 63.8585 207.542 62.1003Z" fill="#3EC1F3"/>
<path d="M186.87 317.667C176.38 314.79 157.559 309.756 141.361 305.361C133.108 303.123 120.612 299.687 113.593 297.849L100.866 294.332L100.634 255.254L100.48 216.176L134.419 216.416C156.865 216.655 168.358 216.416 168.358 215.936C168.358 215.457 167.972 214.977 167.509 214.817C167.047 214.657 169.283 205.547 173.063 191.962C179.002 170.864 179.311 169.346 178.077 167.987C176.303 165.909 176.534 163.912 178.617 163.112C179.542 162.713 180.545 162.553 180.776 162.713C181.008 162.873 181.856 160.555 182.628 157.598C183.399 154.641 184.17 151.765 184.402 151.285C184.633 150.486 181.625 150.246 170.98 150.246C158.639 150.246 156.942 150.086 154.705 148.648C151.08 146.41 149.769 143.054 149.306 134.743C148.843 126.192 149.769 122.835 153.857 119.479L156.556 117.241L151.774 112.207C143.983 103.896 139.587 92.3081 137.504 74.0076C136.116 62.1802 136.27 41.5623 137.736 34.6097C142.055 13.9917 156.711 2.16435 179.157 1.04554C198.672 0.0865669 214.947 8.63743 222.043 23.5815C226.363 32.7717 227.211 38.6054 226.748 57.9448C226.131 87.1136 221.966 101.738 211.322 112.686L206.771 117.321L209.47 119.879C211.013 121.237 212.633 123.715 213.173 125.313C213.713 126.911 215.41 130.268 216.952 132.665C218.495 135.062 219.961 137.7 220.269 138.419C220.501 139.138 224.82 146.171 229.911 154.002C234.925 161.834 239.938 169.745 241.095 171.503L243.101 174.86L228.06 189.484C211.63 205.467 212.401 204.189 213.558 212.899L214.098 216.735L237.47 216.416L260.919 216.096V257.012V297.928L256.136 299.607C253.437 300.486 246.572 302.643 240.864 304.481C235.156 306.319 226.826 309.037 222.352 310.475C202.605 316.948 194.121 319.665 193.812 319.585C193.581 319.505 190.495 318.626 186.87 317.667ZM163.73 77.4439C164.964 75.2063 164.347 74.0875 161.03 72.0097C158.87 70.7311 158.253 70.5713 158.562 71.4503C158.87 72.3294 158.639 72.4892 157.79 72.1696C157.019 71.8499 156.711 72.0097 157.019 72.4892C157.328 72.9687 157.096 73.608 156.633 73.7679C155.939 74.0875 155.862 74.4072 156.479 74.8867C156.942 75.2063 157.713 76.3251 158.253 77.364C159.41 79.6016 162.573 79.6815 163.73 77.4439ZM204.688 77.364C205.228 76.3251 205.999 75.2862 206.462 74.9666C207.079 74.4871 206.925 74.0875 206.154 73.5281C205.536 73.1285 205.305 72.729 205.614 72.729C205.922 72.729 205.768 72.2495 205.305 71.6901C203.917 70.1717 199.289 72.4892 198.749 74.8867C197.746 78.8025 202.914 80.8803 204.688 77.364ZM164.887 60.7418C164.887 59.3033 162.187 58.8238 158.562 59.5431C155.785 60.0225 154.319 62.1003 156.016 63.1392C157.482 64.0982 164.887 62.1003 164.887 60.7418ZM207.542 62.1003C207.851 60.3422 204.534 58.9837 200.831 59.3033C196.82 59.623 197.206 61.7008 201.526 62.8995C205.845 64.0982 207.233 63.8585 207.542 62.1003Z" fill="#F2B57F"/>
<path d="M186.87 317.667C176.38 314.79 157.559 309.756 141.361 305.361C133.108 303.123 120.612 299.687 113.593 297.849L100.866 294.332L100.634 255.254L100.48 216.176L134.419 216.416C156.865 216.655 168.358 216.416 168.358 215.936C168.358 215.457 167.972 214.977 167.509 214.817C167.047 214.657 169.283 205.547 173.063 191.962C179.002 170.864 179.311 169.346 178.077 167.987C176.303 165.909 176.534 163.912 178.617 163.112C179.542 162.713 180.545 162.553 180.776 162.713C181.008 162.873 181.856 160.555 182.628 157.598C183.399 154.641 184.17 151.765 184.402 151.285C184.633 150.486 181.625 150.246 170.98 150.246C158.639 150.246 156.942 150.086 154.705 148.648C151.08 146.41 149.769 143.054 149.306 134.743C148.843 126.192 149.769 122.835 153.857 119.479L156.556 117.241L151.774 112.207C143.983 103.896 139.587 92.3081 137.504 74.0076C136.116 62.1802 136.27 41.5623 137.736 34.6097C142.055 13.9917 156.711 2.16435 179.157 1.04554C198.672 0.0865669 214.947 8.63743 222.043 23.5815C226.363 32.7717 227.211 38.6054 226.748 57.9448C226.131 87.1136 221.966 101.738 211.322 112.686L206.771 117.321L209.47 119.879C211.013 121.237 212.633 123.715 213.173 125.313C213.713 126.911 215.41 130.268 216.952 132.665C218.495 135.062 219.961 137.7 220.269 138.419C220.501 139.138 224.82 146.171 229.911 154.002C234.925 161.834 239.938 169.745 241.095 171.503L243.101 174.86L228.06 189.484C211.63 205.467 212.401 204.189 213.558 212.899L214.098 216.735L237.47 216.416L260.919 216.096V257.012V297.928L256.136 299.607C253.437 300.486 246.572 302.643 240.864 304.481C235.156 306.319 226.826 309.037 222.352 310.475C202.605 316.948 194.121 319.665 193.812 319.585C193.581 319.505 190.495 318.626 186.87 317.667ZM188.413 102.537C191.421 99.6602 193.735 96.8632 193.581 96.4636C193.272 95.5046 181.548 95.0252 177.151 95.8243C175.454 96.144 173.217 96.144 172.215 95.7444C170.98 95.2649 170.209 95.3448 169.823 96.064C168.744 97.9021 179.079 107.891 182.011 107.891C182.551 107.891 185.404 105.494 188.413 102.537ZM205.151 76.6448C205.382 75.8456 205.845 75.1264 206.231 75.1264C207.388 75.1264 207.002 73.8478 205.305 71.8499C204.148 70.5713 203.531 70.2516 203.3 70.9709C203.068 71.4503 202.374 71.9298 201.603 71.9298C198.363 71.9298 197.283 76.5649 200.137 78.6427C202.065 80.0811 204.534 79.1221 205.151 76.6448ZM163.73 77.9234C165.272 76.0055 164.038 73.2085 161.184 71.8499C158.716 70.7311 158.485 70.7311 157.251 72.2495C155.862 74.0875 155.631 75.1264 156.788 75.1264C157.251 75.1264 157.559 75.6059 157.559 76.1653C157.559 78.8824 161.956 80.161 163.73 77.9234ZM163.961 62.1802C166.507 60.8217 164.887 59.5431 160.799 59.5431C156.556 59.623 154.782 60.6619 155.476 62.6597C155.862 63.6986 156.633 63.8585 159.256 63.4589C161.107 63.1392 163.19 62.5798 163.961 62.1802ZM207.465 62.6597C207.696 62.0204 207.542 61.0614 207.156 60.6619C205.999 59.4631 200.677 58.2644 199.057 58.8238C197.052 59.4631 197.283 62.2602 199.443 62.6597C200.369 62.8995 201.834 63.2191 202.683 63.379C205.768 64.0982 207.002 63.9384 207.465 62.6597Z" fill="#F2B57F"/>
<path d="M186.87 317.667C176.38 314.79 157.559 309.756 141.361 305.361C133.108 303.123 120.612 299.687 113.593 297.849L100.866 294.332L100.634 255.254L100.48 216.176L134.419 216.416C156.865 216.655 168.358 216.416 168.358 215.936C168.358 215.457 167.972 214.977 167.509 214.817C167.047 214.657 169.283 205.547 173.063 191.962C179.002 170.864 179.311 169.346 178.077 167.987C176.303 165.909 176.534 163.912 178.617 163.112C179.542 162.713 180.545 162.553 180.776 162.713C181.008 162.873 181.856 160.555 182.628 157.598C183.399 154.641 184.17 151.765 184.402 151.285C184.633 150.486 181.625 150.246 170.98 150.246C158.639 150.246 156.942 150.086 154.705 148.648C151.08 146.41 149.769 143.054 149.306 134.743C148.843 126.192 149.769 122.835 153.857 119.479L156.556 117.241L151.774 112.207C143.983 103.896 139.587 92.3081 137.504 74.0076C136.116 62.1802 136.27 41.5623 137.736 34.6097C142.055 13.9917 156.711 2.16435 179.157 1.04554C198.672 0.0865669 214.947 8.63743 222.043 23.5815C226.363 32.7717 227.211 38.6054 226.748 57.9448C226.131 87.1136 221.966 101.738 211.322 112.686L206.771 117.321L209.47 119.879C211.013 121.237 212.633 123.715 213.173 125.313C213.713 126.911 215.41 130.268 216.952 132.665C218.495 135.062 219.961 137.7 220.269 138.419C220.5 139.138 224.82 146.171 229.911 154.002C234.925 161.834 239.938 169.745 241.095 171.503L243.101 174.86L228.06 189.484C211.63 205.467 212.401 204.189 213.558 212.899L214.098 216.735L237.47 216.416L260.919 216.096V257.012V297.928L256.136 299.607C253.437 300.486 246.572 302.643 240.864 304.481C235.156 306.319 226.825 309.037 222.352 310.475C202.605 316.948 194.121 319.665 193.812 319.585C193.581 319.505 190.495 318.626 186.87 317.667ZM189.955 126.032C191.421 124.993 195.046 123.155 197.9 121.956C202.143 120.118 203.84 118.76 206.308 115.563C210.319 110.369 215.178 99.9799 216.181 94.4658C218.418 82.079 217.724 64.0982 214.638 57.0657C211.476 49.5537 203.068 42.8409 191.652 38.6853C182.936 35.4888 175.531 36.4477 164.501 42.0418C157.328 45.7178 151.311 51.4717 149.151 56.746C144.986 66.8153 145.295 90.8696 149.769 102.297C152.468 109.09 158.253 117.641 161.57 119.719C162.958 120.598 165.504 121.797 167.201 122.356C168.898 122.995 171.597 124.274 173.14 125.393C178.771 129.069 185.019 129.309 189.955 126.032Z" fill="#B97394"/>
<path d="M188.276 317.901C180.948 315.983 163.747 311.348 154.337 308.71C150.094 307.592 143.152 305.754 138.91 304.635C134.668 303.516 130.194 302.317 128.883 301.918C127.648 301.518 123.098 300.239 118.855 299.041C114.613 297.922 108.596 296.244 105.588 295.365L99.9573 293.686V254.848V216.009L133.896 216.249L167.835 216.569L167.372 214.251C167.064 212.733 168.915 205.061 172.849 190.836C176.089 179.249 178.943 169.419 179.097 169.1C179.328 168.78 178.711 168.141 177.863 167.661C175.78 166.542 175.857 163.825 178.094 162.946C179.02 162.547 180.022 162.387 180.254 162.547C180.562 162.706 181.334 160.629 182.028 157.832C182.799 155.115 183.571 152.238 183.725 151.518C184.111 150.32 182.799 150.16 169.841 149.92L155.571 149.68L152.871 146.963C149.786 143.926 148.552 139.451 148.552 131.62C148.552 125.706 149.94 122.11 153.334 119.313L156.034 117.075L151.251 112.041C143.461 103.729 139.064 92.1418 136.982 73.8413C135.593 62.014 135.747 41.396 137.213 34.4434C141.533 13.8254 156.188 1.99807 178.634 0.879268C198.149 -0.0797082 214.424 8.47116 221.521 23.4152C225.84 32.6054 226.689 38.4391 226.226 57.7785C225.763 80.0747 223.526 91.9819 217.818 103.09C215.658 107.326 209.333 114.917 207.945 114.917C207.636 114.917 207.097 115.477 206.865 116.116C206.557 116.915 207.405 118.274 209.102 119.792C210.49 121.071 212.11 123.548 212.65 125.147C213.19 126.745 214.887 130.181 216.507 132.659C218.204 135.136 219.515 137.613 219.515 138.013C219.515 138.492 223.14 144.406 227.614 151.199C232.088 157.991 235.713 163.745 235.713 164.065C235.713 164.305 237.102 166.702 238.876 169.339C240.573 171.977 241.884 174.294 241.73 174.454C241.653 174.534 234.711 175.493 226.457 176.452C218.204 177.411 211.185 178.45 210.953 178.769C210.49 179.169 212.033 204.342 213.036 213.053L213.422 216.569L236.947 216.249L260.396 215.93V256.846V297.762L256 299.121C253.531 299.92 249.597 301.198 247.283 301.918C244.969 302.717 240.264 304.235 236.87 305.354C233.476 306.473 227.383 308.391 223.372 309.749C211.647 313.585 195.295 318.86 194.447 319.099C194.061 319.259 191.284 318.7 188.276 317.901ZM189.433 125.786C190.898 124.827 194.138 123.149 196.683 122.11C203.934 119.073 207.097 115.637 211.956 105.088C215.273 97.8157 216.43 92.861 216.97 82.8717C217.51 72.5627 216.353 62.0939 214.116 56.8195C210.953 49.4674 202.546 42.6746 191.13 38.5191C182.414 35.3225 175.009 36.2814 163.979 41.8755C156.805 45.5515 150.789 51.3054 148.629 56.5798C144.464 66.649 144.772 90.7033 149.246 102.131C151.946 108.924 157.731 117.475 161.047 119.552C162.436 120.432 164.981 121.63 166.678 122.19C168.375 122.829 171.075 124.108 172.618 125.226C178.248 128.903 184.496 129.142 189.433 125.786Z" fill="#D19AB4"/>
<path d="M188.73 311.795C185.802 311.048 179.175 309.405 174.09 308.135C169.004 306.791 160.837 304.699 155.982 303.504C147.276 301.338 142.19 299.993 124.391 295.512C115.53 293.271 105.513 290.582 102.277 289.685L100.505 289.237V252.86V216.558H180.639H260.774V254.802V292.972L256.382 294.242C253.916 294.989 249.986 296.184 247.675 296.856C245.363 297.603 240.663 299.022 237.273 300.068C233.883 301.114 227.795 302.907 223.789 304.176C212.077 307.762 195.742 312.692 194.894 312.916C194.509 313.065 191.735 312.542 188.73 311.795Z" fill="#BFCBD9"/>
<path d="M178.954 181.369C178.334 179.921 179.161 178.267 180.403 178.267C181.575 178.267 181.644 178.543 181.023 180.886C180.54 182.609 179.506 182.885 178.954 181.369Z" fill="#BFCBD9"/>
<path d="M149.151 54.509C148.997 52.5111 152.391 43.4008 155.476 37.1675C159.796 28.5367 167.818 20.1457 174.066 17.6683C185.25 13.3529 196.358 18.5474 205.305 32.3726C208.776 37.8068 212.864 47.3167 214.175 53.1504C214.715 55.4679 214.638 55.388 212.401 52.1914C207.156 44.6795 191.112 36.4483 181.856 36.5282C171.752 36.6081 155.785 45.2389 150.463 53.55C149.769 54.6688 149.151 55.0684 149.151 54.509Z" fill="#D19AB4"/>
<path d="M136.931 48.4793C136.931 46.6793 137.086 46.0247 137.24 47.0884C137.394 48.0702 137.394 49.543 137.24 50.3612C137.009 51.0976 136.854 50.2794 136.931 48.4793Z" fill="#ECEDEF"/>
<path d="M171.92 260.967C171.542 260.967 171.219 260.837 170.95 260.576C170.691 260.316 170.562 259.931 170.562 259.421C170.562 259.311 170.567 259.201 170.577 259.091C170.597 258.971 170.622 258.866 170.652 258.776C170.681 258.676 170.716 258.596 170.756 258.536C170.806 258.476 170.856 258.446 170.905 258.446C170.955 258.446 171 258.461 171.04 258.491C171.089 258.521 171.149 258.556 171.219 258.596C171.298 258.636 171.403 258.671 171.532 258.701C171.661 258.731 171.84 258.746 172.069 258.746C172.617 258.746 173.179 258.661 173.756 258.491C174.333 258.311 174.855 258.06 175.323 257.74C175.8 257.41 176.188 257.015 176.487 256.555C176.795 256.095 176.95 255.574 176.95 254.994C176.95 254.784 176.915 254.579 176.845 254.379C176.775 254.179 176.671 254.004 176.532 253.854C176.392 253.694 176.213 253.564 175.994 253.464C175.785 253.363 175.537 253.313 175.248 253.313C174.452 253.313 173.721 253.489 173.054 253.839C172.398 254.189 171.801 254.664 171.263 255.264C170.726 255.855 170.254 256.54 169.846 257.32C169.448 258.1 169.114 258.926 168.846 259.796C168.577 260.657 168.373 261.532 168.234 262.422C168.094 263.313 168.025 264.158 168.025 264.958C168.025 265.919 168.085 266.809 168.204 267.629C168.323 268.44 168.517 269.14 168.786 269.73C169.055 270.32 169.413 270.786 169.861 271.126C170.308 271.456 170.86 271.621 171.517 271.621C172.114 271.621 172.641 271.471 173.099 271.171C173.557 270.861 173.955 270.445 174.293 269.925C174.641 269.405 174.935 268.8 175.174 268.11C175.422 267.409 175.636 266.664 175.815 265.874C175.994 265.083 176.149 264.268 176.278 263.428C176.407 262.587 176.522 261.767 176.621 260.967C176.651 260.767 176.795 260.616 177.054 260.516C177.313 260.406 177.586 260.351 177.875 260.351C177.994 260.351 178.119 260.366 178.248 260.396C178.377 260.426 178.487 260.471 178.576 260.531C178.676 260.591 178.745 260.671 178.785 260.772C178.835 260.872 178.845 260.997 178.815 261.147C178.735 261.547 178.651 262.182 178.561 263.053C178.472 263.913 178.427 264.948 178.427 266.159C178.427 267.169 178.432 268.039 178.442 268.77C178.462 269.5 178.487 270.13 178.517 270.661C178.546 271.191 178.576 271.636 178.606 271.996C178.636 272.346 178.666 272.641 178.696 272.881C178.755 272.971 178.785 273.042 178.785 273.092C178.785 273.192 178.735 273.287 178.636 273.377C178.536 273.467 178.412 273.547 178.263 273.617C178.114 273.687 177.944 273.742 177.755 273.782C177.576 273.822 177.402 273.842 177.233 273.842C176.964 273.842 176.76 273.787 176.621 273.677C176.482 273.567 176.377 273.382 176.308 273.122C176.248 272.871 176.208 272.536 176.188 272.116C176.168 271.686 176.149 271.161 176.129 270.541C175.9 271.031 175.616 271.486 175.278 271.906C174.94 272.326 174.562 272.691 174.144 273.002C173.726 273.322 173.268 273.572 172.771 273.752C172.283 273.932 171.771 274.022 171.234 274.022C170.398 274.022 169.632 273.862 168.935 273.542C168.249 273.222 167.657 272.706 167.159 271.996C166.662 271.286 166.274 270.36 165.995 269.22C165.727 268.07 165.592 266.669 165.592 265.018C165.592 263.888 165.697 262.757 165.906 261.627C166.125 260.486 166.433 259.396 166.831 258.356C167.239 257.315 167.731 256.345 168.308 255.444C168.895 254.544 169.552 253.764 170.278 253.103C171.005 252.443 171.796 251.923 172.651 251.543C173.517 251.163 174.432 250.973 175.397 250.973C176.024 250.973 176.581 251.073 177.069 251.273C177.566 251.473 177.984 251.753 178.323 252.113C178.661 252.463 178.92 252.878 179.099 253.358C179.278 253.829 179.367 254.334 179.367 254.874C179.367 255.764 179.153 256.585 178.726 257.335C178.298 258.075 177.736 258.716 177.039 259.256C176.343 259.796 175.547 260.216 174.651 260.516C173.756 260.817 172.845 260.967 171.92 260.967ZM183.367 263.788V264.463C184.063 265.313 184.69 266.189 185.247 267.089C185.815 267.98 186.292 268.92 186.68 269.91C187.078 270.901 187.382 271.946 187.59 273.047C187.809 274.147 187.919 275.333 187.919 276.603C187.919 277.884 187.819 279.064 187.62 280.144C187.431 281.235 187.158 282.17 186.799 282.951C186.451 283.741 186.023 284.356 185.516 284.796C185.019 285.237 184.466 285.457 183.859 285.457C183.322 285.457 182.874 285.322 182.516 285.051C182.158 284.791 181.869 284.441 181.651 284.001C181.442 283.571 181.287 283.081 181.188 282.53C181.098 281.98 181.054 281.42 181.054 280.85V264.313C181.024 264.283 180.989 264.248 180.949 264.208C180.919 264.168 180.89 264.128 180.86 264.088C180.621 263.848 180.402 263.628 180.203 263.428C180.014 263.218 179.919 262.987 179.919 262.737C179.919 262.587 179.974 262.437 180.084 262.287C180.193 262.127 180.372 262.032 180.621 262.002C180.671 262.002 180.73 261.997 180.8 261.987C180.87 261.977 180.954 261.972 181.054 261.972V253.238C181.054 253.018 181.034 252.843 180.994 252.713C180.964 252.583 180.929 252.483 180.89 252.413C180.86 252.333 180.825 252.273 180.785 252.233C180.755 252.183 180.74 252.133 180.74 252.083C180.74 252.023 180.77 251.973 180.83 251.933C180.89 251.893 180.969 251.858 181.069 251.828C181.168 251.798 181.273 251.778 181.382 251.768C181.501 251.748 181.616 251.738 181.725 251.738C182.233 251.738 182.631 251.873 182.919 252.143C183.218 252.403 183.367 252.718 183.367 253.088V261.792C183.725 261.762 184.083 261.737 184.441 261.717C184.8 261.687 185.148 261.662 185.486 261.642C185.824 261.612 186.133 261.592 186.411 261.582C186.7 261.572 186.949 261.567 187.158 261.567C187.496 261.567 187.789 261.632 188.038 261.762C188.287 261.892 188.411 262.117 188.411 262.437C188.411 262.547 188.396 262.707 188.367 262.917C188.347 263.127 188.312 263.343 188.262 263.563C188.222 263.783 188.163 263.973 188.083 264.133C188.013 264.293 187.929 264.373 187.829 264.373C187.78 264.373 187.74 264.358 187.71 264.328C187.69 264.288 187.65 264.248 187.59 264.208C187.541 264.168 187.461 264.128 187.352 264.088C187.252 264.048 187.098 264.018 186.889 263.998L183.367 263.788ZM185.605 276.603C185.605 275.903 185.556 275.177 185.456 274.427C185.367 273.687 185.227 272.937 185.038 272.176C184.849 271.406 184.616 270.646 184.337 269.895C184.058 269.135 183.735 268.4 183.367 267.689V280.85C183.367 281.09 183.377 281.35 183.397 281.63C183.417 281.91 183.451 282.165 183.501 282.395C183.561 282.625 183.636 282.816 183.725 282.966C183.825 283.126 183.949 283.206 184.098 283.206C184.317 283.206 184.521 283.046 184.71 282.726C184.899 282.405 185.058 281.95 185.188 281.36C185.317 280.78 185.417 280.084 185.486 279.274C185.566 278.474 185.605 277.583 185.605 276.603ZM194.366 273.902C193.719 273.902 193.182 273.827 192.754 273.677C192.327 273.537 191.988 273.377 191.739 273.197C191.491 273.017 191.317 272.846 191.217 272.686C191.118 272.516 191.068 272.406 191.068 272.356C191.068 272.176 191.108 271.986 191.187 271.786C191.267 271.576 191.366 271.386 191.486 271.216C191.605 271.036 191.734 270.886 191.874 270.766C192.013 270.646 192.137 270.586 192.247 270.586C192.386 270.586 192.5 270.676 192.59 270.856C192.61 270.876 192.66 270.926 192.739 271.006C192.819 271.086 192.928 271.171 193.068 271.261C193.217 271.341 193.396 271.416 193.605 271.486C193.824 271.556 194.077 271.591 194.366 271.591C194.993 271.591 195.505 271.401 195.903 271.021C196.301 270.631 196.5 270.105 196.5 269.445C196.5 268.985 196.391 268.575 196.172 268.215C195.963 267.854 195.685 267.519 195.336 267.209C194.988 266.899 194.59 266.599 194.142 266.309C193.694 266.009 193.237 265.699 192.769 265.378C192.301 265.058 191.844 264.713 191.396 264.343C190.948 263.973 190.55 263.548 190.202 263.067C189.854 262.587 189.57 262.047 189.351 261.447C189.143 260.837 189.038 260.141 189.038 259.361C189.038 258.691 189.153 258.015 189.381 257.335C189.61 256.655 189.924 256.01 190.322 255.399C190.729 254.779 191.207 254.204 191.754 253.674C192.301 253.133 192.893 252.668 193.53 252.278C194.167 251.878 194.829 251.568 195.515 251.348C196.212 251.118 196.908 251.003 197.605 251.003C198.202 251.003 198.739 251.098 199.216 251.288C199.694 251.478 200.097 251.748 200.425 252.098C200.753 252.438 201.007 252.853 201.186 253.344C201.365 253.824 201.455 254.364 201.455 254.964C201.455 255.534 201.355 256.095 201.156 256.645C200.957 257.195 200.694 257.715 200.366 258.206C200.037 258.696 199.665 259.151 199.246 259.571C198.839 259.981 198.415 260.341 197.977 260.652C197.55 260.952 197.132 261.187 196.724 261.357C196.316 261.527 195.958 261.612 195.649 261.612C195.381 261.612 195.137 261.552 194.918 261.432C194.709 261.302 194.53 261.147 194.381 260.967C194.242 260.777 194.132 260.581 194.053 260.381C193.973 260.171 193.933 259.986 193.933 259.826C193.933 259.696 193.948 259.611 193.978 259.571C194.017 259.531 194.067 259.516 194.127 259.526C194.197 259.526 194.281 259.541 194.381 259.571C194.481 259.591 194.595 259.601 194.724 259.601C195.142 259.601 195.605 259.456 196.112 259.166C196.619 258.876 197.097 258.506 197.545 258.055C197.993 257.605 198.365 257.11 198.664 256.57C198.973 256.03 199.127 255.504 199.127 254.994C199.127 254.474 198.998 254.064 198.739 253.764C198.49 253.464 198.062 253.313 197.455 253.313C197.077 253.313 196.664 253.389 196.217 253.539C195.779 253.679 195.336 253.879 194.889 254.139C194.441 254.399 194.008 254.714 193.59 255.084C193.172 255.454 192.804 255.865 192.485 256.315C192.167 256.755 191.909 257.235 191.71 257.755C191.521 258.266 191.426 258.801 191.426 259.361C191.426 259.951 191.53 260.481 191.739 260.952C191.958 261.412 192.242 261.832 192.59 262.212C192.948 262.592 193.351 262.942 193.799 263.263C194.247 263.583 194.704 263.903 195.172 264.223C195.639 264.533 196.097 264.858 196.545 265.198C196.993 265.528 197.391 265.899 197.739 266.309C198.097 266.709 198.381 267.159 198.589 267.659C198.808 268.15 198.918 268.715 198.918 269.355C198.918 269.975 198.798 270.566 198.56 271.126C198.331 271.676 198.013 272.156 197.605 272.566C197.197 272.977 196.714 273.302 196.157 273.542C195.6 273.782 195.003 273.902 194.366 273.902Z" fill="white"/>
</g>
<defs>
<clipPath id="clip0">
<rect width="385.67" height="389.983" fill="white" transform="translate(0.976868 0.806335)"/>
</clipPath>
</defs>
</svg>
