<svg width="169" height="107" viewBox="0 0 169 107" fill="none" xmlns="http://www.w3.org/2000/svg">
<path d="M65.5312 26.5312C64.9375 26.5312 64.4297 26.3281 64.0078 25.9219C63.6016 25.5156 63.3984 24.9141 63.3984 24.1172C63.3984 23.9453 63.4062 23.7734 63.4219 23.6016C63.4531 23.4141 63.4922 23.25 63.5391 23.1094C63.5859 22.9531 63.6406 22.8281 63.7031 22.7344C63.7812 22.6406 63.8594 22.5938 63.9375 22.5938C64.0156 22.5938 64.0859 22.6172 64.1484 22.6641C64.2266 22.7109 64.3203 22.7656 64.4297 22.8281C64.5547 22.8906 64.7188 22.9453 64.9219 22.9922C65.125 23.0391 65.4062 23.0625 65.7656 23.0625C66.625 23.0625 67.5078 22.9297 68.4141 22.6641C69.3203 22.3828 70.1406 21.9922 70.875 21.4922C71.625 20.9766 72.2344 20.3594 72.7031 19.6406C73.1875 18.9219 73.4297 18.1094 73.4297 17.2031C73.4297 16.875 73.375 16.5547 73.2656 16.2422C73.1562 15.9297 72.9922 15.6562 72.7734 15.4219C72.5547 15.1719 72.2734 14.9688 71.9297 14.8125C71.6016 14.6562 71.2109 14.5781 70.7578 14.5781C69.5078 14.5781 68.3594 14.8516 67.3125 15.3984C66.2812 15.9453 65.3438 16.6875 64.5 17.625C63.6562 18.5469 62.9141 19.6172 62.2734 20.8359C61.6484 22.0547 61.125 23.3438 60.7031 24.7031C60.2812 26.0469 59.9609 27.4141 59.7422 28.8047C59.5234 30.1953 59.4141 31.5156 59.4141 32.7656C59.4141 34.2656 59.5078 35.6562 59.6953 36.9375C59.8828 38.2031 60.1875 39.2969 60.6094 40.2188C61.0312 41.1406 61.5938 41.8672 62.2969 42.3984C63 42.9141 63.8672 43.1719 64.8984 43.1719C65.8359 43.1719 66.6641 42.9375 67.3828 42.4688C68.1016 41.9844 68.7266 41.3359 69.2578 40.5234C69.8047 39.7109 70.2656 38.7656 70.6406 37.6875C71.0312 36.5938 71.3672 35.4297 71.6484 34.1953C71.9297 32.9609 72.1719 31.6875 72.375 30.375C72.5781 29.0625 72.7578 27.7812 72.9141 26.5312C72.9609 26.2188 73.1875 25.9844 73.5938 25.8281C74 25.6562 74.4297 25.5703 74.8828 25.5703C75.0703 25.5703 75.2656 25.5938 75.4688 25.6406C75.6719 25.6875 75.8438 25.7578 75.9844 25.8516C76.1406 25.9453 76.25 26.0703 76.3125 26.2266C76.3906 26.3828 76.4062 26.5781 76.3594 26.8125C76.2344 27.4375 76.1016 28.4297 75.9609 29.7891C75.8203 31.1328 75.75 32.75 75.75 34.6406C75.75 36.2188 75.7578 37.5781 75.7734 38.7188C75.8047 39.8594 75.8438 40.8438 75.8906 41.6719C75.9375 42.5 75.9844 43.1953 76.0312 43.7578C76.0781 44.3047 76.125 44.7656 76.1719 45.1406C76.2656 45.2812 76.3125 45.3906 76.3125 45.4688C76.3125 45.625 76.2344 45.7734 76.0781 45.9141C75.9219 46.0547 75.7266 46.1797 75.4922 46.2891C75.2578 46.3984 74.9922 46.4844 74.6953 46.5469C74.4141 46.6094 74.1406 46.6406 73.875 46.6406C73.4531 46.6406 73.1328 46.5547 72.9141 46.3828C72.6953 46.2109 72.5312 45.9219 72.4219 45.5156C72.3281 45.125 72.2656 44.6016 72.2344 43.9453C72.2031 43.2734 72.1719 42.4531 72.1406 41.4844C71.7812 42.25 71.3359 42.9609 70.8047 43.6172C70.2734 44.2734 69.6797 44.8438 69.0234 45.3281C68.3672 45.8281 67.6484 46.2188 66.8672 46.5C66.1016 46.7812 65.2969 46.9219 64.4531 46.9219C63.1406 46.9219 61.9375 46.6719 60.8438 46.1719C59.7656 45.6719 58.8359 44.8672 58.0547 43.7578C57.2734 42.6484 56.6641 41.2031 56.2266 39.4219C55.8047 37.625 55.5938 35.4375 55.5938 32.8594C55.5938 31.0938 55.7578 29.3281 56.0859 27.5625C56.4297 25.7812 56.9141 24.0781 57.5391 22.4531C58.1797 20.8281 58.9531 19.3125 59.8594 17.9062C60.7812 16.5 61.8125 15.2812 62.9531 14.25C64.0938 13.2188 65.3359 12.4062 66.6797 11.8125C68.0391 11.2188 69.4766 10.9219 70.9922 10.9219C71.9766 10.9219 72.8516 11.0781 73.6172 11.3906C74.3984 11.7031 75.0547 12.1406 75.5859 12.7031C76.1172 13.25 76.5234 13.8984 76.8047 14.6484C77.0859 15.3828 77.2266 16.1719 77.2266 17.0156C77.2266 18.4062 76.8906 19.6875 76.2188 20.8594C75.5469 22.0156 74.6641 23.0156 73.5703 23.8594C72.4766 24.7031 71.2266 25.3594 69.8203 25.8281C68.4141 26.2969 66.9844 26.5312 65.5312 26.5312ZM83.5078 30.9375V31.9922C84.6016 33.3203 85.5859 34.6875 86.4609 36.0938C87.3516 37.4844 88.1016 38.9531 88.7109 40.5C89.3359 42.0469 89.8125 43.6797 90.1406 45.3984C90.4844 47.1172 90.6562 48.9688 90.6562 50.9531C90.6562 52.9531 90.5 54.7969 90.1875 56.4844C89.8906 58.1875 89.4609 59.6484 88.8984 60.8672C88.3516 62.1016 87.6797 63.0625 86.8828 63.75C86.1016 64.4375 85.2344 64.7812 84.2812 64.7812C83.4375 64.7812 82.7344 64.5703 82.1719 64.1484C81.6094 63.7422 81.1562 63.1953 80.8125 62.5078C80.4844 61.8359 80.2422 61.0703 80.0859 60.2109C79.9453 59.3516 79.875 58.4766 79.875 57.5859V31.7578C79.8281 31.7109 79.7734 31.6562 79.7109 31.5938C79.6641 31.5312 79.6172 31.4688 79.5703 31.4062C79.1953 31.0312 78.8516 30.6875 78.5391 30.375C78.2422 30.0469 78.0938 29.6875 78.0938 29.2969C78.0938 29.0625 78.1797 28.8281 78.3516 28.5938C78.5234 28.3438 78.8047 28.1953 79.1953 28.1484C79.2734 28.1484 79.3672 28.1406 79.4766 28.125C79.5859 28.1094 79.7188 28.1016 79.875 28.1016V14.4609C79.875 14.1172 79.8438 13.8438 79.7812 13.6406C79.7344 13.4375 79.6797 13.2813 79.6172 13.1719C79.5703 13.0469 79.5156 12.9531 79.4531 12.8906C79.4062 12.8125 79.3828 12.7344 79.3828 12.6562C79.3828 12.5625 79.4297 12.4844 79.5234 12.4219C79.6172 12.3594 79.7422 12.3047 79.8984 12.2578C80.0547 12.2109 80.2188 12.1797 80.3906 12.1641C80.5781 12.1328 80.7578 12.1172 80.9297 12.1172C81.7266 12.1172 82.3516 12.3281 82.8047 12.75C83.2734 13.1562 83.5078 13.6484 83.5078 14.2266V27.8203C84.0703 27.7734 84.6328 27.7344 85.1953 27.7031C85.7578 27.6562 86.3047 27.6172 86.8359 27.5859C87.3672 27.5391 87.8516 27.5078 88.2891 27.4922C88.7422 27.4766 89.1328 27.4688 89.4609 27.4688C89.9922 27.4688 90.4531 27.5703 90.8438 27.7734C91.2344 27.9766 91.4297 28.3281 91.4297 28.8281C91.4297 29 91.4062 29.25 91.3594 29.5781C91.3281 29.9062 91.2734 30.2422 91.1953 30.5859C91.1328 30.9297 91.0391 31.2266 90.9141 31.4766C90.8047 31.7266 90.6719 31.8516 90.5156 31.8516C90.4375 31.8516 90.375 31.8281 90.3281 31.7812C90.2969 31.7188 90.2344 31.6562 90.1406 31.5938C90.0625 31.5312 89.9375 31.4688 89.7656 31.4062C89.6094 31.3438 89.3672 31.2969 89.0391 31.2656L83.5078 30.9375ZM87.0234 50.9531C87.0234 49.8594 86.9453 48.7266 86.7891 47.5547C86.6484 46.3984 86.4297 45.2266 86.1328 44.0391C85.8359 42.8359 85.4688 41.6484 85.0312 40.4766C84.5938 39.2891 84.0859 38.1406 83.5078 37.0312V57.5859C83.5078 57.9609 83.5234 58.3672 83.5547 58.8047C83.5859 59.2422 83.6406 59.6406 83.7188 60C83.8125 60.3594 83.9297 60.6562 84.0703 60.8906C84.2266 61.1406 84.4219 61.2656 84.6562 61.2656C85 61.2656 85.3203 61.0156 85.6172 60.5156C85.9141 60.0156 86.1641 59.3047 86.3672 58.3828C86.5703 57.4766 86.7266 56.3906 86.8359 55.125C86.9609 53.875 87.0234 52.4844 87.0234 50.9531ZM100.781 46.7344C99.7656 46.7344 98.9219 46.6172 98.25 46.3828C97.5781 46.1641 97.0469 45.9141 96.6562 45.6328C96.2656 45.3516 95.9922 45.0859 95.8359 44.8359C95.6797 44.5703 95.6016 44.3984 95.6016 44.3203C95.6016 44.0391 95.6641 43.7422 95.7891 43.4297C95.9141 43.1016 96.0703 42.8047 96.2578 42.5391C96.4453 42.2578 96.6484 42.0234 96.8672 41.8359C97.0859 41.6484 97.2812 41.5547 97.4531 41.5547C97.6719 41.5547 97.8516 41.6953 97.9922 41.9766C98.0234 42.0078 98.1016 42.0859 98.2266 42.2109C98.3516 42.3359 98.5234 42.4688 98.7422 42.6094C98.9766 42.7344 99.2578 42.8516 99.5859 42.9609C99.9297 43.0703 100.328 43.125 100.781 43.125C101.766 43.125 102.57 42.8281 103.195 42.2344C103.82 41.625 104.133 40.8047 104.133 39.7734C104.133 39.0547 103.961 38.4141 103.617 37.8516C103.289 37.2891 102.852 36.7656 102.305 36.2812C101.758 35.7969 101.133 35.3281 100.43 34.875C99.7266 34.4062 99.0078 33.9219 98.2734 33.4219C97.5391 32.9219 96.8203 32.3828 96.1172 31.8047C95.4141 31.2266 94.7891 30.5625 94.2422 29.8125C93.6953 29.0625 93.25 28.2188 92.9062 27.2812C92.5781 26.3281 92.4141 25.2422 92.4141 24.0234C92.4141 22.9766 92.5938 21.9219 92.9531 20.8594C93.3125 19.7969 93.8047 18.7891 94.4297 17.8359C95.0703 16.8672 95.8203 15.9687 96.6797 15.1406C97.5391 14.2969 98.4688 13.5703 99.4688 12.9609C100.469 12.3359 101.508 11.8516 102.586 11.5078C103.68 11.1484 104.773 10.9688 105.867 10.9688C106.805 10.9688 107.648 11.1172 108.398 11.4141C109.148 11.7109 109.781 12.1328 110.297 12.6797C110.812 13.2109 111.211 13.8594 111.492 14.625C111.773 15.375 111.914 16.2188 111.914 17.1562C111.914 18.0469 111.758 18.9219 111.445 19.7812C111.133 20.6406 110.719 21.4531 110.203 22.2188C109.688 22.9844 109.102 23.6953 108.445 24.3516C107.805 24.9922 107.141 25.5547 106.453 26.0391C105.781 26.5078 105.125 26.875 104.484 27.1406C103.844 27.4062 103.281 27.5391 102.797 27.5391C102.375 27.5391 101.992 27.4453 101.648 27.2578C101.32 27.0547 101.039 26.8125 100.805 26.5312C100.586 26.2344 100.414 25.9297 100.289 25.6172C100.164 25.2891 100.102 25 100.102 24.75C100.102 24.5469 100.125 24.4141 100.172 24.3516C100.234 24.2891 100.312 24.2656 100.406 24.2812C100.516 24.2812 100.648 24.3047 100.805 24.3516C100.961 24.3828 101.141 24.3984 101.344 24.3984C102 24.3984 102.727 24.1719 103.523 23.7188C104.32 23.2656 105.07 22.6875 105.773 21.9844C106.477 21.2812 107.062 20.5078 107.531 19.6641C108.016 18.8203 108.258 18 108.258 17.2031C108.258 16.3906 108.055 15.75 107.648 15.2812C107.258 14.8125 106.586 14.5781 105.633 14.5781C105.039 14.5781 104.391 14.6953 103.688 14.9297C103 15.1484 102.305 15.4609 101.602 15.8672C100.898 16.2734 100.219 16.7656 99.5625 17.3438C98.9062 17.9219 98.3281 18.5625 97.8281 19.2656C97.3281 19.9531 96.9219 20.7031 96.6094 21.5156C96.3125 22.3125 96.1641 23.1484 96.1641 24.0234C96.1641 24.9453 96.3281 25.7734 96.6562 26.5078C97 27.2266 97.4453 27.8828 97.9922 28.4766C98.5547 29.0703 99.1875 29.6172 99.8906 30.1172C100.594 30.6172 101.312 31.1172 102.047 31.6172C102.781 32.1016 103.5 32.6094 104.203 33.1406C104.906 33.6562 105.531 34.2344 106.078 34.875C106.641 35.5 107.086 36.2031 107.414 36.9844C107.758 37.75 107.93 38.6328 107.93 39.6328C107.93 40.6016 107.742 41.5234 107.367 42.3984C107.008 43.2578 106.508 44.0078 105.867 44.6484C105.227 45.2891 104.469 45.7969 103.594 46.1719C102.719 46.5469 101.781 46.7344 100.781 46.7344Z" fill="#E24C82"/>
<path d="M0.960022 80.256C0.960022 79.984 0.992022 79.728 1.05602 79.488C1.13602 79.232 1.23202 79 1.34402 78.792C1.47202 78.44 1.60802 78.04 1.75202 77.592C1.89602 77.144 2.07202 76.632 2.28002 76.056C2.26402 76.008 2.25602 75.952 2.25602 75.888C2.25602 75.824 2.25602 75.776 2.25602 75.744C2.25602 75.424 2.29602 75.16 2.37602 74.952C2.45602 74.728 2.62402 74.536 2.88002 74.376L4.96802 69.48C5.06402 69.288 5.16802 69.072 5.28002 68.832C5.39202 68.592 5.51202 68.376 5.64002 68.184C5.76802 67.976 5.90402 67.8 6.04802 67.656C6.19202 67.512 6.34402 67.44 6.50402 67.44C6.95202 67.44 7.36002 67.696 7.72802 68.208C8.09602 68.704 8.43202 69.336 8.73602 70.104C9.05602 70.872 9.34402 71.72 9.60002 72.648C9.85602 73.576 10.088 74.464 10.296 75.312C10.52 76.144 10.72 76.88 10.896 77.52C11.088 78.16 11.272 78.584 11.448 78.792C11.56 78.936 11.656 79.056 11.736 79.152C11.816 79.232 11.88 79.32 11.928 79.416C11.976 79.496 12.008 79.6 12.024 79.728C12.056 79.84 12.072 79.992 12.072 80.184C12.072 80.44 12.032 80.64 11.952 80.784C11.872 80.912 11.776 81.008 11.664 81.072C11.568 81.152 11.456 81.2 11.328 81.216C11.216 81.232 11.12 81.24 11.04 81.24C10.88 81.24 10.728 81.152 10.584 80.976C10.44 80.784 10.304 80.56 10.176 80.304C10.064 80.048 9.96002 79.776 9.86402 79.488C9.78402 79.2 9.72002 78.952 9.67202 78.744C9.54402 78.296 9.43202 77.928 9.33602 77.64C9.25602 77.352 9.16802 77.128 9.07202 76.968C8.99202 76.808 8.88802 76.696 8.76002 76.632C8.64802 76.568 8.48802 76.536 8.28002 76.536H4.24802C4.13602 76.536 4.04002 76.544 3.96002 76.56C3.89602 76.576 3.83202 76.624 3.76802 76.704C3.72002 76.768 3.67202 76.864 3.62402 76.992C3.57602 77.12 3.51202 77.296 3.43202 77.52L2.68802 79.656C2.65602 79.976 2.60002 80.232 2.52002 80.424C2.44002 80.616 2.34402 80.768 2.23202 80.88C2.13602 80.976 2.04002 81.04 1.94402 81.072C1.84802 81.12 1.78402 81.144 1.75202 81.144C1.49602 81.144 1.29602 81.088 1.15202 80.976C1.02402 80.848 0.960022 80.608 0.960022 80.256ZM4.58402 74.304C5.04802 74.32 5.46402 74.336 5.83202 74.352C6.20002 74.352 6.59202 74.352 7.00802 74.352C7.20002 74.352 7.40002 74.352 7.60802 74.352C7.81602 74.352 8.04002 74.344 8.28002 74.328C8.16802 74.008 8.02402 73.64 7.84802 73.224C7.68802 72.792 7.50402 72.36 7.29602 71.928L6.40802 70.032C6.32802 70.08 6.20802 70.272 6.04802 70.608C5.88802 70.944 5.71202 71.336 5.52002 71.784C5.34402 72.232 5.16802 72.688 4.99202 73.152C4.81602 73.616 4.68002 74 4.58402 74.304ZM13.9176 76.296C13.9176 75.544 14.0296 74.816 14.2536 74.112C14.4776 73.392 14.7976 72.76 15.2136 72.216C15.6456 71.656 16.1736 71.216 16.7976 70.896C17.4216 70.56 18.1336 70.392 18.9336 70.392C19.6056 70.392 20.1976 70.576 20.7096 70.944C21.2216 71.312 21.5096 71.8 21.5736 72.408C21.5736 72.232 21.5736 71.984 21.5736 71.664C21.5736 71.328 21.5736 70.952 21.5736 70.536C21.5896 70.12 21.5976 69.696 21.5976 69.264C21.5976 68.816 21.5976 68.384 21.5976 67.968C21.6136 67.552 21.6216 67.184 21.6216 66.864C21.6216 66.528 21.6216 66.272 21.6216 66.096C21.6216 65.328 21.9016 64.944 22.4616 64.944C22.6856 64.944 22.8376 65.056 22.9176 65.28C23.0136 65.504 23.0616 65.744 23.0616 66C23.0616 66.128 23.0616 66.352 23.0616 66.672C23.0616 66.976 23.0536 67.304 23.0376 67.656C23.0376 67.992 23.0376 68.312 23.0376 68.616C23.0376 68.92 23.0376 69.144 23.0376 69.288C23.0056 70.424 22.9816 71.392 22.9656 72.192C22.9496 72.976 22.9336 73.624 22.9176 74.136C22.9176 74.648 22.9096 75.048 22.8936 75.336C22.8936 75.624 22.8936 75.84 22.8936 75.984C22.8936 76.112 22.8936 76.192 22.8936 76.224C22.8936 76.256 22.8936 76.28 22.8936 76.296L22.8696 78.192C22.8696 78.608 22.8536 79 22.8216 79.368C22.8056 79.72 22.7656 80.032 22.7016 80.304C22.6376 80.56 22.5416 80.768 22.4136 80.928C22.2856 81.088 22.1176 81.168 21.9096 81.168C21.7336 81.168 21.5896 81.04 21.4776 80.784C21.3656 80.528 21.2696 80.28 21.1896 80.04C20.9976 80.232 20.7576 80.4 20.4696 80.544C20.1816 80.672 19.8856 80.784 19.5816 80.88C19.2776 80.96 18.9736 81.024 18.6696 81.072C18.3816 81.12 18.1336 81.144 17.9256 81.144C17.2536 81.144 16.6616 81.032 16.1496 80.808C15.6536 80.568 15.2376 80.232 14.9016 79.8C14.5656 79.368 14.3176 78.856 14.1576 78.264C13.9976 77.672 13.9176 77.016 13.9176 76.296ZM15.4536 76.224C15.4536 77.152 15.7176 77.88 16.2456 78.408C16.7736 78.92 17.4216 79.176 18.1896 79.176C18.6536 79.176 19.0696 79.128 19.4376 79.032C19.8056 78.92 20.1176 78.792 20.3736 78.648C20.6296 78.504 20.8296 78.352 20.9736 78.192C21.1336 78.032 21.2296 77.888 21.2616 77.76C21.3416 77.488 21.3816 77.2 21.3816 76.896C21.3976 76.592 21.4056 76.296 21.4056 76.008V75.36C21.4056 74.976 21.3336 74.616 21.1896 74.28C21.0616 73.928 20.8856 73.616 20.6616 73.344C20.4376 73.072 20.1736 72.856 19.8696 72.696C19.5816 72.536 19.2776 72.456 18.9576 72.456C18.4136 72.456 17.9256 72.552 17.4936 72.744C17.0616 72.92 16.6936 73.176 16.3896 73.512C16.0856 73.848 15.8536 74.248 15.6936 74.712C15.5336 75.176 15.4536 75.68 15.4536 76.224ZM25.5276 79.896C25.5276 78.92 25.5356 77.832 25.5516 76.632C25.5676 75.432 25.5836 74.216 25.5996 72.984C25.6316 71.736 25.6556 70.512 25.6716 69.312C25.6876 68.112 25.6956 67.032 25.6956 66.072C25.6956 65.944 25.7116 65.8 25.7436 65.64C25.7916 65.48 25.8556 65.328 25.9356 65.184C26.0156 65.04 26.1116 64.92 26.2236 64.824C26.3356 64.712 26.4636 64.656 26.6076 64.656C26.7836 64.656 26.9356 64.752 27.0636 64.944C27.2076 65.12 27.2796 65.336 27.2796 65.592V65.64C27.2796 66.536 27.2556 67.472 27.2076 68.448C27.1596 69.424 27.1356 70.368 27.1356 71.28L27.0876 72.6C27.1356 72.296 27.2556 72.016 27.4476 71.76C27.6396 71.504 27.8636 71.288 28.1196 71.112C28.3756 70.92 28.6476 70.776 28.9356 70.68C29.2236 70.584 29.4956 70.536 29.7516 70.536C30.6956 70.536 31.4636 70.704 32.0556 71.04C32.6476 71.376 33.1036 71.8 33.4236 72.312C33.7596 72.824 33.9836 73.392 34.0956 74.016C34.2236 74.624 34.2876 75.2 34.2876 75.744L34.1676 79.344C34.1676 79.488 34.1596 79.672 34.1436 79.896C34.1276 80.12 34.0956 80.336 34.0476 80.544C33.9996 80.736 33.9196 80.904 33.8076 81.048C33.6956 81.192 33.5356 81.264 33.3276 81.264C33.0556 81.264 32.8396 81.152 32.6796 80.928C32.5356 80.688 32.4636 80.4 32.4636 80.064C32.4636 79.36 32.5036 78.704 32.5836 78.096C32.6796 77.472 32.7276 76.824 32.7276 76.152V75.912C32.7276 75.576 32.7036 75.216 32.6556 74.832C32.6076 74.448 32.4796 74.096 32.2716 73.776C32.0636 73.44 31.7596 73.168 31.3596 72.96C30.9596 72.752 30.4156 72.648 29.7276 72.648C29.3916 72.648 29.0636 72.712 28.7436 72.84C28.4236 72.952 28.1436 73.104 27.9036 73.296C27.6636 73.472 27.4636 73.672 27.3036 73.896C27.1596 74.104 27.0876 74.304 27.0876 74.496V79.68C27.0876 79.84 27.0796 80 27.0636 80.16C27.0476 80.32 27.0156 80.472 26.9676 80.616C26.9356 80.744 26.8716 80.848 26.7756 80.928C26.6796 81.008 26.5436 81.048 26.3676 81.048C26.3036 81.048 26.2236 81.04 26.1276 81.024C26.0316 81.008 25.9356 80.96 25.8396 80.88C25.7596 80.8 25.6876 80.688 25.6236 80.544C25.5596 80.384 25.5276 80.168 25.5276 79.896ZM38.1758 68.064C38.0638 68.064 37.9358 68.048 37.7918 68.016C37.6478 67.984 37.5118 67.928 37.3838 67.848C37.2558 67.752 37.1438 67.632 37.0478 67.488C36.9678 67.328 36.9277 67.12 36.9277 66.864C36.9277 66.688 36.9597 66.512 37.0238 66.336C37.1038 66.16 37.1998 66.008 37.3118 65.88C37.4238 65.736 37.5438 65.624 37.6718 65.544C37.8158 65.448 37.9518 65.4 38.0798 65.4C38.3358 65.4 38.5838 65.488 38.8238 65.664C39.0798 65.84 39.2078 66.184 39.2078 66.696C39.2078 67.608 38.8638 68.064 38.1758 68.064ZM36.8318 80.136C36.8158 80.056 36.7918 79.864 36.7598 79.56C36.7438 79.24 36.7358 78.672 36.7358 77.856C36.7358 77.536 36.7358 77.128 36.7358 76.632C36.7358 76.12 36.7438 75.592 36.7598 75.048C36.7918 74.488 36.8318 73.928 36.8798 73.368C36.9438 72.808 37.0158 72.304 37.0958 71.856C37.1918 71.408 37.3118 71.048 37.4558 70.776C37.5998 70.488 37.7758 70.344 37.9838 70.344C38.2398 70.344 38.3918 70.456 38.4398 70.68C38.5038 70.904 38.5358 71.168 38.5358 71.472C38.5038 72.144 38.4558 72.904 38.3918 73.752C38.3278 74.584 38.2958 75.4 38.2958 76.2C38.2958 76.792 38.3438 77.448 38.4398 78.168C38.5358 78.872 38.5838 79.504 38.5838 80.064C38.5838 80.448 38.5038 80.744 38.3438 80.952C38.1838 81.144 38.0158 81.24 37.8398 81.24C37.5678 81.24 37.3518 81.16 37.1918 81C37.0318 80.84 36.9118 80.552 36.8318 80.136ZM45.1986 81.12C44.6226 81.12 44.1586 80.984 43.8066 80.712C43.4546 80.424 43.1826 80.048 42.9906 79.584C42.7986 79.12 42.6626 78.592 42.5826 78C42.5186 77.408 42.4786 76.8 42.4626 76.176C42.4466 75.536 42.4306 74.912 42.4146 74.304C42.4146 73.696 42.3906 73.144 42.3426 72.648C42.1666 72.648 41.9826 72.656 41.7906 72.672C41.5986 72.688 41.3906 72.696 41.1666 72.696C41.1026 72.696 41.0146 72.672 40.9026 72.624C40.8066 72.576 40.7026 72.512 40.5906 72.432C40.4946 72.336 40.4066 72.224 40.3266 72.096C40.2626 71.968 40.2306 71.816 40.2306 71.64C40.2306 71.32 40.3266 71.048 40.5186 70.824C40.7106 70.6 40.9266 70.488 41.1666 70.488C41.3746 70.488 41.5826 70.496 41.7906 70.512C41.9986 70.512 42.2226 70.52 42.4626 70.536C42.4626 70.328 42.4706 70.008 42.4866 69.576C42.5186 69.144 42.5666 68.72 42.6306 68.304C42.7106 67.888 42.8226 67.52 42.9666 67.2C43.1106 66.88 43.3026 66.72 43.5426 66.72C43.6706 66.72 43.8066 66.816 43.9506 67.008C44.1106 67.184 44.1906 67.424 44.1906 67.728C44.1906 68.448 44.1666 68.984 44.1186 69.336C44.0866 69.688 44.0546 69.952 44.0226 70.128L43.9506 70.56C44.5266 70.56 45.1026 70.552 45.6786 70.536C46.2706 70.52 46.8626 70.512 47.4546 70.512C47.5666 70.512 47.6626 70.552 47.7426 70.632C47.8226 70.712 47.8866 70.816 47.9346 70.944C47.9826 71.056 48.0146 71.184 48.0306 71.328C48.0626 71.456 48.0786 71.576 48.0786 71.688C48.0786 72.024 47.9906 72.28 47.8146 72.456C47.6546 72.616 47.4946 72.696 47.3346 72.696L43.9266 72.648C43.9266 72.792 43.9186 72.984 43.9026 73.224C43.9026 73.448 43.9026 73.696 43.9026 73.968C43.9026 74.24 43.8946 74.528 43.8786 74.832C43.8786 75.12 43.8786 75.4 43.8786 75.672C43.8786 76.104 43.8946 76.52 43.9266 76.92C43.9586 77.304 44.0146 77.648 44.0946 77.952C44.1906 78.256 44.3186 78.504 44.4786 78.696C44.6386 78.872 44.8546 78.96 45.1266 78.96C45.3186 78.96 45.5106 78.92 45.7026 78.84C45.9106 78.76 46.0946 78.672 46.2546 78.576C46.4306 78.464 46.5746 78.368 46.6866 78.288C46.7986 78.208 46.8706 78.168 46.9026 78.168C47.0946 78.168 47.2226 78.232 47.2866 78.36C47.3506 78.472 47.3826 78.64 47.3826 78.864C47.3826 79.104 47.3026 79.36 47.1426 79.632C46.9986 79.888 46.8146 80.128 46.5906 80.352C46.3666 80.576 46.1266 80.76 45.8706 80.904C45.6146 81.048 45.3906 81.12 45.1986 81.12ZM51.4179 68.064C51.3059 68.064 51.1779 68.048 51.0339 68.016C50.8899 67.984 50.7539 67.928 50.6259 67.848C50.4979 67.752 50.3859 67.632 50.2899 67.488C50.2099 67.328 50.1699 67.12 50.1699 66.864C50.1699 66.688 50.2019 66.512 50.2659 66.336C50.3459 66.16 50.4419 66.008 50.5539 65.88C50.6659 65.736 50.7859 65.624 50.9139 65.544C51.0579 65.448 51.1939 65.4 51.3219 65.4C51.5779 65.4 51.8259 65.488 52.0659 65.664C52.3219 65.84 52.4499 66.184 52.4499 66.696C52.4499 67.608 52.1059 68.064 51.4179 68.064ZM50.0739 80.136C50.0579 80.056 50.0339 79.864 50.0019 79.56C49.9859 79.24 49.9779 78.672 49.9779 77.856C49.9779 77.536 49.9779 77.128 49.9779 76.632C49.9779 76.12 49.9859 75.592 50.0019 75.048C50.0339 74.488 50.0739 73.928 50.1219 73.368C50.1859 72.808 50.2579 72.304 50.3379 71.856C50.4339 71.408 50.5539 71.048 50.6979 70.776C50.8419 70.488 51.0179 70.344 51.2259 70.344C51.4819 70.344 51.6339 70.456 51.6819 70.68C51.7459 70.904 51.7779 71.168 51.7779 71.472C51.7459 72.144 51.6979 72.904 51.6339 73.752C51.5699 74.584 51.5379 75.4 51.5379 76.2C51.5379 76.792 51.5859 77.448 51.6819 78.168C51.7779 78.872 51.8259 79.504 51.8259 80.064C51.8259 80.448 51.7459 80.744 51.5859 80.952C51.4259 81.144 51.2579 81.24 51.0819 81.24C50.8099 81.24 50.5939 81.16 50.4339 81C50.2739 80.84 50.1539 80.552 50.0739 80.136ZM53.4728 76.872C53.4728 76.088 53.6088 75.312 53.8808 74.544C54.1528 73.76 54.5288 73.064 55.0088 72.456C55.4888 71.832 56.0408 71.336 56.6648 70.968C57.3048 70.584 57.9848 70.392 58.7048 70.392C59.2488 70.392 59.7608 70.52 60.2408 70.776C60.7368 71.032 61.1608 71.368 61.5128 71.784C61.8648 72.184 62.1448 72.648 62.3528 73.176C62.5608 73.688 62.6648 74.2 62.6648 74.712C62.6648 74.984 62.6488 75.248 62.6168 75.504C62.5848 75.744 62.5448 75.992 62.4968 76.248C62.4648 76.488 62.4328 76.744 62.4008 77.016C62.3688 77.288 62.3528 77.592 62.3528 77.928C62.3528 78.376 62.4168 78.688 62.5448 78.864C62.6728 79.04 62.8568 79.128 63.0968 79.128C63.2408 79.128 63.3768 79.048 63.5048 78.888C63.6488 78.728 63.7768 78.632 63.8888 78.6C64.3048 78.6 64.5128 78.904 64.5128 79.512C64.5128 79.704 64.4728 79.896 64.3928 80.088C64.3128 80.28 64.2008 80.456 64.0568 80.616C63.9128 80.76 63.7448 80.888 63.5528 81C63.3608 81.096 63.1528 81.144 62.9288 81.144C62.7048 81.144 62.4808 81.08 62.2568 80.952C62.0488 80.824 61.8568 80.664 61.6808 80.472C61.5048 80.264 61.3608 80.032 61.2488 79.776C61.1368 79.504 61.0808 79.224 61.0808 78.936C60.6008 79.544 60.0568 80.08 59.4488 80.544C58.8568 81.008 58.2008 81.24 57.4808 81.24C57.0168 81.24 56.5448 81.128 56.0648 80.904C55.6008 80.68 55.1768 80.376 54.7928 79.992C54.4088 79.592 54.0888 79.128 53.8328 78.6C53.5928 78.056 53.4728 77.48 53.4728 76.872ZM54.9608 76.8C54.9608 77.152 55.0408 77.472 55.2008 77.76C55.3768 78.048 55.6008 78.296 55.8728 78.504C56.1608 78.696 56.4728 78.848 56.8088 78.96C57.1608 79.072 57.5048 79.128 57.8408 79.128C58.5448 79.128 59.1048 78.976 59.5208 78.672C59.9368 78.352 60.2648 77.96 60.5048 77.496C60.7448 77.016 60.9128 76.504 61.0088 75.96C61.1048 75.4 61.1928 74.872 61.2728 74.376C61.2728 74.2 61.1848 74.008 61.0088 73.8C60.8488 73.576 60.6488 73.376 60.4088 73.2C60.1688 73.008 59.9048 72.848 59.6168 72.72C59.3448 72.592 59.0968 72.528 58.8728 72.528C58.2808 72.528 57.7448 72.656 57.2648 72.912C56.7848 73.168 56.3688 73.504 56.0168 73.92C55.6808 74.32 55.4168 74.776 55.2248 75.288C55.0488 75.8 54.9608 76.304 54.9608 76.8ZM65.4908 75.48C65.4588 75.096 65.4348 74.784 65.4188 74.544C65.4188 74.288 65.4108 74.08 65.3948 73.92C65.3948 73.76 65.3948 73.64 65.3948 73.56C65.3948 73.48 65.3948 73.4 65.3948 73.32V72.984C65.3948 72.728 65.4028 72.456 65.4188 72.168C65.4508 71.864 65.4908 71.584 65.5388 71.328C65.6028 71.072 65.6828 70.856 65.7788 70.68C65.8748 70.504 66.0028 70.416 66.1628 70.416C66.7228 70.416 67.0028 70.904 67.0028 71.88C67.0028 72.056 66.9948 72.24 66.9788 72.432C66.9628 72.624 66.9388 72.832 66.9068 73.056C67.0348 72.592 67.2428 72.192 67.5308 71.856C67.8348 71.52 68.1628 71.24 68.5148 71.016C68.8668 70.792 69.2108 70.624 69.5468 70.512C69.8988 70.4 70.1948 70.344 70.4348 70.344C71.1868 70.344 71.8108 70.52 72.3068 70.872C72.8028 71.224 73.1948 71.68 73.4828 72.24C73.7708 72.8 73.9708 73.424 74.0828 74.112C74.1948 74.8 74.2508 75.48 74.2508 76.152C74.2508 76.712 74.2348 77.296 74.2028 77.904C74.1868 78.512 74.1388 79.072 74.0588 79.584C73.9948 80.08 73.8908 80.496 73.7468 80.832C73.6028 81.152 73.4108 81.312 73.1708 81.312C72.9308 81.312 72.7228 81.248 72.5468 81.12C72.3868 81.008 72.3068 80.664 72.3068 80.088C72.3068 79.8 72.3308 79.528 72.3788 79.272C72.4268 79 72.4748 78.728 72.5228 78.456C72.5868 78.184 72.6428 77.912 72.6908 77.64C72.7388 77.352 72.7628 77.056 72.7628 76.752C72.7628 76.32 72.7308 75.856 72.6668 75.36C72.6188 74.864 72.4988 74.4 72.3068 73.968C72.1148 73.536 71.8428 73.176 71.4908 72.888C71.1388 72.6 70.6668 72.456 70.0748 72.456C69.8508 72.456 69.5948 72.512 69.3068 72.624C69.0188 72.72 68.7308 72.864 68.4428 73.056C68.1548 73.232 67.8748 73.448 67.6028 73.704C67.3468 73.96 67.1228 74.24 66.9308 74.544C66.9308 74.912 66.9228 75.328 66.9068 75.792C66.8908 76.24 66.8828 76.632 66.8828 76.968C66.8828 77.48 66.9388 77.96 67.0508 78.408C67.1788 78.856 67.2428 79.336 67.2428 79.848C67.2428 80.2 67.2028 80.504 67.1228 80.76C67.0428 81.016 66.8268 81.144 66.4748 81.144C66.3468 81.144 66.2188 81.128 66.0908 81.096C65.9788 81.08 65.8668 81.024 65.7548 80.928C65.6588 80.832 65.5788 80.696 65.5148 80.52C65.4668 80.344 65.4428 80.104 65.4428 79.8L65.4908 75.48ZM78.1367 68.064C78.0247 68.064 77.8967 68.048 77.7527 68.016C77.6087 67.984 77.4727 67.928 77.3447 67.848C77.2167 67.752 77.1047 67.632 77.0087 67.488C76.9287 67.328 76.8887 67.12 76.8887 66.864C76.8887 66.688 76.9207 66.512 76.9847 66.336C77.0647 66.16 77.1607 66.008 77.2727 65.88C77.3847 65.736 77.5047 65.624 77.6327 65.544C77.7767 65.448 77.9127 65.4 78.0407 65.4C78.2967 65.4 78.5447 65.488 78.7847 65.664C79.0407 65.84 79.1687 66.184 79.1687 66.696C79.1687 67.608 78.8247 68.064 78.1367 68.064ZM76.7927 80.136C76.7767 80.056 76.7527 79.864 76.7207 79.56C76.7047 79.24 76.6967 78.672 76.6967 77.856C76.6967 77.536 76.6967 77.128 76.6967 76.632C76.6967 76.12 76.7047 75.592 76.7207 75.048C76.7527 74.488 76.7927 73.928 76.8407 73.368C76.9047 72.808 76.9767 72.304 77.0567 71.856C77.1527 71.408 77.2727 71.048 77.4167 70.776C77.5607 70.488 77.7367 70.344 77.9447 70.344C78.2007 70.344 78.3527 70.456 78.4007 70.68C78.4647 70.904 78.4967 71.168 78.4967 71.472C78.4647 72.144 78.4167 72.904 78.3527 73.752C78.2887 74.584 78.2567 75.4 78.2567 76.2C78.2567 76.792 78.3047 77.448 78.4007 78.168C78.4967 78.872 78.5447 79.504 78.5447 80.064C78.5447 80.448 78.4647 80.744 78.3047 80.952C78.1447 81.144 77.9767 81.24 77.8007 81.24C77.5287 81.24 77.3127 81.16 77.1527 81C76.9927 80.84 76.8727 80.552 76.7927 80.136ZM86.8999 78.768C86.8999 78.672 86.9159 78.544 86.9479 78.384C86.9959 78.208 87.0519 78.04 87.1159 77.88C87.1799 77.72 87.2599 77.584 87.3559 77.472C87.4519 77.344 87.5479 77.28 87.6439 77.28C87.6919 77.28 87.7799 77.408 87.9079 77.664C88.0679 78 88.2199 78.256 88.3639 78.432C88.5079 78.608 88.6519 78.744 88.7959 78.84C88.9559 78.92 89.1319 78.968 89.3239 78.984C89.5319 79 89.7719 79.008 90.0439 79.008C90.3799 79.008 90.7239 78.96 91.0759 78.864C91.4279 78.752 91.7479 78.616 92.0359 78.456C92.3239 78.28 92.5639 78.096 92.7559 77.904C92.9479 77.696 93.0439 77.504 93.0439 77.328C93.0439 77.024 92.8759 76.792 92.5399 76.632C92.2199 76.472 91.8119 76.328 91.3159 76.2C90.8359 76.072 90.3079 75.936 89.7319 75.792C89.1559 75.648 88.6199 75.456 88.1239 75.216C87.6439 74.96 87.2359 74.624 86.8999 74.208C86.5799 73.792 86.4199 73.24 86.4199 72.552C86.4199 71.768 86.5639 71.064 86.8519 70.44C87.1559 69.816 87.5319 69.296 87.9799 68.88C88.4439 68.464 88.9559 68.144 89.5159 67.92C90.0919 67.696 90.6599 67.584 91.2199 67.584C91.6039 67.584 91.9479 67.656 92.2519 67.8C92.5559 67.928 92.8199 68.112 93.0439 68.352C93.2679 68.576 93.4359 68.84 93.5479 69.144C93.6759 69.448 93.7399 69.76 93.7399 70.08C93.7399 70.288 93.7319 70.512 93.7159 70.752C93.6999 70.976 93.6679 71.184 93.6199 71.376C93.5719 71.568 93.4919 71.728 93.3799 71.856C93.2839 71.984 93.1479 72.048 92.9719 72.048C92.7479 72.048 92.6119 71.944 92.5639 71.736C92.5319 71.528 92.5159 71.288 92.5159 71.016C92.5159 70.504 92.3719 70.16 92.0839 69.984C91.7959 69.792 91.4119 69.696 90.9319 69.696C90.6599 69.696 90.3479 69.768 89.9959 69.912C89.6599 70.056 89.3319 70.256 89.0119 70.512C88.7079 70.752 88.4439 71.032 88.2199 71.352C88.0119 71.672 87.9079 72 87.9079 72.336C87.9079 72.688 88.0679 72.96 88.3879 73.152C88.7239 73.328 89.1399 73.48 89.6359 73.608C90.1319 73.72 90.6599 73.84 91.2199 73.968C91.7959 74.08 92.3319 74.264 92.8279 74.52C93.3239 74.76 93.7319 75.088 94.0519 75.504C94.3879 75.92 94.5559 76.488 94.5559 77.208C94.5559 77.928 94.3639 78.544 93.9799 79.056C93.6119 79.552 93.1719 79.96 92.6599 80.28C92.1479 80.584 91.6199 80.808 91.0759 80.952C90.5479 81.08 90.1239 81.144 89.8039 81.144C89.5639 81.144 89.2759 81.12 88.9399 81.072C88.6039 81.024 88.2839 80.92 87.9799 80.76C87.6919 80.6 87.4359 80.36 87.2119 80.04C87.0039 79.72 86.8999 79.296 86.8999 78.768ZM100.398 81.312C99.5816 81.312 98.9256 81.112 98.4296 80.712C97.9496 80.296 97.5816 79.792 97.3256 79.2C97.0696 78.608 96.9016 77.984 96.8216 77.328C96.7576 76.656 96.7256 76.064 96.7256 75.552C96.7256 75.056 96.7416 74.512 96.7736 73.92C96.8216 73.328 96.9016 72.776 97.0136 72.264C97.1256 71.736 97.2696 71.296 97.4456 70.944C97.6376 70.592 97.8696 70.416 98.1416 70.416C98.3656 70.416 98.5176 70.488 98.5976 70.632C98.6936 70.776 98.7416 70.968 98.7416 71.208C98.7416 71.448 98.7096 71.728 98.6456 72.048C98.5976 72.352 98.5416 72.68 98.4776 73.032C98.4136 73.384 98.3496 73.752 98.2856 74.136C98.2376 74.52 98.2136 74.904 98.2136 75.288C98.2136 75.592 98.2376 75.968 98.2856 76.416C98.3336 76.864 98.4296 77.296 98.5736 77.712C98.7176 78.112 98.9256 78.464 99.1976 78.768C99.4696 79.056 99.8376 79.2 100.302 79.2C100.67 79.2 100.998 79.128 101.286 78.984C101.59 78.824 101.862 78.632 102.102 78.408C102.342 78.168 102.55 77.904 102.726 77.616C102.918 77.328 103.102 77.048 103.278 76.776C103.31 76.264 103.334 75.832 103.35 75.48C103.382 75.112 103.406 74.76 103.422 74.424L103.47 71.352C103.47 70.984 103.566 70.736 103.758 70.608C103.95 70.48 104.118 70.416 104.262 70.416C104.406 70.416 104.55 70.488 104.694 70.632C104.838 70.776 104.91 70.992 104.91 71.28L104.766 80.064C104.75 80.48 104.686 80.76 104.574 80.904C104.462 81.048 104.286 81.12 104.046 81.12C103.902 81.12 103.774 81.096 103.662 81.048C103.55 81.016 103.462 80.944 103.398 80.832C103.334 80.704 103.286 80.528 103.254 80.304C103.222 80.064 103.206 79.752 103.206 79.368C103.206 79.24 103.206 79.096 103.206 78.936C103.206 78.776 103.214 78.608 103.23 78.432C103.134 78.848 102.982 79.232 102.774 79.584C102.582 79.936 102.35 80.24 102.078 80.496C101.822 80.752 101.55 80.952 101.262 81.096C100.974 81.24 100.686 81.312 100.398 81.312ZM108.094 79.872C108.094 79.744 108.174 79.528 108.334 79.224C108.494 78.904 108.694 78.536 108.934 78.12C109.174 77.688 109.438 77.224 109.726 76.728C110.03 76.232 110.326 75.744 110.614 75.264C110.902 74.768 111.158 74.296 111.382 73.848C111.622 73.4 111.806 73.016 111.934 72.696C111.902 72.68 111.782 72.672 111.574 72.672C110.998 72.672 110.43 72.712 109.87 72.792C109.326 72.856 108.766 72.888 108.19 72.888C108.046 72.888 107.91 72.888 107.782 72.888C107.654 72.888 107.542 72.856 107.446 72.792C107.35 72.728 107.27 72.632 107.206 72.504C107.142 72.376 107.11 72.176 107.11 71.904C107.11 71.792 107.118 71.664 107.134 71.52C107.166 71.376 107.206 71.24 107.254 71.112C107.302 70.984 107.358 70.872 107.422 70.776C107.502 70.68 107.59 70.632 107.686 70.632H111.046C111.366 70.632 111.686 70.608 112.006 70.56C112.342 70.496 112.67 70.464 112.99 70.464C113.134 70.464 113.254 70.52 113.35 70.632C113.446 70.728 113.518 70.856 113.566 71.016C113.614 71.16 113.646 71.32 113.662 71.496C113.694 71.656 113.71 71.8 113.71 71.928C113.614 72.424 113.47 72.896 113.278 73.344C113.102 73.792 112.87 74.28 112.582 74.808C112.294 75.336 111.95 75.936 111.55 76.608C111.166 77.264 110.71 78.056 110.182 78.984C110.39 79.048 110.67 79.08 111.022 79.08C111.518 79.08 112.046 79.024 112.606 78.912C113.182 78.784 113.654 78.608 114.022 78.384C114.086 78.352 114.142 78.336 114.19 78.336C114.318 78.336 114.422 78.4 114.502 78.528C114.598 78.64 114.678 78.784 114.742 78.96C114.806 79.12 114.846 79.288 114.862 79.464C114.894 79.64 114.91 79.792 114.91 79.92C114.91 80.192 114.814 80.464 114.622 80.736C114.43 81.008 114.174 81.144 113.854 81.144C113.678 81.144 113.51 81.12 113.35 81.072C113.19 81.04 113.022 81.024 112.846 81.024C112.382 81.024 111.91 81.032 111.43 81.048C110.966 81.08 110.47 81.096 109.942 81.096C109.734 81.096 109.518 81.088 109.294 81.072C109.086 81.056 108.886 81.016 108.694 80.952C108.518 80.872 108.374 80.752 108.262 80.592C108.15 80.416 108.094 80.176 108.094 79.872ZM115.723 76.872C115.723 76.088 115.859 75.312 116.131 74.544C116.403 73.76 116.779 73.064 117.259 72.456C117.739 71.832 118.291 71.336 118.915 70.968C119.555 70.584 120.235 70.392 120.955 70.392C121.499 70.392 122.011 70.52 122.491 70.776C122.987 71.032 123.411 71.368 123.763 71.784C124.115 72.184 124.395 72.648 124.603 73.176C124.811 73.688 124.915 74.2 124.915 74.712C124.915 74.984 124.899 75.248 124.867 75.504C124.835 75.744 124.795 75.992 124.747 76.248C124.715 76.488 124.683 76.744 124.651 77.016C124.619 77.288 124.603 77.592 124.603 77.928C124.603 78.376 124.667 78.688 124.795 78.864C124.923 79.04 125.107 79.128 125.347 79.128C125.491 79.128 125.627 79.048 125.755 78.888C125.899 78.728 126.027 78.632 126.139 78.6C126.555 78.6 126.763 78.904 126.763 79.512C126.763 79.704 126.723 79.896 126.643 80.088C126.563 80.28 126.451 80.456 126.307 80.616C126.163 80.76 125.995 80.888 125.803 81C125.611 81.096 125.403 81.144 125.179 81.144C124.955 81.144 124.731 81.08 124.507 80.952C124.299 80.824 124.107 80.664 123.931 80.472C123.755 80.264 123.611 80.032 123.499 79.776C123.387 79.504 123.331 79.224 123.331 78.936C122.851 79.544 122.307 80.08 121.699 80.544C121.107 81.008 120.451 81.24 119.731 81.24C119.267 81.24 118.795 81.128 118.315 80.904C117.851 80.68 117.427 80.376 117.043 79.992C116.659 79.592 116.339 79.128 116.083 78.6C115.843 78.056 115.723 77.48 115.723 76.872ZM117.211 76.8C117.211 77.152 117.291 77.472 117.451 77.76C117.627 78.048 117.851 78.296 118.123 78.504C118.411 78.696 118.723 78.848 119.059 78.96C119.411 79.072 119.755 79.128 120.091 79.128C120.795 79.128 121.355 78.976 121.771 78.672C122.187 78.352 122.515 77.96 122.755 77.496C122.995 77.016 123.163 76.504 123.259 75.96C123.355 75.4 123.443 74.872 123.523 74.376C123.523 74.2 123.435 74.008 123.259 73.8C123.099 73.576 122.899 73.376 122.659 73.2C122.419 73.008 122.155 72.848 121.867 72.72C121.595 72.592 121.347 72.528 121.123 72.528C120.531 72.528 119.995 72.656 119.515 72.912C119.035 73.168 118.619 73.504 118.267 73.92C117.931 74.32 117.667 74.776 117.475 75.288C117.299 75.8 117.211 76.304 117.211 76.8ZM127.741 75.48C127.709 75.096 127.685 74.784 127.669 74.544C127.669 74.288 127.661 74.08 127.645 73.92C127.645 73.76 127.645 73.64 127.645 73.56C127.645 73.48 127.645 73.4 127.645 73.32V72.984C127.645 72.728 127.653 72.456 127.669 72.168C127.701 71.864 127.741 71.584 127.789 71.328C127.853 71.072 127.933 70.856 128.029 70.68C128.125 70.504 128.253 70.416 128.413 70.416C128.973 70.416 129.253 70.904 129.253 71.88C129.253 72.056 129.245 72.24 129.229 72.432C129.213 72.624 129.189 72.832 129.157 73.056C129.285 72.592 129.493 72.192 129.781 71.856C130.085 71.52 130.413 71.24 130.765 71.016C131.117 70.792 131.461 70.624 131.797 70.512C132.149 70.4 132.445 70.344 132.685 70.344C133.437 70.344 134.061 70.52 134.557 70.872C135.053 71.224 135.445 71.68 135.733 72.24C136.021 72.8 136.221 73.424 136.333 74.112C136.445 74.8 136.501 75.48 136.501 76.152C136.501 76.712 136.485 77.296 136.453 77.904C136.437 78.512 136.389 79.072 136.309 79.584C136.245 80.08 136.141 80.496 135.997 80.832C135.853 81.152 135.661 81.312 135.421 81.312C135.181 81.312 134.973 81.248 134.797 81.12C134.637 81.008 134.557 80.664 134.557 80.088C134.557 79.8 134.581 79.528 134.629 79.272C134.677 79 134.725 78.728 134.773 78.456C134.837 78.184 134.893 77.912 134.941 77.64C134.989 77.352 135.013 77.056 135.013 76.752C135.013 76.32 134.981 75.856 134.917 75.36C134.869 74.864 134.749 74.4 134.557 73.968C134.365 73.536 134.093 73.176 133.741 72.888C133.389 72.6 132.917 72.456 132.325 72.456C132.101 72.456 131.845 72.512 131.557 72.624C131.269 72.72 130.981 72.864 130.693 73.056C130.405 73.232 130.125 73.448 129.853 73.704C129.597 73.96 129.373 74.24 129.181 74.544C129.181 74.912 129.173 75.328 129.157 75.792C129.141 76.24 129.133 76.632 129.133 76.968C129.133 77.48 129.189 77.96 129.301 78.408C129.429 78.856 129.493 79.336 129.493 79.848C129.493 80.2 129.453 80.504 129.373 80.76C129.293 81.016 129.077 81.144 128.725 81.144C128.597 81.144 128.469 81.128 128.341 81.096C128.229 81.08 128.117 81.024 128.005 80.928C127.909 80.832 127.829 80.696 127.765 80.52C127.717 80.344 127.693 80.104 127.693 79.8L127.741 75.48ZM143.027 81.12C142.451 81.12 141.987 80.984 141.635 80.712C141.283 80.424 141.011 80.048 140.819 79.584C140.627 79.12 140.491 78.592 140.411 78C140.347 77.408 140.307 76.8 140.291 76.176C140.275 75.536 140.259 74.912 140.243 74.304C140.243 73.696 140.219 73.144 140.171 72.648C139.995 72.648 139.811 72.656 139.619 72.672C139.427 72.688 139.219 72.696 138.995 72.696C138.931 72.696 138.843 72.672 138.731 72.624C138.635 72.576 138.531 72.512 138.419 72.432C138.323 72.336 138.235 72.224 138.155 72.096C138.091 71.968 138.059 71.816 138.059 71.64C138.059 71.32 138.155 71.048 138.347 70.824C138.539 70.6 138.755 70.488 138.995 70.488C139.203 70.488 139.411 70.496 139.619 70.512C139.827 70.512 140.051 70.52 140.291 70.536C140.291 70.328 140.299 70.008 140.315 69.576C140.347 69.144 140.395 68.72 140.459 68.304C140.539 67.888 140.651 67.52 140.795 67.2C140.939 66.88 141.131 66.72 141.371 66.72C141.499 66.72 141.635 66.816 141.779 67.008C141.939 67.184 142.019 67.424 142.019 67.728C142.019 68.448 141.995 68.984 141.947 69.336C141.915 69.688 141.883 69.952 141.851 70.128L141.779 70.56C142.355 70.56 142.931 70.552 143.507 70.536C144.099 70.52 144.691 70.512 145.283 70.512C145.395 70.512 145.491 70.552 145.571 70.632C145.651 70.712 145.715 70.816 145.763 70.944C145.811 71.056 145.843 71.184 145.859 71.328C145.891 71.456 145.907 71.576 145.907 71.688C145.907 72.024 145.819 72.28 145.643 72.456C145.483 72.616 145.323 72.696 145.163 72.696L141.755 72.648C141.755 72.792 141.747 72.984 141.731 73.224C141.731 73.448 141.731 73.696 141.731 73.968C141.731 74.24 141.723 74.528 141.707 74.832C141.707 75.12 141.707 75.4 141.707 75.672C141.707 76.104 141.723 76.52 141.755 76.92C141.787 77.304 141.843 77.648 141.923 77.952C142.019 78.256 142.147 78.504 142.307 78.696C142.467 78.872 142.683 78.96 142.955 78.96C143.147 78.96 143.339 78.92 143.531 78.84C143.739 78.76 143.923 78.672 144.083 78.576C144.259 78.464 144.403 78.368 144.515 78.288C144.627 78.208 144.699 78.168 144.731 78.168C144.923 78.168 145.051 78.232 145.115 78.36C145.179 78.472 145.211 78.64 145.211 78.864C145.211 79.104 145.131 79.36 144.971 79.632C144.827 79.888 144.643 80.128 144.419 80.352C144.195 80.576 143.955 80.76 143.699 80.904C143.443 81.048 143.219 81.12 143.027 81.12ZM147.59 79.896C147.59 78.92 147.598 77.832 147.614 76.632C147.63 75.432 147.646 74.216 147.662 72.984C147.694 71.736 147.718 70.512 147.734 69.312C147.75 68.112 147.758 67.032 147.758 66.072C147.758 65.944 147.774 65.8 147.806 65.64C147.854 65.48 147.918 65.328 147.998 65.184C148.078 65.04 148.174 64.92 148.286 64.824C148.398 64.712 148.526 64.656 148.67 64.656C148.846 64.656 148.998 64.752 149.126 64.944C149.27 65.12 149.342 65.336 149.342 65.592V65.64C149.342 66.536 149.318 67.472 149.27 68.448C149.222 69.424 149.198 70.368 149.198 71.28L149.15 72.6C149.198 72.296 149.318 72.016 149.51 71.76C149.702 71.504 149.926 71.288 150.182 71.112C150.438 70.92 150.71 70.776 150.998 70.68C151.286 70.584 151.558 70.536 151.814 70.536C152.758 70.536 153.526 70.704 154.118 71.04C154.71 71.376 155.166 71.8 155.486 72.312C155.822 72.824 156.046 73.392 156.158 74.016C156.286 74.624 156.35 75.2 156.35 75.744L156.23 79.344C156.23 79.488 156.222 79.672 156.206 79.896C156.19 80.12 156.158 80.336 156.11 80.544C156.062 80.736 155.982 80.904 155.87 81.048C155.758 81.192 155.598 81.264 155.39 81.264C155.118 81.264 154.902 81.152 154.742 80.928C154.598 80.688 154.526 80.4 154.526 80.064C154.526 79.36 154.566 78.704 154.646 78.096C154.742 77.472 154.79 76.824 154.79 76.152V75.912C154.79 75.576 154.766 75.216 154.718 74.832C154.67 74.448 154.542 74.096 154.334 73.776C154.126 73.44 153.822 73.168 153.422 72.96C153.022 72.752 152.478 72.648 151.79 72.648C151.454 72.648 151.126 72.712 150.806 72.84C150.486 72.952 150.206 73.104 149.966 73.296C149.726 73.472 149.526 73.672 149.366 73.896C149.222 74.104 149.15 74.304 149.15 74.496V79.68C149.15 79.84 149.142 80 149.126 80.16C149.11 80.32 149.078 80.472 149.03 80.616C148.998 80.744 148.934 80.848 148.838 80.928C148.742 81.008 148.606 81.048 148.43 81.048C148.366 81.048 148.286 81.04 148.19 81.024C148.094 81.008 147.998 80.96 147.902 80.88C147.822 80.8 147.75 80.688 147.686 80.544C147.622 80.384 147.59 80.168 147.59 79.896ZM160.238 68.064C160.126 68.064 159.998 68.048 159.854 68.016C159.71 67.984 159.574 67.928 159.446 67.848C159.318 67.752 159.206 67.632 159.11 67.488C159.03 67.328 158.99 67.12 158.99 66.864C158.99 66.688 159.022 66.512 159.086 66.336C159.166 66.16 159.262 66.008 159.374 65.88C159.486 65.736 159.606 65.624 159.734 65.544C159.878 65.448 160.014 65.4 160.142 65.4C160.398 65.4 160.646 65.488 160.886 65.664C161.142 65.84 161.27 66.184 161.27 66.696C161.27 67.608 160.926 68.064 160.238 68.064ZM158.894 80.136C158.878 80.056 158.854 79.864 158.822 79.56C158.806 79.24 158.798 78.672 158.798 77.856C158.798 77.536 158.798 77.128 158.798 76.632C158.798 76.12 158.806 75.592 158.822 75.048C158.854 74.488 158.894 73.928 158.942 73.368C159.006 72.808 159.078 72.304 159.158 71.856C159.254 71.408 159.374 71.048 159.518 70.776C159.662 70.488 159.838 70.344 160.046 70.344C160.302 70.344 160.454 70.456 160.502 70.68C160.566 70.904 160.598 71.168 160.598 71.472C160.566 72.144 160.518 72.904 160.454 73.752C160.39 74.584 160.358 75.4 160.358 76.2C160.358 76.792 160.406 77.448 160.502 78.168C160.598 78.872 160.646 79.504 160.646 80.064C160.646 80.448 160.566 80.744 160.406 80.952C160.246 81.144 160.078 81.24 159.902 81.24C159.63 81.24 159.414 81.16 159.254 81C159.094 80.84 158.974 80.552 158.894 80.136Z" fill="white"/>
</svg>
