<svg width="216" height="53" viewBox="0 0 216 53" fill="none" xmlns="http://www.w3.org/2000/svg">
<path d="M54.96 30.256C54.96 29.984 54.992 29.728 55.056 29.488C55.136 29.232 55.232 29 55.344 28.792C55.472 28.44 55.608 28.04 55.752 27.592C55.896 27.144 56.072 26.632 56.28 26.056C56.264 26.008 56.256 25.952 56.256 25.888C56.256 25.824 56.256 25.776 56.256 25.744C56.256 25.424 56.296 25.16 56.376 24.952C56.456 24.728 56.624 24.536 56.88 24.376L58.968 19.48C59.064 19.288 59.168 19.072 59.28 18.832C59.392 18.592 59.512 18.376 59.64 18.184C59.768 17.976 59.904 17.8 60.048 17.656C60.192 17.512 60.344 17.44 60.504 17.44C60.952 17.44 61.36 17.696 61.728 18.208C62.096 18.704 62.432 19.336 62.736 20.104C63.056 20.872 63.344 21.72 63.6 22.648C63.856 23.576 64.088 24.464 64.296 25.312C64.52 26.144 64.72 26.88 64.896 27.52C65.088 28.16 65.272 28.584 65.448 28.792C65.56 28.936 65.656 29.056 65.736 29.152C65.816 29.232 65.88 29.32 65.928 29.416C65.976 29.496 66.008 29.6 66.024 29.728C66.056 29.84 66.072 29.992 66.072 30.184C66.072 30.44 66.032 30.64 65.952 30.784C65.872 30.912 65.776 31.008 65.664 31.072C65.568 31.152 65.456 31.2 65.328 31.216C65.216 31.232 65.12 31.24 65.04 31.24C64.88 31.24 64.728 31.152 64.584 30.976C64.44 30.784 64.304 30.56 64.176 30.304C64.064 30.048 63.96 29.776 63.864 29.488C63.784 29.2 63.72 28.952 63.672 28.744C63.544 28.296 63.432 27.928 63.336 27.64C63.256 27.352 63.168 27.128 63.072 26.968C62.992 26.808 62.888 26.696 62.76 26.632C62.648 26.568 62.488 26.536 62.28 26.536H58.248C58.136 26.536 58.04 26.544 57.96 26.56C57.896 26.576 57.832 26.624 57.768 26.704C57.72 26.768 57.672 26.864 57.624 26.992C57.576 27.12 57.512 27.296 57.432 27.52L56.688 29.656C56.656 29.976 56.6 30.232 56.52 30.424C56.44 30.616 56.344 30.768 56.232 30.88C56.136 30.976 56.04 31.04 55.944 31.072C55.848 31.12 55.784 31.144 55.752 31.144C55.496 31.144 55.296 31.088 55.152 30.976C55.024 30.848 54.96 30.608 54.96 30.256ZM58.584 24.304C59.048 24.32 59.464 24.336 59.832 24.352C60.2 24.352 60.592 24.352 61.008 24.352C61.2 24.352 61.4 24.352 61.608 24.352C61.816 24.352 62.04 24.344 62.28 24.328C62.168 24.008 62.024 23.64 61.848 23.224C61.688 22.792 61.504 22.36 61.296 21.928L60.408 20.032C60.328 20.08 60.208 20.272 60.048 20.608C59.888 20.944 59.712 21.336 59.52 21.784C59.344 22.232 59.168 22.688 58.992 23.152C58.816 23.616 58.68 24 58.584 24.304ZM67.9176 26.296C67.9176 25.544 68.0296 24.816 68.2536 24.112C68.4776 23.392 68.7976 22.76 69.2136 22.216C69.6456 21.656 70.1736 21.216 70.7976 20.896C71.4216 20.56 72.1336 20.392 72.9336 20.392C73.6056 20.392 74.1976 20.576 74.7096 20.944C75.2216 21.312 75.5096 21.8 75.5736 22.408C75.5736 22.232 75.5736 21.984 75.5736 21.664C75.5736 21.328 75.5736 20.952 75.5736 20.536C75.5896 20.12 75.5976 19.696 75.5976 19.264C75.5976 18.816 75.5976 18.384 75.5976 17.968C75.6136 17.552 75.6216 17.184 75.6216 16.864C75.6216 16.528 75.6216 16.272 75.6216 16.096C75.6216 15.328 75.9016 14.944 76.4616 14.944C76.6856 14.944 76.8376 15.056 76.9176 15.28C77.0136 15.504 77.0616 15.744 77.0616 16C77.0616 16.128 77.0616 16.352 77.0616 16.672C77.0616 16.976 77.0536 17.304 77.0376 17.656C77.0376 17.992 77.0376 18.312 77.0376 18.616C77.0376 18.92 77.0376 19.144 77.0376 19.288C77.0056 20.424 76.9816 21.392 76.9656 22.192C76.9496 22.976 76.9336 23.624 76.9176 24.136C76.9176 24.648 76.9096 25.048 76.8936 25.336C76.8936 25.624 76.8936 25.84 76.8936 25.984C76.8936 26.112 76.8936 26.192 76.8936 26.224C76.8936 26.256 76.8936 26.28 76.8936 26.296L76.8696 28.192C76.8696 28.608 76.8536 29 76.8216 29.368C76.8056 29.72 76.7656 30.032 76.7016 30.304C76.6376 30.56 76.5416 30.768 76.4136 30.928C76.2856 31.088 76.1176 31.168 75.9096 31.168C75.7336 31.168 75.5896 31.04 75.4776 30.784C75.3656 30.528 75.2696 30.28 75.1896 30.04C74.9976 30.232 74.7576 30.4 74.4696 30.544C74.1816 30.672 73.8856 30.784 73.5816 30.88C73.2776 30.96 72.9736 31.024 72.6696 31.072C72.3816 31.12 72.1336 31.144 71.9256 31.144C71.2536 31.144 70.6616 31.032 70.1496 30.808C69.6536 30.568 69.2376 30.232 68.9016 29.8C68.5656 29.368 68.3176 28.856 68.1576 28.264C67.9976 27.672 67.9176 27.016 67.9176 26.296ZM69.4536 26.224C69.4536 27.152 69.7176 27.88 70.2456 28.408C70.7736 28.92 71.4216 29.176 72.1896 29.176C72.6536 29.176 73.0696 29.128 73.4376 29.032C73.8056 28.92 74.1176 28.792 74.3736 28.648C74.6296 28.504 74.8296 28.352 74.9736 28.192C75.1336 28.032 75.2296 27.888 75.2616 27.76C75.3416 27.488 75.3816 27.2 75.3816 26.896C75.3976 26.592 75.4056 26.296 75.4056 26.008V25.36C75.4056 24.976 75.3336 24.616 75.1896 24.28C75.0616 23.928 74.8856 23.616 74.6616 23.344C74.4376 23.072 74.1736 22.856 73.8696 22.696C73.5816 22.536 73.2776 22.456 72.9576 22.456C72.4136 22.456 71.9256 22.552 71.4936 22.744C71.0616 22.92 70.6936 23.176 70.3896 23.512C70.0856 23.848 69.8536 24.248 69.6936 24.712C69.5336 25.176 69.4536 25.68 69.4536 26.224ZM79.5276 29.896C79.5276 28.92 79.5356 27.832 79.5516 26.632C79.5676 25.432 79.5836 24.216 79.5996 22.984C79.6316 21.736 79.6556 20.512 79.6716 19.312C79.6876 18.112 79.6956 17.032 79.6956 16.072C79.6956 15.944 79.7116 15.8 79.7436 15.64C79.7916 15.48 79.8556 15.328 79.9356 15.184C80.0156 15.04 80.1116 14.92 80.2236 14.824C80.3356 14.712 80.4636 14.656 80.6076 14.656C80.7836 14.656 80.9356 14.752 81.0636 14.944C81.2076 15.12 81.2796 15.336 81.2796 15.592V15.64C81.2796 16.536 81.2556 17.472 81.2076 18.448C81.1596 19.424 81.1356 20.368 81.1356 21.28L81.0876 22.6C81.1356 22.296 81.2556 22.016 81.4476 21.76C81.6396 21.504 81.8636 21.288 82.1196 21.112C82.3756 20.92 82.6476 20.776 82.9356 20.68C83.2236 20.584 83.4956 20.536 83.7516 20.536C84.6956 20.536 85.4636 20.704 86.0556 21.04C86.6476 21.376 87.1036 21.8 87.4236 22.312C87.7596 22.824 87.9836 23.392 88.0956 24.016C88.2236 24.624 88.2876 25.2 88.2876 25.744L88.1676 29.344C88.1676 29.488 88.1596 29.672 88.1436 29.896C88.1276 30.12 88.0956 30.336 88.0476 30.544C87.9996 30.736 87.9196 30.904 87.8076 31.048C87.6956 31.192 87.5356 31.264 87.3276 31.264C87.0556 31.264 86.8396 31.152 86.6796 30.928C86.5356 30.688 86.4636 30.4 86.4636 30.064C86.4636 29.36 86.5036 28.704 86.5836 28.096C86.6796 27.472 86.7276 26.824 86.7276 26.152V25.912C86.7276 25.576 86.7036 25.216 86.6556 24.832C86.6076 24.448 86.4796 24.096 86.2716 23.776C86.0636 23.44 85.7596 23.168 85.3596 22.96C84.9596 22.752 84.4156 22.648 83.7276 22.648C83.3916 22.648 83.0636 22.712 82.7436 22.84C82.4236 22.952 82.1436 23.104 81.9036 23.296C81.6636 23.472 81.4636 23.672 81.3036 23.896C81.1596 24.104 81.0876 24.304 81.0876 24.496V29.68C81.0876 29.84 81.0796 30 81.0636 30.16C81.0476 30.32 81.0156 30.472 80.9676 30.616C80.9356 30.744 80.8716 30.848 80.7756 30.928C80.6796 31.008 80.5436 31.048 80.3676 31.048C80.3036 31.048 80.2236 31.04 80.1276 31.024C80.0316 31.008 79.9356 30.96 79.8396 30.88C79.7596 30.8 79.6876 30.688 79.6236 30.544C79.5596 30.384 79.5276 30.168 79.5276 29.896ZM92.1758 18.064C92.0638 18.064 91.9358 18.048 91.7918 18.016C91.6478 17.984 91.5118 17.928 91.3838 17.848C91.2558 17.752 91.1438 17.632 91.0478 17.488C90.9678 17.328 90.9277 17.12 90.9277 16.864C90.9277 16.688 90.9597 16.512 91.0238 16.336C91.1038 16.16 91.1998 16.008 91.3118 15.88C91.4238 15.736 91.5438 15.624 91.6718 15.544C91.8158 15.448 91.9518 15.4 92.0798 15.4C92.3358 15.4 92.5838 15.488 92.8238 15.664C93.0798 15.84 93.2078 16.184 93.2078 16.696C93.2078 17.608 92.8638 18.064 92.1758 18.064ZM90.8318 30.136C90.8158 30.056 90.7918 29.864 90.7598 29.56C90.7438 29.24 90.7358 28.672 90.7358 27.856C90.7358 27.536 90.7358 27.128 90.7358 26.632C90.7358 26.12 90.7438 25.592 90.7598 25.048C90.7918 24.488 90.8318 23.928 90.8798 23.368C90.9438 22.808 91.0158 22.304 91.0958 21.856C91.1918 21.408 91.3118 21.048 91.4558 20.776C91.5998 20.488 91.7758 20.344 91.9838 20.344C92.2398 20.344 92.3918 20.456 92.4398 20.68C92.5038 20.904 92.5358 21.168 92.5358 21.472C92.5038 22.144 92.4558 22.904 92.3918 23.752C92.3278 24.584 92.2958 25.4 92.2958 26.2C92.2958 26.792 92.3438 27.448 92.4398 28.168C92.5358 28.872 92.5838 29.504 92.5838 30.064C92.5838 30.448 92.5038 30.744 92.3438 30.952C92.1838 31.144 92.0158 31.24 91.8398 31.24C91.5678 31.24 91.3518 31.16 91.1918 31C91.0318 30.84 90.9118 30.552 90.8318 30.136ZM99.1986 31.12C98.6226 31.12 98.1586 30.984 97.8066 30.712C97.4546 30.424 97.1826 30.048 96.9906 29.584C96.7986 29.12 96.6626 28.592 96.5826 28C96.5186 27.408 96.4786 26.8 96.4626 26.176C96.4466 25.536 96.4306 24.912 96.4146 24.304C96.4146 23.696 96.3906 23.144 96.3426 22.648C96.1666 22.648 95.9826 22.656 95.7906 22.672C95.5986 22.688 95.3906 22.696 95.1666 22.696C95.1026 22.696 95.0146 22.672 94.9026 22.624C94.8066 22.576 94.7026 22.512 94.5906 22.432C94.4946 22.336 94.4066 22.224 94.3266 22.096C94.2626 21.968 94.2306 21.816 94.2306 21.64C94.2306 21.32 94.3266 21.048 94.5186 20.824C94.7106 20.6 94.9266 20.488 95.1666 20.488C95.3746 20.488 95.5826 20.496 95.7906 20.512C95.9986 20.512 96.2226 20.52 96.4626 20.536C96.4626 20.328 96.4706 20.008 96.4866 19.576C96.5186 19.144 96.5666 18.72 96.6306 18.304C96.7106 17.888 96.8226 17.52 96.9666 17.2C97.1106 16.88 97.3026 16.72 97.5426 16.72C97.6706 16.72 97.8066 16.816 97.9506 17.008C98.1106 17.184 98.1906 17.424 98.1906 17.728C98.1906 18.448 98.1666 18.984 98.1186 19.336C98.0866 19.688 98.0546 19.952 98.0226 20.128L97.9506 20.56C98.5266 20.56 99.1026 20.552 99.6786 20.536C100.271 20.52 100.863 20.512 101.455 20.512C101.567 20.512 101.663 20.552 101.743 20.632C101.823 20.712 101.887 20.816 101.935 20.944C101.983 21.056 102.015 21.184 102.031 21.328C102.063 21.456 102.079 21.576 102.079 21.688C102.079 22.024 101.991 22.28 101.815 22.456C101.655 22.616 101.495 22.696 101.335 22.696L97.9266 22.648C97.9266 22.792 97.9186 22.984 97.9026 23.224C97.9026 23.448 97.9026 23.696 97.9026 23.968C97.9026 24.24 97.8946 24.528 97.8786 24.832C97.8786 25.12 97.8786 25.4 97.8786 25.672C97.8786 26.104 97.8946 26.52 97.9266 26.92C97.9586 27.304 98.0146 27.648 98.0946 27.952C98.1906 28.256 98.3186 28.504 98.4786 28.696C98.6386 28.872 98.8546 28.96 99.1266 28.96C99.3186 28.96 99.5106 28.92 99.7026 28.84C99.9106 28.76 100.095 28.672 100.255 28.576C100.431 28.464 100.575 28.368 100.687 28.288C100.799 28.208 100.871 28.168 100.903 28.168C101.095 28.168 101.223 28.232 101.287 28.36C101.351 28.472 101.383 28.64 101.383 28.864C101.383 29.104 101.303 29.36 101.143 29.632C100.999 29.888 100.815 30.128 100.591 30.352C100.367 30.576 100.127 30.76 99.8706 30.904C99.6146 31.048 99.3906 31.12 99.1986 31.12ZM105.418 18.064C105.306 18.064 105.178 18.048 105.034 18.016C104.89 17.984 104.754 17.928 104.626 17.848C104.498 17.752 104.386 17.632 104.29 17.488C104.21 17.328 104.17 17.12 104.17 16.864C104.17 16.688 104.202 16.512 104.266 16.336C104.346 16.16 104.442 16.008 104.554 15.88C104.666 15.736 104.786 15.624 104.914 15.544C105.058 15.448 105.194 15.4 105.322 15.4C105.578 15.4 105.826 15.488 106.066 15.664C106.322 15.84 106.45 16.184 106.45 16.696C106.45 17.608 106.106 18.064 105.418 18.064ZM104.074 30.136C104.058 30.056 104.034 29.864 104.002 29.56C103.986 29.24 103.978 28.672 103.978 27.856C103.978 27.536 103.978 27.128 103.978 26.632C103.978 26.12 103.986 25.592 104.002 25.048C104.034 24.488 104.074 23.928 104.122 23.368C104.186 22.808 104.258 22.304 104.338 21.856C104.434 21.408 104.554 21.048 104.698 20.776C104.842 20.488 105.018 20.344 105.226 20.344C105.482 20.344 105.634 20.456 105.682 20.68C105.746 20.904 105.778 21.168 105.778 21.472C105.746 22.144 105.698 22.904 105.634 23.752C105.57 24.584 105.538 25.4 105.538 26.2C105.538 26.792 105.586 27.448 105.682 28.168C105.778 28.872 105.826 29.504 105.826 30.064C105.826 30.448 105.746 30.744 105.586 30.952C105.426 31.144 105.258 31.24 105.082 31.24C104.81 31.24 104.594 31.16 104.434 31C104.274 30.84 104.154 30.552 104.074 30.136ZM107.473 26.872C107.473 26.088 107.609 25.312 107.881 24.544C108.153 23.76 108.529 23.064 109.009 22.456C109.489 21.832 110.041 21.336 110.665 20.968C111.305 20.584 111.985 20.392 112.705 20.392C113.249 20.392 113.761 20.52 114.241 20.776C114.737 21.032 115.161 21.368 115.513 21.784C115.865 22.184 116.145 22.648 116.353 23.176C116.561 23.688 116.665 24.2 116.665 24.712C116.665 24.984 116.649 25.248 116.617 25.504C116.585 25.744 116.545 25.992 116.497 26.248C116.465 26.488 116.433 26.744 116.401 27.016C116.369 27.288 116.353 27.592 116.353 27.928C116.353 28.376 116.417 28.688 116.545 28.864C116.673 29.04 116.857 29.128 117.097 29.128C117.241 29.128 117.377 29.048 117.505 28.888C117.649 28.728 117.777 28.632 117.889 28.6C118.305 28.6 118.513 28.904 118.513 29.512C118.513 29.704 118.473 29.896 118.393 30.088C118.313 30.28 118.201 30.456 118.057 30.616C117.913 30.76 117.745 30.888 117.553 31C117.361 31.096 117.153 31.144 116.929 31.144C116.705 31.144 116.481 31.08 116.257 30.952C116.049 30.824 115.857 30.664 115.681 30.472C115.505 30.264 115.361 30.032 115.249 29.776C115.137 29.504 115.081 29.224 115.081 28.936C114.601 29.544 114.057 30.08 113.449 30.544C112.857 31.008 112.201 31.24 111.481 31.24C111.017 31.24 110.545 31.128 110.065 30.904C109.601 30.68 109.177 30.376 108.793 29.992C108.409 29.592 108.089 29.128 107.833 28.6C107.593 28.056 107.473 27.48 107.473 26.872ZM108.961 26.8C108.961 27.152 109.041 27.472 109.201 27.76C109.377 28.048 109.601 28.296 109.873 28.504C110.161 28.696 110.473 28.848 110.809 28.96C111.161 29.072 111.505 29.128 111.841 29.128C112.545 29.128 113.105 28.976 113.521 28.672C113.937 28.352 114.265 27.96 114.505 27.496C114.745 27.016 114.913 26.504 115.009 25.96C115.105 25.4 115.193 24.872 115.273 24.376C115.273 24.2 115.185 24.008 115.009 23.8C114.849 23.576 114.649 23.376 114.409 23.2C114.169 23.008 113.905 22.848 113.617 22.72C113.345 22.592 113.097 22.528 112.873 22.528C112.281 22.528 111.745 22.656 111.265 22.912C110.785 23.168 110.369 23.504 110.017 23.92C109.681 24.32 109.417 24.776 109.225 25.288C109.049 25.8 108.961 26.304 108.961 26.8ZM119.491 25.48C119.459 25.096 119.435 24.784 119.419 24.544C119.419 24.288 119.411 24.08 119.395 23.92C119.395 23.76 119.395 23.64 119.395 23.56C119.395 23.48 119.395 23.4 119.395 23.32V22.984C119.395 22.728 119.403 22.456 119.419 22.168C119.451 21.864 119.491 21.584 119.539 21.328C119.603 21.072 119.683 20.856 119.779 20.68C119.875 20.504 120.003 20.416 120.163 20.416C120.723 20.416 121.003 20.904 121.003 21.88C121.003 22.056 120.995 22.24 120.979 22.432C120.963 22.624 120.939 22.832 120.907 23.056C121.035 22.592 121.243 22.192 121.531 21.856C121.835 21.52 122.163 21.24 122.515 21.016C122.867 20.792 123.211 20.624 123.547 20.512C123.899 20.4 124.195 20.344 124.435 20.344C125.187 20.344 125.811 20.52 126.307 20.872C126.803 21.224 127.195 21.68 127.483 22.24C127.771 22.8 127.971 23.424 128.083 24.112C128.195 24.8 128.251 25.48 128.251 26.152C128.251 26.712 128.235 27.296 128.203 27.904C128.187 28.512 128.139 29.072 128.059 29.584C127.995 30.08 127.891 30.496 127.747 30.832C127.603 31.152 127.411 31.312 127.171 31.312C126.931 31.312 126.723 31.248 126.547 31.12C126.387 31.008 126.307 30.664 126.307 30.088C126.307 29.8 126.331 29.528 126.379 29.272C126.427 29 126.475 28.728 126.523 28.456C126.587 28.184 126.643 27.912 126.691 27.64C126.739 27.352 126.763 27.056 126.763 26.752C126.763 26.32 126.731 25.856 126.667 25.36C126.619 24.864 126.499 24.4 126.307 23.968C126.115 23.536 125.843 23.176 125.491 22.888C125.139 22.6 124.667 22.456 124.075 22.456C123.851 22.456 123.595 22.512 123.307 22.624C123.019 22.72 122.731 22.864 122.443 23.056C122.155 23.232 121.875 23.448 121.603 23.704C121.347 23.96 121.123 24.24 120.931 24.544C120.931 24.912 120.923 25.328 120.907 25.792C120.891 26.24 120.883 26.632 120.883 26.968C120.883 27.48 120.939 27.96 121.051 28.408C121.179 28.856 121.243 29.336 121.243 29.848C121.243 30.2 121.203 30.504 121.123 30.76C121.043 31.016 120.827 31.144 120.475 31.144C120.347 31.144 120.219 31.128 120.091 31.096C119.979 31.08 119.867 31.024 119.755 30.928C119.659 30.832 119.579 30.696 119.515 30.52C119.467 30.344 119.443 30.104 119.443 29.8L119.491 25.48ZM132.137 18.064C132.025 18.064 131.897 18.048 131.753 18.016C131.609 17.984 131.473 17.928 131.345 17.848C131.217 17.752 131.105 17.632 131.009 17.488C130.929 17.328 130.889 17.12 130.889 16.864C130.889 16.688 130.921 16.512 130.985 16.336C131.065 16.16 131.161 16.008 131.273 15.88C131.385 15.736 131.505 15.624 131.633 15.544C131.777 15.448 131.913 15.4 132.041 15.4C132.297 15.4 132.545 15.488 132.785 15.664C133.041 15.84 133.169 16.184 133.169 16.696C133.169 17.608 132.825 18.064 132.137 18.064ZM130.793 30.136C130.777 30.056 130.753 29.864 130.721 29.56C130.705 29.24 130.697 28.672 130.697 27.856C130.697 27.536 130.697 27.128 130.697 26.632C130.697 26.12 130.705 25.592 130.721 25.048C130.753 24.488 130.793 23.928 130.841 23.368C130.905 22.808 130.977 22.304 131.057 21.856C131.153 21.408 131.273 21.048 131.417 20.776C131.561 20.488 131.737 20.344 131.945 20.344C132.201 20.344 132.353 20.456 132.401 20.68C132.465 20.904 132.497 21.168 132.497 21.472C132.465 22.144 132.417 22.904 132.353 23.752C132.289 24.584 132.257 25.4 132.257 26.2C132.257 26.792 132.305 27.448 132.401 28.168C132.497 28.872 132.545 29.504 132.545 30.064C132.545 30.448 132.465 30.744 132.305 30.952C132.145 31.144 131.977 31.24 131.801 31.24C131.529 31.24 131.313 31.16 131.153 31C130.993 30.84 130.873 30.552 130.793 30.136ZM140.9 28.768C140.9 28.672 140.916 28.544 140.948 28.384C140.996 28.208 141.052 28.04 141.116 27.88C141.18 27.72 141.26 27.584 141.356 27.472C141.452 27.344 141.548 27.28 141.644 27.28C141.692 27.28 141.78 27.408 141.908 27.664C142.068 28 142.22 28.256 142.364 28.432C142.508 28.608 142.652 28.744 142.796 28.84C142.956 28.92 143.132 28.968 143.324 28.984C143.532 29 143.772 29.008 144.044 29.008C144.38 29.008 144.724 28.96 145.076 28.864C145.428 28.752 145.748 28.616 146.036 28.456C146.324 28.28 146.564 28.096 146.756 27.904C146.948 27.696 147.044 27.504 147.044 27.328C147.044 27.024 146.876 26.792 146.54 26.632C146.22 26.472 145.812 26.328 145.316 26.2C144.836 26.072 144.308 25.936 143.732 25.792C143.156 25.648 142.62 25.456 142.124 25.216C141.644 24.96 141.236 24.624 140.9 24.208C140.58 23.792 140.42 23.24 140.42 22.552C140.42 21.768 140.564 21.064 140.852 20.44C141.156 19.816 141.532 19.296 141.98 18.88C142.444 18.464 142.956 18.144 143.516 17.92C144.092 17.696 144.66 17.584 145.22 17.584C145.604 17.584 145.948 17.656 146.252 17.8C146.556 17.928 146.82 18.112 147.044 18.352C147.268 18.576 147.436 18.84 147.548 19.144C147.676 19.448 147.74 19.76 147.74 20.08C147.74 20.288 147.732 20.512 147.716 20.752C147.7 20.976 147.668 21.184 147.62 21.376C147.572 21.568 147.492 21.728 147.38 21.856C147.284 21.984 147.148 22.048 146.972 22.048C146.748 22.048 146.612 21.944 146.564 21.736C146.532 21.528 146.516 21.288 146.516 21.016C146.516 20.504 146.372 20.16 146.084 19.984C145.796 19.792 145.412 19.696 144.932 19.696C144.66 19.696 144.348 19.768 143.996 19.912C143.66 20.056 143.332 20.256 143.012 20.512C142.708 20.752 142.444 21.032 142.22 21.352C142.012 21.672 141.908 22 141.908 22.336C141.908 22.688 142.068 22.96 142.388 23.152C142.724 23.328 143.14 23.48 143.636 23.608C144.132 23.72 144.66 23.84 145.22 23.968C145.796 24.08 146.332 24.264 146.828 24.52C147.324 24.76 147.732 25.088 148.052 25.504C148.388 25.92 148.556 26.488 148.556 27.208C148.556 27.928 148.364 28.544 147.98 29.056C147.612 29.552 147.172 29.96 146.66 30.28C146.148 30.584 145.62 30.808 145.076 30.952C144.548 31.08 144.124 31.144 143.804 31.144C143.564 31.144 143.276 31.12 142.94 31.072C142.604 31.024 142.284 30.92 141.98 30.76C141.692 30.6 141.436 30.36 141.212 30.04C141.004 29.72 140.9 29.296 140.9 28.768ZM154.398 31.312C153.582 31.312 152.926 31.112 152.43 30.712C151.95 30.296 151.582 29.792 151.326 29.2C151.07 28.608 150.902 27.984 150.822 27.328C150.758 26.656 150.726 26.064 150.726 25.552C150.726 25.056 150.742 24.512 150.774 23.92C150.822 23.328 150.902 22.776 151.014 22.264C151.126 21.736 151.27 21.296 151.446 20.944C151.638 20.592 151.87 20.416 152.142 20.416C152.366 20.416 152.518 20.488 152.598 20.632C152.694 20.776 152.742 20.968 152.742 21.208C152.742 21.448 152.71 21.728 152.646 22.048C152.598 22.352 152.542 22.68 152.478 23.032C152.414 23.384 152.35 23.752 152.286 24.136C152.238 24.52 152.214 24.904 152.214 25.288C152.214 25.592 152.238 25.968 152.286 26.416C152.334 26.864 152.43 27.296 152.574 27.712C152.718 28.112 152.926 28.464 153.198 28.768C153.47 29.056 153.838 29.2 154.302 29.2C154.67 29.2 154.998 29.128 155.286 28.984C155.59 28.824 155.862 28.632 156.102 28.408C156.342 28.168 156.55 27.904 156.726 27.616C156.918 27.328 157.102 27.048 157.278 26.776C157.31 26.264 157.334 25.832 157.35 25.48C157.382 25.112 157.406 24.76 157.422 24.424L157.47 21.352C157.47 20.984 157.566 20.736 157.758 20.608C157.95 20.48 158.118 20.416 158.262 20.416C158.406 20.416 158.55 20.488 158.694 20.632C158.838 20.776 158.91 20.992 158.91 21.28L158.766 30.064C158.75 30.48 158.686 30.76 158.574 30.904C158.462 31.048 158.286 31.12 158.046 31.12C157.902 31.12 157.774 31.096 157.662 31.048C157.55 31.016 157.462 30.944 157.398 30.832C157.334 30.704 157.286 30.528 157.254 30.304C157.222 30.064 157.206 29.752 157.206 29.368C157.206 29.24 157.206 29.096 157.206 28.936C157.206 28.776 157.214 28.608 157.23 28.432C157.134 28.848 156.982 29.232 156.774 29.584C156.582 29.936 156.35 30.24 156.078 30.496C155.822 30.752 155.55 30.952 155.262 31.096C154.974 31.24 154.686 31.312 154.398 31.312ZM162.094 29.872C162.094 29.744 162.174 29.528 162.334 29.224C162.494 28.904 162.694 28.536 162.934 28.12C163.174 27.688 163.438 27.224 163.726 26.728C164.03 26.232 164.326 25.744 164.614 25.264C164.902 24.768 165.158 24.296 165.382 23.848C165.622 23.4 165.806 23.016 165.934 22.696C165.902 22.68 165.782 22.672 165.574 22.672C164.998 22.672 164.43 22.712 163.87 22.792C163.326 22.856 162.766 22.888 162.19 22.888C162.046 22.888 161.91 22.888 161.782 22.888C161.654 22.888 161.542 22.856 161.446 22.792C161.35 22.728 161.27 22.632 161.206 22.504C161.142 22.376 161.11 22.176 161.11 21.904C161.11 21.792 161.118 21.664 161.134 21.52C161.166 21.376 161.206 21.24 161.254 21.112C161.302 20.984 161.358 20.872 161.422 20.776C161.502 20.68 161.59 20.632 161.686 20.632H165.046C165.366 20.632 165.686 20.608 166.006 20.56C166.342 20.496 166.67 20.464 166.99 20.464C167.134 20.464 167.254 20.52 167.35 20.632C167.446 20.728 167.518 20.856 167.566 21.016C167.614 21.16 167.646 21.32 167.662 21.496C167.694 21.656 167.71 21.8 167.71 21.928C167.614 22.424 167.47 22.896 167.278 23.344C167.102 23.792 166.87 24.28 166.582 24.808C166.294 25.336 165.95 25.936 165.55 26.608C165.166 27.264 164.71 28.056 164.182 28.984C164.39 29.048 164.67 29.08 165.022 29.08C165.518 29.08 166.046 29.024 166.606 28.912C167.182 28.784 167.654 28.608 168.022 28.384C168.086 28.352 168.142 28.336 168.19 28.336C168.318 28.336 168.422 28.4 168.502 28.528C168.598 28.64 168.678 28.784 168.742 28.96C168.806 29.12 168.846 29.288 168.862 29.464C168.894 29.64 168.91 29.792 168.91 29.92C168.91 30.192 168.814 30.464 168.622 30.736C168.43 31.008 168.174 31.144 167.854 31.144C167.678 31.144 167.51 31.12 167.35 31.072C167.19 31.04 167.022 31.024 166.846 31.024C166.382 31.024 165.91 31.032 165.43 31.048C164.966 31.08 164.47 31.096 163.942 31.096C163.734 31.096 163.518 31.088 163.294 31.072C163.086 31.056 162.886 31.016 162.694 30.952C162.518 30.872 162.374 30.752 162.262 30.592C162.15 30.416 162.094 30.176 162.094 29.872ZM169.723 26.872C169.723 26.088 169.859 25.312 170.131 24.544C170.403 23.76 170.779 23.064 171.259 22.456C171.739 21.832 172.291 21.336 172.915 20.968C173.555 20.584 174.235 20.392 174.955 20.392C175.499 20.392 176.011 20.52 176.491 20.776C176.987 21.032 177.411 21.368 177.763 21.784C178.115 22.184 178.395 22.648 178.603 23.176C178.811 23.688 178.915 24.2 178.915 24.712C178.915 24.984 178.899 25.248 178.867 25.504C178.835 25.744 178.795 25.992 178.747 26.248C178.715 26.488 178.683 26.744 178.651 27.016C178.619 27.288 178.603 27.592 178.603 27.928C178.603 28.376 178.667 28.688 178.795 28.864C178.923 29.04 179.107 29.128 179.347 29.128C179.491 29.128 179.627 29.048 179.755 28.888C179.899 28.728 180.027 28.632 180.139 28.6C180.555 28.6 180.763 28.904 180.763 29.512C180.763 29.704 180.723 29.896 180.643 30.088C180.563 30.28 180.451 30.456 180.307 30.616C180.163 30.76 179.995 30.888 179.803 31C179.611 31.096 179.403 31.144 179.179 31.144C178.955 31.144 178.731 31.08 178.507 30.952C178.299 30.824 178.107 30.664 177.931 30.472C177.755 30.264 177.611 30.032 177.499 29.776C177.387 29.504 177.331 29.224 177.331 28.936C176.851 29.544 176.307 30.08 175.699 30.544C175.107 31.008 174.451 31.24 173.731 31.24C173.267 31.24 172.795 31.128 172.315 30.904C171.851 30.68 171.427 30.376 171.043 29.992C170.659 29.592 170.339 29.128 170.083 28.6C169.843 28.056 169.723 27.48 169.723 26.872ZM171.211 26.8C171.211 27.152 171.291 27.472 171.451 27.76C171.627 28.048 171.851 28.296 172.123 28.504C172.411 28.696 172.723 28.848 173.059 28.96C173.411 29.072 173.755 29.128 174.091 29.128C174.795 29.128 175.355 28.976 175.771 28.672C176.187 28.352 176.515 27.96 176.755 27.496C176.995 27.016 177.163 26.504 177.259 25.96C177.355 25.4 177.443 24.872 177.523 24.376C177.523 24.2 177.435 24.008 177.259 23.8C177.099 23.576 176.899 23.376 176.659 23.2C176.419 23.008 176.155 22.848 175.867 22.72C175.595 22.592 175.347 22.528 175.123 22.528C174.531 22.528 173.995 22.656 173.515 22.912C173.035 23.168 172.619 23.504 172.267 23.92C171.931 24.32 171.667 24.776 171.475 25.288C171.299 25.8 171.211 26.304 171.211 26.8ZM181.741 25.48C181.709 25.096 181.685 24.784 181.669 24.544C181.669 24.288 181.661 24.08 181.645 23.92C181.645 23.76 181.645 23.64 181.645 23.56C181.645 23.48 181.645 23.4 181.645 23.32V22.984C181.645 22.728 181.653 22.456 181.669 22.168C181.701 21.864 181.741 21.584 181.789 21.328C181.853 21.072 181.933 20.856 182.029 20.68C182.125 20.504 182.253 20.416 182.413 20.416C182.973 20.416 183.253 20.904 183.253 21.88C183.253 22.056 183.245 22.24 183.229 22.432C183.213 22.624 183.189 22.832 183.157 23.056C183.285 22.592 183.493 22.192 183.781 21.856C184.085 21.52 184.413 21.24 184.765 21.016C185.117 20.792 185.461 20.624 185.797 20.512C186.149 20.4 186.445 20.344 186.685 20.344C187.437 20.344 188.061 20.52 188.557 20.872C189.053 21.224 189.445 21.68 189.733 22.24C190.021 22.8 190.221 23.424 190.333 24.112C190.445 24.8 190.501 25.48 190.501 26.152C190.501 26.712 190.485 27.296 190.453 27.904C190.437 28.512 190.389 29.072 190.309 29.584C190.245 30.08 190.141 30.496 189.997 30.832C189.853 31.152 189.661 31.312 189.421 31.312C189.181 31.312 188.973 31.248 188.797 31.12C188.637 31.008 188.557 30.664 188.557 30.088C188.557 29.8 188.581 29.528 188.629 29.272C188.677 29 188.725 28.728 188.773 28.456C188.837 28.184 188.893 27.912 188.941 27.64C188.989 27.352 189.013 27.056 189.013 26.752C189.013 26.32 188.981 25.856 188.917 25.36C188.869 24.864 188.749 24.4 188.557 23.968C188.365 23.536 188.093 23.176 187.741 22.888C187.389 22.6 186.917 22.456 186.325 22.456C186.101 22.456 185.845 22.512 185.557 22.624C185.269 22.72 184.981 22.864 184.693 23.056C184.405 23.232 184.125 23.448 183.853 23.704C183.597 23.96 183.373 24.24 183.181 24.544C183.181 24.912 183.173 25.328 183.157 25.792C183.141 26.24 183.133 26.632 183.133 26.968C183.133 27.48 183.189 27.96 183.301 28.408C183.429 28.856 183.493 29.336 183.493 29.848C183.493 30.2 183.453 30.504 183.373 30.76C183.293 31.016 183.077 31.144 182.725 31.144C182.597 31.144 182.469 31.128 182.341 31.096C182.229 31.08 182.117 31.024 182.005 30.928C181.909 30.832 181.829 30.696 181.765 30.52C181.717 30.344 181.693 30.104 181.693 29.8L181.741 25.48ZM197.027 31.12C196.451 31.12 195.987 30.984 195.635 30.712C195.283 30.424 195.011 30.048 194.819 29.584C194.627 29.12 194.491 28.592 194.411 28C194.347 27.408 194.307 26.8 194.291 26.176C194.275 25.536 194.259 24.912 194.243 24.304C194.243 23.696 194.219 23.144 194.171 22.648C193.995 22.648 193.811 22.656 193.619 22.672C193.427 22.688 193.219 22.696 192.995 22.696C192.931 22.696 192.843 22.672 192.731 22.624C192.635 22.576 192.531 22.512 192.419 22.432C192.323 22.336 192.235 22.224 192.155 22.096C192.091 21.968 192.059 21.816 192.059 21.64C192.059 21.32 192.155 21.048 192.347 20.824C192.539 20.6 192.755 20.488 192.995 20.488C193.203 20.488 193.411 20.496 193.619 20.512C193.827 20.512 194.051 20.52 194.291 20.536C194.291 20.328 194.299 20.008 194.315 19.576C194.347 19.144 194.395 18.72 194.459 18.304C194.539 17.888 194.651 17.52 194.795 17.2C194.939 16.88 195.131 16.72 195.371 16.72C195.499 16.72 195.635 16.816 195.779 17.008C195.939 17.184 196.019 17.424 196.019 17.728C196.019 18.448 195.995 18.984 195.947 19.336C195.915 19.688 195.883 19.952 195.851 20.128L195.779 20.56C196.355 20.56 196.931 20.552 197.507 20.536C198.099 20.52 198.691 20.512 199.283 20.512C199.395 20.512 199.491 20.552 199.571 20.632C199.651 20.712 199.715 20.816 199.763 20.944C199.811 21.056 199.843 21.184 199.859 21.328C199.891 21.456 199.907 21.576 199.907 21.688C199.907 22.024 199.819 22.28 199.643 22.456C199.483 22.616 199.323 22.696 199.163 22.696L195.755 22.648C195.755 22.792 195.747 22.984 195.731 23.224C195.731 23.448 195.731 23.696 195.731 23.968C195.731 24.24 195.723 24.528 195.707 24.832C195.707 25.12 195.707 25.4 195.707 25.672C195.707 26.104 195.723 26.52 195.755 26.92C195.787 27.304 195.843 27.648 195.923 27.952C196.019 28.256 196.147 28.504 196.307 28.696C196.467 28.872 196.683 28.96 196.955 28.96C197.147 28.96 197.339 28.92 197.531 28.84C197.739 28.76 197.923 28.672 198.083 28.576C198.259 28.464 198.403 28.368 198.515 28.288C198.627 28.208 198.699 28.168 198.731 28.168C198.923 28.168 199.051 28.232 199.115 28.36C199.179 28.472 199.211 28.64 199.211 28.864C199.211 29.104 199.131 29.36 198.971 29.632C198.827 29.888 198.643 30.128 198.419 30.352C198.195 30.576 197.955 30.76 197.699 30.904C197.443 31.048 197.219 31.12 197.027 31.12ZM201.59 29.896C201.59 28.92 201.598 27.832 201.614 26.632C201.63 25.432 201.646 24.216 201.662 22.984C201.694 21.736 201.718 20.512 201.734 19.312C201.75 18.112 201.758 17.032 201.758 16.072C201.758 15.944 201.774 15.8 201.806 15.64C201.854 15.48 201.918 15.328 201.998 15.184C202.078 15.04 202.174 14.92 202.286 14.824C202.398 14.712 202.526 14.656 202.67 14.656C202.846 14.656 202.998 14.752 203.126 14.944C203.27 15.12 203.342 15.336 203.342 15.592V15.64C203.342 16.536 203.318 17.472 203.27 18.448C203.222 19.424 203.198 20.368 203.198 21.28L203.15 22.6C203.198 22.296 203.318 22.016 203.51 21.76C203.702 21.504 203.926 21.288 204.182 21.112C204.438 20.92 204.71 20.776 204.998 20.68C205.286 20.584 205.558 20.536 205.814 20.536C206.758 20.536 207.526 20.704 208.118 21.04C208.71 21.376 209.166 21.8 209.486 22.312C209.822 22.824 210.046 23.392 210.158 24.016C210.286 24.624 210.35 25.2 210.35 25.744L210.23 29.344C210.23 29.488 210.222 29.672 210.206 29.896C210.19 30.12 210.158 30.336 210.11 30.544C210.062 30.736 209.982 30.904 209.87 31.048C209.758 31.192 209.598 31.264 209.39 31.264C209.118 31.264 208.902 31.152 208.742 30.928C208.598 30.688 208.526 30.4 208.526 30.064C208.526 29.36 208.566 28.704 208.646 28.096C208.742 27.472 208.79 26.824 208.79 26.152V25.912C208.79 25.576 208.766 25.216 208.718 24.832C208.67 24.448 208.542 24.096 208.334 23.776C208.126 23.44 207.822 23.168 207.422 22.96C207.022 22.752 206.478 22.648 205.79 22.648C205.454 22.648 205.126 22.712 204.806 22.84C204.486 22.952 204.206 23.104 203.966 23.296C203.726 23.472 203.526 23.672 203.366 23.896C203.222 24.104 203.15 24.304 203.15 24.496V29.68C203.15 29.84 203.142 30 203.126 30.16C203.11 30.32 203.078 30.472 203.03 30.616C202.998 30.744 202.934 30.848 202.838 30.928C202.742 31.008 202.606 31.048 202.43 31.048C202.366 31.048 202.286 31.04 202.19 31.024C202.094 31.008 201.998 30.96 201.902 30.88C201.822 30.8 201.75 30.688 201.686 30.544C201.622 30.384 201.59 30.168 201.59 29.896ZM214.238 18.064C214.126 18.064 213.998 18.048 213.854 18.016C213.71 17.984 213.574 17.928 213.446 17.848C213.318 17.752 213.206 17.632 213.11 17.488C213.03 17.328 212.99 17.12 212.99 16.864C212.99 16.688 213.022 16.512 213.086 16.336C213.166 16.16 213.262 16.008 213.374 15.88C213.486 15.736 213.606 15.624 213.734 15.544C213.878 15.448 214.014 15.4 214.142 15.4C214.398 15.4 214.646 15.488 214.886 15.664C215.142 15.84 215.27 16.184 215.27 16.696C215.27 17.608 214.926 18.064 214.238 18.064ZM212.894 30.136C212.878 30.056 212.854 29.864 212.822 29.56C212.806 29.24 212.798 28.672 212.798 27.856C212.798 27.536 212.798 27.128 212.798 26.632C212.798 26.12 212.806 25.592 212.822 25.048C212.854 24.488 212.894 23.928 212.942 23.368C213.006 22.808 213.078 22.304 213.158 21.856C213.254 21.408 213.374 21.048 213.518 20.776C213.662 20.488 213.838 20.344 214.046 20.344C214.302 20.344 214.454 20.456 214.502 20.68C214.566 20.904 214.598 21.168 214.598 21.472C214.566 22.144 214.518 22.904 214.454 23.752C214.39 24.584 214.358 25.4 214.358 26.2C214.358 26.792 214.406 27.448 214.502 28.168C214.598 28.872 214.646 29.504 214.646 30.064C214.646 30.448 214.566 30.744 214.406 30.952C214.246 31.144 214.078 31.24 213.902 31.24C213.63 31.24 213.414 31.16 213.254 31C213.094 30.84 212.974 30.552 212.894 30.136Z" fill="black"/>
<path d="M9.55797 15.0743C8.98694 15.0743 8.49853 14.8781 8.09274 14.4858C7.70205 14.0935 7.50661 13.5126 7.50661 12.743C7.50661 12.577 7.51411 12.411 7.52921 12.2451C7.55922 12.064 7.59683 11.9055 7.64194 11.7697C7.68695 11.6188 7.73956 11.4981 7.79967 11.4076C7.87479 11.317 7.95001 11.2718 8.02513 11.2718C8.10024 11.2718 8.16786 11.2944 8.22797 11.3397C8.30319 11.3849 8.39331 11.4377 8.49854 11.4981C8.61876 11.5584 8.77659 11.6113 8.97194 11.6566C9.16728 11.7019 9.43775 11.7245 9.78343 11.7245C10.61 11.7245 11.4591 11.5962 12.3308 11.3397C13.2024 11.0681 13.9914 10.6908 14.6977 10.208C15.4191 9.71005 16.0052 9.11401 16.456 8.41985C16.9219 7.72578 17.1549 6.94113 17.1549 6.0659C17.1549 5.74905 17.1023 5.43972 16.9971 5.13794C16.8918 4.83615 16.7341 4.57202 16.5237 4.34575C16.3133 4.10432 16.0428 3.90818 15.7122 3.75724C15.3966 3.6063 15.0208 3.53088 14.585 3.53088C13.3827 3.53088 12.2782 3.795 11.2713 4.32306C10.2793 4.85121 9.37773 5.56797 8.56615 6.47334C7.75457 7.36364 7.0408 8.39725 6.42456 9.57418C5.82343 10.7512 5.32001 11.9961 4.91422 13.3088C4.50843 14.6066 4.20036 15.9269 3.99001 17.2698C3.77956 18.6128 3.67444 19.8878 3.67444 21.095C3.67444 22.5435 3.76456 23.8865 3.9449 25.1239C4.12524 26.3461 4.41831 27.4024 4.8241 28.2927C5.22979 29.1829 5.77091 29.8846 6.44717 30.3976C7.12342 30.8956 7.95751 31.1446 8.94934 31.1446C9.85104 31.1446 10.6476 30.9182 11.3389 30.4656C12.0302 29.9978 12.6314 29.3715 13.1423 28.5868C13.6683 27.8022 14.1116 26.8893 14.4723 25.8482C14.848 24.7919 15.1711 23.6677 15.4416 22.4757C15.7122 21.2836 15.9451 20.0538 16.1405 18.7863C16.3358 17.5188 16.5087 16.2814 16.659 15.0743C16.704 14.7726 16.922 14.5462 17.3127 14.3953C17.7034 14.2293 18.1167 14.1463 18.5525 14.1463C18.7329 14.1463 18.9207 14.169 19.1161 14.2142C19.3115 14.2595 19.4768 14.3274 19.6121 14.418C19.7623 14.5084 19.8675 14.6292 19.9276 14.7801C20.0027 14.9309 20.0178 15.1196 19.9727 15.3459C19.8525 15.9495 19.7248 16.9077 19.5895 18.2205C19.4542 19.5181 19.3866 21.0799 19.3866 22.9057C19.3866 24.4298 19.3941 25.7425 19.4091 26.8441C19.4392 27.9456 19.4768 28.8963 19.5218 29.696C19.567 30.4957 19.6121 31.1672 19.6571 31.7104C19.7022 32.2385 19.7473 32.6836 19.7924 33.0458C19.8825 33.1816 19.9276 33.2872 19.9276 33.3627C19.9276 33.5136 19.8525 33.6569 19.7022 33.7928C19.5519 33.9286 19.3641 34.0493 19.1387 34.1549C18.9132 34.2605 18.6577 34.3435 18.3722 34.4039C18.1017 34.4642 17.8387 34.4944 17.5832 34.4944C17.1774 34.4944 16.8693 34.4114 16.659 34.2454C16.4485 34.0794 16.2907 33.8003 16.1856 33.4079C16.0954 33.0307 16.0352 32.5253 16.0052 31.8915C15.9751 31.2426 15.9451 30.4504 15.915 29.5149C15.5693 30.2543 15.141 30.9408 14.6301 31.5746C14.1191 32.2083 13.5481 32.7592 12.9168 33.2269C12.2857 33.7097 11.5943 34.087 10.843 34.3586C10.1066 34.6301 9.33262 34.766 8.52104 34.766C7.25865 34.766 6.10149 34.5246 5.04955 34.0417C4.01251 33.5589 3.11831 32.7818 2.36694 31.7104C1.61547 30.639 1.02944 29.2432 0.60864 27.5231C0.202849 25.7878 0 23.6753 0 21.1855C0 19.4805 0.157738 17.7753 0.473311 16.0702C0.803984 14.35 1.26989 12.7052 1.87103 11.1359C2.48717 9.56664 3.23104 8.10299 4.10274 6.7449C4.98934 5.3869 5.98126 4.20988 7.07831 3.21402C8.17546 2.21817 9.37014 1.43342 10.6626 0.860073C11.9701 0.286723 13.3527 0 14.8105 0C15.7573 0 16.5989 0.150846 17.3352 0.452635C18.0866 0.754423 18.7179 1.17693 19.2288 1.72015C19.7398 2.2483 20.1305 2.87447 20.401 3.59877C20.6715 4.30799 20.8068 5.07005 20.8068 5.88483C20.8068 7.22776 20.4837 8.46514 19.8375 9.59687C19.1913 10.7134 18.3422 11.6792 17.2901 12.494C16.2382 13.3088 15.0359 13.9426 13.6833 14.3953C12.3308 14.848 10.9557 15.0743 9.55797 15.0743ZM26.8482 19.3295V20.3481C27.9002 21.6306 28.847 22.951 29.6885 24.3091C30.5452 25.652 31.2666 27.0704 31.8526 28.5642C32.4538 30.0581 32.9122 31.635 33.2278 33.2947C33.5584 34.9546 33.7237 36.7428 33.7237 38.659C33.7237 40.5905 33.5734 42.3711 33.2729 44.0007C32.9873 45.6455 32.574 47.0563 32.033 48.2333C31.5071 49.4254 30.8608 50.3534 30.0943 51.0173C29.343 51.6812 28.5089 52.0132 27.5921 52.0132C26.7806 52.0132 26.1043 51.8095 25.5633 51.402C25.0223 51.0098 24.5864 50.4816 24.2558 49.8177C23.9402 49.1688 23.7073 48.4295 23.557 47.5995C23.4217 46.7697 23.3541 45.9247 23.3541 45.0645V20.1217C23.309 20.0764 23.2564 20.0236 23.1963 19.9633C23.1513 19.9029 23.1062 19.8426 23.061 19.7822C22.7004 19.42 22.3698 19.0881 22.0692 18.7863C21.7837 18.4694 21.6409 18.1224 21.6409 17.7452C21.6409 17.5188 21.7235 17.2924 21.8889 17.0662C22.0541 16.8247 22.3247 16.6813 22.7004 16.636C22.7755 16.636 22.8657 16.6285 22.9709 16.6134C23.076 16.5984 23.2039 16.5908 23.3541 16.5908V3.41769C23.3541 3.08577 23.3241 2.82175 23.2639 2.62551C23.2189 2.42937 23.1663 2.27853 23.1062 2.17288C23.061 2.05216 23.0084 1.96158 22.9483 1.90122C22.9032 1.8258 22.8807 1.75037 22.8807 1.67485C22.8807 1.58437 22.9258 1.50894 23.0159 1.44858C23.1062 1.38823 23.2264 1.3354 23.3766 1.29011C23.5269 1.24482 23.6848 1.21469 23.85 1.19962C24.0304 1.16939 24.2032 1.15433 24.3685 1.15433C25.135 1.15433 25.7362 1.358 26.172 1.76544C26.6228 2.15771 26.8482 2.63304 26.8482 3.19142V16.3192C27.3892 16.2739 27.9302 16.2362 28.4713 16.206C29.0123 16.1607 29.5383 16.123 30.0492 16.0928C30.5602 16.0476 31.0262 16.0174 31.4469 16.0023C31.8827 15.9873 32.2584 15.9797 32.574 15.9797C33.085 15.9797 33.5283 16.0777 33.9041 16.2739C34.2798 16.4701 34.4676 16.8096 34.4676 17.2924C34.4676 17.4584 34.445 17.6999 34.4 18.0167C34.3699 18.3336 34.3173 18.6581 34.2422 18.99C34.1821 19.322 34.0919 19.6087 33.9717 19.8501C33.8665 20.0916 33.7388 20.2123 33.5884 20.2123C33.5133 20.2123 33.4532 20.1896 33.4081 20.1443C33.3781 20.084 33.318 20.0236 33.2278 19.9633C33.1526 19.9029 33.0324 19.8426 32.8671 19.7822C32.7168 19.7219 32.4839 19.6766 32.1683 19.6464L26.8482 19.3295ZM30.2296 38.659C30.2296 37.6028 30.1545 36.5089 30.0042 35.3771C29.8689 34.2605 29.6585 33.1288 29.373 31.982C29.0874 30.8201 28.7343 29.6733 28.3134 28.5417C27.8927 27.3949 27.4042 26.2857 26.8482 25.2143V45.0645C26.8482 45.4266 26.8632 45.819 26.8933 46.2415C26.9233 46.664 26.9759 47.0488 27.0512 47.3958C27.1413 47.7429 27.254 48.0295 27.3892 48.2559C27.5396 48.4973 27.7274 48.6181 27.9528 48.6181C28.2834 48.6181 28.5915 48.3766 28.8771 47.8938C29.1626 47.4109 29.4031 46.7244 29.5984 45.8341C29.7938 44.9589 29.9441 43.9102 30.0492 42.6879C30.1695 41.4808 30.2296 40.1379 30.2296 38.659ZM43.4619 34.5849C42.4853 34.5849 41.6738 34.4718 41.0275 34.2454C40.3813 34.0342 39.8704 33.7928 39.4946 33.5211C39.1189 33.2495 38.8559 32.993 38.7056 32.7515C38.5554 32.495 38.4802 32.329 38.4802 32.2536C38.4802 31.982 38.5404 31.6953 38.6606 31.3935C38.7808 31.0767 38.931 30.7899 39.1114 30.5335C39.2917 30.2618 39.4871 30.0354 39.6975 29.8544C39.9079 29.6733 40.0957 29.5828 40.2611 29.5828C40.4715 29.5828 40.6443 29.7186 40.7796 29.9902C40.8096 30.0204 40.8848 30.0958 41.005 30.2165C41.1252 30.3372 41.2905 30.4656 41.5009 30.6013C41.7264 30.7221 41.9968 30.8352 42.3124 30.9408C42.6431 31.0464 43.0262 31.0993 43.4619 31.0993C44.4093 31.0993 45.1826 30.8125 45.7837 30.2392C46.3849 29.6507 46.6859 28.8585 46.6859 27.8626C46.6859 27.1685 46.5205 26.5498 46.1896 26.0066C45.8741 25.4634 45.4538 24.9579 44.9277 24.4901C44.4016 24.0224 43.8004 23.5696 43.1243 23.1321C42.4477 22.6793 41.7564 22.2116 41.05 21.7288C40.3438 21.2459 39.6524 20.7253 38.9762 20.167C38.2999 19.6087 37.6988 18.9674 37.1728 18.2431C36.6467 17.5188 36.2184 16.704 35.8878 15.7986C35.5722 14.8781 35.4144 13.8294 35.4144 12.6524C35.4144 11.6415 35.5873 10.623 35.9329 9.59687C36.2785 8.57079 36.752 7.59753 37.3531 6.67701C37.9692 5.74151 38.6906 4.87381 39.5172 4.0741C40.3438 3.25932 41.238 2.55762 42.1998 1.96911C43.1618 1.36553 44.1611 0.897833 45.198 0.565817C46.2502 0.218737 47.3015 0.0452922 48.3537 0.0452922C49.2559 0.0452922 50.0667 0.188606 50.7881 0.475329C51.5094 0.761955 52.1183 1.16939 52.6146 1.69755C53.1099 2.21054 53.4937 2.83681 53.7639 3.57617C54.0342 4.30046 54.1698 5.11534 54.1698 6.02061C54.1698 6.88078 54.0198 7.72578 53.7187 8.55563C53.4186 9.38557 53.0204 10.1702 52.5241 10.9097C52.0288 11.649 51.4652 12.3356 50.8333 12.9694C50.2177 13.588 49.5791 14.1312 48.9173 14.599C48.271 15.0517 47.64 15.4063 47.0235 15.6628C46.4079 15.9193 45.8664 16.0476 45.4009 16.0476C44.995 16.0476 44.6267 15.957 44.2958 15.776C43.9803 15.5798 43.71 15.3459 43.485 15.0743C43.2743 14.7876 43.1089 14.4934 42.9887 14.1916C42.8684 13.8747 42.8088 13.5955 42.8088 13.3541C42.8088 13.158 42.8309 13.0297 42.8761 12.9694C42.9358 12.909 43.0108 12.8863 43.1012 12.9014C43.207 12.9014 43.334 12.9241 43.485 12.9694C43.635 12.9995 43.8081 13.0146 44.0034 13.0146C44.6343 13.0146 45.3336 12.7958 46.0992 12.3583C46.8658 11.9206 47.5871 11.3623 48.2633 10.6833C48.9404 10.0042 49.5031 9.25732 49.9542 8.44254C50.4206 7.62767 50.6534 6.83548 50.6534 6.0659C50.6534 5.28125 50.4582 4.66261 50.0667 4.20988C49.6916 3.75724 49.0452 3.53088 48.1286 3.53088C47.5573 3.53088 46.9341 3.64406 46.2579 3.87042C45.5962 4.08163 44.9277 4.38342 44.2515 4.77579C43.5744 5.16807 42.9213 5.64339 42.2899 6.20178C41.6587 6.76006 41.1026 7.3787 40.6217 8.0577C40.1408 8.72164 39.7501 9.44593 39.4496 10.2306C39.164 11.0002 39.0213 11.8074 39.0213 12.6524C39.0213 13.5427 39.179 14.3424 39.4946 15.0517C39.8252 15.7458 40.2536 16.3795 40.7796 16.953C41.3206 17.5263 41.9292 18.0545 42.6055 18.5373C43.282 19.0202 43.9726 19.5031 44.6795 19.9859C45.3855 20.4537 46.0771 20.9441 46.7532 21.4571C47.4294 21.955 48.0305 22.5134 48.5566 23.1321C49.0981 23.7356 49.5262 24.4146 49.8416 25.1692C50.1725 25.9085 50.3379 26.7611 50.3379 27.7268C50.3379 28.6624 50.1571 29.5526 49.7964 30.3976C49.4511 31.2275 48.9702 31.9518 48.3537 32.5705C47.7381 33.1892 47.0091 33.6796 46.1675 34.0417C45.3259 34.4039 44.4237 34.5849 43.4619 34.5849Z" fill="#D64D7E"/>
</svg>
