<svg width="55" height="53" viewBox="0 0 55 53" fill="none" xmlns="http://www.w3.org/2000/svg">
<path d="M9.55797 15.0743C8.98694 15.0743 8.49853 14.8781 8.09274 14.4858C7.70205 14.0935 7.50661 13.5126 7.50661 12.743C7.50661 12.577 7.51411 12.411 7.52921 12.2451C7.55922 12.064 7.59683 11.9055 7.64194 11.7697C7.68695 11.6188 7.73956 11.4981 7.79967 11.4076C7.87479 11.317 7.95001 11.2718 8.02513 11.2718C8.10024 11.2718 8.16786 11.2944 8.22797 11.3397C8.30319 11.3849 8.39331 11.4377 8.49854 11.4981C8.61876 11.5584 8.77659 11.6113 8.97194 11.6566C9.16728 11.7019 9.43775 11.7245 9.78343 11.7245C10.61 11.7245 11.4591 11.5962 12.3308 11.3397C13.2024 11.0681 13.9914 10.6908 14.6977 10.208C15.4191 9.71005 16.0052 9.11401 16.456 8.41985C16.9219 7.72578 17.1549 6.94113 17.1549 6.0659C17.1549 5.74905 17.1023 5.43972 16.9971 5.13794C16.8918 4.83615 16.7341 4.57202 16.5237 4.34575C16.3133 4.10432 16.0428 3.90818 15.7122 3.75724C15.3966 3.6063 15.0208 3.53088 14.585 3.53088C13.3827 3.53088 12.2782 3.795 11.2713 4.32306C10.2793 4.85121 9.37773 5.56797 8.56615 6.47334C7.75457 7.36364 7.0408 8.39725 6.42456 9.57418C5.82343 10.7512 5.32001 11.9961 4.91422 13.3088C4.50843 14.6066 4.20036 15.9269 3.99001 17.2698C3.77956 18.6128 3.67444 19.8878 3.67444 21.095C3.67444 22.5435 3.76456 23.8865 3.9449 25.1239C4.12524 26.3461 4.41831 27.4024 4.8241 28.2927C5.22979 29.1829 5.77091 29.8846 6.44717 30.3976C7.12342 30.8956 7.95751 31.1446 8.94934 31.1446C9.85104 31.1446 10.6476 30.9182 11.3389 30.4656C12.0302 29.9978 12.6314 29.3715 13.1423 28.5868C13.6683 27.8022 14.1116 26.8893 14.4723 25.8482C14.848 24.7919 15.1711 23.6677 15.4416 22.4757C15.7122 21.2836 15.9451 20.0538 16.1405 18.7863C16.3358 17.5188 16.5087 16.2814 16.659 15.0743C16.704 14.7726 16.922 14.5462 17.3127 14.3953C17.7034 14.2293 18.1167 14.1463 18.5525 14.1463C18.7329 14.1463 18.9207 14.169 19.1161 14.2142C19.3115 14.2595 19.4768 14.3274 19.6121 14.418C19.7623 14.5084 19.8675 14.6292 19.9276 14.7801C20.0027 14.9309 20.0178 15.1196 19.9727 15.3459C19.8525 15.9495 19.7248 16.9077 19.5895 18.2205C19.4542 19.5181 19.3866 21.0799 19.3866 22.9057C19.3866 24.4298 19.3941 25.7425 19.4091 26.8441C19.4392 27.9456 19.4768 28.8963 19.5218 29.696C19.5669 30.4957 19.6121 31.1672 19.6571 31.7104C19.7022 32.2385 19.7473 32.6836 19.7924 33.0458C19.8825 33.1816 19.9276 33.2872 19.9276 33.3627C19.9276 33.5136 19.8525 33.6569 19.7022 33.7928C19.5519 33.9286 19.3641 34.0493 19.1387 34.1549C18.9132 34.2605 18.6577 34.3435 18.3722 34.4039C18.1017 34.4642 17.8387 34.4944 17.5832 34.4944C17.1774 34.4944 16.8693 34.4114 16.659 34.2454C16.4485 34.0794 16.2907 33.8003 16.1856 33.4079C16.0954 33.0307 16.0352 32.5253 16.0052 31.8915C15.9751 31.2426 15.9451 30.4504 15.915 29.5149C15.5693 30.2543 15.141 30.9408 14.6301 31.5746C14.1191 32.2083 13.5481 32.7592 12.9168 33.2269C12.2857 33.7097 11.5943 34.087 10.843 34.3586C10.1066 34.6301 9.33262 34.766 8.52104 34.766C7.25866 34.766 6.10149 34.5246 5.04955 34.0417C4.01252 33.5589 3.11831 32.7818 2.36694 31.7104C1.61547 30.639 1.02944 29.2432 0.60864 27.5231C0.202849 25.7878 0 23.6753 0 21.1855C0 19.4805 0.157738 17.7753 0.473311 16.0702C0.803984 14.35 1.26989 12.7052 1.87103 11.1359C2.48717 9.56664 3.23104 8.10299 4.10274 6.7449C4.98934 5.3869 5.98126 4.20988 7.07831 3.21402C8.17546 2.21817 9.37014 1.43342 10.6626 0.860073C11.9701 0.286723 13.3527 0 14.8105 0C15.7573 0 16.5989 0.150846 17.3352 0.452635C18.0866 0.754423 18.7179 1.17693 19.2288 1.72015C19.7398 2.2483 20.1305 2.87447 20.401 3.59877C20.6715 4.30799 20.8068 5.07005 20.8068 5.88483C20.8068 7.22776 20.4837 8.46514 19.8375 9.59687C19.1913 10.7134 18.3422 11.6792 17.2901 12.494C16.2382 13.3088 15.0359 13.9426 13.6833 14.3953C12.3308 14.848 10.9557 15.0743 9.55797 15.0743ZM26.8482 19.3295V20.3481C27.9002 21.6306 28.847 22.951 29.6885 24.3091C30.5452 25.652 31.2666 27.0704 31.8526 28.5642C32.4538 30.0581 32.9122 31.635 33.2278 33.2947C33.5584 34.9546 33.7237 36.7428 33.7237 38.659C33.7237 40.5905 33.5734 42.3711 33.2729 44.0007C32.9873 45.6455 32.574 47.0563 32.033 48.2333C31.5071 49.4254 30.8608 50.3534 30.0943 51.0173C29.343 51.6812 28.5089 52.0132 27.5921 52.0132C26.7806 52.0132 26.1043 51.8095 25.5633 51.4021C25.0223 51.0098 24.5864 50.4816 24.2558 49.8177C23.9402 49.1688 23.7073 48.4295 23.557 47.5995C23.4217 46.7697 23.3541 45.9247 23.3541 45.0645V20.1217C23.309 20.0764 23.2564 20.0236 23.1963 19.9633C23.1513 19.9029 23.1061 19.8426 23.061 19.7822C22.7004 19.42 22.3698 19.0881 22.0692 18.7863C21.7837 18.4694 21.6409 18.1224 21.6409 17.7452C21.6409 17.5188 21.7235 17.2924 21.8889 17.0662C22.0541 16.8247 22.3247 16.6813 22.7004 16.636C22.7755 16.636 22.8657 16.6285 22.9709 16.6134C23.076 16.5984 23.2039 16.5908 23.3541 16.5908V3.41769C23.3541 3.08577 23.3241 2.82175 23.2639 2.62551C23.2189 2.42937 23.1663 2.27853 23.1062 2.17288C23.061 2.05216 23.0084 1.96158 22.9483 1.90122C22.9032 1.8258 22.8807 1.75037 22.8807 1.67485C22.8807 1.58437 22.9258 1.50894 23.0159 1.44858C23.1062 1.38823 23.2264 1.3354 23.3766 1.29011C23.5269 1.24482 23.6848 1.21469 23.85 1.19962C24.0304 1.16939 24.2032 1.15433 24.3685 1.15433C25.135 1.15433 25.7362 1.358 26.172 1.76544C26.6228 2.15771 26.8482 2.63304 26.8482 3.19142V16.3192C27.3892 16.2739 27.9302 16.2362 28.4713 16.206C29.0123 16.1607 29.5383 16.123 30.0492 16.0928C30.5602 16.0476 31.0262 16.0174 31.4469 16.0023C31.8827 15.9873 32.2584 15.9797 32.574 15.9797C33.085 15.9797 33.5283 16.0777 33.9041 16.2739C34.2798 16.4701 34.4676 16.8096 34.4676 17.2924C34.4676 17.4584 34.445 17.6999 34.4 18.0167C34.3699 18.3336 34.3173 18.6581 34.2422 18.99C34.1821 19.322 34.0919 19.6087 33.9717 19.8501C33.8665 20.0916 33.7388 20.2123 33.5884 20.2123C33.5133 20.2123 33.4532 20.1896 33.4081 20.1443C33.3781 20.084 33.318 20.0236 33.2278 19.9633C33.1526 19.9029 33.0324 19.8426 32.8671 19.7822C32.7168 19.7219 32.4839 19.6766 32.1683 19.6464L26.8482 19.3295ZM30.2296 38.659C30.2296 37.6028 30.1545 36.5089 30.0042 35.3771C29.8689 34.2605 29.6585 33.1288 29.373 31.982C29.0874 30.8201 28.7343 29.6733 28.3134 28.5417C27.8927 27.3949 27.4042 26.2857 26.8482 25.2143V45.0645C26.8482 45.4266 26.8632 45.819 26.8933 46.2415C26.9233 46.664 26.9759 47.0488 27.0512 47.3958C27.1413 47.7429 27.254 48.0295 27.3892 48.2559C27.5396 48.4973 27.7274 48.6181 27.9528 48.6181C28.2834 48.6181 28.5915 48.3766 28.8771 47.8938C29.1626 47.4109 29.4031 46.7244 29.5984 45.8341C29.7938 44.9589 29.9441 43.9102 30.0492 42.6879C30.1695 41.4808 30.2296 40.1379 30.2296 38.659ZM43.4619 34.5849C42.4853 34.5849 41.6738 34.4718 41.0275 34.2454C40.3813 34.0342 39.8704 33.7928 39.4946 33.5211C39.1189 33.2495 38.8559 32.993 38.7056 32.7515C38.5554 32.495 38.4802 32.329 38.4802 32.2536C38.4802 31.982 38.5404 31.6953 38.6606 31.3935C38.7808 31.0767 38.931 30.7899 39.1114 30.5335C39.2917 30.2618 39.4871 30.0354 39.6975 29.8544C39.9079 29.6733 40.0957 29.5828 40.2611 29.5828C40.4715 29.5828 40.6443 29.7186 40.7796 29.9902C40.8096 30.0204 40.8848 30.0958 41.005 30.2165C41.1252 30.3372 41.2905 30.4656 41.5009 30.6013C41.7264 30.7221 41.9968 30.8352 42.3124 30.9408C42.6431 31.0464 43.0262 31.0993 43.4619 31.0993C44.4093 31.0993 45.1826 30.8125 45.7837 30.2392C46.3849 29.6507 46.6859 28.8585 46.6859 27.8626C46.6859 27.1685 46.5205 26.5498 46.1896 26.0066C45.8741 25.4634 45.4538 24.9579 44.9277 24.4901C44.4016 24.0224 43.8004 23.5696 43.1243 23.1321C42.4477 22.6793 41.7564 22.2116 41.05 21.7288C40.3438 21.2459 39.6524 20.7253 38.9762 20.167C38.2999 19.6087 37.6988 18.9674 37.1728 18.2431C36.6467 17.5188 36.2184 16.704 35.8878 15.7986C35.5722 14.8781 35.4144 13.8294 35.4144 12.6524C35.4144 11.6415 35.5873 10.623 35.9329 9.59687C36.2785 8.57079 36.752 7.59753 37.3531 6.67701C37.9692 5.74151 38.6906 4.87381 39.5172 4.0741C40.3438 3.25932 41.238 2.55762 42.1998 1.96911C43.1618 1.36553 44.1611 0.897833 45.198 0.565817C46.2502 0.218736 47.3015 0.0452922 48.3537 0.0452922C49.2559 0.0452922 50.0667 0.188606 50.7881 0.475329C51.5094 0.761955 52.1183 1.16939 52.6146 1.69755C53.1099 2.21054 53.4937 2.83681 53.7639 3.57617C54.0342 4.30046 54.1698 5.11534 54.1698 6.02061C54.1698 6.88078 54.0198 7.72578 53.7187 8.55563C53.4186 9.38557 53.0204 10.1702 52.5241 10.9097C52.0288 11.649 51.4652 12.3356 50.8333 12.9694C50.2177 13.588 49.5791 14.1312 48.9173 14.599C48.271 15.0517 47.64 15.4063 47.0235 15.6628C46.4079 15.9193 45.8664 16.0476 45.4009 16.0476C44.995 16.0476 44.6267 15.957 44.2958 15.776C43.9803 15.5798 43.71 15.3459 43.485 15.0743C43.2743 14.7876 43.1089 14.4934 42.9887 14.1916C42.8684 13.8747 42.8088 13.5955 42.8088 13.3541C42.8088 13.158 42.8309 13.0297 42.8761 12.9694C42.9358 12.909 43.0108 12.8863 43.1012 12.9014C43.207 12.9014 43.334 12.9241 43.485 12.9694C43.635 12.9995 43.8081 13.0146 44.0034 13.0146C44.6343 13.0146 45.3336 12.7958 46.0992 12.3583C46.8658 11.9206 47.5871 11.3623 48.2633 10.6833C48.9404 10.0042 49.5031 9.25732 49.9542 8.44254C50.4206 7.62767 50.6534 6.83548 50.6534 6.0659C50.6534 5.28125 50.4582 4.66261 50.0667 4.20988C49.6916 3.75724 49.0452 3.53088 48.1286 3.53088C47.5573 3.53088 46.9341 3.64406 46.2579 3.87042C45.5962 4.08163 44.9277 4.38342 44.2515 4.77579C43.5744 5.16807 42.9213 5.64339 42.2899 6.20178C41.6587 6.76006 41.1026 7.3787 40.6217 8.0577C40.1408 8.72164 39.7501 9.44593 39.4496 10.2306C39.164 11.0002 39.0213 11.8074 39.0213 12.6524C39.0213 13.5427 39.179 14.3424 39.4946 15.0517C39.8252 15.7458 40.2536 16.3795 40.7796 16.953C41.3206 17.5263 41.9292 18.0545 42.6055 18.5373C43.282 19.0202 43.9726 19.5031 44.6795 19.9859C45.3855 20.4537 46.0771 20.9441 46.7532 21.4571C47.4294 21.955 48.0305 22.5134 48.5566 23.1321C49.0981 23.7356 49.5262 24.4146 49.8416 25.1692C50.1725 25.9085 50.3379 26.7611 50.3379 27.7268C50.3379 28.6624 50.1571 29.5526 49.7964 30.3976C49.4511 31.2275 48.9702 31.9518 48.3537 32.5705C47.7381 33.1892 47.0091 33.6796 46.1675 34.0417C45.3259 34.4039 44.4237 34.5849 43.4619 34.5849Z" fill="#4756DF"/>
</svg>
