<svg width="172" height="116" viewBox="0 0 172 116" fill="none" xmlns="http://www.w3.org/2000/svg">
<path d="M51.4094 25.7936C50.429 25.7936 49.5905 25.458 48.8938 24.7868C48.2231 24.1154 47.8875 23.1215 47.8875 21.8046C47.8875 21.5206 47.9004 21.2365 47.9263 20.9526C47.9778 20.6428 48.0424 20.3716 48.1199 20.1393C48.1971 19.881 48.2875 19.6744 48.3907 19.5196C48.5196 19.3646 48.6488 19.2873 48.7777 19.2873C48.9067 19.2873 49.0228 19.3259 49.126 19.4034C49.2551 19.4808 49.4098 19.5712 49.5905 19.6744C49.7969 19.7777 50.0679 19.8681 50.4032 19.9456C50.7386 20.0231 51.203 20.0618 51.7964 20.0618C53.2155 20.0618 54.6733 19.8423 56.1698 19.4034C57.6662 18.9386 59.0207 18.2932 60.2334 17.4669C61.4719 16.6149 62.4782 15.595 63.2521 14.4072C64.052 13.2196 64.4519 11.877 64.4519 10.3794C64.4519 9.83722 64.3616 9.30794 64.181 8.79155C64.0003 8.27516 63.7295 7.82321 63.3682 7.43604C63.0071 7.02293 62.5426 6.68731 61.975 6.42904C61.4332 6.17076 60.7881 6.0417 60.0399 6.0417C57.9758 6.0417 56.0795 6.49365 54.3508 7.39721C52.6478 8.30094 51.0999 9.52739 49.7066 11.0766C48.3132 12.6 47.0878 14.3686 46.0298 16.3824C44.9978 18.3964 44.1335 20.5266 43.4368 22.7728C42.7402 24.9934 42.2113 27.2526 41.8501 29.5505C41.4888 31.8484 41.3084 34.0301 41.3084 36.0957C41.3084 38.5744 41.4631 40.8723 41.7727 42.9896C42.0823 45.0809 42.5855 46.8884 43.2821 48.4118C43.9786 49.935 44.9076 51.1357 46.0686 52.0135C47.2297 52.8656 48.6616 53.2916 50.3644 53.2916C51.9125 53.2916 53.2801 52.9043 54.4668 52.1298C55.6538 51.3293 56.6858 50.2577 57.563 48.9151C58.4661 47.5725 59.2271 46.0104 59.8464 44.2289C60.4914 42.4216 61.0462 40.498 61.5105 38.4582C61.975 36.4184 62.375 34.3142 62.7103 32.1453C63.0457 29.9765 63.3424 27.8592 63.6005 25.7936C63.6778 25.2774 64.052 24.8901 64.7229 24.6318C65.3937 24.3477 66.1032 24.2058 66.8514 24.2058C67.161 24.2058 67.4835 24.2446 67.819 24.322C68.1544 24.3995 68.4383 24.5156 68.6704 24.6706C68.9284 24.8255 69.109 25.032 69.2122 25.2903C69.3412 25.5484 69.3669 25.8711 69.2897 26.2585C69.0833 27.2913 68.864 28.9308 68.6316 31.1772C68.3995 33.3976 68.2834 36.0699 68.2834 39.1941C68.2834 41.802 68.2963 44.0481 68.322 45.9331C68.3737 47.8179 68.4383 49.4446 68.5156 50.813C68.593 52.1814 68.6704 53.3303 68.7477 54.2598C68.8252 55.1635 68.9026 55.9251 68.98 56.5448C69.1348 56.7771 69.2122 56.9579 69.2122 57.0871C69.2122 57.3453 69.0833 57.5905 68.8252 57.823C68.5672 58.0553 68.2447 58.2619 67.8577 58.4427C67.4706 58.6233 67.032 58.7654 66.5418 58.8687C66.0774 58.9719 65.6258 59.0235 65.1872 59.0235C64.4906 59.0235 63.9617 58.8815 63.6005 58.5975C63.2392 58.3134 62.9683 57.8359 62.7878 57.1645C62.6329 56.519 62.5297 55.6541 62.4782 54.5696C62.4265 53.4594 62.375 52.1038 62.3233 50.5031C61.7298 51.7682 60.9945 52.943 60.1173 54.0275C59.24 55.1118 58.2597 56.0544 57.1759 56.8546C56.0924 57.6809 54.9054 58.3265 53.6155 58.7912C52.3512 59.2558 51.0225 59.4883 49.6291 59.4883C47.4618 59.4883 45.4752 59.0752 43.6692 58.249C41.8888 57.4228 40.3536 56.093 39.0636 54.2598C37.7735 52.4266 36.7674 50.0383 36.0449 47.0949C35.3483 44.1256 35 40.5109 35 36.2507C35 33.3331 35.2708 30.4154 35.8126 27.4978C36.3803 24.5543 37.1802 21.74 38.2122 19.0548C39.27 16.3695 40.5471 13.8651 42.0437 11.5412C43.5658 9.21755 45.2688 7.20354 47.1522 5.49953C49.0358 3.79552 51.0869 2.45274 53.3058 1.47168C55.5506 0.490614 57.9243 0 60.427 0C62.0525 0 63.4973 0.258114 64.7616 0.774506C66.0515 1.2909 67.1353 2.01385 68.0124 2.94335C68.8897 3.84708 69.5605 4.91853 70.025 6.15787C70.4893 7.37143 70.7217 8.67538 70.7217 10.0696C70.7217 12.3675 70.1668 14.4847 69.0575 16.4213C67.948 18.3318 66.4903 19.9843 64.6841 21.3786C62.8781 22.7728 60.814 23.8573 58.4918 24.6318C56.1698 25.4065 53.809 25.7936 51.4094 25.7936ZM81.0936 33.0749V34.8177C82.8998 37.0123 84.5251 39.2716 85.97 41.5954C87.4408 43.8933 88.6792 46.3203 89.6854 48.8764C90.7174 51.4326 91.5044 54.1308 92.0462 56.9708C92.6139 59.8111 92.8976 62.8707 92.8976 66.1497C92.8976 69.4546 92.6397 72.5014 92.1236 75.2899C91.6334 78.1042 90.9238 80.5183 89.995 82.5323C89.0921 84.5721 87.9826 86.1599 86.6667 87.296C85.3767 88.4321 83.9447 89 82.3707 89C80.9775 89 79.8165 88.6515 78.8877 87.9543C77.9588 87.2831 77.2105 86.3794 76.6429 85.2433C76.1012 84.133 75.7012 82.8679 75.4431 81.4478C75.211 80.0278 75.0949 78.5819 75.0949 77.1101V34.4304C75.0174 34.3529 74.9271 34.2625 74.8239 34.1594C74.7466 34.0559 74.6692 33.9528 74.5917 33.8494C73.9725 33.2297 73.405 32.6617 72.8889 32.1453C72.3987 31.6032 72.1536 31.0093 72.1536 30.3638C72.1536 29.9765 72.2955 29.5892 72.5793 29.202C72.863 28.7889 73.3275 28.5435 73.9725 28.466C74.1015 28.466 74.2564 28.4531 74.437 28.4273C74.6175 28.4015 74.837 28.3887 75.0949 28.3887V5.84803C75.0949 5.28009 75.0434 4.82831 74.94 4.49253C74.8627 4.15691 74.7724 3.8988 74.6692 3.71802C74.5917 3.51146 74.5014 3.35646 74.3982 3.25319C74.3208 3.12413 74.2821 2.99507 74.2821 2.86585C74.2821 2.71102 74.3596 2.58196 74.5143 2.47868C74.6692 2.3754 74.8756 2.28501 75.1335 2.20751C75.3916 2.13001 75.6626 2.07846 75.9463 2.05268C76.2559 2.00096 76.5526 1.97518 76.8365 1.97518C78.1524 1.97518 79.1844 2.32368 79.9326 3.02085C80.7066 3.69208 81.0936 4.50541 81.0936 5.46086V27.9238C82.0225 27.8463 82.9513 27.7819 83.8801 27.7302C84.809 27.6527 85.7121 27.5882 86.5892 27.5365C87.4665 27.4592 88.2664 27.4074 88.9889 27.3817C89.737 27.3559 90.382 27.343 90.9238 27.343C91.8011 27.343 92.5622 27.5107 93.2074 27.8463C93.8524 28.1821 94.1748 28.7629 94.1748 29.5892C94.1748 29.8732 94.136 30.2863 94.0588 30.8285C94.0071 31.3707 93.9167 31.9259 93.7878 32.4938C93.6846 33.062 93.5299 33.5526 93.3234 33.9657C93.1428 34.3788 92.9235 34.5854 92.6654 34.5854C92.5365 34.5854 92.4332 34.5465 92.3558 34.469C92.3043 34.3659 92.2011 34.2625 92.0462 34.1594C91.9172 34.0559 91.7108 33.9528 91.427 33.8494C91.169 33.7462 90.7691 33.6687 90.2273 33.617L81.0936 33.0749ZM86.8988 66.1497C86.8988 64.3424 86.7699 62.4705 86.5119 60.534C86.2796 58.6233 85.9185 56.6869 85.4282 54.7246C84.9379 52.7364 84.3318 50.7741 83.6092 48.8378C82.8869 46.8755 82.0482 44.9776 81.0936 43.1444V77.1101C81.0936 77.7298 81.1194 78.4012 81.1711 79.1241C81.2226 79.8471 81.3129 80.5054 81.442 81.0993C81.5968 81.6932 81.7903 82.1836 82.0225 82.571C82.2806 82.9841 82.603 83.1906 82.9899 83.1906C83.5576 83.1906 84.0866 82.7775 84.5768 81.9513C85.0671 81.1251 85.4799 79.9503 85.8153 78.4269C86.1506 76.9295 86.4087 75.1349 86.5892 73.0436C86.7956 70.978 86.8988 68.6801 86.8988 66.1497ZM109.616 59.1785C107.94 59.1785 106.547 58.9848 105.437 58.5975C104.328 58.2361 103.45 57.823 102.805 57.3582C102.16 56.8935 101.709 56.4544 101.451 56.0413C101.193 55.6024 101.064 55.3184 101.064 55.1893C101.064 54.7246 101.167 54.234 101.373 53.7176C101.58 53.1755 101.838 52.6848 102.147 52.246C102.457 51.7811 102.792 51.3938 103.154 51.084C103.515 50.7741 103.837 50.6193 104.121 50.6193C104.482 50.6193 104.779 50.8516 105.011 51.3165C105.063 51.368 105.192 51.4971 105.398 51.7036C105.605 51.9102 105.888 52.1298 106.25 52.3621C106.637 52.5687 107.101 52.7624 107.643 52.943C108.211 53.1237 108.868 53.2141 109.616 53.2141C111.243 53.2141 112.571 52.7235 113.603 51.7425C114.635 50.7355 115.151 49.3799 115.151 47.6758C115.151 46.4881 114.867 45.4296 114.299 44.5001C113.758 43.5706 113.036 42.7055 112.133 41.9051C111.23 41.1048 110.198 40.3301 109.037 39.5814C107.875 38.8067 106.688 38.0064 105.476 37.1802C104.263 36.354 103.076 35.4631 101.915 34.5079C100.754 33.5526 99.7221 32.4552 98.819 31.2158C97.916 29.9765 97.1806 28.5823 96.6129 27.033C96.0712 25.458 95.8004 23.6636 95.8004 21.6496C95.8004 19.9198 96.0971 18.177 96.6904 16.4213C97.2839 14.6655 98.0966 13.0002 99.1287 11.4251C100.186 9.82433 101.425 8.3396 102.844 6.97121C104.263 5.57703 105.798 4.37636 107.45 3.36935C109.101 2.33657 110.817 1.53629 112.597 0.968173C114.403 0.374281 116.208 0.0774997 118.015 0.0774997C119.564 0.0774997 120.956 0.322724 122.194 0.813338C123.433 1.30379 124.478 2.00096 125.33 2.90468C126.18 3.78247 126.839 4.85408 127.303 6.1192C127.767 7.35854 128 8.75288 128 10.3019C128 11.7737 127.742 13.2196 127.226 14.6396C126.71 16.0597 126.027 17.4023 125.175 18.6676C124.324 19.9327 123.357 21.1075 122.272 22.192C121.215 23.2505 120.118 24.18 118.982 24.9805C117.873 25.755 116.79 26.3618 115.731 26.8007C114.674 27.2395 113.745 27.4592 112.945 27.4592C112.249 27.4592 111.616 27.3042 111.048 26.9943C110.506 26.6587 110.042 26.2585 109.656 25.7936C109.294 25.3032 109.01 24.7997 108.804 24.2833C108.598 23.7411 108.495 23.2634 108.495 22.8503C108.495 22.5147 108.533 22.2952 108.611 22.192C108.713 22.0887 108.842 22.0498 108.997 22.0756C109.179 22.0756 109.397 22.1145 109.656 22.192C109.914 22.2435 110.211 22.2693 110.546 22.2693C111.629 22.2693 112.83 21.895 114.144 21.1463C115.46 20.3974 116.699 19.4421 117.86 18.2803C119.022 17.1183 119.988 15.8403 120.762 14.4461C121.563 13.0517 121.963 11.6962 121.963 10.3794C121.963 9.03677 121.628 7.97821 120.956 7.20354C120.312 6.42904 119.202 6.0417 117.628 6.0417C116.648 6.0417 115.577 6.23537 114.417 6.6227C113.281 6.9841 112.133 7.50049 110.972 8.17188C109.81 8.84311 108.688 9.65644 107.604 10.6119C106.521 11.5672 105.566 12.6257 104.74 13.7876C103.915 14.9236 103.244 16.163 102.728 17.5056C102.238 18.8224 101.993 20.2037 101.993 21.6496C101.993 23.173 102.263 24.5414 102.805 25.755C103.373 26.9428 104.108 28.0271 105.011 29.0083C105.94 29.9894 106.985 30.8931 108.146 31.7193C109.308 32.5456 110.493 33.3718 111.707 34.198C112.919 34.9985 114.106 35.8376 115.267 36.7154C116.428 37.5674 117.46 38.5228 118.363 39.5814C119.293 40.6142 120.028 41.776 120.569 43.0671C121.137 44.3322 121.421 45.791 121.421 47.4434C121.421 49.0443 121.111 50.5676 120.492 52.0135C119.899 53.4336 119.073 54.6729 118.015 55.7315C116.958 56.7902 115.706 57.6293 114.261 58.249C112.817 58.8687 111.268 59.1785 109.616 59.1785Z" fill="#FFFCFC"/>
<path d="M11.004 101.432L8.724 110H7.632L5.964 104.384C5.9 104.152 5.836 103.92 5.772 103.688C5.708 103.456 5.656 103.252 5.616 103.076C5.576 102.892 5.548 102.764 5.532 102.692C5.524 102.796 5.48 103.02 5.4 103.364C5.328 103.7 5.236 104.052 5.124 104.42L3.504 110H2.412L0.144 101.432H1.272L2.604 106.664C2.7 107.032 2.78 107.388 2.844 107.732C2.916 108.076 2.972 108.4 3.012 108.704C3.052 108.392 3.112 108.052 3.192 107.684C3.272 107.316 3.364 106.956 3.468 106.604L4.98 101.432H6.096L7.668 106.64C7.78 107.008 7.876 107.376 7.956 107.744C8.036 108.104 8.096 108.424 8.136 108.704C8.176 108.408 8.232 108.088 8.304 107.744C8.376 107.392 8.46 107.028 8.556 106.652L9.876 101.432H11.004ZM17.1083 110H12.3203V101.432H17.1083V102.38H13.4003V105.056H16.8923V105.992H13.4003V109.052H17.1083V110ZM18.9882 101.432H21.4362C22.5082 101.432 23.3162 101.592 23.8602 101.912C24.4122 102.224 24.6882 102.772 24.6882 103.556C24.6882 104.06 24.5482 104.48 24.2682 104.816C23.9882 105.144 23.5842 105.356 23.0562 105.452V105.512C23.4162 105.568 23.7402 105.672 24.0282 105.824C24.3242 105.976 24.5562 106.192 24.7242 106.472C24.8922 106.752 24.9762 107.116 24.9762 107.564C24.9762 108.34 24.7082 108.94 24.1722 109.364C23.6442 109.788 22.9202 110 22.0002 110H18.9882V101.432ZM20.0682 105.08H21.6522C22.3882 105.08 22.8922 104.964 23.1642 104.732C23.4362 104.492 23.5722 104.14 23.5722 103.676C23.5722 103.204 23.4042 102.868 23.0682 102.668C22.7402 102.46 22.2122 102.356 21.4842 102.356H20.0682V105.08ZM20.0682 105.98V109.088H21.7962C22.5562 109.088 23.0842 108.94 23.3802 108.644C23.6762 108.348 23.8242 107.96 23.8242 107.48C23.8242 107.032 23.6682 106.672 23.3562 106.4C23.0522 106.12 22.5042 105.98 21.7122 105.98H20.0682ZM36.7741 105.632C36.7741 107.08 36.3781 108.172 35.5861 108.908C34.8021 109.636 33.7061 110 32.2981 110H29.9101V101.432H32.5501C33.4141 101.432 34.1621 101.592 34.7941 101.912C35.4261 102.232 35.9141 102.704 36.2581 103.328C36.6021 103.944 36.7741 104.712 36.7741 105.632ZM35.6341 105.668C35.6341 104.524 35.3501 103.688 34.7821 103.16C34.2221 102.624 33.4261 102.356 32.3941 102.356H30.9901V109.076H32.1541C34.4741 109.076 35.6341 107.94 35.6341 105.668ZM43.4637 110H38.6757V101.432H43.4637V102.38H39.7557V105.056H43.2477V105.992H39.7557V109.052H43.4637V110ZM51.3797 101.432L48.3197 110H47.2397L44.1797 101.432H45.3077L47.2397 106.928C47.3677 107.28 47.4757 107.612 47.5637 107.924C47.6517 108.228 47.7237 108.52 47.7797 108.8C47.8357 108.52 47.9077 108.224 47.9957 107.912C48.0837 107.6 48.1917 107.264 48.3197 106.904L50.2397 101.432H51.3797ZM57.327 110H52.539V101.432H57.327V102.38H53.619V105.056H57.111V105.992H53.619V109.052H57.327V110ZM59.207 110V101.432H60.287V109.04H64.031V110H59.207ZM72.7416 105.704C72.7416 106.592 72.5896 107.368 72.2856 108.032C71.9896 108.688 71.5496 109.2 70.9656 109.568C70.3816 109.936 69.6576 110.12 68.7936 110.12C67.9056 110.12 67.1656 109.936 66.5736 109.568C65.9896 109.2 65.5536 108.684 65.2656 108.02C64.9776 107.356 64.8336 106.58 64.8336 105.692C64.8336 104.812 64.9776 104.044 65.2656 103.388C65.5536 102.732 65.9896 102.22 66.5736 101.852C67.1656 101.484 67.9096 101.3 68.8056 101.3C69.6616 101.3 70.3816 101.484 70.9656 101.852C71.5496 102.212 71.9896 102.724 72.2856 103.388C72.5896 104.044 72.7416 104.816 72.7416 105.704ZM65.9736 105.704C65.9736 106.784 66.2016 107.636 66.6576 108.26C67.1136 108.876 67.8256 109.184 68.7936 109.184C69.7696 109.184 70.4816 108.876 70.9296 108.26C71.3776 107.636 71.6016 106.784 71.6016 105.704C71.6016 104.624 71.3776 103.78 70.9296 103.172C70.4816 102.556 69.7736 102.248 68.8056 102.248C67.8376 102.248 67.1216 102.556 66.6576 103.172C66.2016 103.78 65.9736 104.624 65.9736 105.704ZM76.9086 101.432C78.0286 101.432 78.8446 101.652 79.3566 102.092C79.8686 102.532 80.1246 103.152 80.1246 103.952C80.1246 104.424 80.0166 104.868 79.8006 105.284C79.5926 105.692 79.2366 106.024 78.7326 106.28C78.2366 106.536 77.5606 106.664 76.7046 106.664H75.7206V110H74.6406V101.432H76.9086ZM76.8126 102.356H75.7206V105.74H76.5846C77.4006 105.74 78.0086 105.608 78.4086 105.344C78.8086 105.08 79.0086 104.632 79.0086 104C79.0086 103.448 78.8326 103.036 78.4806 102.764C78.1286 102.492 77.5726 102.356 76.8126 102.356ZM86.6942 110H81.9062V101.432H86.6942V102.38H82.9862V105.056H86.4782V105.992H82.9862V109.052H86.6942V110ZM90.9382 101.432C92.0022 101.432 92.7862 101.636 93.2902 102.044C93.8022 102.444 94.0582 103.052 94.0582 103.868C94.0582 104.324 93.9742 104.704 93.8062 105.008C93.6382 105.312 93.4222 105.556 93.1582 105.74C92.9022 105.916 92.6302 106.056 92.3422 106.16L94.6942 110H93.4342L91.3582 106.46H89.6542V110H88.5742V101.432H90.9382ZM90.8782 102.368H89.6542V105.548H90.9382C91.6342 105.548 92.1422 105.412 92.4622 105.14C92.7822 104.86 92.9422 104.452 92.9422 103.916C92.9422 103.356 92.7742 102.96 92.4382 102.728C92.1022 102.488 91.5822 102.368 90.8782 102.368ZM97.9922 111.452L100.752 100.88H101.448L98.7002 111.452H97.9922ZM112.594 105.632C112.594 107.08 112.198 108.172 111.406 108.908C110.622 109.636 109.526 110 108.118 110H105.73V101.432H108.37C109.234 101.432 109.982 101.592 110.614 101.912C111.246 102.232 111.734 102.704 112.078 103.328C112.422 103.944 112.594 104.712 112.594 105.632ZM111.454 105.668C111.454 104.524 111.17 103.688 110.602 103.16C110.042 102.624 109.246 102.356 108.214 102.356H106.81V109.076H107.974C110.294 109.076 111.454 107.94 111.454 105.668ZM119.284 110H114.496V101.432H119.284V102.38H115.576V105.056H119.068V105.992H115.576V109.052H119.284V110ZM126.024 107.708C126.024 108.468 125.748 109.06 125.196 109.484C124.644 109.908 123.9 110.12 122.964 110.12C122.484 110.12 122.04 110.084 121.632 110.012C121.224 109.94 120.884 109.84 120.612 109.712V108.68C120.9 108.808 121.256 108.924 121.68 109.028C122.112 109.132 122.556 109.184 123.012 109.184C123.652 109.184 124.132 109.06 124.452 108.812C124.78 108.564 124.944 108.228 124.944 107.804C124.944 107.524 124.884 107.288 124.764 107.096C124.644 106.904 124.436 106.728 124.14 106.568C123.852 106.4 123.448 106.224 122.928 106.04C122.2 105.776 121.648 105.452 121.272 105.068C120.904 104.684 120.72 104.16 120.72 103.496C120.72 103.04 120.836 102.652 121.068 102.332C121.3 102.004 121.62 101.752 122.028 101.576C122.444 101.4 122.92 101.312 123.456 101.312C123.928 101.312 124.36 101.356 124.752 101.444C125.144 101.532 125.5 101.648 125.82 101.792L125.484 102.716C125.188 102.588 124.864 102.48 124.512 102.392C124.168 102.304 123.808 102.26 123.432 102.26C122.896 102.26 122.492 102.376 122.22 102.608C121.948 102.832 121.812 103.132 121.812 103.508C121.812 103.796 121.872 104.036 121.992 104.228C122.112 104.42 122.308 104.592 122.58 104.744C122.852 104.896 123.22 105.06 123.684 105.236C124.188 105.42 124.612 105.62 124.956 105.836C125.308 106.044 125.572 106.296 125.748 106.592C125.932 106.888 126.024 107.26 126.024 107.708ZM130.162 110H127.066V109.376L128.074 109.148V102.296L127.066 102.056V101.432H130.162V102.056L129.154 102.296V109.148L130.162 109.376V110ZM135.536 105.476H138.5V109.676C138.036 109.828 137.568 109.94 137.096 110.012C136.624 110.084 136.088 110.12 135.488 110.12C134.6 110.12 133.852 109.944 133.244 109.592C132.636 109.232 132.172 108.724 131.852 108.068C131.54 107.404 131.384 106.62 131.384 105.716C131.384 104.82 131.56 104.044 131.912 103.388C132.264 102.732 132.768 102.224 133.424 101.864C134.088 101.496 134.888 101.312 135.824 101.312C136.304 101.312 136.756 101.356 137.18 101.444C137.612 101.532 138.012 101.656 138.38 101.816L137.972 102.752C137.668 102.616 137.324 102.5 136.94 102.404C136.564 102.308 136.172 102.26 135.764 102.26C134.74 102.26 133.94 102.568 133.364 103.184C132.796 103.8 132.512 104.644 132.512 105.716C132.512 106.396 132.62 107 132.836 107.528C133.06 108.048 133.408 108.456 133.88 108.752C134.352 109.04 134.972 109.184 135.74 109.184C136.116 109.184 136.436 109.164 136.7 109.124C136.964 109.084 137.204 109.036 137.42 108.98V106.436H135.536V105.476ZM147.339 110H146.079L141.495 102.884H141.447C141.463 103.164 141.483 103.512 141.507 103.928C141.531 104.344 141.543 104.772 141.543 105.212V110H140.547V101.432H141.795L146.367 108.524H146.415C146.407 108.396 146.395 108.204 146.379 107.948C146.371 107.692 146.359 107.412 146.343 107.108C146.335 106.804 146.331 106.524 146.331 106.268V101.432H147.339V110ZM154.452 110H149.664V101.432H154.452V102.38H150.744V105.056H154.236V105.992H150.744V109.052H154.452V110ZM158.696 101.432C159.76 101.432 160.544 101.636 161.048 102.044C161.56 102.444 161.816 103.052 161.816 103.868C161.816 104.324 161.732 104.704 161.564 105.008C161.396 105.312 161.18 105.556 160.916 105.74C160.66 105.916 160.388 106.056 160.1 106.16L162.452 110H161.192L159.116 106.46H157.412V110H156.332V101.432H158.696ZM158.636 102.368H157.412V105.548H158.696C159.392 105.548 159.9 105.412 160.22 105.14C160.54 104.86 160.7 104.452 160.7 103.916C160.7 103.356 160.532 102.96 160.196 102.728C159.86 102.488 159.34 102.368 158.636 102.368Z" fill="white"/>
<circle cx="15.5" cy="38.5" r="2.5" fill="white"/>
<circle cx="140.5" cy="43.5" r="2.5" fill="white"/>
</svg>
