<svg width="156" height="143" viewBox="0 0 156 143" fill="none" xmlns="http://www.w3.org/2000/svg">
<g style="mix-blend-mode:darken">
<path opacity="0.5" fill-rule="evenodd" clip-rule="evenodd" d="M12.5975 18.5453C12.2191 19.0049 12.3661 20.6383 12.3582 21.2427C12.346 22.1838 12.3941 23.1164 12.4588 24.054C12.5021 24.6818 12.7464 30.673 13.426 30.2129C13.8092 29.9536 13.569 28.2205 13.5683 27.6723C13.5667 26.4536 13.5251 25.2379 13.4583 24.0219C13.3962 22.893 13.3572 21.7772 13.393 20.6461C13.4017 20.3701 13.614 17.3063 12.5975 18.5453Z" fill="#FFBE21"/>
<path opacity="0.5" fill-rule="evenodd" clip-rule="evenodd" d="M29.075 17.8067C25.8245 17.8382 22.5753 18.0333 19.3263 18.1528C17.7629 18.2103 16.2005 18.2834 14.6388 18.3888C14.1066 18.4248 12.9653 18.2175 12.5219 18.5624C11.5377 19.3283 13.125 19.5074 13.5481 19.4887C19.9779 19.205 26.4098 18.8314 32.845 18.8138C36.0017 18.8053 39.1569 18.9146 42.314 18.8901C43.5208 18.8807 44.8572 18.2481 45.1619 19.9571C45.5059 21.8856 45.1107 24.0327 45.0031 25.9705C44.9313 27.2641 44.9569 28.5308 45.0048 29.8234C45.0355 30.6514 44.9555 31.5844 45.0758 32.397C45.1916 33.1794 45.654 33.6487 46.0778 32.7722C46.331 32.2484 46.205 30.9553 46.2219 30.3485C46.2445 29.5313 46.2232 28.7144 46.2232 27.8971C46.223 25.9021 46.4545 23.9151 46.4239 21.9206C46.4042 20.6344 46.3481 18.3028 45.0147 17.9938C43.5465 17.6534 41.7417 17.9957 40.2392 17.9748C36.5161 17.9231 32.7993 17.7713 29.075 17.8067Z" fill="#FFBE21"/>
<path opacity="0.5" fill-rule="evenodd" clip-rule="evenodd" d="M20.1181 30.2844C18.8925 30.2844 17.6667 30.2934 16.4411 30.3181C15.39 30.3392 13.7373 30.0727 12.759 30.5302C12.0893 30.8435 11.9114 31.7532 12.759 31.9955C13.6835 32.2598 15.0768 31.8276 16.0441 31.8069C20.8943 31.7027 25.7912 31.5669 30.6347 31.9401C35.1731 32.2897 39.799 32.6287 44.3441 32.2597C44.7265 32.2286 46.6769 32.1342 45.7869 31.2447C45.2677 30.7256 43.1633 31.067 42.4886 31.0422C40.1086 30.9548 37.7262 30.9354 35.347 30.8257C32.9988 30.7173 30.661 30.3961 28.3121 30.3166C25.5831 30.2242 22.848 30.2844 20.1181 30.2844Z" fill="#FFBE21"/>
<path opacity="0.5" fill-rule="evenodd" clip-rule="evenodd" d="M18.8918 21.8029C20.8022 21.9043 22.6922 25.2751 20.7593 26.9041C18.946 28.4327 15.5474 26.7575 16.5558 23.7935C16.4108 24.222 16.7391 23.3279 16.7432 23.3219C16.9349 23.0471 17.2792 22.7428 17.5156 22.5262C17.786 22.2782 18.0677 22.0053 18.3938 21.881C18.6079 21.7995 18.5743 22.1063 18.8918 21.8029ZM17.9614 20.5871C17.0673 21.0119 16.6592 21.491 16.0447 22.358C15.6196 22.958 15.0776 23.2736 15.0824 24.0844C15.0834 24.2639 15.2729 24.4612 15.3056 24.634C15.3509 24.8729 15.2985 25.1789 15.3343 25.4327C15.7042 28.0516 18.2726 28.9346 20.1527 28.4402C21.7903 28.0095 23.0151 26.0969 22.6357 24.0172C22.2538 21.9236 19.702 19.7588 17.9614 20.5871Z" fill="#FFBE21"/>
<path opacity="0.5" fill-rule="evenodd" clip-rule="evenodd" d="M17.1649 24.2432C17.1649 25.1853 18.3882 25.1853 18.3882 24.2432C18.3882 23.3118 17.1649 23.2718 17.1649 24.2432Z" fill="#FFBE21"/>
<path opacity="0.5" fill-rule="evenodd" clip-rule="evenodd" d="M18.6953 24.0525C18.6953 24.8012 19.6672 24.8012 19.6672 24.0525C19.6672 23.3124 18.6953 23.2808 18.6953 24.0525Z" fill="#FFBE21"/>
<path opacity="0.5" fill-rule="evenodd" clip-rule="evenodd" d="M18.9963 25.5964C18.685 25.742 18.2902 25.4401 18.0347 25.639C17.5822 25.9914 18.0358 26.3104 18.2784 26.452C19.3705 27.0896 19.5648 25.3315 18.9963 25.5964Z" fill="#FFBE21"/>
<path opacity="0.5" fill-rule="evenodd" clip-rule="evenodd" d="M35.6753 23.5084C35.5269 23.5849 35.6428 23.5252 35.6753 23.5084ZM30.9193 22.6627C30.102 22.8872 29.4118 23.8159 28.5237 23.6917C27.8431 23.5964 27.3823 22.7974 26.7105 22.6813C25.851 22.5326 23.5119 24.918 24.7417 25.3272C25.4592 25.5661 25.8572 23.9708 26.4911 23.8861C26.9926 23.819 27.6745 24.5672 28.1941 24.6737C29.1635 24.8724 29.8292 24.2227 30.6802 23.8039C31.6049 23.3486 32.1311 23.7585 32.9353 24.2645C33.5701 24.6639 34.1679 24.9239 34.8942 24.7591C35.5759 24.6046 36.4323 23.7518 37.1185 23.8393C37.7905 23.925 38.2702 24.7783 38.9615 24.8575C39.2465 24.89 39.6708 25.0082 39.6229 24.4732C39.5846 24.0448 39.1917 24.1173 38.9459 23.9616C38.3138 23.5612 37.7225 22.8518 36.9596 22.9123C36.3858 22.9579 35.8634 23.4484 35.3346 23.6831C33.6027 24.4516 32.629 22.1962 30.9193 22.6627Z" fill="#FFBE21"/>
<path opacity="0.5" fill-rule="evenodd" clip-rule="evenodd" d="M32.3662 36.2325C29.0254 36.2698 25.6733 36.3302 22.3419 36.656C21.5521 36.7332 13.4875 37.6596 13.5028 37.7263C13.5311 37.8498 14.5684 38.0383 14.5619 38.0675C14.492 37.8565 14.3322 37.7692 14.0826 37.8057C21.7312 37.8057 29.3555 36.9725 37.0142 37.1224C38.9385 37.16 40.8701 37.1442 42.7931 37.218C43.2732 37.2365 44.4627 37.6551 44.8398 37.3914C45.8292 36.6991 44.0317 36.6192 43.7339 36.5902C39.965 36.2234 36.1457 36.1866 32.3662 36.2325Z" fill="#FFBE21"/>
<path opacity="0.5" fill-rule="evenodd" clip-rule="evenodd" d="M12.5127 38.2073C12.0133 38.8165 12.4732 41.0081 12.4929 41.8318C12.5213 43.0227 12.4979 44.2221 12.5838 45.4099C12.6818 46.7667 12.8339 48.2122 13.1265 49.5286C13.2877 50.2538 13.8533 51.4063 14.0775 50.0886C14.2375 49.1474 13.9945 47.8988 13.91 46.94C13.7968 45.6574 13.7695 44.3916 13.7652 43.1028C13.7614 41.9797 13.7437 40.852 13.668 39.7324C13.6286 39.1512 13.3883 37.1477 12.5127 38.2073Z" fill="#FFBE21"/>
<path opacity="0.5" fill-rule="evenodd" clip-rule="evenodd" d="M25.0782 49.3685C22.7074 49.4181 20.3316 49.486 17.9648 49.6662C16.9948 49.7401 16.0255 49.8501 15.059 49.9749C14.8618 50.0003 12.6789 50.1081 13.6543 51.0882C14.0946 51.5308 15.9056 50.9189 16.5037 50.8552C17.5097 50.7479 18.5155 50.6782 19.5244 50.6262C21.8621 50.5055 24.2069 50.3988 26.547 50.4482C30.8205 50.5384 35.0665 50.5787 39.3413 50.4627C39.9486 50.4463 44.7067 50.601 44.8683 49.8322C44.9985 49.2127 43.297 49.4969 42.9867 49.5081C41.8486 49.5495 40.7104 49.5399 39.5718 49.5328C34.7487 49.5027 29.8976 49.2694 25.0782 49.3685Z" fill="#FFBE21"/>
<path opacity="0.5" fill-rule="evenodd" clip-rule="evenodd" d="M44.0628 37.1794C44.138 39.7474 44.4975 42.3125 44.6125 44.8883C44.665 46.0658 44.7268 47.2422 44.7742 48.4201C44.7895 48.8 44.6636 49.7156 45.0329 49.9341C45.5395 50.2339 45.6077 49.6298 45.7026 49.2213C45.9765 48.0411 45.7912 46.508 45.7663 45.2958C45.7423 44.1219 45.7406 42.9459 45.6695 41.7741C45.5966 40.577 45.3985 39.4025 45.3065 38.2095C45.2677 37.705 45.4036 36.8655 44.9634 36.5524C44.5829 36.2817 44.0464 36.6228 44.0628 37.1794Z" fill="#FFBE21"/>
<path opacity="0.5" fill-rule="evenodd" clip-rule="evenodd" d="M20.7606 41.4513C20.7697 41.4597 20.7786 41.4682 20.7875 41.4768C20.7786 41.4682 20.7696 41.4598 20.7606 41.4513ZM18.7459 40.6904C19.4972 40.9515 20.1142 40.8541 20.8319 41.5195C21.4268 42.0712 22.037 42.8783 22.2344 43.7704C22.6902 45.8314 21.1447 46.9609 19.6958 46.9831C18.2117 47.0058 16.0149 46.587 16.091 44.2726C16.1493 42.4944 17.2165 40.7594 18.7459 40.6904ZM18.7989 39.5257C16.8507 39.6437 15.2793 42.3053 15.2962 44.5458C15.3165 47.2612 17.8455 47.9608 19.6419 47.9796C21.6695 48.0008 23.6913 46.2975 23.148 43.5235C22.7127 41.301 20.6723 39.4072 18.7989 39.5257Z" fill="#FFBE21"/>
<path opacity="0.5" fill-rule="evenodd" clip-rule="evenodd" d="M16.8392 43.1715C16.8392 43.9287 17.8226 43.9287 17.8226 43.1715C17.8226 42.423 16.8392 42.3908 16.8392 43.1715Z" fill="#FFBE21"/>
<path opacity="0.5" fill-rule="evenodd" clip-rule="evenodd" d="M18.9018 42.8393C18.9018 43.6025 19.893 43.6025 19.893 42.8393C19.893 42.0848 18.9018 42.0523 18.9018 42.8393Z" fill="#FFBE21"/>
<path opacity="0.5" fill-rule="evenodd" clip-rule="evenodd" d="M17.7647 44.5664C17.1247 45.3438 19.3731 46.7067 19.9034 45.6251C20.339 44.7369 19.3907 45.0314 19.0545 44.9834C18.6892 44.931 18.0629 44.2046 17.7647 44.5664Z" fill="#FFBE21"/>
<path opacity="0.5" fill-rule="evenodd" clip-rule="evenodd" d="M35.7414 42.8549C35.6798 42.8864 35.6798 42.8864 35.7414 42.8549V42.8549ZM27.2979 41.5893C26.6498 41.7371 24.523 42.6101 24.4943 43.5455C24.4418 45.2458 26.5247 43.5043 26.977 43.2806C28.2057 42.6731 28.8514 43.9123 30.0856 43.9777C31.1576 44.0346 32.1433 42.9184 33.1531 43.0504C34.2112 43.1886 34.7201 44.5581 35.9415 43.831C36.5877 43.4464 36.5714 42.8534 35.8461 42.7975C35.4076 42.7638 35.1064 42.9842 34.6493 42.7547C33.9344 42.396 33.6465 41.8119 32.7911 41.9047C32.1456 41.9747 31.5621 42.4173 30.9321 42.5886C29.4893 42.9808 28.689 41.2723 27.2979 41.5893Z" fill="#FFBE21"/>
<path opacity="0.5" fill-rule="evenodd" clip-rule="evenodd" d="M40.719 43.5931C40.6744 43.6159 40.6744 43.6159 40.719 43.5931V43.5931ZM40.8825 42.8852C40.8896 42.889 40.9385 42.9714 40.8825 42.8852V42.8852ZM40.1396 42.3447C40.1117 42.3709 40.1117 42.3709 40.1396 42.3447V42.3447ZM40.1558 42.3381C40.2998 42.4429 41.4581 43.4065 40.6168 43.6334C40.1897 43.7486 39.8364 42.7031 40.1558 42.3381ZM39.7723 41.2706C37.9169 42.2998 39.9134 45.9828 41.3695 44.4864C41.9822 43.8567 42.0628 42.584 41.4668 41.928C41.1096 41.5349 40.2571 41.0012 39.7723 41.2706Z" fill="#FFBE21"/>
<path opacity="0.5" fill-rule="evenodd" clip-rule="evenodd" d="M22.3559 55.7842C20.0408 55.785 17.7054 55.7258 15.3934 55.8928C15.0043 55.9209 13.5221 55.8308 13.3216 56.3257C12.9549 57.2308 14.48 56.7815 14.7015 56.7544C19.305 56.1937 24.1137 56.5163 28.7323 56.6761C32.5096 56.8067 36.2667 56.8878 40.0396 57.1247C41.0313 57.187 42.0221 57.2557 43.0132 57.3285C43.3362 57.3522 44.1491 57.6126 44.2172 56.985C44.2802 56.4041 43.2661 56.5353 43.0129 56.519C40.9984 56.39 38.9852 56.2549 36.9713 56.1169C32.1239 55.7844 27.2111 55.7831 22.3559 55.7842Z" fill="#FFBE21"/>
<path opacity="0.5" fill-rule="evenodd" clip-rule="evenodd" d="M13.2473 56.7906C12.8149 57.3136 13.0176 59.3106 13.0055 59.9706C12.9844 61.1251 12.9396 62.2785 12.9195 63.4327C12.8986 64.6389 12.9277 65.8507 12.9863 67.0552C13.0109 67.5609 13.352 70.0051 13.8892 68.6064C14.1292 67.9813 13.8834 66.2403 13.8871 65.5321C13.8937 64.2431 13.9508 62.9595 14.0035 61.6723C14.0488 60.5658 14.0505 59.4581 14.0902 58.3513C14.1029 57.9985 14.1371 55.7047 13.2473 56.7906Z" fill="#FFBE21"/>
<path opacity="0.5" fill-rule="evenodd" clip-rule="evenodd" d="M44.6067 67.1021C42.3536 67.3831 40.0644 67.2503 37.8028 67.4578C35.8537 67.6366 33.9063 67.7097 31.9521 67.7601C27.5271 67.8737 23.0945 67.9846 18.6823 68.4332C17.6767 68.5353 16.6724 68.6439 15.6641 68.6987C15.1599 68.7261 13.044 68.4469 12.8864 69.0936C12.6181 70.1949 14.8808 69.7591 15.3689 69.7418C16.4421 69.7041 17.5103 69.6097 18.5805 69.5106C23.0794 69.0936 27.5955 68.9689 32.104 68.7955C34.5561 68.7014 36.991 68.4831 39.4376 68.2845C40.657 68.1856 41.8798 68.1824 43.0991 68.0865C43.4182 68.0614 44.5475 68.1109 44.777 67.7985C44.9347 67.584 44.9745 67.0604 44.6067 67.1021Z" fill="#FFBE21"/>
<path opacity="0.5" fill-rule="evenodd" clip-rule="evenodd" d="M43.843 56.9781C43.9202 59.6068 44.0423 62.2331 44.1152 64.8618C44.1372 65.6523 43.9409 67.0691 44.3027 67.7662C44.8845 68.8871 45.3386 67.7008 45.4451 67.0023C45.7814 64.7978 45.4199 62.3626 45.326 60.1445C45.2902 59.2983 45.5062 57.4149 45.17 56.6575C44.8499 55.9361 43.8143 56.0085 43.843 56.9781Z" fill="#FFBE21"/>
<path opacity="0.5" fill-rule="evenodd" clip-rule="evenodd" d="M40.0603 60.7219C40.9235 61.0064 41.0496 63.2896 40.0756 63.4584C38.6259 63.7098 39.2599 61.1926 40.0603 60.7219ZM39.8185 59.814C39.5552 59.8039 38.9475 59.7156 38.7852 59.9763C38.6494 60.1946 38.7866 60.6549 38.7708 60.8627C38.7137 61.6055 38.2173 62.0345 38.4392 62.9115C38.5899 63.5067 38.9932 64.066 39.4849 64.2728C42.0791 65.3637 42.0475 59.2652 39.8185 59.814Z" fill="#FFBE21"/>
<path opacity="0.5" fill-rule="evenodd" clip-rule="evenodd" d="M16.3966 60.2236C16.3901 60.2336 16.3836 60.2437 16.3772 60.2537C16.3836 60.2437 16.3901 60.2336 16.3966 60.2236ZM18.4341 58.9046C18.424 58.7991 18.4138 58.6934 18.4037 58.5878C19.8103 59.3956 20.9295 60.8982 20.4625 62.9151C20.1061 64.4538 18.8185 64.9996 17.619 64.6197C16.2911 64.1991 15.6566 62.8675 16.0146 61.2323C16.1798 60.478 16.687 59.4642 17.3427 59.2217C17.6479 59.1088 18.3229 59.3965 18.4341 58.9046ZM17.6116 58.2658C17.2558 58.295 16.9095 58.4754 16.6191 58.7221C16.891 58.4423 17.2532 58.2758 17.6116 58.2658ZM17.6218 57.272C16.7429 57.3047 16.1669 57.9521 15.6456 58.7295C15.482 58.9736 14.9289 59.6205 14.9973 59.9493C15.0515 60.2092 15.1932 60.5893 15.4916 60.2996C13.9287 64.0893 17.9663 67.3217 20.4312 64.6863C22.7316 62.2269 20.4493 57.1567 17.6218 57.272Z" fill="#FFBE21"/>
<path opacity="0.5" fill-rule="evenodd" clip-rule="evenodd" d="M16.8232 60.7924C16.8232 61.2971 17.4671 61.2971 17.4671 60.7924C17.4671 60.2878 16.8232 60.2878 16.8232 60.7924Z" fill="#FFBE21"/>
<path opacity="0.5" fill-rule="evenodd" clip-rule="evenodd" d="M17.9221 60.8786C17.9221 61.3914 18.5764 61.3914 18.5764 60.8786C18.5764 60.3657 17.9221 60.3657 17.9221 60.8786Z" fill="#FFBE21"/>
<path opacity="0.5" fill-rule="evenodd" clip-rule="evenodd" d="M18.4208 62.6797C18.1147 62.71 16.9942 62.5834 16.7975 62.9097C16.4689 63.4547 16.9934 63.4737 17.2511 63.5326C17.4831 63.5856 18.4919 63.5557 18.6341 63.305C18.7597 63.0834 18.7304 62.6477 18.4208 62.6797Z" fill="#FFBE21"/>
<path opacity="0.5" fill-rule="evenodd" clip-rule="evenodd" d="M31.9208 61.2661C31.8682 61.2925 31.8682 61.2925 31.9208 61.2661V61.2661ZM27.6871 60.8894C26.9973 60.9511 26.4131 61.4338 25.7537 61.6264C25.0497 61.832 24.7451 61.4538 24.105 61.2063C23.4392 60.9488 22.9656 61.0505 22.4304 61.6037C22.1272 61.9172 21.4619 62.6388 21.6514 63.1956C22.0854 64.4703 23.0678 62.3965 23.5298 62.3001C24.2506 62.1496 24.8918 62.9163 25.7229 62.697C26.4761 62.4984 27.1444 61.8692 27.9311 61.8624C28.5889 61.8567 29.2088 62.2946 29.8582 62.4006C30.8496 62.5624 31.5006 62.1341 32.417 61.8162C33.2117 61.5405 33.769 61.9041 34.5165 62.2098C34.8581 62.3496 35.998 62.8576 35.7882 61.9364C35.7289 61.6762 34.2267 61.2109 33.9938 61.1213C33.1725 60.8057 32.6524 60.9287 31.8701 61.2916C31.2177 61.5944 30.6689 61.7418 29.9693 61.5753C29.1986 61.3917 28.4977 60.8145 27.6871 60.8894Z" fill="#FFBE21"/>
<path opacity="0.5" fill-rule="evenodd" clip-rule="evenodd" d="M59.4227 18.6446C59.5341 15.7309 59.6872 12.8212 59.7678 9.90576C59.8078 8.46104 59.8391 7.01618 59.8694 5.57119C59.8761 5.24943 59.883 4.92781 59.8889 4.60605C59.9085 3.51295 59.802 3.42352 60.7062 3.32649C64.7398 2.89332 68.7894 2.74974 72.828 2.35782C77.6985 1.88516 82.5945 1.55879 87.4789 1.4125C89.6494 1.34736 91.8291 1.21247 94 1.29457C94.481 1.31275 95.4251 1.16049 95.6145 1.61538C95.6963 1.81188 95.5246 2.4881 95.5029 2.71486C95.4348 3.42324 95.3713 4.13407 95.3322 4.84598C95.1012 9.0447 95.2389 13.3493 95.9072 17.4844C94.3395 16.4089 92.3589 15.4838 90.5317 15.6674C88.6689 15.8545 87.2754 17.164 85.7845 18.3692C84.941 19.0508 84.6569 19.2301 83.8154 18.5697C83.0904 18.0006 82.4044 17.3499 81.7202 16.7112C80.6645 15.7256 79.6682 14.6569 78.6444 13.6237C76.7621 11.7238 74.1688 9.0196 71.569 9.81578C69.7115 10.3847 67.9964 11.6266 66.3842 12.8421C63.9891 14.648 61.8209 16.8594 59.4227 18.6446ZM91.7042 0.000619482C82.4499 0.000619482 73.2648 1.0921 64.0366 1.68255C63.0729 1.74416 62.1123 1.83495 61.1519 1.94772C60.5119 2.0229 58.9467 1.70725 58.5272 2.37261C58.2474 2.81651 58.4879 2.88314 58.5272 3.30491C58.5769 3.83647 58.5474 4.46628 58.5346 5.02891C58.5038 6.38461 58.4715 7.74017 58.4461 9.096C58.3506 14.2202 58.2909 19.3435 58.4614 24.4664C58.4986 25.5837 58.8332 27.1306 58.6501 28.2162C58.5177 29.0022 58.0746 29.4806 59.0963 29.6258C60.1018 29.7688 61.3312 29.4051 62.3376 29.2887C63.3498 29.1714 64.3619 29.0443 65.3753 28.9426C69.7813 28.5009 74.23 28.5677 78.6476 28.4209C83.1051 28.2728 87.5641 28.2633 92.023 28.2603C93.8887 28.2591 96.0205 28.3867 97.8409 27.762C98.4814 27.5422 98.5849 27.4339 98.4271 26.6608C98.397 26.5141 98.2037 26.4599 98.1469 26.1947C98.0698 25.8339 98.1094 25.3953 98.0913 25.0197C98.0324 23.7929 98.0118 22.5639 97.9643 21.3364C97.885 19.2853 97.5944 17.2948 97.3795 15.2644C97.1315 12.9195 97.1442 10.5387 97.1391 8.1785C97.1362 6.86935 97.1639 5.56454 97.2503 4.25905C97.3057 3.42175 97.6446 2.17163 97.4728 1.39079C97.3872 1.00199 97.2471 0.693667 96.9144 0.526342C96.7038 0.42022 96.5266 0.503272 96.3182 0.476403C96.0712 0.444512 95.917 0.402307 95.6209 0.320748C94.3528 -0.0289643 92.9966 0.000619482 91.7042 0.000619482Z" fill="#3EC1F3"/>
<path opacity="0.5" fill-rule="evenodd" clip-rule="evenodd" d="M86.5828 5.57518C86.5821 6.39117 86.4774 7.59529 86.7866 8.36365C87.1789 9.33828 87.6695 9.03363 87.7995 8.11775C87.8739 7.59298 87.8721 6.03997 87.7336 5.57518C87.5375 4.91728 86.5828 4.46918 86.5828 5.57518Z" fill="#3EC1F3"/>
<path opacity="0.5" fill-rule="evenodd" clip-rule="evenodd" d="M87.7081 5.89026C87.0784 5.91727 85.2446 5.73339 84.8186 6.34936C84.0879 7.40583 85.36 7.59296 85.9062 7.5338C86.5384 7.4654 88.4916 7.63232 88.915 7.01567C89.6231 5.98404 88.2032 5.86828 87.7081 5.89026Z" fill="#3EC1F3"/>
<path opacity="0.5" fill-rule="evenodd" clip-rule="evenodd" d="M63.2734 33.1504C66.0416 33.7354 65.1804 38.8703 62.561 37.6809C61.6484 37.2665 60.3036 36.069 60.808 34.6581C61.1849 33.6039 62.413 33.05 63.2734 33.1504ZM62.1273 31.5538C60.327 31.9225 59.0962 34.2928 59.7135 36.3602C60.3089 38.3548 62.5675 39.8154 64.2331 39.0986C65.8232 38.4143 66.6165 35.8404 66.0804 33.9574C65.5203 31.9901 63.6955 31.2326 62.1273 31.5538Z" fill="#3EC1F3"/>
<path opacity="0.5" fill-rule="evenodd" clip-rule="evenodd" d="M78.9646 33.751C78.2755 33.8206 77.6798 34.4077 76.9864 34.5116C76.3379 34.6088 75.8005 34.3389 75.1934 34.1231C74.4595 33.8624 73.7865 33.7478 73.0365 33.9794C72.4634 34.1565 71.8981 34.6309 71.3028 34.6882C70.1314 34.8007 68.77 33.1747 67.8554 35.0137C67.417 35.8954 68.0536 36.4633 68.7094 36.0522C69.3931 35.6236 69.0574 35.4701 69.9055 35.7233C70.613 35.9344 71.1849 36.049 71.8937 35.7532C72.5357 35.4853 73.0993 34.995 73.7971 34.9399C74.4803 34.8861 75.0747 35.2647 75.7278 35.4281C76.531 35.6289 77.2417 35.4769 78.0027 35.1706C78.7265 34.8793 79.0153 34.7199 79.7457 34.9798C80.2082 35.1444 81.2186 35.6673 81.6687 35.2459C82.4472 34.5175 81.4051 34.411 80.9947 34.3074C80.334 34.1409 79.6503 33.6828 78.9646 33.751Z" fill="#3EC1F3"/>
<path opacity="0.5" fill-rule="evenodd" clip-rule="evenodd" d="M94.7362 33.2616C94.7418 33.2668 94.7473 33.272 94.7526 33.2771C94.7473 33.272 94.7417 33.2668 94.7362 33.2616ZM94.0597 33.0894C95.0659 33.1683 96.1539 35.3982 94.8207 35.4773C93.8823 35.5331 92.8325 33.5804 94.0597 33.0894ZM93.9186 31.2647C90.7369 32.3456 92.1913 37.8027 95.2602 37.1724C96.654 36.8861 97.1265 34.9213 96.6656 33.467C96.4678 32.8423 96.0819 32.3156 95.6208 31.9562C95.2806 31.691 94.3073 31.133 93.9186 31.2647Z" fill="#3EC1F3"/>
<path opacity="0.5" fill-rule="evenodd" clip-rule="evenodd" d="M59.7067 66.1426C59.6128 65.6348 59.6636 64.8585 59.6584 64.6791C59.6339 63.8378 59.6253 62.9962 59.5986 62.1552C59.5352 60.1511 59.4932 58.1355 59.3662 56.1359C59.2449 54.2245 58.9385 52.371 58.9297 50.4454C58.9237 49.143 58.6263 45.843 59.5638 44.9584C61.175 43.8145 60.5378 47.8503 60.5114 48.5487C60.4319 50.6516 60.5397 52.6618 60.7137 54.7514C60.873 56.6666 60.6898 58.5731 60.6286 60.4885C60.5962 61.5053 60.5784 62.5207 60.5155 63.5358C60.4959 63.8523 60.5261 65.2787 60.3896 66.0385C60.7409 66.0201 61.075 66.0393 61.2615 66.0324C62.5667 65.9844 63.872 65.9423 65.177 65.8826C70.1971 65.653 75.2201 65.7568 80.2392 65.4668C84.9866 65.1922 89.7513 65.134 94.5023 65.0631C94.9179 65.1072 95.1038 65.6379 94.837 66.0458C94.576 66.4449 93.366 66.3574 92.9888 66.3945C91.6507 66.5253 90.3152 66.5842 88.973 66.5998C86.1466 66.6325 83.3309 66.7799 80.5092 66.9757C75.4956 67.3234 70.4746 67.2946 65.4584 67.5428C64.2408 67.603 63.023 67.6481 61.8049 67.6869C61.1625 67.7074 59.4802 68.1782 59.162 67.2444C58.9372 66.5845 59.2497 66.2808 59.7067 66.1426ZM87.4773 42.3918C88.9961 42.3747 90.5067 42.407 92.0233 42.5129C92.6959 42.5598 93.3682 42.6052 94.0413 42.6398C94.4302 42.6599 95.3185 42.5047 95.6595 42.7242C96.9984 43.5859 94.2707 43.6804 93.9391 43.6736C92.5476 43.6451 91.1589 43.5133 89.7675 43.4718C84.6501 43.3188 79.4944 43.6977 74.3815 43.9529C71.922 44.0757 69.4638 44.0932 67.0051 44.2612C65.6613 44.353 64.3182 44.4581 62.9742 44.5443C62.3545 44.584 61.7347 44.6226 61.1142 44.6416C60.732 44.6534 59.9537 44.8459 59.6004 44.6702C59.2996 44.5205 59.0563 44.3112 59.2217 43.8678C59.3998 43.3905 60.1749 43.5936 60.5029 43.5859C61.6873 43.5579 62.8691 43.4771 64.0513 43.389C66.7357 43.1891 69.4144 42.9553 72.1042 42.8995C77.23 42.7931 82.3491 42.4496 87.4773 42.3918ZM94.5282 44.5171C94.5291 43.662 95.3719 43.4901 95.7457 44.0716C96.1032 44.6278 95.8731 46.3119 95.8818 46.9774C95.9106 49.1704 96.081 51.3508 96.2429 53.5337C96.4036 55.6988 96.5173 57.8648 96.6413 60.0332C96.6987 61.0354 97.3317 65.0353 96.4116 65.6193C95.2373 66.3644 95.4589 62.5731 95.426 61.8819C95.3204 59.6572 95.1878 57.4294 95.0223 55.2102C94.7548 51.6226 94.526 48.1192 94.5282 44.5171Z" fill="#3EC1F3"/>
<path opacity="0.5" fill-rule="evenodd" clip-rule="evenodd" d="M79.0191 54.8153C80.6293 55.5115 82.2304 56.2388 83.8244 56.9881C84.6774 57.3889 85.5257 57.8028 86.3768 58.2094C86.803 58.413 88.5756 58.9242 88.6775 59.442C88.8214 60.1732 86.9319 59.2751 86.6313 59.1581C85.7822 58.8279 84.9436 58.4583 84.105 58.0907C82.2288 57.2683 80.3605 56.4199 78.4769 55.6224C78.3007 55.5478 78.1244 55.4735 77.948 55.3994C75.9486 56.492 73.9532 57.5951 71.9643 58.7157C70.8979 59.3166 69.8372 59.9315 68.7793 60.5547C67.9951 61.0168 66.5758 62.335 65.7119 62.3121C65.3851 62.3032 65.1648 62.218 65.1306 61.736C65.0871 61.1196 65.9033 60.8664 66.233 60.6658C67.3636 59.9779 68.5012 59.3074 69.642 58.6453C71.9078 57.3305 74.1948 56.0681 76.49 54.8309C76.5032 54.8238 76.5164 54.8167 76.5296 54.8095C75.2567 54.2854 73.9803 53.7738 72.701 53.273C71.9699 52.9868 66.844 51.4477 67.0309 50.6216C67.2408 49.6955 71.7808 51.879 72.4791 52.1497C74.1982 52.8163 75.9126 53.5017 77.618 54.2182C81.7106 51.9813 85.8466 49.5978 90.1155 47.9702C90.3843 47.8679 90.5542 48.2051 90.4932 48.488C90.4115 48.8668 89.454 49.1733 89.1883 49.3177C88.137 49.8889 87.0803 50.446 86.0289 51.0176C83.7385 52.2627 81.4438 53.4961 79.1538 54.742C79.1089 54.7664 79.064 54.7908 79.0191 54.8153Z" fill="#3EC1F3"/>
<path opacity="0.5" fill-rule="evenodd" clip-rule="evenodd" d="M63.8806 70.4787C64.9274 70.702 65.6658 71.9236 65.5509 73.203C65.3957 74.9316 63.9796 75.7239 62.6714 75.4983C61.187 75.2424 60.8748 73.7157 61.5939 72.247C61.7532 71.9218 61.9363 71.5328 62.2257 71.3615C62.4247 71.2438 62.6782 71.3479 62.8384 71.2531C63.4003 70.9204 63.0625 70.3904 63.8806 70.4787ZM63.4041 69.3495C62.1268 69.5481 59.7666 71.3463 59.8861 73.1455C59.9898 73.3541 60.1457 73.4394 60.3538 73.4016C60.3037 73.7913 60.32 74.1768 60.4028 74.5583C60.5241 75.0535 60.7661 75.4594 61.0905 75.7818C61.7584 76.446 62.6715 76.609 63.5033 76.4925C65.0564 76.2753 66.2805 74.9839 66.3677 73.0186C66.4529 71.1003 65.0765 69.0925 63.4041 69.3495Z" fill="#3EC1F3"/>
<path opacity="0.5" fill-rule="evenodd" clip-rule="evenodd" d="M69.5906 71.6907C69.0175 72.0602 68.1109 72.6279 67.7748 73.3297C67.4197 74.0709 67.7874 74.8819 68.5355 74.5312C69.1293 74.2529 69.507 73.3684 70.1405 73.0849C70.6995 72.8348 70.9248 72.9622 71.5157 73.2114C72.1245 73.468 72.6566 73.7161 73.3147 73.6531C74.1419 73.574 74.8583 72.9905 75.6679 72.8577C76.3496 72.7459 76.9118 73.0686 77.5646 73.197C78.3221 73.3459 78.8173 72.9971 79.5259 72.8155C80.008 72.6919 80.8576 73.1947 81.2092 73.0066C81.9998 72.5838 81.1634 72.0667 80.7258 71.8959C79.9886 71.6082 79.5349 71.8621 78.8337 72.1006C78.0723 72.3597 77.7435 72.165 77.0158 71.9271C75.5434 71.4457 74.4059 72.6095 73.0103 72.398C71.7182 72.202 70.945 70.8182 69.5906 71.6907Z" fill="#3EC1F3"/>
<path opacity="0.5" fill-rule="evenodd" clip-rule="evenodd" d="M93.6662 70.8307C95.0835 72.4472 93.4914 74.7472 91.9287 73.4553C91.3788 73.0005 91.37 72.2701 91.798 71.6167C92.1894 71.0191 93.0495 70.7861 93.6662 70.8307ZM93.1409 69.5244C91.8168 69.8378 90.5679 70.5769 90.448 72.4361C90.331 74.2501 91.8604 75.0925 93.1452 74.9735C96.0296 74.7063 95.8211 68.8941 93.1409 69.5244Z" fill="#3EC1F3"/>
<path opacity="0.5" fill-rule="evenodd" clip-rule="evenodd" d="M124.504 9.27811C123.445 9.30301 120.83 9.77169 120.441 11.2959C120.146 12.453 121.023 12.1989 121.493 11.7779C122.128 11.2086 122.686 10.8679 123.473 10.6947C126.474 10.0344 129.357 12.4021 132.328 12.7016C133.454 12.815 134.812 12.8889 135.887 12.4454C136.652 12.1296 136.752 11.4409 135.879 11.336C135.137 11.2469 134.315 11.5277 133.555 11.5198C130.406 11.487 127.608 9.20608 124.504 9.27811Z" fill="#3EC1F3"/>
<g style="mix-blend-mode:darken">
<path opacity="0.5" fill-rule="evenodd" clip-rule="evenodd" d="M13.2231 81.6662C11.1968 81.6938 9.17141 81.7848 7.14906 81.9405C5.22585 82.0888 3.13914 81.9762 1.24727 82.4298C0.710064 82.5585 -0.015615 83.1542 0.698689 83.8093C1.20076 84.27 3.03766 83.7401 3.6372 83.6953C5.84513 83.5302 8.05418 83.3324 10.2652 83.2374C12.3584 83.1474 14.4515 83.1156 16.5456 83.0902C16.8654 83.0864 17.3961 82.9617 17.7145 83.0746C18.172 83.237 18.0635 83.2811 18.0977 83.9876C18.1598 85.2676 18.1426 86.5523 18.1218 87.8336C18.1016 89.0734 18.0639 90.3132 18.0676 91.5536C18.0702 92.4386 17.8376 94.1972 18.2026 94.9657C18.728 96.072 19.273 94.8704 19.3123 94.1353C19.3875 92.7292 19.3538 91.306 19.3541 89.8982C19.3543 88.5767 19.3621 87.2553 19.3239 85.9345C19.2961 84.9804 19.4082 83.3149 18.9858 82.4476C18.5555 81.5642 17.5196 81.7547 16.7637 81.7126C15.5845 81.6466 14.4033 81.6512 13.2231 81.6662Z" fill="#3EC1F3"/>
<path opacity="0.5" fill-rule="evenodd" clip-rule="evenodd" d="M0.330321 83.2606C0.332551 85.7435 0.0964573 88.2098 0.0303243 90.6898C-9.93219e-06 91.8301 -0.0615706 93.0822 0.175527 94.2015C0.414855 95.3317 1.17499 95.5766 1.26254 94.3148C1.43986 91.7599 1.39637 89.1106 1.53443 86.5351C1.58317 85.6258 1.90034 83.9594 1.60425 83.1079C1.34351 82.3579 0.329206 82.2141 0.330321 83.2606Z" fill="#3EC1F3"/>
<path opacity="0.5" fill-rule="evenodd" clip-rule="evenodd" d="M19.3322 94.2048C15.813 94.7716 12.1341 94.565 8.58994 94.654C6.88955 94.6968 5.18949 94.6995 3.48888 94.7211C2.89536 94.7286 1.38813 94.4539 0.874675 94.8599C0.0573245 95.5061 0.944154 96.0047 1.48526 96.019C4.84132 96.1084 8.23474 95.9207 11.5901 95.7867C13.0977 95.7265 14.6102 95.6971 16.1137 95.5412C17.0394 95.4452 18.0509 95.3523 18.9497 95.0496C19.1412 94.985 19.5582 94.9985 19.6011 94.6806C19.6276 94.4841 19.5796 94.1633 19.3322 94.2048Z" fill="#3EC1F3"/>
<path opacity="0.5" fill-rule="evenodd" clip-rule="evenodd" d="M4.69867 97.8139C3.72062 97.8209 0.773293 97.2682 0.368242 98.4285C-0.171751 99.976 1.9348 99.6148 2.50134 99.5971C3.78809 99.5569 5.07395 99.5526 6.36103 99.5533C7.62392 99.5539 8.88669 99.544 10.1494 99.5075C10.5151 99.4968 11.3666 99.6816 11.5771 99.1456C11.737 98.7383 11.6106 98.417 11.3157 98.2014C10.6059 97.6824 8.76212 97.9834 7.93116 97.9367C6.8553 97.8764 5.77587 97.8139 4.69867 97.8139Z" fill="#3EC1F3"/>
<path opacity="0.5" fill-rule="evenodd" clip-rule="evenodd" d="M16.5974 98.1004C16.0384 98.1409 14.9078 97.8605 14.4071 98.1717C13.838 98.5255 14.0385 99.0794 14.5298 99.3228C14.8701 99.4913 16.2659 99.4029 16.5974 99.2077C16.9429 99.004 17.3335 98.0453 16.5974 98.1004Z" fill="#3EC1F3"/>
<path opacity="0.5" fill-rule="evenodd" clip-rule="evenodd" d="M22.7254 83.5043C22.1284 83.7036 22.3095 87.8269 22.2941 88.4806C22.252 90.2715 22.0865 92.524 22.5756 94.2488C22.8875 95.3483 23.4867 95.1993 23.3846 94.0417C23.2949 93.0256 23.1412 92.0213 23.0746 90.9986C22.924 88.6847 22.7191 86.2165 22.8613 83.9006C22.9219 84.0351 23.4882 85.2833 23.6215 85.1901C23.5812 85.2192 22.9683 83.4264 22.7254 83.5043Z" fill="#3EC1F3"/>
<path opacity="0.5" fill-rule="evenodd" clip-rule="evenodd" d="M29.4406 81.9856C28.2325 82.0073 27.0244 82.0334 25.8166 82.0741C24.8563 82.1067 23.3472 81.9148 22.4665 82.4062C21.4179 82.9913 21.9154 84.2951 22.9004 84.3227C23.7717 84.3471 24.7009 84.1081 25.5801 84.0714C27.955 83.9724 30.3341 83.9514 32.7101 83.9267C34.859 83.9042 37.0991 84.183 39.2291 83.7904C39.545 87.2035 38.6905 90.6309 38.9812 94.0832C39.0262 94.6191 39.006 95.3762 39.5669 95.4982C40.2747 95.6523 40.3038 94.7994 40.3307 94.1886C40.4073 92.4446 40.3658 90.6993 40.4708 88.9531C40.568 87.3349 40.7595 85.6809 40.5977 84.0601C40.3987 82.0656 39.6132 82.2255 38.2245 82.1426C35.2916 81.9676 32.3768 81.9332 29.4406 81.9856Z" fill="#3EC1F3"/>
<path opacity="0.5" fill-rule="evenodd" clip-rule="evenodd" d="M25.3918 94.105C24.7762 94.1239 23.7537 93.8931 23.3593 94.6112C22.9489 95.3585 23.4358 96.0102 24.0325 96.1636C24.7389 96.3451 25.66 96.0963 26.3931 96.0936C27.1566 96.0909 27.9203 96.1012 28.6838 96.1049C31.9571 96.1205 35.2445 96.1807 38.5154 96.0161C38.9722 95.9931 40.2687 96.1795 40.5849 95.6464C40.8655 95.1736 40.6692 94.7494 40.2997 94.5086C39.6935 94.1134 38.4483 94.2637 37.774 94.2323C36.9413 94.1938 36.1076 94.1812 35.2744 94.1654C31.9858 94.1036 28.68 94.006 25.3918 94.105Z" fill="#3EC1F3"/>
<path opacity="0.5" fill-rule="evenodd" clip-rule="evenodd" d="M28.1607 97.5594C26.9358 97.5848 25.6288 97.5193 24.416 97.7454C23.3496 97.9441 23.2184 99.1983 24.3663 99.345C25.4212 99.48 26.7001 99.2279 27.7601 99.1451C28.1366 99.1156 28.5745 99.1574 28.7549 98.651C28.9433 98.122 28.5832 97.6146 28.1607 97.5594Z" fill="#3EC1F3"/>
<path opacity="0.5" fill-rule="evenodd" clip-rule="evenodd" d="M37.4214 97.6911C36.7675 97.7109 34.8578 97.3689 34.5339 98.2774C33.9948 99.79 36.5801 99.2153 37.0761 99.1931C37.7012 99.1651 40.1374 99.6091 40.138 98.3985C40.1385 97.2113 38.02 97.673 37.4214 97.6911Z" fill="#3EC1F3"/>
<path opacity="0.5" fill-rule="evenodd" clip-rule="evenodd" d="M0.22459 105.207C0.226152 107.959 0.08541 110.736 0.291727 113.481C0.377042 114.616 0.362433 116.791 0.902872 117.753C1.28651 118.436 1.81859 118.388 2.02814 117.568C2.16821 117.02 1.94416 115.923 1.91918 115.337C1.89509 114.774 1.86699 114.211 1.84557 113.648C1.79059 112.197 1.79494 110.748 1.81134 109.297C1.82539 108.052 2.07174 106.405 1.83944 105.207C1.62286 104.091 0.22459 103.83 0.22459 105.207Z" fill="#3EC1F3"/>
<path opacity="0.5" fill-rule="evenodd" clip-rule="evenodd" d="M22.9549 102.787C19.031 102.906 15.0982 102.799 11.1777 103.036C9.24426 103.152 7.31837 103.408 5.3946 103.663C4.44945 103.789 3.50485 103.918 2.56137 104.059C2.27665 104.102 -0.0891974 104.214 0.800643 105.308C1.18919 105.786 2.42564 105.287 2.91489 105.216C3.86217 105.08 4.81134 104.962 5.75995 104.84C7.56506 104.607 9.3724 104.387 11.1852 104.265C15.4546 103.977 19.7417 104.064 24.0154 103.872C25.1714 103.82 26.324 103.783 27.4805 103.838C27.7842 103.853 30.0157 103.991 29.0468 102.988C28.5887 102.514 26.8613 102.758 26.2887 102.744C25.1775 102.716 24.0657 102.753 22.9549 102.787Z" fill="#3EC1F3"/>
<path opacity="0.5" fill-rule="evenodd" clip-rule="evenodd" d="M29.0663 117.303C29.0657 117.305 29.0651 117.306 29.0645 117.307C28.8507 117.69 28.0607 117.583 27.7147 117.612C26.6618 117.699 25.6284 117.846 24.5849 118.036C22.5057 118.416 20.4445 118.649 18.3428 118.712C14.186 118.837 10.012 118.72 5.86147 119.066C4.94218 119.143 4.03684 119.275 3.13261 119.486C2.4869 119.636 1.24252 120.151 1.16702 118.853C1.07591 117.289 4.30115 117.292 5.22333 117.188C9.18295 116.74 13.2077 116.834 17.1795 116.901C19.1001 116.934 21.0172 117.005 22.9363 116.862C24.8535 116.72 26.8357 116.757 28.7389 116.506C28.4938 115.35 28.5297 113.904 28.4609 112.723C28.2842 109.69 28.3315 106.646 28.2178 103.61C28.1677 102.272 29.6654 102.069 30.1096 103.152C30.5583 104.246 30.2668 106.416 30.2958 107.629C30.3629 110.436 30.7908 113.58 30.3388 116.357C30.1816 117.322 29.512 117.83 29.0663 117.303Z" fill="#3EC1F3"/>
<path opacity="0.5" fill-rule="evenodd" clip-rule="evenodd" d="M31.4799 104.589C30.9498 104.677 30.5076 105.229 30.7443 105.929C31.0424 106.811 31.9302 106.466 32.5167 106.41C34.3809 106.233 36.3273 106.588 38.169 106.32C38.672 106.247 39.4017 105.913 38.9501 105.091C38.6107 104.473 37.3739 104.582 36.8482 104.523C35.0501 104.32 33.2756 104.374 31.4799 104.589Z" fill="#3EC1F3"/>
<path opacity="0.5" fill-rule="evenodd" clip-rule="evenodd" d="M34.6263 108.435C33.9033 108.494 32.2203 108.448 31.9156 109.449C31.3691 111.244 33.5097 110.611 34.1614 110.509C34.9186 110.391 36.7034 110.708 37.1065 109.815C37.8274 108.218 35.2603 108.382 34.6263 108.435Z" fill="#3EC1F3"/>
<path opacity="0.5" fill-rule="evenodd" clip-rule="evenodd" d="M32.7671 112.375C32.4242 112.793 32.4236 113.538 32.7671 113.956C33.1876 114.467 34.1039 114.361 34.6565 114.398C35.4272 114.45 37.6409 114.946 38.0236 113.842C38.54 112.352 36.5354 112.384 35.8761 112.299C35.1141 112.201 33.3986 111.607 32.7671 112.375Z" fill="#3EC1F3"/>
<path opacity="0.5" fill-rule="evenodd" clip-rule="evenodd" d="M5.74911 86.8743C5.74911 88.476 7.80526 88.476 7.80526 86.8743C7.80526 85.2814 5.74911 85.2571 5.74911 86.8743Z" fill="#3EC1F3"/>
<path opacity="0.5" fill-rule="evenodd" clip-rule="evenodd" d="M9.64926 86.8925C9.64926 88.7236 11.9912 88.7199 11.9912 86.8925C11.9912 85.0678 9.64926 85.0492 9.64926 86.8925Z" fill="#3EC1F3"/>
<path opacity="0.5" fill-rule="evenodd" clip-rule="evenodd" d="M7.28984 89.3271C6.15142 89.7096 7.20018 90.8833 7.72879 91.1514C8.5689 91.5777 9.71546 91.8919 10.5558 91.2528C10.8901 90.9986 11.1616 90.6607 10.9166 90.1672C10.6555 89.6418 10.2981 89.8754 9.90059 89.9239C9.39706 89.9855 8.99012 89.976 8.50388 89.7796C8.14098 89.633 7.68563 89.1946 7.28984 89.3271Z" fill="#3EC1F3"/>
<path opacity="0.5" fill-rule="evenodd" clip-rule="evenodd" d="M27.9396 86.9758C27.9396 88.0591 29.3223 88.0591 29.3223 86.9758C29.3223 85.8924 27.9396 85.8924 27.9396 86.9758Z" fill="#3EC1F3"/>
<path opacity="0.5" fill-rule="evenodd" clip-rule="evenodd" d="M30.9974 87.1388C30.9974 88.3424 32.5334 88.3426 32.5334 87.1388C32.5334 85.9351 30.9974 85.9352 30.9974 87.1388Z" fill="#3EC1F3"/>
<path opacity="0.5" fill-rule="evenodd" clip-rule="evenodd" d="M30.8837 89.751C30.0768 89.8775 27.7432 90.1653 27.6126 91.3753C27.4112 93.2421 29.9682 91.7313 30.5518 91.5846C31.2951 91.398 31.9589 91.4467 32.7009 91.483C33.1083 91.5028 33.6502 91.5831 33.6075 90.8281C33.5375 89.5882 31.5889 89.641 30.8837 89.751Z" fill="#3EC1F3"/>
<path opacity="0.5" fill-rule="evenodd" clip-rule="evenodd" d="M10.5971 106.966C10.0123 107.156 9.24722 108.386 9.64959 109.139C10.3094 110.374 10.6003 108.478 10.8765 108.295C11.3789 107.963 11.7867 109.177 12.3118 108.54C13.1403 107.536 11.1187 106.796 10.5971 106.966Z" fill="#3EC1F3"/>
<path opacity="0.5" fill-rule="evenodd" clip-rule="evenodd" d="M17.2982 106.054C16.6046 106.061 15.1405 107.256 15.0368 108.138C14.9752 108.662 15.2608 109.166 15.7252 109.173C16.3575 109.182 16.5585 108.182 17.1066 107.973C17.6979 107.747 17.6101 108.267 18.1208 108.536C18.4945 108.733 18.9619 108.651 19.0917 108.092C19.3366 107.037 18.0108 106.037 17.2982 106.054Z" fill="#3EC1F3"/>
<path opacity="0.5" fill-rule="evenodd" clip-rule="evenodd" d="M11.9893 111.104C10.88 111.895 12.7053 113.59 13.3381 113.802C14.2934 114.122 16.216 113.525 16.4424 112.105C16.5325 111.54 16.242 111.028 15.7295 111.13C15.3075 111.213 15.0368 111.857 14.6459 112.088C14.1183 112.399 13.6492 112.378 13.2009 111.909C12.8357 111.527 12.6401 110.642 11.9893 111.104Z" fill="#3EC1F3"/>
<path opacity="0.5" fill-rule="evenodd" clip-rule="evenodd" d="M12.7933 122.79C11.8022 123.047 10.7947 122.875 9.79884 123.116C8.78331 123.363 8.17641 123.83 7.23292 123.359C7.18854 123.337 7.14426 123.314 7.09999 123.291C6.36974 122.908 5.60435 122.795 4.83998 123.405C4.38764 123.766 3.01446 125.014 3.17996 125.776C3.53862 127.427 5.08377 124.838 5.47778 124.585C6.22911 124.104 6.74423 124.719 7.51775 124.893C8.44428 125.1 9.18981 124.505 10.0626 124.268C11.0834 123.99 12.2317 123.893 13.2702 123.745C13.6805 123.686 15.2346 124.081 15.3749 123.46C15.6159 122.393 13.1829 122.689 12.7933 122.79Z" fill="#3EC1F3"/>
<path opacity="0.5" fill-rule="evenodd" clip-rule="evenodd" d="M19.9439 126.116C20.0087 126.175 19.9568 126.128 19.9439 126.116V126.116ZM22.7197 122.725C23.5682 122.621 26.2829 121.883 26.8403 122.95C27.2033 123.645 26.6272 126.209 26.0776 126.541C25.6383 126.806 24.6151 126.513 24.1331 126.492C23.2362 126.453 22.3374 126.436 21.4416 126.368C21.1411 126.346 20.1743 126.413 19.9388 126.089C19.6607 125.707 19.673 123.671 19.6076 123.166C20.3877 123.473 21.9041 122.826 22.7197 122.725ZM24.5315 121.68C23.4449 121.737 22.3584 121.836 21.2799 122.014C20.6786 122.112 20.0695 122.375 19.5142 122.5C19.3352 122.54 19.0447 122.429 18.8252 122.558C18.1839 122.934 18.7455 125.483 18.9002 126.164C19.1377 127.21 19.7356 127.38 20.5733 127.478C21.6767 127.608 22.8027 127.567 23.9096 127.551C24.9765 127.535 26.4152 127.823 27.0138 126.52C27.4008 125.678 27.8159 123.717 27.4851 122.778C27.0499 121.544 25.4252 121.634 24.5315 121.68Z" fill="#3EC1F3"/>
<path opacity="0.5" fill-rule="evenodd" clip-rule="evenodd" d="M36.7003 126.816C36.6422 126.907 36.6422 126.907 36.7003 126.816V126.816ZM36.9384 126.467C36.9205 126.5 36.8371 126.607 36.9384 126.467V126.467ZM34.347 126.371C34.826 126.261 35.3052 126.153 35.7847 126.047C35.3306 126.82 34.8524 126.5 34.0767 126.433C34.1668 126.412 34.2569 126.392 34.347 126.371ZM32.0617 126.097C32.1831 126.048 32.3044 125.999 32.4259 125.949C32.4222 126.062 32.4421 126.167 32.4854 126.265C32.2776 126.238 32.0699 126.208 31.8625 126.177C31.9288 126.151 31.9953 126.124 32.0617 126.097ZM31.0026 125.146C30.9958 124.943 31.2467 125.082 31.3904 125.069C31.1133 125.366 30.984 125.391 31.0026 125.146ZM34.7901 122.845C34.8265 122.788 34.8748 122.791 34.9349 122.853C34.8694 122.88 34.6168 123.01 34.7901 122.845ZM37.2462 122.493C37.2527 122.493 37.389 122.717 37.2462 122.493V122.493ZM37.1773 122.42C37.213 122.453 37.213 122.453 37.1773 122.42V122.42ZM36.8707 122.376C37.3729 122.479 37.3348 123.196 36.8707 122.376V122.376ZM30.9706 122.327C30.8686 122.43 30.9035 122.33 30.9706 122.327V122.327ZM32.8912 120.801C32.0386 120.861 30.4736 120.8 29.7615 121.353C28.8323 122.074 29.3212 124.558 29.4044 125.646C29.5273 127.255 30.1496 127.714 31.3952 127.883C32.8817 128.084 34.409 128.122 35.9032 128.074C37.2488 128.031 38.0152 127.468 38.2617 125.744C38.3372 125.217 38.5287 124.401 38.5227 123.896C38.5186 123.545 38.3751 123.385 38.3208 123.087C38.0117 121.391 37.4949 121.19 36.0658 121.116C35.0139 121.061 33.9233 120.735 32.8912 120.801Z" fill="#3EC1F3"/>
</g>
<g style="mix-blend-mode:darken">
<path opacity="0.5" fill-rule="evenodd" clip-rule="evenodd" d="M78.0543 81.8275C80.222 81.8837 82.6815 83.3433 82.3386 86.4354C82.0876 88.7006 80.4755 90.5394 78.6085 90.698C76.602 90.8683 74.4805 88.9947 74.2079 86.5091C73.9012 83.7133 75.9346 81.7717 78.0543 81.8275ZM76.9913 80.5688C76.1125 80.7284 75.2728 81.2898 74.499 81.7927C74.2036 81.9848 72.7061 83.1557 73.8806 83.4466C71.0507 88.9992 77.7107 94.1567 81.4552 90.548C83.1367 88.9274 84.0219 85.855 82.935 83.45C81.8108 80.9625 79.1449 80.1753 76.9913 80.5688Z" fill="#FFB7D5"/>
<path opacity="0.5" fill-rule="evenodd" clip-rule="evenodd" d="M76.4734 85.295C76.4734 86.3321 77.7964 86.3321 77.7964 85.295C77.7964 84.258 76.4734 84.258 76.4734 85.295Z" fill="#FFB7D5"/>
<path opacity="0.5" fill-rule="evenodd" clip-rule="evenodd" d="M78.9264 85.4611C78.9264 86.5854 80.3608 86.5854 80.3608 85.4611C80.3608 84.3368 78.9264 84.3368 78.9264 85.4611Z" fill="#FFB7D5"/>
<path opacity="0.5" fill-rule="evenodd" clip-rule="evenodd" d="M77.271 87.6846C77.0779 88.5376 79.279 88.9751 79.3522 87.9879C79.3871 87.5162 77.4052 87.0896 77.271 87.6846Z" fill="#FFB7D5"/>
<path opacity="0.5" fill-rule="evenodd" clip-rule="evenodd" d="M83.7233 87.1574C86.2559 86.7877 88.8673 86.9586 91.4123 87.0472C92.0492 87.0696 92.686 87.0913 93.3231 87.1042C93.728 87.1125 94.6026 87.3489 94.9561 87.1183C96.4034 86.174 93.5642 85.7174 93.1622 85.6739C90.6308 85.4205 86.7241 85.3301 84.1852 85.4497C83.4343 85.4851 83.2719 87.2233 83.7233 87.1574Z" fill="#FFB7D5"/>
<path opacity="0.5" fill-rule="evenodd" clip-rule="evenodd" d="M95.1202 102.475C95.142 99.2469 95.2371 95.9965 95.4411 92.7776C95.5241 91.4655 95.6238 90.1552 95.7064 88.8432C95.7453 88.2252 95.9258 87.3596 95.6273 86.8173C95.3196 86.2586 94.6446 86.1424 94.2379 86.6376C93.751 87.4044 93.8925 88.6913 93.832 89.6188C93.7389 91.045 93.6264 92.4701 93.5705 93.8993C93.4625 96.6657 93.4372 99.4801 93.6199 102.242C93.7062 103.546 93.8933 104.818 94.1421 106.089C94.2555 106.668 95.1569 109.246 94.9675 109.601C94.6737 110.152 92.5028 109.944 92.032 109.959C90.8236 109.999 89.6147 110.025 88.406 110.053C87.3712 110.077 86.3364 110.094 85.3014 110.105C84.8905 110.109 82.476 110.02 83.0115 110.762C77.0223 111.269 70.9185 110.422 64.9657 110.131C64.665 110.116 64.173 110.012 63.7189 109.983C63.6645 109.716 63.6198 109.477 63.6087 109.311C63.5305 108.148 63.5101 106.98 63.4252 105.816C63.27 103.687 62.9691 101.579 62.7901 99.4539C62.6115 97.3306 62.6294 95.201 62.5254 93.0727C62.5076 92.7079 62.4654 89.7206 61.8458 88.9948C62.1395 89.1303 62.6132 89.1479 62.8861 89.1212C65.0943 88.9044 67.2864 88.4376 69.4757 88.0369C70.102 87.9223 71.5234 88.0035 72.043 87.6226C72.4926 87.2928 72.6705 86.1367 71.8883 86.2302C69.7053 86.5147 67.534 86.9563 65.3681 87.3911C64.7888 87.5073 64.211 87.6316 63.6333 87.7586C63.2474 87.8435 62.2289 87.837 61.9297 88.12C61.5663 88.4635 61.5277 88.6973 61.6509 88.8527C61.4796 88.7954 61.2744 88.8854 61.0279 89.1855C60.5619 89.9235 61 91.7411 61.0555 92.6064C61.1223 93.6444 61.1551 94.6842 61.194 95.724C61.269 97.7364 61.4422 99.7209 61.7083 101.709C62.0065 103.936 62.2602 106.172 62.5592 108.399C62.637 108.979 62.7384 109.544 62.868 110.104C62.0625 110.605 62.6101 111.402 63.249 111.544C63.2535 111.545 63.2583 111.546 63.2629 111.547C63.462 112.137 63.7405 112.685 63.958 111.893C63.9746 111.832 63.9824 111.758 63.9844 111.674C65.6344 111.901 67.4479 111.76 69.0723 111.84C72.5909 112.015 76.1312 112.278 79.6534 112.145C81.0478 112.092 82.4464 111.942 83.8291 111.715C84.6392 111.583 85.4524 111.424 86.2495 111.204C86.3066 111.189 86.3934 111.172 86.4937 111.152C86.5101 111.152 86.5267 111.151 86.5422 111.151C87.7627 111.128 88.9823 111.089 90.2019 111.027C91.2256 110.975 92.2538 110.949 93.2743 110.831C93.9081 110.758 95.2477 110.772 95.6367 109.996C95.9906 109.291 95.3991 107.475 95.315 106.683C95.1673 105.288 95.1107 103.881 95.1202 102.475Z" fill="#FFB7D5"/>
<path opacity="0.5" fill-rule="evenodd" clip-rule="evenodd" d="M82.7506 93.1531C81.7753 93.2548 80.8734 93.812 79.8891 93.8189C79.063 93.8246 78.2496 93.5242 77.4189 93.5686C76.4444 93.6203 75.9083 94.387 75.0547 94.6435C74.3752 94.8477 73.9471 94.2147 73.3494 93.9348C72.5947 93.5812 72.0373 93.7638 71.3904 94.2985C70.9152 94.6914 69.8067 95.5732 69.8153 96.3679C69.8407 98.7751 72.1492 95.4498 72.6146 95.4095C73.2329 95.356 73.9237 96.2135 74.5816 96.2623C75.4514 96.3271 76.0091 95.6449 76.81 95.3963C77.62 95.1449 78.4955 95.4529 79.3075 95.5485C80.2339 95.6575 81.0447 95.4062 81.9409 95.1372C82.8096 94.8765 83.5497 94.8903 84.4323 95.1092C85.028 95.2571 86.5119 96.1163 86.7724 95.0115C87.1273 93.507 83.4324 93.0825 82.7506 93.1531Z" fill="#FFB7D5"/>
<path opacity="0.5" fill-rule="evenodd" clip-rule="evenodd" d="M83.0475 97.7444C81.049 97.9803 79.0384 98.1873 77.0309 98.2535C76.1614 98.2823 72.8187 97.8289 73.1152 99.1732C73.3692 100.326 77.918 99.6001 78.8444 99.5122C79.8672 99.4156 80.8885 99.2804 81.9063 99.1237C82.2669 99.0682 83.138 99.1256 83.3925 98.7577C83.6351 98.4065 83.5155 97.6874 83.0475 97.7444Z" fill="#FFB7D5"/>
<path opacity="0.5" fill-rule="evenodd" clip-rule="evenodd" d="M69.261 103.866C69.2155 103.889 69.2155 103.889 69.261 103.866V103.866ZM69.6825 103.859C70.1808 103.84 70.074 103.52 70.571 103.687C70.8002 103.764 70.8237 103.65 71.0014 103.916C71.3482 104.436 71.0216 105.569 70.6798 105.988C69.4143 107.539 67.8956 103.928 69.6825 103.859ZM69.6825 102.337C66.218 102.478 67.6676 108.99 70.6829 107.66C71.9282 107.112 72.711 104.639 71.9785 103.249C71.6222 102.573 71.1679 102.453 70.571 102.406C70.4324 102.395 70.258 102.64 70.1715 102.629C69.9659 102.602 69.9851 102.323 69.6825 102.337Z" fill="#FFB7D5"/>
<path opacity="0.5" fill-rule="evenodd" clip-rule="evenodd" d="M77.9675 104.089C77.9057 104.066 79.0614 104.475 78.935 104.315C79.2048 104.656 78.842 105.464 78.5367 105.604C77.7975 105.946 77.3827 104.547 77.9675 104.089ZM78.4803 102.324C77.3955 102.511 76.5584 103.06 76.4101 104.528C76.2733 105.883 77.0256 107.254 78.2123 107.281C80.7988 107.338 80.8776 101.917 78.4803 102.324Z" fill="#FFB7D5"/>
<path opacity="0.5" fill-rule="evenodd" clip-rule="evenodd" d="M90.2884 104.148C90.4399 106.554 88.3896 104.352 90.2884 104.148V104.148ZM89.4085 101.575C89.2292 101.948 89.3821 102.344 89.6526 102.56C87.2342 103.182 87.782 107.61 90.243 106.956C91.4944 106.623 91.7246 105.022 91.538 103.7C91.4493 103.071 90.1617 100.008 89.4085 101.575Z" fill="#FFB7D5"/>
</g>
<path opacity="0.5" fill-rule="evenodd" clip-rule="evenodd" d="M95.1301 103.885C94.4091 104.041 92.7048 105.01 92.7197 106.05C92.7428 107.674 94.1913 105.9 94.5135 105.662C96.2443 104.38 98.4862 106.041 100.288 106.394C101.115 106.556 102.731 106.856 103.461 106.182C104.759 104.984 101.757 105.284 101.375 105.236C99.2969 104.974 97.2296 103.429 95.1301 103.885Z" fill="#3EC1F3"/>
<g opacity="0.5">
<path opacity="0.5" fill-rule="evenodd" clip-rule="evenodd" d="M129.182 92.4666C129.182 94.1283 129.112 95.8245 129.364 97.4663C129.44 97.9633 129.501 98.9153 129.932 99.1733C130.364 99.4323 130.784 99.1413 130.892 98.6014C131.017 97.9732 130.742 97.0331 130.714 96.3736C130.676 95.4727 130.673 94.5707 130.673 93.6687C130.673 93.0174 130.849 91.9695 130.217 91.6343C129.747 91.3851 129.182 91.8485 129.182 92.4666Z" fill="#3EC1F3"/>
<path opacity="0.5" fill-rule="evenodd" clip-rule="evenodd" d="M150.775 89.8384C146.25 90.391 141.659 90.5059 137.118 90.7941C135.018 90.9272 132.481 90.7573 130.503 91.746C130.136 91.9296 128.821 92.9515 129.889 93.3675C130.222 93.4973 130.56 93.0611 130.833 92.9149C131.288 92.6717 131.815 92.5964 132.301 92.5015C136.427 91.6952 140.744 91.8356 144.913 91.4589C145.981 91.3623 147.05 91.2629 148.116 91.1353C148.878 91.0442 150.479 90.3762 151.182 90.7179C152.383 91.3016 152.355 95.0942 152.378 96.3986C152.391 97.0732 151.853 99.4946 152.922 99.2491C153.779 99.0526 153.469 96.5371 153.402 95.8489C153.227 94.0452 152.928 89.573 150.775 89.8384Z" fill="#3EC1F3"/>
<path opacity="0.5" fill-rule="evenodd" clip-rule="evenodd" d="M152.444 99.1617C148.513 99.5935 144.492 99.1698 140.545 99.3396C138.476 99.4288 136.409 99.5705 134.34 99.6537C133.446 99.6897 132.55 99.6912 131.655 99.699C131.226 99.7025 129.278 100.018 130.483 101.051C131.017 101.509 132.718 101.14 133.33 101.131C134.25 101.118 135.17 101.072 136.089 101.028C138.218 100.926 140.346 100.786 142.477 100.716C144.515 100.649 146.554 100.634 148.592 100.567C149.606 100.534 150.633 100.496 151.638 100.316C151.865 100.275 152.602 100.243 152.759 99.9352C152.908 99.6443 152.804 99.1195 152.444 99.1617Z" fill="#3EC1F3"/>
<path opacity="0.5" fill-rule="evenodd" clip-rule="evenodd" d="M133.125 95.5713C133.104 95.6322 133.104 95.6322 133.125 95.5713V95.5713ZM134.827 94.9419C134.89 94.9739 134.89 94.9739 134.827 94.9419V94.9419ZM134.748 94.9244C135.665 96.0619 134.254 97.4197 133.395 96.3096C132.483 95.1313 134.157 94.9282 134.748 94.9244ZM133.775 93.2034C130.615 93.8874 131.734 99.0106 134.685 98.2702C135.981 97.9452 136.721 96.3573 136.276 94.832C136.101 94.2361 135.722 93.582 135.193 93.3942C134.929 93.3006 134.696 93.4479 134.445 93.4135C134.205 93.3806 134.072 93.1382 133.775 93.2034Z" fill="#3EC1F3"/>
<path opacity="0.5" fill-rule="evenodd" clip-rule="evenodd" d="M145.867 94.6454C143.962 94.6527 142.056 94.7512 140.151 94.7951C139.567 94.8085 138.065 94.4904 138.063 95.6111C138.06 96.8086 139.733 96.3664 140.29 96.3502C142.179 96.2953 144.074 96.1945 145.956 95.9757C146.431 95.9203 148.077 96.0158 148.075 95.2292C148.074 94.3959 146.251 94.6454 145.867 94.6454Z" fill="#3EC1F3"/>
<path opacity="0.5" fill-rule="evenodd" clip-rule="evenodd" d="M150.418 102.462C145.706 102.615 141 102.669 136.292 102.962C134.531 103.072 132.772 103.154 131.008 103.154C130.669 103.154 129.985 102.994 129.665 103.254C128.797 103.96 129.785 104.566 130.351 104.604C134.219 104.865 138.143 104.215 142.009 104.068C144.272 103.982 146.535 103.957 148.797 103.817C149.414 103.779 150.031 103.734 150.647 103.676C151.002 103.643 151.939 103.734 152.225 103.482C153.475 102.381 150.839 102.448 150.418 102.462Z" fill="#3EC1F3"/>
<path opacity="0.5" fill-rule="evenodd" clip-rule="evenodd" d="M128.797 105.265C128.753 106.751 128.748 108.212 128.908 109.69C128.971 110.271 129 110.931 129.56 111.079C130.069 111.213 130.327 110.745 130.433 110.226C130.69 108.958 130.464 107.133 130.461 105.816C130.459 105.164 130.459 104.435 129.797 104.288C129.293 104.176 128.816 104.619 128.797 105.265Z" fill="#3EC1F3"/>
<path opacity="0.5" fill-rule="evenodd" clip-rule="evenodd" d="M155.413 108.848C147.785 109.337 140.167 109.764 132.533 110.157C131.938 110.187 127.313 110.126 128.93 112.088C129.43 112.694 130.716 112.284 131.362 112.245C132.332 112.187 133.303 112.143 134.274 112.083C138.122 111.844 141.98 111.78 145.825 111.513C147.94 111.366 150.052 111.135 152.156 110.835C153.158 110.693 154.4 110.708 155.338 110.23C155.821 109.985 156.341 108.788 155.413 108.848Z" fill="#3EC1F3"/>
<path opacity="0.5" fill-rule="evenodd" clip-rule="evenodd" d="M151.027 101.308C150.447 102.011 150.745 103.398 150.789 104.266C150.849 105.462 150.922 106.658 151.044 107.847C151.124 108.619 151.082 109.822 151.421 110.489C151.817 111.27 152.691 111.184 153.049 110.429C153.366 109.761 153.206 108.357 153.198 107.617C153.186 106.594 153.134 105.569 153.084 104.548C153.042 103.695 153.201 102.328 152.815 101.597C152.423 100.855 151.57 100.65 151.027 101.308Z" fill="#3EC1F3"/>
<path opacity="0.5" fill-rule="evenodd" clip-rule="evenodd" d="M133.591 106.763C133.523 106.826 133.523 106.826 133.591 106.763V106.763ZM134.946 106.556C136.211 106.865 134.166 108.661 133.52 107.429C133.419 107.236 133.367 106.999 133.529 106.832C133.677 106.679 133.77 106.95 133.909 106.877C134.15 106.752 134.69 106.544 134.946 106.556ZM134.772 105.082C133.909 105.165 132.722 105.23 132.295 106.282C131.721 107.696 132.703 109.081 133.838 109.296C134.931 109.503 136.562 108.767 136.65 107.216C136.72 105.966 135.743 104.986 134.772 105.082Z" fill="#3EC1F3"/>
<path opacity="0.5" fill-rule="evenodd" clip-rule="evenodd" d="M141.978 105.83C141.084 105.847 139.328 105.526 138.55 106.055C137.779 106.58 138.123 107.513 138.826 107.737C139.29 107.884 140.049 107.646 140.533 107.622C141.169 107.591 141.805 107.584 142.442 107.573C143.512 107.556 144.582 107.57 145.653 107.57C146.746 107.57 147.858 107.607 148.95 107.509C150.331 107.385 150.294 106.127 148.943 105.97C146.649 105.703 144.28 105.785 141.978 105.83Z" fill="#3EC1F3"/>
<path opacity="0.5" fill-rule="evenodd" clip-rule="evenodd" d="M139.695 119.92C139.695 120.518 140.131 119.92 140.128 119.92C140.131 119.92 139.695 119.323 139.695 119.92Z" fill="#3EC1F3"/>
<path opacity="0.5" fill-rule="evenodd" clip-rule="evenodd" d="M129.834 115.108C129.862 116.846 129.881 118.585 129.942 120.321C129.961 120.87 129.832 121.942 130.379 122.222C130.988 122.534 131.177 121.757 131.247 121.231C131.469 119.564 131.251 117.661 131.23 115.974C131.223 115.407 131.324 114.619 130.795 114.337C130.364 114.106 129.826 114.534 129.834 115.108Z" fill="#3EC1F3"/>
<path opacity="0.5" fill-rule="evenodd" clip-rule="evenodd" d="M153.32 115.136C153.356 115.239 153.356 115.239 153.32 115.136V115.136ZM153.371 115.118C153.4 115.133 153.519 115.193 153.371 115.118V115.118ZM141.834 113.714C139.642 113.755 137.448 113.787 135.257 113.901C134.321 113.95 133.376 113.989 132.444 114.097C131.784 114.173 130.144 114.204 129.716 114.861C128.832 116.215 130.706 115.846 131.109 115.736C131.844 115.535 132.593 115.471 133.343 115.423C134.971 115.319 136.6 115.263 138.23 115.223C142.649 115.115 147.073 115.131 151.493 115.107C151.921 115.105 152.695 114.895 153.09 115.106C153.486 115.317 153.464 115.836 153.505 116.439C153.56 117.24 153.125 118.768 153.456 119.443C153.97 120.489 154.717 119.601 154.831 118.838C154.989 117.784 154.739 116.519 154.494 115.511C154.149 114.09 153.669 114.033 152.539 113.922C151.219 113.793 149.903 113.714 148.579 113.699C146.331 113.674 144.082 113.671 141.834 113.714Z" fill="#3EC1F3"/>
<path opacity="0.5" fill-rule="evenodd" clip-rule="evenodd" d="M150.506 120.896C145.75 121.568 140.86 121.172 136.079 121.196C134.916 121.202 133.753 121.213 132.591 121.282C131.978 121.318 130.524 121.112 130.103 121.688C129.217 122.901 130.813 123.078 131.396 123.028C132.574 122.926 133.754 122.879 134.935 122.868C139.095 122.829 143.278 123.065 147.434 122.816C149.175 122.711 150.878 122.349 152.587 121.944C152.965 121.854 155.557 121.254 154.079 120.536C153.206 120.111 151.423 120.766 150.506 120.896Z" fill="#3EC1F3"/>
<path opacity="0.5" fill-rule="evenodd" clip-rule="evenodd" d="M136.621 118.674C136.588 118.726 136.588 118.726 136.621 118.674V118.674ZM136.589 118.665C136.578 118.703 136.543 118.794 136.589 118.665V118.665ZM136.289 118.195C136.296 118.206 136.325 118.25 136.289 118.195V118.195ZM136.278 118.191C136.392 118.357 136.469 118.543 136.509 118.748C135.524 119.072 135.144 118.103 136.278 118.191ZM136.215 118.146C136.216 118.146 136.354 118.217 136.215 118.146V118.146ZM134.597 116.701C133.959 117.667 133.433 118.793 134.228 119.897C134.939 120.883 136.369 121.01 137.271 120.352C138.2 119.673 138.12 118.244 137.472 117.312C137.054 116.711 136.716 116.728 136.111 116.63C135.698 116.563 134.947 116.173 134.597 116.701Z" fill="#3EC1F3"/>
<path opacity="0.5" fill-rule="evenodd" clip-rule="evenodd" d="M141.189 118.489C141.189 119.776 145.754 119.222 146.567 119.22C147.247 119.219 151.361 119.676 151.066 118.352C150.823 117.264 146.771 117.805 145.908 117.803C145.162 117.802 141.189 117.179 141.189 118.489Z" fill="#3EC1F3"/>
</g>
<g opacity="0.5">
<path opacity="0.5" fill-rule="evenodd" clip-rule="evenodd" d="M81.5825 130.542C83.8691 130.946 86.2477 132.255 86.2277 135.493C86.2109 138.215 84.334 141.113 81.924 140.95C79.7551 140.804 77.7129 137.918 77.4413 135.445C77.3006 134.164 77.5638 132.785 78.1833 131.731C78.9949 130.35 80.2828 130.352 81.5825 130.542ZM80.5025 128.782C78.8487 128.793 77.6387 129.521 76.6151 131.057C76.248 131.608 75.8211 132.201 75.5417 132.825C75.2807 133.408 75.3265 134.89 76.2221 134.196C76.0015 137.065 77.38 139.85 79.3617 141.321C81.5158 142.919 83.9505 142.608 85.7432 140.367C87.3843 138.316 87.9618 134.852 86.7612 132.316C85.5613 129.781 82.7812 128.755 80.5025 128.782Z" fill="#3EC1F3"/>
<path opacity="0.5" fill-rule="evenodd" clip-rule="evenodd" d="M85.4616 128.013C84.4028 128.957 83.436 130.201 82.633 131.461C81.8481 132.694 81.3293 134.233 80.3865 135.308C79.9103 134.677 79.3525 132.973 78.4027 133.649C77.6145 134.21 78.122 135.175 78.5059 135.808C79.4971 137.444 80.5979 138.102 81.8692 136.486C83.0237 135.018 83.6794 133.06 84.7589 131.508C85.2325 130.827 85.964 130.151 86.3411 129.399C86.6829 128.718 86.2601 127.299 85.4616 128.013Z" fill="#3EC1F3"/>
</g>
<path opacity="0.5" fill-rule="evenodd" clip-rule="evenodd" d="M114.567 34.158C114.602 34.1514 114.637 34.1468 114.671 34.1442C115.554 34.076 116.448 34.1042 117.333 34.0793C119.144 34.0282 121.027 34.1487 122.827 33.8906C123.193 33.8329 123.321 34.4041 123.157 34.7002C122.973 35.0327 122.383 35.0157 122.11 35.0649C121.311 35.2089 120.501 35.2591 119.694 35.3026C118.847 35.3483 118 35.3824 117.152 35.4111C116.418 35.4358 114.789 35.8094 114.11 35.4355C113.58 35.1442 113.593 34.8207 113.809 34.5701C113.678 34.2199 113.699 33.6463 113.671 33.3711C113.554 32.2177 113.483 31.079 113.481 29.9157C113.478 27.637 113.482 25.2704 114 23.0648C113.792 22.9543 113.667 22.7913 113.668 22.5564C113.67 21.1615 117.877 21.4946 118.73 21.4669C119.778 21.4336 120.826 21.4293 121.875 21.4362C122.568 21.4406 123.505 21.2587 124.195 21.4538C125.538 21.8332 125.453 24.6351 125.481 25.99C125.53 28.4202 125.501 30.9751 125.339 33.3997C125.283 34.2368 124.783 35.2978 124.212 34.1439C123.893 33.5005 124.035 31.9974 124.035 31.2865C124.033 28.7593 124.359 26.1557 124.047 23.6414C123.945 22.8172 123.968 22.7615 123.278 22.7788C122.732 22.7927 122.185 22.8147 121.638 22.8287C120.525 22.8571 119.411 22.8757 118.298 22.9253C117.875 22.9442 116.357 23.267 115.172 23.2658C115.173 23.2773 115.174 23.2888 115.174 23.3006C115.19 24.275 114.798 25.4575 114.744 26.4827C114.616 28.9483 114.769 31.4716 114.579 33.9247C114.574 33.9991 114.57 34.0783 114.567 34.158Z" fill="#3EC1F3"/>
<path opacity="0.5" fill-rule="evenodd" clip-rule="evenodd" d="M130.513 34.8709C130.376 34.6999 130.252 34.4487 130.172 34.1354C129.886 33.0106 129.859 31.7967 129.838 30.6303C129.793 28.1373 129.815 25.64 129.803 23.1461C129.617 22.8424 129.728 22.495 129.959 22.2527C130.586 21.5983 132.392 21.7644 133.187 21.7132C134.332 21.6395 135.477 21.6225 136.623 21.6174C137.837 21.6099 139.052 21.6365 140.265 21.6819C140.715 21.6987 143.844 21.7944 142.446 22.7174C142.366 22.7703 142.276 22.8144 142.177 22.8511C142.235 23.2705 142.242 23.7035 142.233 23.9121C142.174 25.2393 142.148 26.569 142.1 27.8969C142.046 29.3791 141.994 30.8611 141.952 32.344C141.93 33.1278 142.15 34.9506 141.64 35.5165C141.297 35.898 141.062 35.8216 140.904 35.5625C139.684 35.9936 136.868 35.7158 136.355 35.7161C135.436 35.7165 130.445 36.4352 130.437 35.1417C130.436 35.0414 130.463 34.9514 130.513 34.8709ZM131.324 34.4134C132.717 34.0517 135.312 34.2934 135.859 34.2909C136.876 34.286 137.893 34.3032 138.91 34.3527C139.227 34.3681 140.002 34.2939 140.614 34.3764C140.608 34.309 140.605 34.2474 140.602 34.1942C140.547 32.8594 140.607 31.5106 140.643 30.1758C140.678 28.8304 140.733 27.4862 140.775 26.1411C140.797 25.4492 140.654 24.005 140.809 23.0093C140.07 22.9922 139.296 22.8836 138.797 22.8835C137.627 22.8834 136.458 22.8673 135.288 22.8954C134.024 22.9259 132.747 22.9439 131.493 23.1467C131.424 23.1578 131.341 23.1793 131.25 23.2053C131.441 24.1774 131.209 25.7405 131.208 26.6411C131.206 29.1644 131.282 31.674 131.329 34.184C131.33 34.2663 131.329 34.3427 131.324 34.4134Z" fill="#3EC1F3"/>
<path opacity="0.5" fill-rule="evenodd" clip-rule="evenodd" d="M118.766 35.3582C118.014 35.8928 118.42 38.0316 118.68 38.7713C119.109 39.9876 119.978 40.9393 120.916 41.5707C122.812 42.8467 125.545 42.5078 126.979 44.7201C126.994 44.743 127.49 45.3399 127.602 44.5669C127.695 43.9324 126.77 42.9634 126.411 42.6454C125.392 41.7411 124.084 41.4494 122.905 40.9977C121.647 40.5159 120.267 39.6277 119.739 38.0501C119.552 37.4914 119.908 34.5426 118.766 35.3582Z" fill="#3EC1F3"/>
<path opacity="0.5" fill-rule="evenodd" clip-rule="evenodd" d="M135.964 36.3864C135.275 36.6176 135.73 37.7717 135.729 38.3496C135.728 39.0705 135.539 39.825 135.173 40.4003C134.247 41.8593 132.434 42.0779 131.074 42.4962C130.087 42.8002 127.725 43.4519 127.633 45.0762C127.53 46.8901 129.615 44.6826 129.791 44.5922C131.74 43.7224 134.261 43.5544 135.766 41.6399C136.387 40.8496 136.754 39.7948 136.812 38.7061C136.845 38.0932 136.85 36.0918 135.964 36.3864Z" fill="#3EC1F3"/>
<path opacity="0.5" fill-rule="evenodd" clip-rule="evenodd" d="M126.73 46.3258C129.6 45.4062 132.273 47.8522 132.611 51.3708C132.968 55.0841 130.667 58.0735 127.634 58.2374C124.965 58.3816 121.736 56.057 121.719 52.4757C121.703 49.1196 124.343 47.0895 126.73 46.3258ZM128.111 48.829C127.621 49.1769 127.531 48.2741 127.183 48.1549C126.835 48.0354 126.274 48.4818 125.983 48.742C125.49 49.184 124.124 51.7566 123.461 50.3595C121.451 54.5821 126.462 57.7422 129.312 56.1442C132.441 54.3892 131.832 47.973 128.129 47.9395C128.284 48.1962 128.424 48.6059 128.111 48.829Z" fill="#3EC1F3"/>
<path opacity="0.5" fill-rule="evenodd" clip-rule="evenodd" d="M125.503 51.3522C125.503 52.1226 126.503 52.1226 126.503 51.3522C126.503 50.5907 125.503 50.558 125.503 51.3522Z" fill="#3EC1F3"/>
<path opacity="0.5" fill-rule="evenodd" clip-rule="evenodd" d="M127.262 51.2077C127.262 52.1513 128.487 52.1513 128.487 51.2077C128.487 50.2748 127.262 50.235 127.262 51.2077Z" fill="#3EC1F3"/>
<path opacity="0.5" fill-rule="evenodd" clip-rule="evenodd" d="M126.003 53.4065C125.001 54.1236 127.867 55.5485 127.98 54.0924C128.029 53.4642 127.528 53.6336 127.195 53.5874C126.876 53.5432 126.306 53.1922 126.003 53.4065Z" fill="#3EC1F3"/>
<path opacity="0.5" fill-rule="evenodd" clip-rule="evenodd" d="M125.568 58.4942C125.612 60.3259 125.591 62.1564 125.876 63.9626C125.931 64.3056 125.968 65.5499 126.191 65.8047C126.739 66.4316 126.748 65.2301 126.77 64.7697C126.846 63.1205 126.704 61.42 126.672 59.7674C126.665 59.4117 126.743 58.6749 126.605 58.3306C126.386 57.784 125.547 57.6217 125.568 58.4942Z" fill="#3EC1F3"/>
<path opacity="0.5" fill-rule="evenodd" clip-rule="evenodd" d="M124.497 57.0091C122.3 60.0089 119.274 59.788 116.227 60.0507C114.616 60.1895 112.988 60.4745 111.692 61.7417C111.09 62.3312 110.57 63.0696 110.221 63.9111C110.068 64.279 109.344 66.4016 110.432 65.898C110.817 65.7194 111.197 64.3157 111.446 63.9005C111.921 63.1097 112.529 62.4569 113.258 62.0325C114.665 61.214 116.344 61.2279 117.869 61.124C119.463 61.0155 121.174 60.9141 122.64 60.0707C123.329 59.6739 123.976 59.1791 124.53 58.5415C124.729 58.3135 125.154 57.9264 125.185 57.5779C125.222 57.1795 124.907 56.4502 124.497 57.0091Z" fill="#3EC1F3"/>
<path opacity="0.5" fill-rule="evenodd" clip-rule="evenodd" d="M113.406 66.2166C111.342 66.3005 109.281 66.4021 107.221 66.5608C106.798 66.5934 105.39 66.4896 105.749 67.5424C106.036 68.3863 107.754 67.828 108.322 67.7871C110.469 67.632 112.625 67.5781 114.768 67.3431C115.249 67.2904 117.425 67.3114 116.527 66.2735C116.099 65.7795 113.997 66.1921 113.406 66.2166Z" fill="#3EC1F3"/>
<path opacity="0.5" fill-rule="evenodd" clip-rule="evenodd" d="M104.439 67.4276C103.788 68.4669 104.087 70.9931 104.136 72.2425C104.184 73.4534 103.99 75.6673 105.29 75.8551C104.877 75.7892 105.603 75.8855 105.721 75.8933C105.985 75.9105 106.25 75.916 106.514 75.9195C107.124 75.9277 107.734 75.9178 108.344 75.9029C109.726 75.8693 111.112 75.8204 112.492 75.7275C113.072 75.6883 116.219 75.721 116.344 74.9877C116.503 74.0508 113.486 74.5808 112.946 74.6108C111.63 74.6842 110.312 74.6996 108.996 74.7206C108.343 74.731 107.69 74.7389 107.037 74.7233C106.768 74.717 105.7 74.8516 105.537 74.6328C105.397 74.4466 105.506 72.7347 105.503 72.4728C105.493 71.6192 105.494 70.7635 105.519 69.9102C105.536 69.3358 105.791 68.2427 105.583 67.7031C105.381 67.1785 104.791 66.9994 104.439 67.4276Z" fill="#3EC1F3"/>
<path opacity="0.5" fill-rule="evenodd" clip-rule="evenodd" d="M115.065 67.4761C115.102 69.3775 115.114 71.3174 115.483 73.177C115.606 73.7959 115.778 75.072 116.289 75.3924C116.826 75.7287 117.289 75.2487 117.324 74.6021C117.368 73.7893 117.01 72.7221 116.937 71.8881C116.851 70.915 116.801 69.9409 116.772 68.963C116.75 68.2276 116.933 67.125 116.357 66.6508C115.839 66.2247 115.048 66.6537 115.065 67.4761Z" fill="#3EC1F3"/>
<path opacity="0.5" fill-rule="evenodd" clip-rule="evenodd" d="M119.171 67.0118C118.53 67.7896 118.816 70.2523 118.897 71.2517C118.955 71.9837 119.614 75.5846 120.601 73.7069C121.037 72.8762 120.483 70.6799 120.487 69.7114C120.489 69.0945 120.669 68.3145 120.582 67.7219C120.468 66.9387 119.754 66.3045 119.171 67.0118Z" fill="#3EC1F3"/>
<path opacity="0.5" fill-rule="evenodd" clip-rule="evenodd" d="M134.269 73.4391C134.41 73.6253 134.473 73.8905 134.381 74.15C134.16 74.7731 133.348 74.6386 132.907 74.6833C131.435 74.8325 129.957 74.9321 128.48 74.9478C127.053 74.9631 125.625 74.9185 124.198 74.9356C123.009 74.9498 121.771 75.243 120.593 75.1842C120.101 75.1595 119.576 74.9637 119.701 74.1905C119.811 73.5045 120.379 73.4991 120.841 73.4418C122.235 73.2692 123.629 73.2081 125.029 73.2142C127.971 73.2267 130.911 73.2081 133.853 73.1894C133.974 73.2016 134.088 73.2578 134.181 73.3435C134.028 73.1163 134.102 72.7797 134.073 72.4512C133.995 71.5657 133.946 70.6954 133.808 69.8101C133.697 69.1019 133.614 67.899 133.075 67.4535C132.486 66.9671 131.179 67.128 130.476 67.1059C128.585 67.0466 126.683 67.21 124.801 67.4182C123.942 67.5131 123.073 67.5854 122.225 67.7729C121.752 67.8775 120.365 68.7215 119.988 68.2022C119.079 66.9515 123.073 66.438 123.615 66.3698C125.543 66.1279 127.473 65.9464 129.412 65.9239C130.721 65.9115 132.961 65.7757 133.923 67.0823C134.501 67.8669 134.704 69.1595 134.93 70.1384C135.103 70.8903 135.573 72.2461 135.239 73.0227C135.088 73.3741 134.844 73.6737 134.475 73.5492C134.389 73.5202 134.321 73.483 134.269 73.4391Z" fill="#3EC1F3"/>
<path opacity="0.5" fill-rule="evenodd" clip-rule="evenodd" d="M144.125 63.5224C144.209 63.6536 144.209 63.6536 144.125 63.5224V63.5224ZM131.079 55.7742C129.909 56.6115 132.076 59.0683 132.627 59.4483C133.87 60.3033 135.577 60.4322 136.964 60.6727C138.719 60.9772 140.63 61.0892 142.317 61.7891C143.036 62.0874 143.492 62.5527 143.963 63.2679C144.201 63.6303 144.776 65.1922 145.299 64.8224C146.352 64.0778 143.514 60.9529 142.889 60.617C141.468 59.8532 139.788 59.6393 138.269 59.3428C136.856 59.0668 135.412 58.8617 134.034 58.3754C133.276 58.1081 132.738 57.6768 132.301 56.8513C132.029 56.3368 131.806 55.2573 131.079 55.7742Z" fill="#3EC1F3"/>
<path opacity="0.5" fill-rule="evenodd" clip-rule="evenodd" d="M137.361 73.8625C137.01 73.0458 136.849 71.4767 136.818 71.1669C136.684 69.8318 136.673 68.5124 136.692 67.1691C136.703 66.4317 137.397 66.08 137.846 66.4937C138.447 66.1874 139.465 66.1414 140.011 66.0742C140.91 65.9638 141.816 65.9228 142.717 65.8572C144.82 65.7043 146.921 65.4283 149.028 65.3715C149.659 65.3555 150.503 65.2862 151.007 65.8525C151.581 66.4972 151.696 68.0967 151.868 68.9585C152.055 69.8944 152.278 70.8467 152.356 71.8068C152.374 72.0317 152.424 72.418 152.402 72.7655C152.664 72.809 152.821 73.1186 152.794 73.4569C152.745 74.0847 152.03 74.1703 151.612 74.2696C150.221 74.6001 148.734 74.5249 147.324 74.5734C144.374 74.6745 141.219 75.2542 138.28 74.9091C137.776 74.85 137.236 74.6338 137.361 73.8625ZM138.423 73.1237C138.54 73.1226 138.655 73.1252 138.763 73.123C140.246 73.0914 141.729 73.0367 143.212 72.9673C144.724 72.8967 146.237 72.8179 147.75 72.7968C148.953 72.7801 150.192 72.9064 151.403 72.8495C151.143 72.0199 151.182 70.714 151.043 69.8548C150.906 69.0019 150.853 67.9903 150.571 67.1892C150.254 66.288 149.978 66.4964 149.152 66.5647C148.302 66.6349 147.454 66.7335 146.605 66.8184C144.739 67.0051 142.872 67.1232 141.005 67.2814C140.037 67.3634 139.11 67.6998 138.163 67.8317C138.149 68.2429 138.101 68.6579 138.106 68.9581C138.122 69.8433 138.194 70.7223 138.257 71.6038C138.283 71.9624 138.405 72.5812 138.423 73.1237Z" fill="#3EC1F3"/>
</g>
</svg>
