<svg width="139" height="127" viewBox="0 0 139 127" fill="none" xmlns="http://www.w3.org/2000/svg">
<g clip-path="url(#clip0)">
<rect width="139" height="127" fill="white"/>
<path d="M110.255 11.5188H27.5072C26.3611 11.5188 25.432 12.314 25.432 13.2949V86.5571C25.432 87.538 26.3611 88.3332 27.5072 88.3332H110.255C111.401 88.3332 112.33 87.538 112.33 86.5571V13.2949C112.33 12.314 111.401 11.5188 110.255 11.5188Z" fill="#F2F2F2"/>
<path d="M106.104 21.0651H92.0968C90.9507 21.0651 90.0216 21.8603 90.0216 22.8412V37.2716C90.0216 38.2525 90.9507 39.0477 92.0968 39.0477H106.104C107.25 39.0477 108.179 38.2525 108.179 37.2716V22.8412C108.179 21.8603 107.25 21.0651 106.104 21.0651Z" fill="white"/>
<path d="M99.1005 31.4994C101.393 31.4994 103.251 29.9091 103.251 27.9473C103.251 25.9856 101.393 24.3952 99.1005 24.3952C96.8083 24.3952 94.9501 25.9856 94.9501 27.9473C94.9501 29.9091 96.8083 31.4994 99.1005 31.4994Z" fill="#3EC1F3"/>
<path d="M104.807 32.3875H93.3938C92.964 32.3875 92.6156 32.6857 92.6156 33.0535C92.6156 33.4213 92.964 33.7195 93.3938 33.7195H104.807C105.237 33.7195 105.585 33.4213 105.585 33.0535C105.585 32.6857 105.237 32.3875 104.807 32.3875Z" fill="#DDE3E9"/>
<path d="M102.732 34.6075H95.469C95.0392 34.6075 94.6908 34.9057 94.6908 35.2736C94.6908 35.6414 95.0392 35.9396 95.469 35.9396H102.732C103.162 35.9396 103.51 35.6414 103.51 35.2736C103.51 34.9057 103.162 34.6075 102.732 34.6075Z" fill="#DDE3E9"/>
<path fill-rule="evenodd" clip-rule="evenodd" d="M27.5072 11.5188H110.255C111.401 11.5188 112.33 12.314 112.33 13.2949V17.513H25.432V13.2949C25.432 12.314 26.3611 11.5188 27.5072 11.5188Z" fill="#3EC1F3"/>
<path d="M28.8041 15.515C29.3772 15.515 29.8417 15.1174 29.8417 14.6269C29.8417 14.1365 29.3772 13.7389 28.8041 13.7389C28.2311 13.7389 27.7666 14.1365 27.7666 14.6269C27.7666 15.1174 28.2311 15.515 28.8041 15.515Z" fill="#F2F2F2"/>
<path d="M31.9169 15.515C32.4899 15.515 32.9545 15.1174 32.9545 14.6269C32.9545 14.1365 32.4899 13.7389 31.9169 13.7389C31.3439 13.7389 30.8793 14.1365 30.8793 14.6269C30.8793 15.1174 31.3439 15.515 31.9169 15.515Z" fill="#F2F2F2"/>
<path d="M35.0297 15.515C35.6027 15.515 36.0672 15.1174 36.0672 14.6269C36.0672 14.1365 35.6027 13.7389 35.0297 13.7389C34.4566 13.7389 33.9921 14.1365 33.9921 14.6269C33.9921 15.1174 34.4566 15.515 35.0297 15.515Z" fill="#F2F2F2"/>
<path d="M106.104 40.8237H92.0968C90.9507 40.8237 90.0216 41.6189 90.0216 42.5998V82.117C90.0216 83.0979 90.9507 83.893 92.0968 83.893H106.104C107.25 83.893 108.179 83.0979 108.179 82.117V42.5998C108.179 41.6189 107.25 40.8237 106.104 40.8237Z" fill="white"/>
<path d="M102.473 44.8199H95.7283C95.1553 44.8199 94.6908 45.2174 94.6908 45.7079V49.704C94.6908 50.1944 95.1553 50.592 95.7283 50.592H102.473C103.046 50.592 103.51 50.1944 103.51 49.704V45.7079C103.51 45.2174 103.046 44.8199 102.473 44.8199Z" fill="#89C5CC"/>
<path d="M102.473 52.3681H95.7283C95.1553 52.3681 94.6908 52.7657 94.6908 53.2561V57.0302C94.6908 57.5207 95.1553 57.9183 95.7283 57.9183H102.473C103.046 57.9183 103.51 57.5207 103.51 57.0302V53.2561C103.51 52.7657 103.046 52.3681 102.473 52.3681Z" fill="#A15842"/>
<path d="M102.473 59.6943H95.7283C95.1553 59.6943 94.6908 60.0919 94.6908 60.5823V64.3565C94.6908 64.8469 95.1553 65.2445 95.7283 65.2445H102.473C103.046 65.2445 103.51 64.8469 103.51 64.3565V60.5823C103.51 60.0919 103.046 59.6943 102.473 59.6943Z" fill="#EB3939"/>
<path d="M102.473 74.3468H95.7283C95.1553 74.3468 94.6908 74.7443 94.6908 75.2348V79.0089C94.6908 79.4993 95.1553 79.8969 95.7283 79.8969H102.473C103.046 79.8969 103.51 79.4993 103.51 79.0089V75.2348C103.51 74.7443 103.046 74.3468 102.473 74.3468Z" fill="#FFB7D5"/>
<path d="M102.473 67.0205H95.7283C95.1553 67.0205 94.6908 67.4181 94.6908 67.9086V71.6827C94.6908 72.1731 95.1553 72.5707 95.7283 72.5707H102.473C103.046 72.5707 103.51 72.1731 103.51 71.6827V67.9086C103.51 67.4181 103.046 67.0205 102.473 67.0205Z" fill="#FFBE21"/>
<path d="M86.9089 21.2871H30.6199C30.0469 21.2871 29.5823 21.6847 29.5823 22.1752V30.8334C29.5823 31.3239 30.0469 31.7214 30.6199 31.7214H86.9089C87.4819 31.7214 87.9465 31.3239 87.9465 30.8334V22.1752C87.9465 21.6847 87.4819 21.2871 86.9089 21.2871Z" fill="white"/>
<path d="M74.4579 24.4174H32.6951C32.2653 24.4174 31.9169 24.7156 31.9169 25.0834V25.3165C31.9169 25.6844 32.2653 25.9826 32.6951 25.9826H74.4579C74.8876 25.9826 75.236 25.6844 75.236 25.3165V25.0834C75.236 24.7156 74.8876 24.4174 74.4579 24.4174Z" fill="#DDE3E9"/>
<path d="M60.2159 27.026H32.6951C32.2653 27.026 31.9169 27.3242 31.9169 27.692V27.9251C31.9169 28.293 32.2653 28.5911 32.6951 28.5911H60.2159C60.6457 28.5911 60.9941 28.293 60.9941 27.9251V27.692C60.9941 27.3242 60.6457 27.026 60.2159 27.026Z" fill="#DDE3E9"/>
<path d="M81.7091 28.0583C82.7119 28.0583 83.5249 27.3626 83.5249 26.5043C83.5249 25.646 82.7119 24.9502 81.7091 24.9502C80.7063 24.9502 79.8933 25.646 79.8933 26.5043C79.8933 27.3626 80.7063 28.0583 81.7091 28.0583Z" fill="#DDE3E9"/>
<path d="M81.7091 27.1703C82.1389 27.1703 82.4873 26.8721 82.4873 26.5043C82.4873 26.1365 82.1389 25.8383 81.7091 25.8383C81.2793 25.8383 80.9309 26.1365 80.9309 26.5043C80.9309 26.8721 81.2793 27.1703 81.7091 27.1703Z" fill="#F2F2F2"/>
<path d="M86.9089 33.4975H30.6199C30.0469 33.4975 29.5823 33.8951 29.5823 34.3855V41.2677C29.5823 41.7582 30.0469 42.1558 30.6199 42.1558H86.9089C87.4819 42.1558 87.9465 41.7582 87.9465 41.2677V34.3855C87.9465 33.8951 87.4819 33.4975 86.9089 33.4975Z" fill="white"/>
<path d="M74.4773 36.095H32.6756C32.2566 36.095 31.9169 36.3857 31.9169 36.7444C31.9169 37.103 32.2566 37.3937 32.6756 37.3937H74.4773C74.8964 37.3937 75.2361 37.103 75.2361 36.7444C75.2361 36.3857 74.8964 36.095 74.4773 36.095Z" fill="#DDE3E9"/>
<path d="M60.2354 38.2596H32.6757C32.2566 38.2596 31.9169 38.5503 31.9169 38.9089C31.9169 39.2676 32.2566 39.5583 32.6757 39.5583H60.2354C60.6545 39.5583 60.9942 39.2676 60.9942 38.9089C60.9942 38.5503 60.6545 38.2596 60.2354 38.2596Z" fill="#DDE3E9"/>
<path d="M81.7091 39.3807C82.7119 39.3807 83.5249 38.6849 83.5249 37.8266C83.5249 36.9684 82.7119 36.2726 81.7091 36.2726C80.7063 36.2726 79.8933 36.9684 79.8933 37.8266C79.8933 38.6849 80.7063 39.3807 81.7091 39.3807Z" fill="#DDE3E9"/>
<path d="M81.7091 38.4927C82.1389 38.4927 82.4873 38.1945 82.4873 37.8266C82.4873 37.4588 82.1389 37.1606 81.7091 37.1606C81.2793 37.1606 80.9309 37.4588 80.9309 37.8266C80.9309 38.1945 81.2793 38.4927 81.7091 38.4927Z" fill="#F2F2F2"/>
<path d="M86.9089 43.9318H30.6199C30.0469 43.9318 29.5823 44.3294 29.5823 44.8199V51.7021C29.5823 52.1925 30.0469 52.5901 30.6199 52.5901H86.9089C87.4819 52.5901 87.9465 52.1925 87.9465 51.7021V44.8199C87.9465 44.3294 87.4819 43.9318 86.9089 43.9318Z" fill="white"/>
<path d="M74.4773 46.5293H32.6756C32.2566 46.5293 31.9169 46.82 31.9169 47.1787C31.9169 47.5373 32.2566 47.828 32.6756 47.828H74.4773C74.8964 47.828 75.2361 47.5373 75.2361 47.1787C75.2361 46.82 74.8964 46.5293 74.4773 46.5293Z" fill="#DDE3E9"/>
<path d="M60.2354 48.6939H32.6757C32.2566 48.6939 31.9169 48.9846 31.9169 49.3432C31.9169 49.7019 32.2566 49.9926 32.6757 49.9926H60.2354C60.6545 49.9926 60.9942 49.7019 60.9942 49.3432C60.9942 48.9846 60.6545 48.6939 60.2354 48.6939Z" fill="#DDE3E9"/>
<path d="M81.7091 49.815C82.7119 49.815 83.5249 49.1192 83.5249 48.261C83.5249 47.4027 82.7119 46.7069 81.7091 46.7069C80.7063 46.7069 79.8933 47.4027 79.8933 48.261C79.8933 49.1192 80.7063 49.815 81.7091 49.815Z" fill="#DDE3E9"/>
<path d="M81.7091 48.927C82.1389 48.927 82.4873 48.6288 82.4873 48.261C82.4873 47.8931 82.1389 47.5949 81.7091 47.5949C81.2793 47.5949 80.9309 47.8931 80.9309 48.261C80.9309 48.6288 81.2793 48.927 81.7091 48.927Z" fill="#AFB9C5"/>
<path d="M86.9089 75.2348H30.6199C30.0469 75.2348 29.5823 75.6324 29.5823 76.1228V83.005C29.5823 83.4955 30.0469 83.893 30.6199 83.893H86.9089C87.4819 83.893 87.9465 83.4955 87.9465 83.005V76.1228C87.9465 75.6324 87.4819 75.2348 86.9089 75.2348Z" fill="white"/>
<path d="M74.4773 77.8323H32.6756C32.2566 77.8323 31.9169 78.123 31.9169 78.4816C31.9169 78.8403 32.2566 79.131 32.6756 79.131H74.4773C74.8964 79.131 75.2361 78.8403 75.2361 78.4816C75.2361 78.123 74.8964 77.8323 74.4773 77.8323Z" fill="#DDE3E9"/>
<path d="M60.2354 79.9968H32.6757C32.2566 79.9968 31.9169 80.2875 31.9169 80.6462C31.9169 81.0048 32.2566 81.2956 32.6757 81.2956H60.2354C60.6545 81.2956 60.9942 81.0048 60.9942 80.6462C60.9942 80.2875 60.6545 79.9968 60.2354 79.9968Z" fill="#DDE3E9"/>
<path d="M81.7091 81.118C82.7119 81.118 83.5249 80.4222 83.5249 79.5639C83.5249 78.7056 82.7119 78.0099 81.7091 78.0099C80.7063 78.0099 79.8933 78.7056 79.8933 79.5639C79.8933 80.4222 80.7063 81.118 81.7091 81.118Z" fill="#DDE3E9"/>
<path d="M81.7091 80.2299C82.1389 80.2299 82.4873 79.9317 82.4873 79.5639C82.4873 79.1961 82.1389 78.8979 81.7091 78.8979C81.2793 78.8979 80.9309 79.1961 80.9309 79.5639C80.9309 79.9317 81.2793 80.2299 81.7091 80.2299Z" fill="#F2F2F2"/>
<path d="M86.9089 64.8005H30.6199C30.0469 64.8005 29.5823 65.198 29.5823 65.6885V72.5707C29.5823 73.0611 30.0469 73.4587 30.6199 73.4587H86.9089C87.4819 73.4587 87.9465 73.0611 87.9465 72.5707V65.6885C87.9465 65.198 87.4819 64.8005 86.9089 64.8005Z" fill="white"/>
<path d="M74.4773 67.3979H32.6756C32.2566 67.3979 31.9169 67.6887 31.9169 68.0473C31.9169 68.406 32.2566 68.6967 32.6756 68.6967H74.4773C74.8964 68.6967 75.2361 68.406 75.2361 68.0473C75.2361 67.6887 74.8964 67.3979 74.4773 67.3979Z" fill="#DDE3E9"/>
<path d="M60.2354 69.5625H32.6757C32.2566 69.5625 31.9169 69.8532 31.9169 70.2119C31.9169 70.5705 32.2566 70.8613 32.6757 70.8613H60.2354C60.6545 70.8613 60.9942 70.5705 60.9942 70.2119C60.9942 69.8532 60.6545 69.5625 60.2354 69.5625Z" fill="#DDE3E9"/>
<path d="M81.7091 70.6836C82.7119 70.6836 83.5249 69.9879 83.5249 69.1296C83.5249 68.2713 82.7119 67.5756 81.7091 67.5756C80.7063 67.5756 79.8933 68.2713 79.8933 69.1296C79.8933 69.9879 80.7063 70.6836 81.7091 70.6836Z" fill="#DDE3E9"/>
<path d="M81.7091 69.7956C82.1389 69.7956 82.4873 69.4974 82.4873 69.1296C82.4873 68.7618 82.1389 68.4636 81.7091 68.4636C81.2793 68.4636 80.9309 68.7618 80.9309 69.1296C80.9309 69.4974 81.2793 69.7956 81.7091 69.7956Z" fill="#F2F2F2"/>
<path d="M86.9089 54.3661H30.6199C30.0469 54.3661 29.5823 54.7637 29.5823 55.2542V62.1364C29.5823 62.6268 30.0469 63.0244 30.6199 63.0244H86.9089C87.4819 63.0244 87.9465 62.6268 87.9465 62.1364V55.2542C87.9465 54.7637 87.4819 54.3661 86.9089 54.3661Z" fill="white"/>
<path d="M74.4773 56.9636H32.6756C32.2566 56.9636 31.9169 57.2544 31.9169 57.613C31.9169 57.9716 32.2566 58.2624 32.6756 58.2624H74.4773C74.8964 58.2624 75.2361 57.9716 75.2361 57.613C75.2361 57.2544 74.8964 56.9636 74.4773 56.9636Z" fill="#DDE3E9"/>
<path d="M60.2354 59.1282H32.6757C32.2566 59.1282 31.9169 59.4189 31.9169 59.7776C31.9169 60.1362 32.2566 60.4269 32.6757 60.4269H60.2354C60.6545 60.4269 60.9942 60.1362 60.9942 59.7776C60.9942 59.4189 60.6545 59.1282 60.2354 59.1282Z" fill="#DDE3E9"/>
<path d="M81.7091 60.2493C82.7119 60.2493 83.5249 59.5536 83.5249 58.6953C83.5249 57.837 82.7119 57.1412 81.7091 57.1412C80.7063 57.1412 79.8933 57.837 79.8933 58.6953C79.8933 59.5536 80.7063 60.2493 81.7091 60.2493Z" fill="#DDE3E9"/>
<path d="M81.7091 59.3613C82.1389 59.3613 82.4873 59.0631 82.4873 58.6953C82.4873 58.3274 82.1389 58.0293 81.7091 58.0293C81.2793 58.0293 80.9309 58.3274 80.9309 58.6953C80.9309 59.0631 81.2793 59.3613 81.7091 59.3613Z" fill="#F2F2F2"/>
<path d="M79.6828 105.206H42.5892C41.4431 105.206 40.514 104.411 40.514 103.43V39.9357C40.514 38.9548 41.4431 38.1597 42.5892 38.1597H79.6828C80.8289 38.1597 81.758 38.9548 81.758 39.9357V103.43C81.758 104.411 80.8289 105.206 79.6828 105.206Z" fill="#3EC1F3"/>
<path d="M61.0063 42.3778C63.1552 42.3778 64.8973 43.8687 64.8973 45.7079C64.8973 47.5471 63.1552 49.038 61.0063 49.038C58.8574 49.038 57.1154 47.5471 57.1154 45.7079C57.1154 43.8687 58.8574 42.3778 61.0063 42.3778Z" fill="white"/>
<path d="M57.6342 100.766C57.9207 100.766 58.153 100.964 58.153 101.21C58.153 101.455 57.9207 101.654 57.6342 101.654C57.3476 101.654 57.1154 101.455 57.1154 101.21C57.1154 100.964 57.3476 100.766 57.6342 100.766Z" fill="white"/>
<path d="M64.3785 101.654H59.9687C59.6822 101.654 59.4499 101.455 59.4499 101.21C59.4499 100.964 59.6822 100.766 59.9687 100.766H64.3785C64.665 100.766 64.8972 100.964 64.8972 101.21C64.8972 101.455 64.665 101.654 64.3785 101.654Z" fill="white"/>
<path d="M77.0889 98.9895H45.1832C44.6101 98.9895 44.1456 98.5919 44.1456 98.1015V87.8892C44.1456 87.3987 44.6101 87.0012 45.1832 87.0012H77.0889C77.6619 87.0012 78.1265 87.3987 78.1265 87.8892V98.1015C78.1265 98.5919 77.6619 98.9895 77.0889 98.9895Z" fill="white"/>
<path d="M64.6379 95.393H47.2583C46.8285 95.393 46.4801 95.0948 46.4801 94.727V94.2608C46.4801 93.8929 46.8285 93.5947 47.2583 93.5947H64.6379C65.0676 93.5947 65.416 93.8929 65.416 94.2608V94.727C65.416 95.0948 65.0676 95.393 64.6379 95.393Z" fill="#DDE3E9"/>
<path d="M58.4123 92.3959H47.2583C46.8285 92.3959 46.4801 92.0977 46.4801 91.7299V91.2637C46.4801 90.8958 46.8285 90.5977 47.2583 90.5977H58.4123C58.8421 90.5977 59.1905 90.8958 59.1905 91.2637V91.7299C59.1905 92.0977 58.8421 92.3959 58.4123 92.3959Z" fill="#DDE3E9"/>
<path d="M74.4949 91.4413C75.4977 91.4413 76.3107 92.1371 76.3107 92.9953C76.3107 93.8536 75.4977 94.5494 74.4949 94.5494C73.4921 94.5494 72.6791 93.8536 72.6791 92.9953C72.6791 92.1371 73.4921 91.4413 74.4949 91.4413Z" fill="#DDE3E9"/>
<path d="M74.4949 92.3293C74.9247 92.3293 75.2731 92.6275 75.2731 92.9953C75.2731 93.3632 74.9247 93.6613 74.4949 93.6613C74.0651 93.6613 73.7167 93.3632 73.7167 92.9953C73.7167 92.6275 74.0651 92.3293 74.4949 92.3293Z" fill="#F2F2F2"/>
<path d="M77.0889 85.2251H45.1832C44.6101 85.2251 44.1456 84.8275 44.1456 84.3371V76.7888C44.1456 76.2984 44.6101 75.9008 45.1832 75.9008H77.0889C77.6619 75.9008 78.1265 76.2984 78.1265 76.7888V84.3371C78.1265 84.8275 77.6619 85.2251 77.0889 85.2251Z" fill="white"/>
<path d="M72.4198 82.4278H55.0402C54.6104 82.4278 54.262 82.1296 54.262 81.7618V81.6952C54.262 81.3273 54.6104 81.0292 55.0402 81.0292H72.4198C72.8495 81.0292 73.1979 81.3273 73.1979 81.6952V81.7618C73.1979 82.1296 72.8495 82.4278 72.4198 82.4278Z" fill="#DDE3E9"/>
<path d="M66.1942 80.0967H55.0402C54.6104 80.0967 54.262 79.7985 54.262 79.4307V79.3641C54.262 78.9963 54.6104 78.6981 55.0402 78.6981H66.1942C66.624 78.6981 66.9724 78.9963 66.9724 79.3641V79.4307C66.9724 79.7985 66.624 80.0967 66.1942 80.0967Z" fill="#DDE3E9"/>
<path d="M49.5929 77.8989C51.312 77.8989 52.7056 79.0916 52.7056 80.5629C52.7056 82.0343 51.312 83.227 49.5929 83.227C47.8738 83.227 46.4801 82.0343 46.4801 80.5629C46.4801 79.0916 47.8738 77.8989 49.5929 77.8989Z" fill="#C5CFD6"/>
<path d="M77.0889 74.1248H45.1832C44.6101 74.1248 44.1456 73.7272 44.1456 73.2367V65.6885C44.1456 65.198 44.6101 64.8005 45.1832 64.8005H77.0889C77.6619 64.8005 78.1265 65.198 78.1265 65.6885V73.2367C78.1265 73.7272 77.6619 74.1248 77.0889 74.1248Z" fill="white"/>
<path d="M64.6379 71.3275H47.2583C46.8286 71.3275 46.4801 71.0293 46.4801 70.6614V70.5948C46.4801 70.227 46.8286 69.9288 47.2583 69.9288H64.6379C65.0677 69.9288 65.4161 70.227 65.4161 70.5948V70.6614C65.4161 71.0293 65.0677 71.3275 64.6379 71.3275Z" fill="#DDE3E9"/>
<path d="M58.4124 68.9964H47.2583C46.8286 68.9964 46.4801 68.6982 46.4801 68.3304V68.2638C46.4801 67.8959 46.8286 67.5977 47.2583 67.5977H58.4124C58.8422 67.5977 59.1906 67.8959 59.1906 68.2638V68.3304C59.1906 68.6982 58.8422 68.9964 58.4124 68.9964Z" fill="#AFB9C5"/>
<path d="M74.4949 67.9086C75.4977 67.9086 76.3107 68.6043 76.3107 69.4626C76.3107 70.3209 75.4977 71.0167 74.4949 71.0167C73.4921 71.0167 72.6791 70.3209 72.6791 69.4626C72.6791 68.6043 73.4921 67.9086 74.4949 67.9086Z" fill="#DDE3E9"/>
<path d="M74.4949 68.7966C74.9247 68.7966 75.2731 69.0948 75.2731 69.4626C75.2731 69.8304 74.9247 70.1286 74.4949 70.1286C74.0651 70.1286 73.7167 69.8304 73.7167 69.4626C73.7167 69.0948 74.0651 68.7966 74.4949 68.7966Z" fill="#F2F2F2"/>
<path d="M77.0889 63.0244H45.1832C44.6101 63.0244 44.1456 62.6268 44.1456 62.1364V54.5881C44.1456 54.0977 44.6101 53.7001 45.1832 53.7001H77.0889C77.6619 53.7001 78.1265 54.0977 78.1265 54.5881V62.1364C78.1265 62.6268 77.6619 63.0244 77.0889 63.0244Z" fill="white"/>
<path d="M72.4198 60.2271H55.0402C54.6104 60.2271 54.262 59.9289 54.262 59.5611V59.4945C54.262 59.1267 54.6104 58.8285 55.0402 58.8285H72.4198C72.8495 58.8285 73.1979 59.1267 73.1979 59.4945V59.5611C73.1979 59.9289 72.8495 60.2271 72.4198 60.2271Z" fill="#DDE3E9"/>
<path d="M66.1942 57.8961H55.0402C54.6104 57.8961 54.262 57.5979 54.262 57.23V57.1634C54.262 56.7956 54.6104 56.4974 55.0402 56.4974H66.1942C66.624 56.4974 66.9724 56.7956 66.9724 57.1634V57.23C66.9724 57.5979 66.624 57.8961 66.1942 57.8961Z" fill="#DDE3E9"/>
<path d="M49.5929 55.6982C51.312 55.6982 52.7056 56.8909 52.7056 58.3623C52.7056 59.8336 51.312 61.0263 49.5929 61.0263C47.8738 61.0263 46.4801 59.8336 46.4801 58.3623C46.4801 56.8909 47.8738 55.6982 49.5929 55.6982Z" fill="#C5CFD6"/>
<path d="M95.2478 69.6846H66.786C65.9066 69.6846 65.1937 70.306 65.1937 71.0725V120.69C65.1937 121.457 65.9066 122.078 66.786 122.078H95.2478C96.1272 122.078 96.84 121.457 96.84 120.69V71.0725C96.84 70.306 96.1272 69.6846 95.2478 69.6846Z" fill="#F2F2F2"/>
<path d="M80.9174 118.782C82.5662 118.782 83.9029 117.617 83.9029 116.18C83.9029 114.742 82.5662 113.577 80.9174 113.577C79.2685 113.577 77.9319 114.742 77.9319 116.18C77.9319 117.617 79.2685 118.782 80.9174 118.782Z" fill="white"/>
<path d="M78.3299 73.1544C78.5498 73.1544 78.728 72.999 78.728 72.8074C78.728 72.6158 78.5498 72.4604 78.3299 72.4604C78.1101 72.4604 77.9319 72.6158 77.9319 72.8074C77.9319 72.999 78.1101 73.1544 78.3299 73.1544Z" fill="white"/>
<path d="M83.5048 72.4604H80.1212C79.9014 72.4604 79.7232 72.6158 79.7232 72.8074C79.7232 72.999 79.9014 73.1544 80.1212 73.1544H83.5048C83.7246 73.1544 83.9029 72.999 83.9029 72.8074C83.9029 72.6158 83.7246 72.4604 83.5048 72.4604Z" fill="white"/>
<path d="M93.2574 74.5423H68.7763C68.3366 74.5423 67.9802 74.853 67.9802 75.2363V83.2167C67.9802 83.6 68.3366 83.9107 68.7763 83.9107H93.2574C93.6971 83.9107 94.0536 83.6 94.0536 83.2167V75.2363C94.0536 74.853 93.6971 74.5423 93.2574 74.5423Z" fill="white"/>
<path d="M89.6748 77.3528H76.3396C76.0098 77.3528 75.7425 77.5858 75.7425 77.8733V78.2376C75.7425 78.5251 76.0098 78.7581 76.3396 78.7581H89.6748C90.0046 78.7581 90.2719 78.5251 90.2719 78.2376V77.8733C90.2719 77.5858 90.0046 77.3528 89.6748 77.3528Z" fill="#3EC1F3"/>
<path d="M84.898 79.6949H76.3396C76.0098 79.6949 75.7425 79.9279 75.7425 80.2154V80.5797C75.7425 80.8672 76.0098 81.1002 76.3396 81.1002H84.898C85.2278 81.1002 85.4951 80.8672 85.4951 80.5797V80.2154C85.4951 79.9279 85.2278 79.6949 84.898 79.6949Z" fill="#3EC1F3"/>
<path d="M72.1599 81.3084C73.479 81.3084 74.5483 80.3763 74.5483 79.2265C74.5483 78.0767 73.479 77.1446 72.1599 77.1446C70.8408 77.1446 69.7715 78.0767 69.7715 79.2265C69.7715 80.3763 70.8408 81.3084 72.1599 81.3084Z" fill="#3EC1F3"/>
<path d="M93.2574 85.2986H68.7763C68.3366 85.2986 67.9802 85.6093 67.9802 85.9926V91.8912C67.9802 92.2744 68.3366 92.5851 68.7763 92.5851H93.2574C93.6971 92.5851 94.0536 92.2744 94.0536 91.8912V85.9926C94.0536 85.6093 93.6971 85.2986 93.2574 85.2986Z" fill="white"/>
<path d="M89.6748 87.4846H76.3396C76.0098 87.4846 75.7425 87.7176 75.7425 88.005V88.0571C75.7425 88.3445 76.0098 88.5775 76.3396 88.5775H89.6748C90.0046 88.5775 90.2719 88.3445 90.2719 88.0571V88.005C90.2719 87.7176 90.0046 87.4846 89.6748 87.4846Z" fill="#3EC1F3"/>
<path d="M84.898 89.3062H76.3396C76.0098 89.3062 75.7425 89.5392 75.7425 89.8267V89.8787C75.7425 90.1662 76.0098 90.3992 76.3396 90.3992H84.898C85.2278 90.3992 85.4951 90.1662 85.4951 89.8787V89.8267C85.4951 89.5392 85.2278 89.3062 84.898 89.3062Z" fill="#3EC1F3"/>
<path d="M72.1599 91.0237C73.479 91.0237 74.5483 90.0916 74.5483 88.9419C74.5483 87.7921 73.479 86.86 72.1599 86.86C70.8408 86.86 69.7715 87.7921 69.7715 88.9419C69.7715 90.0916 70.8408 91.0237 72.1599 91.0237Z" fill="#3EC1F3"/>
<path d="M93.2574 93.973H68.7763C68.3366 93.973 67.9802 94.2837 67.9802 94.667V100.566C67.9802 100.949 68.3366 101.26 68.7763 101.26H93.2574C93.6971 101.26 94.0536 100.949 94.0536 100.566V94.667C94.0536 94.2837 93.6971 93.973 93.2574 93.973Z" fill="white"/>
<path d="M89.6748 96.159H76.3396C76.0098 96.159 75.7425 96.392 75.7425 96.6795V96.7315C75.7425 97.019 76.0098 97.252 76.3396 97.252H89.6748C90.0046 97.252 90.2719 97.019 90.2719 96.7315V96.6795C90.2719 96.392 90.0046 96.159 89.6748 96.159Z" fill="#3EC1F3"/>
<path d="M84.898 97.9806H76.3396C76.0098 97.9806 75.7425 98.2137 75.7425 98.5011V98.5531C75.7425 98.8406 76.0098 99.0736 76.3396 99.0736H84.898C85.2278 99.0736 85.4951 98.8406 85.4951 98.5531V98.5011C85.4951 98.2137 85.2278 97.9806 84.898 97.9806Z" fill="#3EC1F3"/>
<path d="M72.1599 99.6982C73.479 99.6982 74.5483 98.7661 74.5483 97.6163C74.5483 96.4665 73.479 95.5344 72.1599 95.5344C70.8408 95.5344 69.7715 96.4665 69.7715 97.6163C69.7715 98.7661 70.8408 99.6982 72.1599 99.6982Z" fill="#3EC1F3"/>
<path d="M93.2574 102.647H68.7763C68.3366 102.647 67.9802 102.958 67.9802 103.341V109.24C67.9802 109.623 68.3366 109.934 68.7763 109.934H93.2574C93.6971 109.934 94.0536 109.623 94.0536 109.24V103.341C94.0536 102.958 93.6971 102.647 93.2574 102.647Z" fill="white"/>
<path d="M89.6748 104.833H76.3396C76.0098 104.833 75.7425 105.066 75.7425 105.354V105.406C75.7425 105.693 76.0098 105.926 76.3396 105.926H89.6748C90.0046 105.926 90.2719 105.693 90.2719 105.406V105.354C90.2719 105.066 90.0046 104.833 89.6748 104.833Z" fill="#3EC1F3"/>
<path d="M84.898 106.655H76.3396C76.0098 106.655 75.7425 106.888 75.7425 107.176V107.228C75.7425 107.515 76.0098 107.748 76.3396 107.748H84.898C85.2278 107.748 85.4951 107.515 85.4951 107.228V107.176C85.4951 106.888 85.2278 106.655 84.898 106.655Z" fill="#3EC1F3"/>
<path d="M72.1599 108.373C73.479 108.373 74.5483 107.441 74.5483 106.291C74.5483 105.141 73.479 104.209 72.1599 104.209C70.8408 104.209 69.7715 105.141 69.7715 106.291C69.7715 107.441 70.8408 108.373 72.1599 108.373Z" fill="#3EC1F3"/>
</g>
<defs>
<clipPath id="clip0">
<rect width="139" height="127" fill="white"/>
</clipPath>
</defs>
</svg>
