<svg width="389" height="473" viewBox="0 0 389 473" fill="none" xmlns="http://www.w3.org/2000/svg">
<rect x="96" width="293" height="473" fill="#FFCCE6" fill-opacity="0.6"/>
<path d="M65.9586 264.823H57.9745V470.98H65.9586V264.823Z" fill="#FFBE21"/>
<path d="M65.9619 267.657H57.9745" stroke="#A15842" stroke-width="4" stroke-miterlimit="10"/>
<path d="M21.7433 429.613C22.5521 426.09 24.0625 423.035 26.0651 420.874C28.0678 418.713 30.4634 417.552 32.9199 417.552C35.3764 417.552 37.772 418.713 39.7746 420.874C41.7772 423.035 43.2877 426.09 44.0964 429.613C44.8683 426.249 46.2806 423.309 48.1542 421.166C50.0277 419.023 52.278 417.774 54.6195 417.578C53.5741 414.747 52.3293 412.098 50.907 409.676L46.6094 402.332C45.2733 400.05 44.4318 397.199 44.1991 394.166C43.9665 391.133 44.354 388.064 45.309 385.377L48.9565 375.08C47.9325 376.645 42.0126 385.066 33.0272 385.066C24.0417 385.066 18.1218 376.645 17.0978 375.08H17.0816L20.7323 385.377C21.6831 388.07 22.0646 391.142 21.825 394.176C21.5853 397.21 20.7361 400.057 19.3929 402.332L15.0985 409.646C13.6736 412.068 12.4256 414.718 11.3763 417.548C13.6927 417.793 15.9105 419.068 17.7538 421.213C19.5971 423.358 20.9845 426.279 21.7433 429.613Z" fill="#4756DF"/>
<path d="M55.273 440.019C52.8158 440.02 50.4196 441.182 48.4169 443.345C46.4142 445.508 44.9042 448.564 44.0964 452.09C43.2892 448.563 41.7793 445.507 39.7765 443.343C37.7737 441.18 35.3773 440.018 32.9199 440.018C30.4625 440.018 28.066 441.18 26.0632 443.343C24.0604 445.507 22.5506 448.563 21.7433 452.09C20.7658 447.829 18.7702 444.282 16.1522 442.151C13.5341 440.021 10.4847 439.463 7.60847 440.587C7.77361 451.984 10.7969 462.856 16.0608 470.98H49.9317C55.1849 462.873 58.2074 452.029 58.3841 440.656C57.3704 440.234 56.3241 440.02 55.273 440.019V440.019Z" fill="#4756DF"/>
<path d="M33.0012 385.086C41.9866 385.086 47.9065 376.665 48.9305 375.1H17.0718C18.0958 376.65 24.0157 385.086 33.0012 385.086Z" fill="#30242A"/>
<path d="M21.7433 452.09C22.5506 448.563 24.0604 445.507 26.0632 443.343C28.066 441.18 30.4625 440.018 32.9199 440.018C35.3773 440.018 37.7737 441.18 39.7765 443.343C41.7793 445.507 43.2892 448.563 44.0964 452.09C45.0821 447.784 47.1077 444.208 49.7633 442.085C52.4189 439.962 55.5062 439.452 58.4003 440.656C58.5339 432.587 57.2298 424.613 54.626 417.578C52.2845 417.774 50.0342 419.023 48.1607 421.166C46.2871 423.309 44.8748 426.249 44.1029 429.613C43.2941 426.09 41.7837 423.035 39.7811 420.874C37.7785 418.713 35.3829 417.552 32.9264 417.552C30.4699 417.552 28.0743 418.713 26.0716 420.874C24.069 423.035 22.5586 426.09 21.7498 429.613C20.9863 426.288 19.5969 423.376 17.754 421.239C15.911 419.102 13.6957 417.834 11.3828 417.592C8.79059 424.604 7.4891 432.547 7.61498 440.587C10.4912 439.463 13.5406 440.021 16.1587 442.151C18.7767 444.282 20.7723 447.829 21.7498 452.09H21.7433Z" fill="#3EC1F3"/>
<path d="M35.3613 383.673C36.0115 377.628 38.9665 353.665 46.398 340.642" stroke="#30242A" stroke-width="4" stroke-miterlimit="10" stroke-linecap="round"/>
<path d="M31.9316 383.846C31.8828 376.981 31.418 343.274 27.0065 323.164" stroke="#30242A" stroke-width="4" stroke-miterlimit="10" stroke-linecap="round"/>
<path d="M51.4843 360.261C58.0002 355.905 62.7596 350.569 62.1146 348.342C61.4696 346.115 55.6645 347.841 49.1485 352.196C42.6326 356.552 37.8733 361.888 38.5183 364.115C39.1633 366.342 44.9684 364.616 51.4843 360.261Z" fill="#30242A"/>
<path d="M51.4805 298.988C53.823 294.177 54.8269 289.271 53.7226 288.03C52.6184 286.789 49.8242 289.683 47.4817 294.494C45.1392 299.306 44.1353 304.212 45.2395 305.453C46.3438 306.693 49.1379 303.799 51.4805 298.988Z" fill="#30242A"/>
<path d="M16.1905 363.654C24.6823 361.687 31.3837 358.245 31.1587 355.966C30.9336 353.686 23.8673 353.433 15.3756 355.401C6.8839 357.368 0.182429 360.81 0.407465 363.089C0.632502 365.368 7.69883 365.621 16.1905 363.654Z" fill="#30242A"/>
<path d="M10.2677 330.019V330.053C11.5228 331.12 12.4694 332.861 12.9209 334.936C13.3724 337.01 13.2961 339.265 12.7069 341.258C12.1178 343.251 11.0585 344.836 9.73808 345.701C8.41762 346.566 6.93176 346.648 5.57343 345.931V345.961C12.6929 350.821 19.523 351.191 20.8233 346.791C22.1237 342.39 17.3904 334.879 10.2677 330.019Z" fill="#FF7235"/>
<path d="M31.3172 294.796C29.8023 294.198 27.8322 297.68 26.3921 303.068C24.6594 296.524 22.1464 292.144 20.4527 292.993C18.759 293.842 18.4567 299.631 19.6303 306.456C16.3599 303.433 13.4146 302.416 12.4296 304.268C11.1747 306.629 13.5934 312.753 17.8325 317.953C19.0386 319.446 20.3362 320.759 21.7076 321.875C21.9413 320.464 22.4034 319.165 23.0517 318.094C23.7001 317.024 24.5142 316.216 25.4201 315.745C26.3261 315.274 27.2951 315.154 28.2392 315.397C29.1833 315.639 30.0726 316.236 30.8263 317.134C31.4617 315.056 31.9688 312.893 32.3412 310.674C33.7098 302.668 33.2515 295.556 31.3172 294.796Z" fill="#FF7235"/>
<path d="M64.3657 331.15C63.8976 328.878 60.91 328.186 57.139 329.174C59.8762 323.48 60.9945 317.924 59.6259 316.19C58.2573 314.457 54.8601 317.129 51.6677 322.25C51.6287 316.432 50.6372 312.096 49.0833 311.805C47.1035 311.434 44.9579 317.795 44.2947 326.004C44.0982 328.35 44.0503 330.72 44.1517 333.081C45.0637 332.634 46.0348 332.541 46.9765 332.81C47.9183 333.079 48.8008 333.702 49.5438 334.621C50.2869 335.54 50.8668 336.727 51.231 338.074C51.5951 339.42 51.7318 340.884 51.6287 342.331C53.1259 342.043 54.6026 341.547 56.0402 340.849C61.2318 338.395 64.9606 334.044 64.3657 331.15Z" fill="#FF7235"/>
<path d="M49.5872 334.671C48.8437 333.729 47.9555 333.088 47.0052 332.807C46.0549 332.527 45.0733 332.616 44.1517 333.066C44.337 336.973 44.9872 339.98 45.9657 341.072C46.8792 342.356 48.9923 342.785 51.6222 342.316C51.7247 340.886 51.5925 339.439 51.2374 338.105C50.8823 336.771 50.3154 335.591 49.5872 334.671V334.671Z" fill="#30242A"/>
<path d="M25.4786 315.716C24.5594 316.177 23.7317 316.983 23.0724 318.06C22.4132 319.136 21.9437 320.449 21.7076 321.875C23.9832 323.702 26.0052 324.443 27.143 323.771C28.3426 323.277 29.6982 320.773 30.8263 317.134C30.0812 316.245 29.2029 315.651 28.2698 315.403C27.3366 315.156 26.3777 315.264 25.4786 315.716V315.716Z" fill="#30242A"/>
<path d="M10.9016 344.682C10.2903 344.164 9.82932 343.316 9.60993 342.306C9.39053 341.297 9.42874 340.199 9.71699 339.23C10.0052 338.261 10.5225 337.491 11.1664 337.074C11.8102 336.657 12.5337 336.623 13.1935 336.977C13.1172 335.549 12.8103 334.17 12.3 332.964C11.7897 331.758 11.0917 330.762 10.2677 330.063L5.56369 345.931C6.45277 346.403 7.40449 346.536 8.33523 346.318C9.26597 346.1 10.1472 345.538 10.9016 344.682Z" fill="#F5EBDD"/>
<path d="M9.70529 339.234C9.42177 340.203 9.38732 341.298 9.60874 342.304C9.83017 343.309 10.2914 344.152 10.9016 344.667C11.683 343.784 12.3034 342.614 12.7044 341.266C13.1054 339.918 13.2737 338.437 13.1935 336.963C12.5306 336.604 11.803 336.639 11.1563 337.06C10.5096 337.481 9.99136 338.258 9.70529 339.234V339.234Z" fill="#4856DF"/>
<path d="M224.543 347.206H141.864L143.261 338.78H179.554L193.397 256.54C195.282 245.338 199.569 235.408 205.581 228.317C211.592 221.226 218.987 217.376 226.598 217.376C245.222 217.376 258.85 244.045 254.23 271.455L245.677 322.27C244.477 329.401 241.748 335.722 237.922 340.237C234.095 344.752 229.388 347.204 224.543 347.206Z" fill="#FFB7D5"/>
<path d="M142.504 425.035V433.955H195.198V425.035H142.504Z" fill="#A15842"/>
<path d="M203.877 466.19L190.172 342.252H147.527L133.821 466.19C133.756 466.779 133.777 467.383 133.881 467.959C133.986 468.535 134.172 469.07 134.426 469.526C134.68 469.982 134.997 470.348 135.354 470.599C135.711 470.85 136.1 470.98 136.493 470.98V470.98C137.111 470.979 137.711 470.658 138.192 470.068C138.673 469.479 139.007 468.658 139.139 467.74L157.091 342.252H180.621L198.566 467.74C198.697 468.658 199.031 469.48 199.512 470.069C199.994 470.659 200.593 470.98 201.212 470.98V470.98C201.605 470.979 201.993 470.848 202.349 470.596C202.705 470.344 203.021 469.978 203.274 469.522C203.528 469.066 203.713 468.532 203.817 467.957C203.922 467.381 203.942 466.778 203.877 466.19V466.19Z" fill="#A15842"/>
<path d="M186.157 425.035V433.955H238.851V425.035H186.157Z" fill="#FFBE21"/>
<path d="M247.53 466.19L233.812 342.252H191.183L177.477 466.19C177.412 466.779 177.433 467.383 177.537 467.959C177.642 468.535 177.828 469.07 178.082 469.526C178.337 469.982 178.653 470.348 179.01 470.599C179.367 470.85 179.756 470.98 180.149 470.98V470.98C180.767 470.98 181.366 470.658 181.847 470.069C182.328 469.48 182.662 468.658 182.792 467.74L200.737 342.252H224.27L242.215 467.74C242.347 468.659 242.681 469.482 243.163 470.071C243.645 470.66 244.246 470.981 244.865 470.98V470.98C245.258 470.979 245.645 470.848 246.002 470.596C246.358 470.344 246.674 469.978 246.927 469.522C247.181 469.066 247.366 468.532 247.47 467.957C247.575 467.381 247.595 466.778 247.53 466.19V466.19Z" fill="#FFBE21"/>
<path d="M204.459 322.27L209.687 291.21H175.042C168.248 291.211 161.648 294.646 156.281 300.975C150.915 307.305 147.088 316.168 145.404 326.167L141.864 347.206H183.322C188.168 347.205 192.875 344.754 196.703 340.239C200.53 335.724 203.259 329.402 204.459 322.27V322.27Z" fill="#FFB7D5"/>
<path d="M144.116 337.955H188.101" stroke="#A15842" stroke-width="4" stroke-linecap="round" stroke-linejoin="round"/>
<path d="M179.71 337.644L187.418 291.862" stroke="#A15842" stroke-width="4" stroke-linecap="round" stroke-linejoin="round"/>
<path d="M250.391 290.148H229.585" stroke="#A15842" stroke-width="4" stroke-linecap="round" stroke-linejoin="round"/>
<path d="M254.292 267.924H227.635" stroke="#A15842" stroke-width="4" stroke-linecap="round" stroke-linejoin="round"/>
<path d="M157.192 257.889C157.192 257.889 131.11 268.68 120.031 277.1C101.764 290.973 101.826 300.13 90.6881 351.389C80.4056 398.761 79.2743 421.721 65.0907 422.63C54.262 423.321 50.712 428.705 48.9565 436.083L91.8064 466.97C92.2976 467.323 92.859 467.378 93.3757 467.122C93.8925 466.867 94.3254 466.321 94.5859 465.597V465.597C94.8513 464.857 94.9159 463.988 94.7659 463.176C94.6159 462.364 94.2633 461.674 93.783 461.251L92.8825 460.461C96.8648 453.132 104.547 437.515 112.206 413.795L117.082 417.252C117.082 417.252 124.959 401.7 126.207 384.058C127.833 361.276 126.857 345.922 133.707 337.007L213.581 257.869L157.192 257.889Z" fill="#FF7235"/>
<path d="M60.8807 426.29C61.7292 423.608 66.443 407.27 69.1543 409.246C72.6815 411.814 63.527 428.216 63.527 428.216L60.8807 426.29Z" fill="#30242A"/>
<path d="M48.9533 436.315L91.8032 467.197C92.2993 467.557 92.8677 467.611 93.3893 467.347C93.9109 467.084 94.3451 466.524 94.6008 465.785C94.8565 465.045 94.9138 464.185 94.7607 463.383C94.6077 462.581 94.2561 461.9 93.7797 461.483L92.8792 460.693L92.9703 460.525L63.5172 439.402C63.9585 437.544 64.268 435.621 64.4405 433.663C68.8487 434.824 77.7691 436.073 77.8146 430.488C77.8634 425.282 68.1205 427.371 64.5608 428.843C64.484 426.842 64.2281 424.867 63.8001 422.971C53.9791 423.998 50.6372 429.233 48.9533 436.315Z" fill="#30242A"/>
<path d="M120.031 277.1C117.979 278.656 116.162 280.152 114.533 281.654L112.033 293.818L121.656 283.521L130.528 294.267L127.257 279.535L137.306 272.542L129.539 271.06C126.301 272.815 123.127 274.832 120.031 277.1V277.1Z" fill="#FFB7D5"/>
<path d="M148.382 270.769L147.731 277.204L151.971 274.73L148.382 270.769Z" fill="#FFB7D5"/>
<path d="M123.932 302.959L117.739 315.341L108.935 308.906L114.15 322.275L106 332.676L116.432 330.695L120.021 349.023L123.607 330.695L135.017 325.742L123.932 318.808V302.959Z" fill="#FFB7D5"/>
<path d="M89.1147 397.497L89.8754 394.198L100.278 393.358L91.8259 384.617L95.5905 370.921L87.0764 379.544L85.4509 376.878C84.1506 383.382 82.9998 389.175 81.875 394.267H81.927C82.0505 393.709 82.174 393.146 82.2976 392.573L89.1147 397.497Z" fill="#FFB7D5"/>
<path d="M89.1147 397.497L82.2878 392.593C82.1643 393.165 82.0408 393.728 81.9172 394.287C77.7919 412.955 74.0338 422.289 65.0971 422.862C64.6583 422.862 64.2357 422.926 63.8196 422.971C64.2476 424.866 64.5035 426.842 64.5803 428.843C68.1562 427.361 77.8829 425.282 77.8341 430.487C77.7821 436.073 68.8682 434.824 64.46 433.663C64.2844 435.621 63.9716 437.545 63.527 439.402L92.98 460.525C96.9851 453.117 104.602 437.579 112.202 414.056L89.1147 397.497Z" fill="#EAA58B"/>
<path d="M115.128 359.918L114.153 373.292L105.025 372.798L112.849 381.717L109.924 397.566L117.755 387.16L124.793 394.291C124.988 393.346 125.167 392.39 125.33 391.422L122.631 381.214L126.812 374.255C126.88 372.961 126.945 371.687 127.007 370.447L119.706 372.299L115.128 359.918Z" fill="#FFB7D5"/>
<path d="M94.794 332.118C93.9715 335.98 93.0873 340.173 92.112 344.731L100.785 345.536L94.794 332.118Z" fill="#FFB7D5"/>
<path d="M125.421 452.771C125.557 449.808 125.983 431.979 128.98 432.3C132.881 432.715 128.346 453.082 128.346 453.082L125.421 452.771Z" fill="#30242A"/>
<path d="M197.619 258.614C197.619 258.614 165.016 267.8 147.084 279.189C128.98 290.692 129.156 311.118 132.413 366.605C135.339 416.279 140.566 440.399 129.813 447.827C119.949 454.643 116.523 463.187 116.991 471H165.543C165.817 471 166.088 470.918 166.34 470.759C166.593 470.6 166.823 470.367 167.016 470.073C167.21 469.779 167.363 469.43 167.468 469.046C167.573 468.662 167.627 468.25 167.627 467.834V467.834C167.627 466.995 167.407 466.189 167.016 465.596C166.626 465.002 166.096 464.668 165.543 464.668H164.724C166.255 457.058 168.475 442.202 168.781 417.617H174.802C174.802 417.617 177.896 395.887 174.476 376.507C170.9 356.204 167.63 352.737 165.676 338.869H194.892C217.203 338.869 233.903 307.518 229.049 274.438C227.534 264.101 225.337 258.634 225.337 258.634L197.619 258.614Z" fill="#FF7235"/>
<path d="M177.405 287.605L171.421 299.043L162.1 294.178L167.624 307.913L160.452 322.774L169.906 316.827L175.175 331.584L175.774 315.341L184.902 312.373L177.08 304.94L177.405 287.605Z" fill="#FFB7D5"/>
<path d="M164.382 375.9L169.909 389.634L162.738 404.495L172.191 398.569L175.696 408.382C176.209 400.756 176.463 389.476 174.824 378.646L173.706 380.784L164.382 375.9Z" fill="#FFB7D5"/>
<path d="M140.007 417.597L139.588 409.942L150.173 403.739L140.154 400.583L141.259 383.876L134.757 396.8L134.562 396.677C135.186 404.653 135.732 411.622 136.038 417.652V417.597H140.007Z" fill="#FFB7D5"/>
<path d="M165.543 464.649H164.724C166.255 457.038 168.475 442.182 168.781 417.597H136.028V417.642C136.054 418.136 136.077 418.629 136.1 419.123C136.1 419.168 136.1 419.217 136.1 419.262C136.779 434.695 135.671 443.723 129.8 447.778C119.936 454.593 116.51 463.137 116.978 470.95H165.543C166.096 470.95 166.626 470.617 167.016 470.023C167.407 469.43 167.627 468.624 167.627 467.785C167.627 466.945 167.407 466.14 167.016 465.546C166.626 464.953 166.096 464.619 165.543 464.619V464.649Z" fill="#EAA58B"/>
<path d="M209.014 259.894L194.037 261.909L195.597 271.055L186.017 278.819L197.951 281.244L201.989 294.83L206.14 280.76L218.279 277.846L207.736 269.598L209.014 259.894Z" fill="#FFB7D5"/>
<path d="M137.631 324.255L141.207 306.92L151.639 309.39L143.489 298.495L149.341 288.094L138.583 294.02L136.864 289.541C134.097 294.302 132.426 300.213 131.532 307.814L133.366 307.903L137.631 324.255Z" fill="#FFB7D5"/>
<path d="M165.543 269.875C163.342 270.803 161.151 271.776 159.012 272.779L167.63 281.669L165.543 269.875Z" fill="#FFB7D5"/>
<path d="M151.324 350.011L146.759 335.649L144.477 351.497L136.002 350.51L143.824 360.911L138.935 378.246L147.423 366.225L154.458 378.547L152.302 359.918L159.474 345.556L151.324 350.011Z" fill="#FFB7D5"/>
<path d="M131.971 458.856C136.282 457.048 144.695 452.396 143.174 447.314C141.756 442.573 133.532 450.771 130.726 454.421C130.018 452.447 129.113 450.651 128.044 449.097C119.533 455.68 116.546 463.651 116.991 470.98H165.543C166.096 470.98 166.626 470.647 167.016 470.053C167.407 469.459 167.627 468.654 167.627 467.814V467.814C167.627 466.975 167.407 466.17 167.016 465.576C166.626 464.982 166.096 464.649 165.543 464.649H132.742C132.62 462.682 132.361 460.74 131.971 458.856V458.856Z" fill="#30242A"/>
<path d="M165.543 339.96L157.149 339.783" stroke="#A15842" stroke-width="4" stroke-miterlimit="10" stroke-linecap="round"/>
<path d="M171.785 267.712C163.089 271.08 153.794 275.214 146.753 279.678C131.734 289.235 129.299 304.92 130.759 341.704" stroke="#A15842" stroke-width="4" stroke-miterlimit="10" stroke-linecap="round"/>
<path d="M282.146 264.823H274.162V470.98H282.146V264.823Z" fill="#FFBE21"/>
<path d="M282.146 267.657H274.162" stroke="#A15842" stroke-width="4" stroke-miterlimit="10"/>
<path d="M166.32 109.8C161.769 108.813 151.343 116.246 150.999 130.938C150.654 145.631 159.288 150.352 160.67 151.404L180.705 146.678L182.087 113.095L166.32 109.8Z" fill="#30242A"/>
<path d="M191.615 65.9247C192.564 66.5915 184.57 37.7739 180.491 42.2682C176.651 46.5106 186.794 62.5466 191.615 65.9247Z" fill="#D64D7E"/>
<path d="M192.057 67.6879C192.928 69.2683 213.325 58.4277 210.503 52.1753C207.805 46.1599 191.186 66.1025 192.057 67.6879Z" fill="#E24C82"/>
<path d="M219.134 146.945C219.134 146.945 232.827 129.61 224.01 110.294C218.399 97.9822 203.143 102.886 203.143 102.886C203.513 96.1252 204.723 76.6468 195.081 65.9446C185.438 55.2423 173.205 60.8774 168.748 69.3227C164.291 77.7679 165.413 93.5472 163.931 104.812C162.448 116.078 163.436 123.738 168.007 127.343C172.165 130.622 177.058 128.642 177.058 128.642L176.538 140.529C176.538 140.529 167.11 141.068 161.333 144.243C147.413 151.898 122.956 204.397 122.956 204.397C107.635 203.409 93.2888 202.422 93.2888 202.422L100.789 236.104C100.789 236.104 119.696 245.512 133.389 240.055C147.28 234.528 160.449 204.891 160.449 204.891L165 224.7L157.175 257.884H225.314L213.903 227.175C215.876 199.942 219.134 146.945 219.134 146.945Z" fill="#EAA58B"/>
<path d="M197.239 139.295L179.359 188.549L172.045 141.023C168.83 141.517 164.545 142.475 161.366 144.223C147.413 151.898 122.956 204.397 122.956 204.397C107.635 203.409 93.2888 202.422 93.2888 202.422L100.789 236.104C100.789 236.104 119.696 245.512 133.389 240.055C147.28 234.528 160.449 204.891 160.449 204.891L165 224.7L157.175 257.884H225.314L213.903 227.179C215.854 199.937 219.105 146.94 219.105 146.94C216.086 144.148 212.781 142.145 209.326 141.013C205.435 139.68 201.156 140.475 197.239 139.295Z" fill="#4756DF"/>
<path d="M104.644 254.422H161.106L148.268 192.826C147.89 191.01 147.142 189.425 146.131 188.3C145.121 187.175 143.9 186.568 142.647 186.568H94.9305C94.0033 186.567 93.0891 186.899 92.2621 187.536C91.4351 188.173 90.7187 189.097 90.171 190.233C89.6234 191.37 89.26 192.687 89.1103 194.077C88.9607 195.467 89.029 196.891 89.3097 198.234L99.9206 249.172C100.239 250.695 100.868 252.026 101.718 252.969C102.567 253.913 103.592 254.422 104.644 254.422V254.422Z" fill="#30242A"/>
<path d="M113.057 214.433C114.556 211.321 121.354 219.539 121.854 220.216C122.114 219.539 125.655 211.326 128.249 214.433C130.502 217.129 125.551 229.175 124.234 232.247C124.179 232.34 124.111 232.414 124.036 232.465C123.961 232.516 123.879 232.542 123.797 232.542C123.714 232.542 123.633 232.516 123.557 232.465C123.482 232.414 123.415 232.34 123.36 232.247C120.957 229.175 111.757 217.129 113.057 214.433Z" fill="#A15842"/>
<path d="M121.294 216.516C121.862 216.247 121.883 213.891 121.342 211.253C120.801 208.615 119.903 206.694 119.336 206.962C118.768 207.231 118.747 209.587 119.288 212.225C119.828 214.863 120.727 216.784 121.294 216.516Z" fill="#A15842"/>
<path d="M193.891 247.488C194.054 248.284 194.092 249.128 194.002 249.952C193.911 250.775 193.694 251.554 193.369 252.227C193.044 252.9 192.619 253.447 192.13 253.825C191.64 254.202 191.098 254.4 190.549 254.402H104.644C103.592 254.402 102.567 253.894 101.718 252.95C100.868 252.006 100.239 250.676 99.9206 249.152L99.5695 247.468L193.891 247.488Z" fill="#30242A"/>
<path d="M295.904 254.422H44.2167V266.803H295.904V254.422Z" fill="#FFBE21"/>
<path d="M245.674 322.27L250.901 291.21H220.408C213.615 291.211 207.015 294.647 201.649 300.976C196.283 307.305 192.457 316.168 190.773 326.167L187.23 347.206H224.534C229.38 347.205 234.088 344.754 237.915 340.239C241.743 335.724 244.473 329.402 245.674 322.27V322.27Z" fill="#FFB7D5"/>
<path d="M187.951 339.062L186.745 346.805" stroke="#A15842" stroke-width="4" stroke-linecap="round" stroke-linejoin="round"/>
<path d="M90.5711 204.204C86.7773 207.084 84.882 211.884 84.882 215.247C84.882 220.156 88.1719 221.08 88.1719 221.08C88.1719 221.08 85.7175 226.942 89.9859 229.693C89.9859 229.693 89.9859 235.728 93.9618 235.728C93.9618 235.728 93.4351 240.435 97.5833 240.879C101.731 241.324 106 238.035 106.361 235.906C106.774 233.392 105.658 231.288 102.648 230.622C102.648 230.622 106.712 227.737 106.068 224.098C105.424 220.458 102.677 220.542 102.677 220.542C102.677 220.542 105.307 218.146 103.903 214.615C102.499 211.084 99.8134 212.309 99.8134 212.309C99.8134 212.309 100.516 209.839 99.2867 207.958C97.8238 205.735 91.5334 208.541 91.5334 208.541L90.5711 204.204Z" fill="#EAA58A"/>
<path d="M93.991 235.961C97.4143 234.714 100.735 232.892 103.893 230.528" stroke="#A15842" stroke-width="4" stroke-miterlimit="10" stroke-linecap="round"/>
<path d="M89.9762 229.664C94.7225 227.687 99.254 224.67 103.428 220.71" stroke="#A15842" stroke-width="4" stroke-miterlimit="10" stroke-linecap="round"/>
<path d="M87.8468 221.781C92.2452 219.804 96.4006 216.746 100.148 212.729" stroke="#A15842" stroke-width="4" stroke-miterlimit="10" stroke-linecap="round"/>
<path d="M224.026 110.294C218.415 97.9822 203.159 102.886 203.159 102.886C203.53 96.1252 204.739 76.6468 195.097 65.9446C185.455 55.2423 173.222 60.8774 168.765 69.3227C166.951 72.7798 166.063 77.4321 165.546 82.5091C168.505 83.2647 172.845 81.7189 172.845 81.7189C178.777 91.8581 184.093 93.4682 184.093 93.4682C188.244 87.1614 195.526 87.3688 196.709 96.9253C197.938 106.847 187.506 111.307 187.506 111.307C187.506 111.307 186.531 129.136 191.732 135.576C193.329 137.498 195.216 138.783 197.223 139.314C201.124 140.495 205.418 139.7 209.339 141.023C212.794 142.155 216.099 144.158 219.118 146.95C220.309 145.355 221.397 143.593 222.369 141.685C225.788 135.097 229.878 123.135 224.026 110.294Z" fill="#30242A"/>
<path d="M179.034 78.1037C177.084 80.5731 174.808 82.0547 172.188 83.0424" stroke="#EAA58B" stroke-width="4" stroke-miterlimit="10" stroke-linecap="round"/>
<path d="M176.95 129.753C178.464 128.986 179.924 127.993 181.31 126.79" stroke="#A15842" stroke-width="4" stroke-miterlimit="10" stroke-linecap="round"/>
<path d="M187.906 101.345L190.871 98.5302" stroke="#A15842" stroke-width="4" stroke-miterlimit="10" stroke-linecap="round"/>
<path d="M170.894 114.566C171.508 115.144 173.82 115.594 174.737 112.912" stroke="#A15842" stroke-width="4" stroke-miterlimit="10" stroke-linecap="round"/>
<path d="M176.934 101.894C177.548 101.894 178.046 101.137 178.046 100.204C178.046 99.2717 177.548 98.5154 176.934 98.5154C176.32 98.5154 175.822 99.2717 175.822 100.204C175.822 101.137 176.32 101.894 176.934 101.894Z" fill="#30242A"/>
<path d="M167.718 99.6563C168.332 99.6563 168.83 98.9001 168.83 97.9673C168.83 97.0344 168.332 96.2782 167.718 96.2782C167.104 96.2782 166.606 97.0344 166.606 97.9673C166.606 98.9001 167.104 99.6563 167.718 99.6563Z" fill="#30242A"/>
<path d="M170.848 104.491C170.627 105.553 170.436 106.709 170.562 107.094C170.737 107.582 171.001 107.982 171.323 108.245" stroke="#A15842" stroke-width="4" stroke-miterlimit="10" stroke-linecap="round"/>
<path d="M189.301 117.895C191.451 117.895 193.195 115.246 193.195 111.978C193.195 108.711 191.451 106.062 189.301 106.062C187.15 106.062 185.406 108.711 185.406 111.978C185.406 115.246 187.15 117.895 189.301 117.895Z" fill="#F5EBDD"/>
<path d="M170.565 98.9168C171.239 93.6558 169.258 88.6438 166.14 87.7223C163.022 86.8008 159.949 90.3187 159.275 95.5798C158.601 100.841 160.582 105.853 163.7 106.774C166.818 107.696 169.891 104.178 170.565 98.9168Z" stroke="#30242A" stroke-width="4" stroke-miterlimit="10" stroke-linecap="round"/>
<path d="M184.69 101.548C185.364 96.2869 183.383 91.275 180.265 90.3535C177.148 89.432 174.074 92.9499 173.4 98.211C172.726 103.472 174.708 108.484 177.825 109.405C180.943 110.327 184.016 106.809 184.69 101.548Z" stroke="#30242A" stroke-width="4" stroke-miterlimit="10" stroke-linecap="round"/>
<path d="M170.832 98.1204L173.079 98.4858" stroke="#30242A" stroke-width="4" stroke-miterlimit="10" stroke-linecap="round"/>
<path d="M203.903 103.538L203.257 109.86" stroke="#30242A" stroke-width="4" stroke-miterlimit="10" stroke-linecap="round"/>
<path d="M156.866 192.016L160.013 205.928" stroke="#30242A" stroke-width="4" stroke-linecap="round" stroke-linejoin="round"/>
<path d="M173.491 223.712H165.218" stroke="#30242A" stroke-width="4" stroke-linecap="round" stroke-linejoin="round"/>
<path d="M180.013 188.055L182.62 207.37V225.199" stroke="#30242A" stroke-width="4" stroke-linecap="round" stroke-linejoin="round"/>
<path d="M162.672 143.794L167.624 160.813L161.756 159.825L182.62 207.37" stroke="#30242A" stroke-width="4" stroke-linecap="round" stroke-linejoin="round"/>
<path d="M210.912 141.769L202.509 159.825L210.334 158.832L181.641 197.463" stroke="#30242A" stroke-width="4" stroke-linecap="round" stroke-linejoin="round"/>
<path d="M215.282 202.313L209.03 189.048" stroke="#30242A" stroke-width="4" stroke-linecap="round" stroke-linejoin="round"/>
<path d="M222.515 251.206C219.111 249.483 213.003 246.154 209.319 242.811" stroke="#30242A" stroke-width="4" stroke-linecap="round" stroke-linejoin="round"/>
<path d="M128.629 128.316C132.161 128.316 135.024 123.966 135.024 118.601C135.024 113.236 132.161 108.887 128.629 108.887C125.098 108.887 122.235 113.236 122.235 118.601C122.235 123.966 125.098 128.316 128.629 128.316Z" fill="#FFB7D5"/>
<path d="M109.518 79.9409L105.795 73.121C105.222 72.0713 104.197 71.926 103.506 72.7966L103.426 72.8975C102.735 73.7681 102.64 75.3249 103.213 76.3746L106.936 83.1945C107.509 84.2443 108.533 84.3895 109.224 83.5189L109.304 83.4181C109.995 82.5475 110.091 80.9907 109.518 79.9409Z" fill="#4756DF"/>
<path d="M116.214 88.2281L112.469 81.3632L45.153 166.161C44.5659 166.902 44.1964 167.966 44.1257 169.12C44.055 170.274 44.2888 171.423 44.7759 172.315L44.8506 172.453C45.0916 172.895 45.3874 173.26 45.7213 173.527C46.0551 173.795 46.4203 173.96 46.7962 174.014C47.172 174.067 47.5511 174.007 47.9117 173.838C48.2724 173.668 48.6075 173.392 48.898 173.026L69.9442 146.505V239.566H75.8186V139.097L116.214 88.2281Z" fill="#3EC1F3"/>
<path d="M105.366 90.2036L107.242 93.6607C107.895 94.8601 108.391 96.238 108.705 97.7204" stroke="#4756DF" stroke-width="4" stroke-miterlimit="10"/>
<path d="M72.8798 148.565C77.1116 148.565 80.5421 143.353 80.5421 136.924C80.5421 130.495 77.1116 125.283 72.8798 125.283C68.648 125.283 65.2174 130.495 65.2174 136.924C65.2174 143.353 68.648 148.565 72.8798 148.565Z" fill="#4756DF"/>
<path d="M72.8798 141.398C74.5064 141.398 75.8251 139.395 75.8251 136.924C75.8251 134.453 74.5064 132.449 72.8798 132.449C71.2531 132.449 69.9345 134.453 69.9345 136.924C69.9345 139.395 71.2531 141.398 72.8798 141.398Z" fill="#3EC1F3"/>
<path d="M133.879 113.085L124.078 125.392" stroke="#A15842" stroke-width="4" stroke-miterlimit="10"/>
<path d="M121.181 86.9835C119.12 86.6157 117.232 85.0556 115.908 82.6276L113.308 77.8518C112.389 76.1706 111.068 75.1124 109.635 74.9096C108.203 74.7068 106.776 75.376 105.668 76.7702V76.7702C105.12 77.4609 104.667 78.3088 104.334 79.2657C104.002 80.2225 103.797 81.2694 103.73 82.3467C103.664 83.424 103.739 84.5106 103.949 85.5443C104.159 86.578 104.502 87.5386 104.956 88.3713L107.557 93.1619C108.875 95.583 109.53 98.6805 109.387 101.815L108.737 116.255C108.415 123.321 109.595 130.357 112.105 136.326L112.937 138.302L144.123 99.0044L143.005 97.4092C139.61 92.5577 135.28 89.4915 130.651 88.6627L121.181 86.9835Z" fill="#3EC1F3"/>
<path d="M75.8186 239.566H69.9442L61.2611 243.161C59.6353 243.835 58.2005 245.303 57.1777 247.337C56.155 249.372 55.6011 251.861 55.6013 254.422H90.1582C90.1582 251.861 89.6039 249.371 88.5805 247.336C87.5571 245.301 86.1216 243.834 84.4952 243.161L75.8186 239.566Z" fill="#3EC1F3"/>
<path d="M138.206 92.0161L109.667 127.852" stroke="#4756DF" stroke-width="4" stroke-miterlimit="10" stroke-linecap="round"/>
<path d="M69.8012 238.543H75.8186" stroke="#4756DF" stroke-width="4" stroke-miterlimit="10" stroke-linecap="round"/>
<path d="M56.7424 248.248H88.8221" stroke="#4756DF" stroke-width="4" stroke-miterlimit="10" stroke-linecap="round"/>
<path d="M250.112 465.908V470.486" stroke="#30242A" stroke-width="4" stroke-miterlimit="10" stroke-linecap="round"/>
<path d="M253.697 465.908V470.486" stroke="#30242A" stroke-width="4" stroke-miterlimit="10" stroke-linecap="round"/>
<path d="M248.97 407.468C251.942 407.468 254.351 403.809 254.351 399.294C254.351 394.78 251.942 391.121 248.97 391.121C245.999 391.121 243.59 394.78 243.59 399.294C243.59 403.809 245.999 407.468 248.97 407.468Z" fill="#EAA58B"/>
<path d="M209.355 210.546C205.344 210 201.31 209.932 197.291 210.343C191.544 211.059 183.816 213.346 180.712 215.628C177.607 217.909 165.719 225.965 168.921 228.666C171.846 231.135 177.984 227.421 177.984 227.421C177.984 227.421 171.859 235.975 170.806 239.556C169.753 243.137 173.235 245.147 173.235 245.147C174.151 251.261 178.254 248.633 178.254 248.633C180.838 256.985 194.801 238.889 194.801 238.889C198.123 239.414 201.477 239.199 204.758 238.252C204.758 238.252 206.527 239.758 209.365 241.852L209.355 210.546Z" fill="#EAA58A"/>
<path d="M244.237 252.441C270.319 233.62 232.511 163.297 219.134 146.945L211.637 193.008L221.091 212.818C216.949 211.731 212.99 210.985 209.355 210.546V241.852C217.632 247.967 235.024 259.108 244.237 252.441Z" fill="#4756DF"/>
<path d="M176.736 227.94C179.05 225.031 182.893 220.329 185.76 217.495" stroke="#A15842" stroke-width="4" stroke-miterlimit="10" stroke-linecap="round"/>
<path d="M188.92 224.443C182.259 230.997 176.19 239.754 173.186 244.337" stroke="#A15842" stroke-width="4" stroke-miterlimit="10" stroke-linecap="round"/>
<path d="M191.875 231.856C187.324 236.603 182.041 243.798 178.592 248.737" stroke="#A15842" stroke-width="4" stroke-miterlimit="10" stroke-linecap="round"/>
<path d="M270.124 229.194C270.617 229.196 271.089 229.494 271.438 230.023C271.787 230.553 271.983 231.271 271.984 232.019V232.439C271.983 233.188 271.787 233.906 271.438 234.435C271.089 234.965 270.617 235.263 270.124 235.264H260.544V229.194H270.124ZM270.124 225.243H258.294C258.248 225.243 258.202 225.257 258.159 225.285C258.116 225.312 258.077 225.351 258.045 225.401C258.012 225.451 257.986 225.511 257.969 225.576C257.951 225.641 257.943 225.711 257.943 225.782V238.697C257.943 238.838 257.98 238.974 258.046 239.074C258.112 239.174 258.201 239.23 258.294 239.23H270.124C270.711 239.23 271.291 239.054 271.833 238.713C272.375 238.371 272.867 237.871 273.281 237.24C273.696 236.609 274.024 235.861 274.248 235.037C274.471 234.213 274.586 233.33 274.584 232.439V232.005C274.584 230.207 274.114 228.484 273.278 227.213C272.441 225.943 271.307 225.229 270.124 225.229V225.243Z" fill="#3EC1F3"/>
<path d="M255.82 223.115C246.132 223.115 241.656 211.385 241.656 211.385L248.158 254.422H263.463L269.965 211.385C268.455 215.002 266.364 217.975 263.89 220.027C261.416 222.079 258.639 223.141 255.82 223.115Z" fill="#3EC1F3"/>
<path d="M255.82 224.115C258.642 224.146 261.423 223.086 263.901 221.034C266.379 218.982 268.473 216.006 269.984 212.385H241.656C241.656 212.385 246.132 224.115 255.82 224.115Z" fill="#30242A"/>
</svg>
