<svg width="774" height="673" viewBox="0 0 774 673" fill="none" xmlns="http://www.w3.org/2000/svg">
<rect width="774" height="673" fill="#E5E5E5"/>
<rect width="774" height="673" fill="white"/>
<path d="M308.779 167.171H189.664C185.983 167.171 183 170.265 183 174.081V421.097C183 424.913 185.983 428.006 189.664 428.006H308.779C312.46 428.006 315.443 424.913 315.443 421.097V174.081C315.443 170.265 312.46 167.171 308.779 167.171Z" fill="#89C5CC"/>
<path d="M248.805 411.596C255.706 411.596 261.3 405.796 261.3 398.641C261.3 391.486 255.706 385.685 248.805 385.685C241.904 385.685 236.31 391.486 236.31 398.641C236.31 405.796 241.904 411.596 248.805 411.596Z" fill="white"/>
<path d="M237.976 184.445C238.896 184.445 239.642 183.672 239.642 182.718C239.642 181.764 238.896 180.99 237.976 180.99C237.056 180.99 236.31 181.764 236.31 182.718C236.31 183.672 237.056 184.445 237.976 184.445Z" fill="white"/>
<path d="M259.634 180.99H245.473C244.553 180.99 243.807 181.764 243.807 182.718C243.807 183.672 244.553 184.445 245.473 184.445H259.634C260.554 184.445 261.3 183.672 261.3 182.718C261.3 181.764 260.554 180.99 259.634 180.99Z" fill="white"/>
<path d="M300.45 191.355H197.994C196.153 191.355 194.662 192.901 194.662 194.809V234.539C194.662 236.447 196.153 237.994 197.994 237.994H300.45C302.29 237.994 303.782 236.447 303.782 234.539V194.809C303.782 192.901 302.29 191.355 300.45 191.355Z" fill="white"/>
<path d="M285.456 205.346H229.647C228.267 205.346 227.148 206.507 227.148 207.938V209.751C227.148 211.182 228.267 212.342 229.647 212.342H285.456C286.836 212.342 287.955 211.182 287.955 209.751V207.938C287.955 206.507 286.836 205.346 285.456 205.346Z" fill="#DDE3E9"/>
<path d="M265.465 217.006H229.647C228.267 217.006 227.148 218.166 227.148 219.597V221.411C227.148 222.842 228.267 224.002 229.647 224.002H265.465C266.845 224.002 267.964 222.842 267.964 221.411V219.597C267.964 218.166 266.845 217.006 265.465 217.006Z" fill="#DDE3E9"/>
<path d="M212.154 225.039C217.675 225.039 222.15 220.398 222.15 214.674C222.15 208.95 217.675 204.31 212.154 204.31C206.634 204.31 202.158 208.95 202.158 214.674C202.158 220.398 206.634 225.039 212.154 225.039Z" fill="#C5CFD6"/>
<path d="M300.45 244.904H197.994C196.153 244.904 194.662 246.45 194.662 248.358V277.724C194.662 279.632 196.153 281.179 197.994 281.179H300.45C302.29 281.179 303.782 279.632 303.782 277.724V248.358C303.782 246.45 302.29 244.904 300.45 244.904Z" fill="white"/>
<path d="M285.456 255.786H229.647C228.267 255.786 227.148 256.946 227.148 258.377V258.636C227.148 260.067 228.267 261.227 229.647 261.227H285.456C286.836 261.227 287.955 260.067 287.955 258.636V258.377C287.955 256.946 286.836 255.786 285.456 255.786Z" fill="#DDE3E9"/>
<path d="M265.465 264.855H229.647C228.267 264.855 227.148 266.015 227.148 267.446V267.705C227.148 269.136 228.267 270.296 229.647 270.296H265.465C266.845 270.296 267.964 269.136 267.964 267.705V267.446C267.964 266.015 266.845 264.855 265.465 264.855Z" fill="#DDE3E9"/>
<path d="M212.154 273.405C217.675 273.405 222.15 268.765 222.15 263.041C222.15 257.317 217.675 252.677 212.154 252.677C206.634 252.677 202.158 257.317 202.158 263.041C202.158 268.765 206.634 273.405 212.154 273.405Z" fill="#C5CFD6"/>
<path d="M300.45 288.088H197.994C196.153 288.088 194.662 289.635 194.662 291.543V320.909C194.662 322.817 196.153 324.363 197.994 324.363H300.45C302.29 324.363 303.782 322.817 303.782 320.909V291.543C303.782 289.635 302.29 288.088 300.45 288.088Z" fill="white"/>
<path d="M285.456 298.971H229.647C228.267 298.971 227.148 300.131 227.148 301.562V301.821C227.148 303.252 228.267 304.412 229.647 304.412H285.456C286.836 304.412 287.955 303.252 287.955 301.821V301.562C287.955 300.131 286.836 298.971 285.456 298.971Z" fill="#DDE3E9"/>
<path d="M265.465 308.04H229.647C228.267 308.04 227.148 309.2 227.148 310.631V310.89C227.148 312.321 228.267 313.481 229.647 313.481H265.465C266.845 313.481 267.964 312.321 267.964 310.89V310.631C267.964 309.2 266.845 308.04 265.465 308.04Z" fill="#DDE3E9"/>
<path d="M212.154 316.59C217.675 316.59 222.15 311.95 222.15 306.226C222.15 300.502 217.675 295.861 212.154 295.861C206.634 295.861 202.158 300.502 202.158 306.226C202.158 311.95 206.634 316.59 212.154 316.59Z" fill="#AFB9C5"/>
<path d="M300.45 331.273H197.994C196.153 331.273 194.662 332.82 194.662 334.728V364.093C194.662 366.001 196.153 367.548 197.994 367.548H300.45C302.29 367.548 303.782 366.001 303.782 364.093V334.728C303.782 332.82 302.29 331.273 300.45 331.273Z" fill="white"/>
<path d="M285.456 342.155H229.647C228.267 342.155 227.148 343.315 227.148 344.746V345.006C227.148 346.437 228.267 347.597 229.647 347.597H285.456C286.836 347.597 287.955 346.437 287.955 345.006V344.746C287.955 343.315 286.836 342.155 285.456 342.155Z" fill="#DDE3E9"/>
<path d="M265.465 351.224H229.647C228.267 351.224 227.148 352.384 227.148 353.815V354.074C227.148 355.505 228.267 356.665 229.647 356.665H265.465C266.845 356.665 267.964 355.505 267.964 354.074V353.815C267.964 352.384 266.845 351.224 265.465 351.224Z" fill="#DDE3E9"/>
<path d="M212.154 359.775C217.675 359.775 222.15 355.134 222.15 349.41C222.15 343.686 217.675 339.046 212.154 339.046C206.634 339.046 202.158 343.686 202.158 349.41C202.158 355.134 206.634 359.775 212.154 359.775Z" fill="#C5CFD6"/>
<path fill-rule="evenodd" clip-rule="evenodd" d="M208.106 377.912C207.002 377.912 205.902 377.935 204.8 377.995C203.96 378.04 202.676 377.86 201.965 378.403C201.226 378.966 201.277 380.121 201.393 380.936C202.003 385.247 203.491 389.07 206.606 392.125C211.401 396.828 216.898 399.218 223.403 400.282C227.972 401.029 232.19 399.991 235.554 396.622C238.012 401.352 239.876 406.586 240.812 411.868C241.273 414.475 241.414 417.05 241.333 419.704C241.281 421.404 241.19 423.1 241.015 424.792C240.938 425.527 240.577 426.64 240.855 427.335C241.18 428.151 242.279 428.23 242.772 427.534C243.183 426.955 243.107 425.818 243.192 425.133C243.331 423.995 243.461 422.855 243.553 421.712C243.704 419.861 243.815 418.005 243.807 416.147C243.788 411.972 242.893 407.781 241.668 403.818C239.319 396.216 235.508 389.459 229.58 384.158C225.936 380.898 221.764 379.578 217.032 378.869C214.085 378.428 211.091 377.912 208.106 377.912Z" fill="#89C5CC"/>
<path fill-rule="evenodd" clip-rule="evenodd" d="M225.125 408.141C213.214 408.141 205.192 418.095 201.399 428.44C199.97 432.339 199.634 436.621 199.083 440.715C198.907 442.029 198.972 444.031 198.458 445.202C198.271 445.626 197.843 445.779 198.048 446.357C198.172 446.707 198.415 446.922 198.78 446.992C199.529 447.135 200.588 446.288 201.23 445.955C206.558 443.184 210.059 438.9 212.914 433.659C214.684 430.411 216.48 427.038 217.532 423.472C218.174 421.293 218.548 418.999 218.768 416.739C218.854 415.849 218.938 414.937 218.933 414.042C218.928 413.153 218.529 412.684 218.243 411.91C222.217 410.351 226.703 409.925 230.728 411.542C234.452 413.037 237.545 415.926 239.277 419.556C239.727 420.499 240.074 421.494 240.326 422.51C240.492 423.174 240.5 424.037 240.807 424.638C241.55 426.096 243.114 425.121 242.964 423.765C242.545 419.981 240.458 416.181 237.789 413.55C234.423 410.232 229.861 408.141 225.125 408.141Z" fill="#89C5CC"/>
<path d="M363.756 189.627H244.64C240.96 189.627 237.976 192.721 237.976 196.537V443.553C237.976 447.369 240.96 450.462 244.64 450.462H363.756C367.436 450.462 370.42 447.369 370.42 443.553V196.537C370.42 192.721 367.436 189.627 363.756 189.627Z" fill="#E24C82"/>
<path d="M303.782 434.052C310.682 434.052 316.276 428.252 316.276 421.097C316.276 413.942 310.682 408.141 303.782 408.141C296.881 408.141 291.287 413.942 291.287 421.097C291.287 428.252 296.881 434.052 303.782 434.052Z" fill="white"/>
<path d="M292.953 206.901C293.873 206.901 294.619 206.128 294.619 205.174C294.619 204.22 293.873 203.446 292.953 203.446C292.033 203.446 291.287 204.22 291.287 205.174C291.287 206.128 292.033 206.901 292.953 206.901Z" fill="white"/>
<path d="M314.61 203.446H300.45C299.53 203.446 298.784 204.22 298.784 205.174C298.784 206.128 299.53 206.901 300.45 206.901H314.61C315.53 206.901 316.276 206.128 316.276 205.174C316.276 204.22 315.53 203.446 314.61 203.446Z" fill="white"/>
<path d="M355.426 213.811H252.97C251.13 213.811 249.638 215.357 249.638 217.265V256.995C249.638 258.903 251.13 260.45 252.97 260.45H355.426C357.266 260.45 358.758 258.903 358.758 256.995V217.265C358.758 215.357 357.266 213.811 355.426 213.811Z" fill="white"/>
<path d="M315.443 227.802H259.634C258.254 227.802 257.135 228.963 257.135 230.394V232.207C257.135 233.638 258.254 234.798 259.634 234.798H315.443C316.823 234.798 317.942 233.638 317.942 232.207V230.394C317.942 228.963 316.823 227.802 315.443 227.802Z" fill="#DDE3E9"/>
<path d="M295.452 239.462H259.634C258.254 239.462 257.135 240.622 257.135 242.053V243.867C257.135 245.298 258.254 246.458 259.634 246.458H295.452C296.832 246.458 297.951 245.298 297.951 243.867V242.053C297.951 240.622 296.832 239.462 295.452 239.462Z" fill="#DDE3E9"/>
<path d="M347.096 243.176C350.317 243.176 352.927 240.469 352.927 237.13C352.927 233.791 350.317 231.084 347.096 231.084C343.876 231.084 341.266 233.791 341.266 237.13C341.266 240.469 343.876 243.176 347.096 243.176Z" fill="#DDE3E9"/>
<path d="M347.096 239.721C348.476 239.721 349.595 238.561 349.595 237.13C349.595 235.699 348.476 234.539 347.096 234.539C345.716 234.539 344.597 235.699 344.597 237.13C344.597 238.561 345.716 239.721 347.096 239.721Z" fill="#F2F2F2"/>
<path d="M355.426 267.36H252.97C251.13 267.36 249.638 268.906 249.638 270.814V300.18C249.638 302.088 251.13 303.635 252.97 303.635H355.426C357.266 303.635 358.758 302.088 358.758 300.18V270.814C358.758 268.906 357.266 267.36 355.426 267.36Z" fill="white"/>
<path d="M340.433 278.242H284.623C283.243 278.242 282.124 279.402 282.124 280.833V281.092C282.124 282.523 283.243 283.683 284.623 283.683H340.433C341.813 283.683 342.931 282.523 342.931 281.092V280.833C342.931 279.402 341.813 278.242 340.433 278.242Z" fill="#DDE3E9"/>
<path d="M320.441 287.311H284.623C283.243 287.311 282.124 288.471 282.124 289.902V290.161C282.124 291.592 283.243 292.752 284.623 292.752H320.441C321.821 292.752 322.94 291.592 322.94 290.161V289.902C322.94 288.471 321.821 287.311 320.441 287.311Z" fill="#DDE3E9"/>
<path d="M267.131 295.861C272.651 295.861 277.126 291.221 277.126 285.497C277.126 279.773 272.651 275.133 267.131 275.133C261.61 275.133 257.135 279.773 257.135 285.497C257.135 291.221 261.61 295.861 267.131 295.861Z" fill="#C5CFD6"/>
<path d="M355.426 310.544H252.97C251.13 310.544 249.638 312.091 249.638 313.999V343.364C249.638 345.273 251.13 346.819 252.97 346.819H355.426C357.266 346.819 358.758 345.273 358.758 343.364V313.999C358.758 312.091 357.266 310.544 355.426 310.544Z" fill="white"/>
<path d="M315.443 321.427H259.634C258.254 321.427 257.135 322.587 257.135 324.018V324.277C257.135 325.708 258.254 326.868 259.634 326.868H315.443C316.823 326.868 317.942 325.708 317.942 324.277V324.018C317.942 322.587 316.823 321.427 315.443 321.427Z" fill="#DDE3E9"/>
<path d="M295.452 330.496H259.634C258.254 330.496 257.135 331.656 257.135 333.087V333.346C257.135 334.777 258.254 335.937 259.634 335.937H295.452C296.832 335.937 297.951 334.777 297.951 333.346V333.087C297.951 331.656 296.832 330.496 295.452 330.496Z" fill="#AFB9C5"/>
<path d="M347.096 334.728C350.317 334.728 352.927 332.021 352.927 328.682C352.927 325.343 350.317 322.636 347.096 322.636C343.876 322.636 341.266 325.343 341.266 328.682C341.266 332.021 343.876 334.728 347.096 334.728Z" fill="#DDE3E9"/>
<path d="M347.096 331.273C348.476 331.273 349.595 330.113 349.595 328.682C349.595 327.251 348.476 326.091 347.096 326.091C345.716 326.091 344.597 327.251 344.597 328.682C344.597 330.113 345.716 331.273 347.096 331.273Z" fill="#F2F2F2"/>
<path d="M355.426 353.729H252.97C251.13 353.729 249.638 355.276 249.638 357.184V386.549C249.638 388.457 251.13 390.004 252.97 390.004H355.426C357.266 390.004 358.758 388.457 358.758 386.549V357.184C358.758 355.276 357.266 353.729 355.426 353.729Z" fill="white"/>
<path d="M340.433 364.611H284.623C283.243 364.611 282.124 365.771 282.124 367.202V367.462C282.124 368.893 283.243 370.053 284.623 370.053H340.433C341.813 370.053 342.931 368.893 342.931 367.462V367.202C342.931 365.771 341.813 364.611 340.433 364.611Z" fill="#DDE3E9"/>
<path d="M320.441 373.68H284.623C283.243 373.68 282.124 374.84 282.124 376.271V376.53C282.124 377.961 283.243 379.121 284.623 379.121H320.441C321.821 379.121 322.94 377.961 322.94 376.53V376.271C322.94 374.84 321.821 373.68 320.441 373.68Z" fill="#DDE3E9"/>
<path d="M267.131 382.231C272.651 382.231 277.126 377.59 277.126 371.866C277.126 366.142 272.651 361.502 267.131 361.502C261.61 361.502 257.135 366.142 257.135 371.866C257.135 377.59 261.61 382.231 267.131 382.231Z" fill="#C5CFD6"/>
<path d="M565.336 211.22H299.617C295.936 211.22 292.953 214.313 292.953 218.129V503.148C292.953 506.964 295.936 510.057 299.617 510.057H565.336C569.016 510.057 572 506.964 572 503.148V218.129C572 214.313 569.016 211.22 565.336 211.22Z" fill="#F2F2F2"/>
<path d="M552.009 248.358H507.028C503.347 248.358 500.364 251.452 500.364 255.268V311.408C500.364 315.224 503.347 318.317 507.028 318.317H552.009C555.689 318.317 558.672 315.224 558.672 311.408V255.268C558.672 251.452 555.689 248.358 552.009 248.358Z" fill="white"/>
<path d="M529.518 288.952C536.879 288.952 542.846 282.765 542.846 275.133C542.846 267.501 536.879 261.314 529.518 261.314C522.158 261.314 516.191 267.501 516.191 275.133C516.191 282.765 522.158 288.952 529.518 288.952Z" fill="#4756DF"/>
<path d="M547.844 292.407H511.193C509.813 292.407 508.694 293.567 508.694 294.998C508.694 296.429 509.813 297.589 511.193 297.589H547.844C549.224 297.589 550.343 296.429 550.343 294.998C550.343 293.567 549.224 292.407 547.844 292.407Z" fill="#DDE3E9"/>
<path d="M541.18 301.044H517.857C516.476 301.044 515.358 302.204 515.358 303.635C515.358 305.066 516.476 306.226 517.857 306.226H541.18C542.56 306.226 543.679 305.066 543.679 303.635C543.679 302.204 542.56 301.044 541.18 301.044Z" fill="#DDE3E9"/>
<path fill-rule="evenodd" clip-rule="evenodd" d="M299.617 211.22H565.336C569.016 211.22 572 214.313 572 218.129V234.539H292.953V218.129C292.953 214.313 295.936 211.22 299.617 211.22Z" fill="#3EC1F3"/>
<path d="M303.782 226.766C305.622 226.766 307.113 225.219 307.113 223.311C307.113 221.403 305.622 219.856 303.782 219.856C301.941 219.856 300.45 221.403 300.45 223.311C300.45 225.219 301.941 226.766 303.782 226.766Z" fill="#F2F2F2"/>
<path d="M313.777 226.766C315.617 226.766 317.109 225.219 317.109 223.311C317.109 221.403 315.617 219.856 313.777 219.856C311.937 219.856 310.445 221.403 310.445 223.311C310.445 225.219 311.937 226.766 313.777 226.766Z" fill="#F2F2F2"/>
<path d="M323.773 226.766C325.613 226.766 327.105 225.219 327.105 223.311C327.105 221.403 325.613 219.856 323.773 219.856C321.933 219.856 320.441 221.403 320.441 223.311C320.441 225.219 321.933 226.766 323.773 226.766Z" fill="#F2F2F2"/>
<path d="M552.009 325.227H507.028C503.347 325.227 500.364 328.32 500.364 332.137V485.874C500.364 489.69 503.347 492.783 507.028 492.783H552.009C555.689 492.783 558.672 489.69 558.672 485.874V332.137C558.672 328.32 555.689 325.227 552.009 325.227Z" fill="white"/>
<path d="M540.347 340.773H518.689C516.849 340.773 515.358 342.32 515.358 344.228V359.775C515.358 361.683 516.849 363.229 518.689 363.229H540.347C542.187 363.229 543.679 361.683 543.679 359.775V344.228C543.679 342.32 542.187 340.773 540.347 340.773Z" fill="#FFBE21"/>
<path d="M540.347 370.139H518.689C516.849 370.139 515.358 371.686 515.358 373.594V388.276C515.358 390.184 516.849 391.731 518.689 391.731H540.347C542.187 391.731 543.679 390.184 543.679 388.276V373.594C543.679 371.686 542.187 370.139 540.347 370.139Z" fill="#E24C82"/>
<path d="M540.347 398.641H518.689C516.849 398.641 515.358 400.188 515.358 402.096V416.778C515.358 418.686 516.849 420.233 518.689 420.233H540.347C542.187 420.233 543.679 418.686 543.679 416.778V402.096C543.679 400.188 542.187 398.641 540.347 398.641Z" fill="#89C5CC"/>
<path d="M540.347 455.645H518.689C516.849 455.645 515.358 457.191 515.358 459.099V473.782C515.358 475.69 516.849 477.237 518.689 477.237H540.347C542.187 477.237 543.679 475.69 543.679 473.782V459.099C543.679 457.191 542.187 455.645 540.347 455.645Z" fill="#FFB7D5"/>
<path d="M540.347 427.143H518.689C516.849 427.143 515.358 428.689 515.358 430.597V445.28C515.358 447.188 516.849 448.735 518.689 448.735H540.347C542.187 448.735 543.679 447.188 543.679 445.28V430.597C543.679 428.689 542.187 427.143 540.347 427.143Z" fill="#69A1AC"/>
<path d="M490.368 249.222H309.612C307.772 249.222 306.28 250.769 306.28 252.677V286.361C306.28 288.269 307.772 289.816 309.612 289.816H490.368C492.208 289.816 493.7 288.269 493.7 286.361V252.677C493.7 250.769 492.208 249.222 490.368 249.222Z" fill="white"/>
<path d="M450.385 261.4H316.276C314.896 261.4 313.777 262.56 313.777 263.991V264.898C313.777 266.329 314.896 267.489 316.276 267.489H450.385C451.766 267.489 452.884 266.329 452.884 264.898V263.991C452.884 262.56 451.766 261.4 450.385 261.4Z" fill="#DDE3E9"/>
<path d="M404.652 271.548H316.276C314.896 271.548 313.777 272.709 313.777 274.14V275.046C313.777 276.477 314.896 277.638 316.276 277.638H404.652C406.032 277.638 407.151 276.477 407.151 275.046V274.14C407.151 272.709 406.032 271.548 404.652 271.548Z" fill="#DDE3E9"/>
<path d="M473.671 275.565C476.891 275.565 479.501 272.858 479.501 269.519C479.501 266.18 476.891 263.473 473.671 263.473C470.45 263.473 467.84 266.18 467.84 269.519C467.84 272.858 470.45 275.565 473.671 275.565Z" fill="#DDE3E9"/>
<path d="M473.671 272.11C475.051 272.11 476.17 270.95 476.17 269.519C476.17 268.088 475.051 266.928 473.671 266.928C472.29 266.928 471.172 268.088 471.172 269.519C471.172 270.95 472.29 272.11 473.671 272.11Z" fill="#F2F2F2"/>
<path d="M490.368 296.725H309.612C307.772 296.725 306.28 298.272 306.28 300.18V326.954C306.28 328.862 307.772 330.409 309.612 330.409H490.368C492.208 330.409 493.7 328.862 493.7 326.954V300.18C493.7 298.272 492.208 296.725 490.368 296.725Z" fill="white"/>
<path d="M450.448 306.83H316.214C314.868 306.83 313.777 307.961 313.777 309.357C313.777 310.752 314.868 311.883 316.214 311.883H450.448C451.793 311.883 452.884 310.752 452.884 309.357C452.884 307.961 451.793 306.83 450.448 306.83Z" fill="#DDE3E9"/>
<path d="M404.714 315.251H316.214C314.868 315.251 313.777 316.382 313.777 317.778C313.777 319.173 314.868 320.304 316.214 320.304H404.714C406.06 320.304 407.151 319.173 407.151 317.778C407.151 316.382 406.06 315.251 404.714 315.251Z" fill="#DDE3E9"/>
<path d="M473.671 319.613C476.891 319.613 479.501 316.906 479.501 313.567C479.501 310.228 476.891 307.521 473.671 307.521C470.45 307.521 467.84 310.228 467.84 313.567C467.84 316.906 470.45 319.613 473.671 319.613Z" fill="#DDE3E9"/>
<path d="M473.671 316.158C475.051 316.158 476.17 314.998 476.17 313.567C476.17 312.136 475.051 310.976 473.671 310.976C472.29 310.976 471.172 312.136 471.172 313.567C471.172 314.998 472.29 316.158 473.671 316.158Z" fill="#F2F2F2"/>
<path d="M490.368 337.319H309.612C307.772 337.319 306.28 338.865 306.28 340.773V367.548C306.28 369.456 307.772 371.003 309.612 371.003H490.368C492.208 371.003 493.7 369.456 493.7 367.548V340.773C493.7 338.865 492.208 337.319 490.368 337.319Z" fill="white"/>
<path d="M450.448 347.424H316.214C314.868 347.424 313.777 348.555 313.777 349.95C313.777 351.345 314.868 352.476 316.214 352.476H450.448C451.793 352.476 452.884 351.345 452.884 349.95C452.884 348.555 451.793 347.424 450.448 347.424Z" fill="#DDE3E9"/>
<path d="M404.714 355.845H316.214C314.868 355.845 313.777 356.976 313.777 358.371C313.777 359.766 314.868 360.897 316.214 360.897H404.714C406.06 360.897 407.151 359.766 407.151 358.371C407.151 356.976 406.06 355.845 404.714 355.845Z" fill="#DDE3E9"/>
<path d="M473.671 360.207C476.891 360.207 479.501 357.5 479.501 354.161C479.501 350.822 476.891 348.115 473.671 348.115C470.45 348.115 467.84 350.822 467.84 354.161C467.84 357.5 470.45 360.207 473.671 360.207Z" fill="#DDE3E9"/>
<path d="M473.671 356.752C475.051 356.752 476.17 355.592 476.17 354.161C476.17 352.73 475.051 351.57 473.671 351.57C472.29 351.57 471.172 352.73 471.172 354.161C471.172 355.592 472.29 356.752 473.671 356.752Z" fill="#AFB9C5"/>
<path d="M490.368 459.099H309.612C307.772 459.099 306.28 460.646 306.28 462.554V489.329C306.28 491.237 307.772 492.783 309.612 492.783H490.368C492.208 492.783 493.7 491.237 493.7 489.329V462.554C493.7 460.646 492.208 459.099 490.368 459.099Z" fill="white"/>
<path d="M450.448 469.205H316.214C314.868 469.205 313.777 470.336 313.777 471.731C313.777 473.126 314.868 474.257 316.214 474.257H450.448C451.793 474.257 452.884 473.126 452.884 471.731C452.884 470.336 451.793 469.205 450.448 469.205Z" fill="#DDE3E9"/>
<path d="M404.714 477.626H316.214C314.868 477.626 313.777 478.757 313.777 480.152C313.777 481.547 314.868 482.678 316.214 482.678H404.714C406.06 482.678 407.151 481.547 407.151 480.152C407.151 478.757 406.06 477.626 404.714 477.626Z" fill="#DDE3E9"/>
<path d="M473.671 481.987C476.891 481.987 479.501 479.28 479.501 475.941C479.501 472.602 476.891 469.895 473.671 469.895C470.45 469.895 467.84 472.602 467.84 475.941C467.84 479.28 470.45 481.987 473.671 481.987Z" fill="#DDE3E9"/>
<path d="M473.671 478.532C475.051 478.532 476.17 477.372 476.17 475.941C476.17 474.51 475.051 473.35 473.671 473.35C472.29 473.35 471.172 474.51 471.172 475.941C471.172 477.372 472.29 478.532 473.671 478.532Z" fill="#F2F2F2"/>
<path d="M490.368 418.506H309.612C307.772 418.506 306.28 420.053 306.28 421.961V448.735C306.28 450.643 307.772 452.19 309.612 452.19H490.368C492.208 452.19 493.7 450.643 493.7 448.735V421.961C493.7 420.053 492.208 418.506 490.368 418.506Z" fill="white"/>
<path d="M450.448 428.611H316.214C314.868 428.611 313.777 429.742 313.777 431.137C313.777 432.532 314.868 433.664 316.214 433.664H450.448C451.793 433.664 452.884 432.532 452.884 431.137C452.884 429.742 451.793 428.611 450.448 428.611Z" fill="#DDE3E9"/>
<path d="M404.714 437.032H316.214C314.868 437.032 313.777 438.163 313.777 439.558C313.777 440.954 314.868 442.085 316.214 442.085H404.714C406.06 442.085 407.151 440.954 407.151 439.558C407.151 438.163 406.06 437.032 404.714 437.032Z" fill="#DDE3E9"/>
<path d="M473.671 441.394C476.891 441.394 479.501 438.687 479.501 435.348C479.501 432.009 476.891 429.302 473.671 429.302C470.45 429.302 467.84 432.009 467.84 435.348C467.84 438.687 470.45 441.394 473.671 441.394Z" fill="#DDE3E9"/>
<path d="M473.671 437.939C475.051 437.939 476.17 436.779 476.17 435.348C476.17 433.917 475.051 432.757 473.671 432.757C472.29 432.757 471.172 433.917 471.172 435.348C471.172 436.779 472.29 437.939 473.671 437.939Z" fill="#F2F2F2"/>
<path d="M490.368 377.912H309.612C307.772 377.912 306.28 379.459 306.28 381.367V408.141C306.28 410.049 307.772 411.596 309.612 411.596H490.368C492.208 411.596 493.7 410.049 493.7 408.141V381.367C493.7 379.459 492.208 377.912 490.368 377.912Z" fill="white"/>
<path d="M450.448 388.017H316.214C314.868 388.017 313.777 389.148 313.777 390.544C313.777 391.939 314.868 393.07 316.214 393.07H450.448C451.793 393.07 452.884 391.939 452.884 390.544C452.884 389.148 451.793 388.017 450.448 388.017Z" fill="#DDE3E9"/>
<path d="M404.714 396.438H316.214C314.868 396.438 313.777 397.569 313.777 398.965C313.777 400.36 314.868 401.491 316.214 401.491H404.714C406.06 401.491 407.151 400.36 407.151 398.965C407.151 397.569 406.06 396.438 404.714 396.438Z" fill="#DDE3E9"/>
<path d="M473.671 400.8C476.891 400.8 479.501 398.093 479.501 394.754C479.501 391.415 476.891 388.708 473.671 388.708C470.45 388.708 467.84 391.415 467.84 394.754C467.84 398.093 470.45 400.8 473.671 400.8Z" fill="#DDE3E9"/>
<path d="M473.671 397.345C475.051 397.345 476.17 396.185 476.17 394.754C476.17 393.323 475.051 392.163 473.671 392.163C472.29 392.163 471.172 393.323 471.172 394.754C471.172 396.185 472.29 397.345 473.671 397.345Z" fill="#F2F2F2"/>
<path d="M506.195 176.672C506.195 175.241 505.076 174.081 503.696 174.081C502.316 174.081 501.197 175.241 501.197 176.672V193.082C501.197 194.513 502.316 195.673 503.696 195.673C505.076 195.673 506.195 194.513 506.195 193.082V176.672Z" fill="#63CC94"/>
<path d="M517.856 162.853C517.856 161.422 516.738 160.262 515.358 160.262C513.977 160.262 512.859 161.422 512.859 162.853V193.082C512.859 194.513 513.977 195.673 515.358 195.673C516.738 195.673 517.856 194.513 517.856 193.082V162.853Z" fill="#DDE3E9"/>
<path d="M529.518 155.943C529.518 154.512 528.399 153.352 527.019 153.352C525.639 153.352 524.52 154.512 524.52 155.943V193.082C524.52 194.513 525.639 195.673 527.019 195.673C528.399 195.673 529.518 194.513 529.518 193.082V155.943Z" fill="#3EC1F3"/>
<path d="M541.18 162.853C541.18 161.422 540.061 160.262 538.681 160.262C537.301 160.262 536.182 161.422 536.182 162.853V193.082C536.182 194.513 537.301 195.673 538.681 195.673C540.061 195.673 541.18 194.513 541.18 193.082V162.853Z" fill="#DDE3E9"/>
<path d="M552.841 149.034C552.841 147.603 551.723 146.443 550.343 146.443C548.962 146.443 547.844 147.603 547.844 149.034V193.082C547.844 194.513 548.962 195.673 550.343 195.673C551.723 195.673 552.841 194.513 552.841 193.082V149.034Z" fill="#E24C82"/>
<path fill-rule="evenodd" clip-rule="evenodd" d="M231.212 493.164C229.612 494.926 227.344 496.032 224.822 496.032C219.977 496.032 216.048 491.972 216.048 486.963C216.048 481.955 219.977 477.895 224.822 477.895V461.053C211.037 461.053 199.754 472.715 199.754 486.963C199.754 501.212 211.037 512.874 224.822 512.874C232.064 512.874 238.608 509.708 243.069 504.671L231.212 493.164Z" fill="#E5E5E5"/>
<path fill-rule="evenodd" clip-rule="evenodd" d="M224.743 461.053V477.895C229.574 477.895 233.489 481.955 233.489 486.963H249.732C249.732 472.715 238.485 461.053 224.743 461.053Z" fill="#E24C82"/>
<path fill-rule="evenodd" clip-rule="evenodd" d="M233.154 486.963C233.154 489.906 231.817 492.522 229.741 494.21L239.955 507.692C245.9 502.865 249.732 495.384 249.732 486.963H233.154Z" fill="#69A1AC"/>
<path fill-rule="evenodd" clip-rule="evenodd" d="M428.199 187.619C426.968 188.969 425.223 189.818 423.284 189.818C419.556 189.818 416.534 186.705 416.534 182.865C416.534 179.025 419.556 175.912 423.284 175.912V163C412.68 163 404 171.941 404 182.865C404 193.789 412.68 202.73 423.284 202.73C428.854 202.73 433.888 200.302 437.319 196.441L428.199 187.619Z" fill="#F2F2F2"/>
<path fill-rule="evenodd" clip-rule="evenodd" d="M423.158 163V175.912C426.862 175.912 429.864 179.025 429.864 182.865H442.317C442.317 171.941 433.694 163 423.158 163Z" fill="#AFB9C5"/>
<path fill-rule="evenodd" clip-rule="evenodd" d="M429.883 182.865C429.883 185.072 428.88 187.034 427.323 188.3L434.984 198.411C439.443 194.791 442.317 189.18 442.317 182.865H429.883Z" fill="#FFB7D5"/>
<path d="M291.71 484.636H283.37V646.984H291.71V484.636Z" fill="#FFBE21"/>
<path d="M291.713 486.868H283.37" stroke="#A15842" stroke-width="4" stroke-miterlimit="10"/>
<path d="M457.351 549.512H370.992L372.452 542.877H410.36L424.818 478.114C426.788 469.292 431.265 461.472 437.545 455.888C443.824 450.304 451.547 447.272 459.497 447.272C478.95 447.272 493.184 468.274 488.359 489.859L479.425 529.876C478.172 535.491 475.322 540.469 471.325 544.025C467.328 547.58 462.412 549.511 457.351 549.512Z" fill="#FFB7D5"/>
<path d="M371.661 610.803V617.827H426.699V610.803H371.661Z" fill="#A15842"/>
<path d="M435.765 643.212L421.45 545.611H376.907L362.592 643.212C362.524 643.676 362.545 644.152 362.655 644.605C362.764 645.059 362.958 645.48 363.224 645.839C363.489 646.198 363.82 646.487 364.193 646.685C364.566 646.882 364.972 646.985 365.383 646.984V646.984C366.028 646.984 366.654 646.73 367.157 646.266C367.66 645.802 368.009 645.156 368.147 644.433L386.897 545.611H411.474L430.217 644.433C430.354 645.156 430.703 645.803 431.206 646.267C431.709 646.731 432.335 646.984 432.981 646.984V646.984C433.391 646.984 433.797 646.88 434.169 646.682C434.541 646.484 434.871 646.195 435.135 645.836C435.4 645.477 435.594 645.057 435.703 644.604C435.811 644.15 435.833 643.676 435.765 643.212V643.212Z" fill="#A15842"/>
<path d="M417.256 610.803V617.827H472.295V610.803H417.256Z" fill="#EAA58A"/>
<path d="M481.361 643.212L467.032 545.611H422.506L408.19 643.212C408.122 643.676 408.144 644.152 408.253 644.605C408.362 645.059 408.556 645.48 408.822 645.839C409.088 646.198 409.419 646.487 409.791 646.685C410.164 646.882 410.57 646.985 410.981 646.984V646.984C411.627 646.984 412.252 646.731 412.755 646.267C413.257 645.803 413.605 645.156 413.742 644.433L432.485 545.611H457.066L475.809 644.433C475.947 645.157 476.296 645.804 476.8 646.268C477.303 646.733 477.93 646.985 478.577 646.984V646.984C478.987 646.984 479.392 646.88 479.764 646.682C480.136 646.484 480.466 646.195 480.731 645.836C480.996 645.477 481.189 645.057 481.298 644.604C481.407 644.15 481.428 643.676 481.361 643.212V643.212Z" fill="#EAA58A"/>
<path d="M436.373 529.876L441.833 505.416H405.647C398.551 505.416 391.657 508.122 386.051 513.106C380.446 518.091 376.449 525.07 374.69 532.944L370.992 549.512H414.295C419.357 549.512 424.274 547.581 428.271 544.026C432.269 540.47 435.119 535.492 436.373 529.876V529.876Z" fill="#FFB7D5"/>
<path d="M373.345 542.228H419.287" stroke="#A15842" stroke-width="4" stroke-linecap="round" stroke-linejoin="round"/>
<path d="M410.523 541.983L418.574 505.929" stroke="#A15842" stroke-width="4" stroke-linecap="round" stroke-linejoin="round"/>
<path d="M484.349 504.58H462.617" stroke="#A15842" stroke-width="4" stroke-linecap="round" stroke-linejoin="round"/>
<path d="M488.424 487.078H460.58" stroke="#A15842" stroke-width="4" stroke-linecap="round" stroke-linejoin="round"/>
<path d="M387.002 479.175C387.002 479.175 359.76 487.673 348.187 494.304C329.108 505.229 329.172 512.44 317.539 552.807C306.799 590.112 305.618 608.193 290.803 608.909C279.492 609.453 275.784 613.693 273.951 619.503L318.707 643.827C319.22 644.105 319.807 644.148 320.346 643.947C320.886 643.746 321.338 643.316 321.611 642.745C321.888 642.162 321.955 641.478 321.799 640.839C321.642 640.2 321.273 639.656 320.772 639.323L319.831 638.7C323.991 632.929 332.014 620.631 340.014 601.951L345.108 604.673C345.108 604.673 353.335 592.426 354.639 578.534C356.337 560.593 355.318 548.501 362.473 541.481L445.901 479.16L387.002 479.175Z" fill="#3EC1F3"/>
<path d="M286.406 611.791C287.292 609.679 292.215 596.813 295.047 598.369C298.731 600.391 289.17 613.308 289.17 613.308L286.406 611.791Z" fill="#30242A"/>
<path d="M273.947 619.686L318.704 644.005C319.222 644.288 319.816 644.331 320.361 644.123C320.906 643.916 321.359 643.475 321.626 642.893C321.893 642.311 321.953 641.633 321.793 641.001C321.634 640.369 321.266 639.833 320.769 639.505L319.828 638.883L319.923 638.751L289.159 622.117C289.62 620.654 289.944 619.139 290.124 617.597C294.728 618.511 304.046 619.495 304.093 615.096C304.144 610.997 293.968 612.642 290.249 613.801C290.169 612.226 289.902 610.67 289.455 609.177C279.197 609.986 275.706 614.109 273.947 619.686Z" fill="#30242A"/>
<path d="M377.8 489.319L377.121 494.386L381.549 492.438L377.8 489.319Z" fill="#FFB7D5"/>
<path d="M315.896 589.116L308.765 585.254C308.636 585.706 308.507 586.149 308.378 586.588C304.069 601.29 300.144 608.64 290.81 609.092C290.351 609.092 289.91 609.142 289.475 609.177C289.922 610.67 290.19 612.226 290.27 613.801C294.005 612.635 304.164 610.997 304.113 615.097C304.059 619.495 294.749 618.511 290.144 617.597C289.961 619.139 289.634 620.654 289.17 622.117L319.933 638.751C324.117 632.917 332.072 620.682 340.011 602.157L315.896 589.116Z" fill="#EAA58B"/>
<path d="M353.817 632.645C353.96 630.311 354.405 616.271 357.536 616.524C361.61 616.851 356.873 632.89 356.873 632.89L353.817 632.645Z" fill="#30242A"/>
<path d="M429.229 479.747C429.229 479.747 395.175 486.981 376.445 495.95C357.535 505.008 357.719 521.094 361.121 564.789C364.177 603.907 369.637 622.902 358.405 628.752C348.103 634.119 344.524 640.847 345.013 647H395.725C396.011 647 396.294 646.936 396.558 646.81C396.822 646.685 397.062 646.501 397.264 646.27C397.466 646.038 397.627 645.763 397.736 645.461C397.845 645.159 397.902 644.834 397.902 644.507C397.902 643.846 397.672 643.212 397.264 642.744C396.856 642.277 396.302 642.014 395.725 642.014H394.869C396.469 636.021 398.788 624.322 399.107 604.961H405.396C405.396 604.961 408.628 587.849 405.056 572.587C401.321 556.598 397.905 553.868 395.864 542.947H426.38C449.684 542.947 467.127 518.258 462.057 492.208C460.475 484.068 458.179 479.763 458.179 479.763L429.229 479.747Z" fill="#3EC1F3"/>
<path d="M395.725 641.998H394.869C396.469 636.005 398.788 624.306 399.107 604.946H364.897V604.981C364.924 605.37 364.948 605.759 364.972 606.147C364.972 606.182 364.972 606.221 364.972 606.256C365.681 618.41 364.523 625.52 358.391 628.713C348.089 634.08 344.51 640.808 344.999 646.961H395.725C396.302 646.961 396.856 646.698 397.264 646.231C397.672 645.763 397.902 645.129 397.902 644.468C397.902 643.807 397.672 643.173 397.264 642.705C396.856 642.238 396.302 641.975 395.725 641.975V641.998Z" fill="#EAA58B"/>
<path d="M395.725 488.615C393.426 489.346 391.138 490.112 388.904 490.901L397.905 497.902L395.725 488.615Z" fill="#FFB7D5"/>
<path d="M360.659 637.436C365.162 636.013 373.95 632.349 372.36 628.347C370.88 624.613 362.289 631.07 359.359 633.944C358.619 632.389 357.674 630.975 356.558 629.751C347.668 634.935 344.548 641.213 345.013 646.984H395.725C396.302 646.984 396.856 646.722 397.264 646.254C397.672 645.787 397.902 645.152 397.902 644.491V644.491C397.902 643.83 397.672 643.196 397.264 642.729C396.856 642.261 396.302 641.998 395.725 641.998H361.464C361.337 640.449 361.067 638.92 360.659 637.436V637.436Z" fill="#30242A"/>
<path d="M395.725 543.807L386.958 543.667" stroke="#A15842" stroke-width="4" stroke-miterlimit="10" stroke-linecap="round"/>
<path d="M402.244 486.911C393.161 489.564 383.454 492.819 376.099 496.335C360.412 503.86 357.868 516.213 359.393 545.18" stroke="#30242A" stroke-width="4" stroke-miterlimit="10" stroke-linecap="round"/>
<path d="M517.517 484.636H509.177V646.984H517.517V484.636Z" fill="#FFBE21"/>
<path d="M517.517 486.868H509.177" stroke="#A15842" stroke-width="4" stroke-miterlimit="10"/>
<path d="M396.537 362.556C391.783 361.779 380.893 367.632 380.534 379.202C380.174 390.773 389.192 394.491 390.635 395.319L411.562 391.597L413.005 365.151L396.537 362.556Z" fill="#30242A"/>
<path d="M422.958 328.004C423.949 328.529 415.599 305.836 411.338 309.375C407.328 312.716 417.922 325.344 422.958 328.004Z" fill="#30242A"/>
<path d="M423.419 329.393C424.329 330.637 445.633 322.101 442.685 317.177C439.867 312.44 422.509 328.144 423.419 329.393Z" fill="#30242A"/>
<path d="M451.701 391.807C451.701 391.807 466.003 378.156 456.794 362.945C450.933 353.249 434.998 357.111 434.998 357.111C435.385 351.787 436.648 336.448 426.577 328.02C416.506 319.592 403.728 324.03 399.073 330.68C394.418 337.331 395.589 349.757 394.041 358.628C392.493 367.5 393.525 373.532 398.299 376.371C402.642 378.953 407.752 377.394 407.752 377.394L407.209 386.755C407.209 386.755 397.362 387.179 391.328 389.68C376.788 395.708 351.244 437.051 351.244 437.051C335.24 436.273 320.256 435.495 320.256 435.495L328.089 462.02C328.089 462.02 347.838 469.429 362.14 465.131C376.649 460.779 390.404 437.44 390.404 437.44L395.158 453.04L386.985 479.171H458.155L446.237 454.988C448.298 433.543 451.701 391.807 451.701 391.807Z" fill="#EAA58B"/>
<path d="M428.832 385.783L410.156 424.57L402.516 387.144C399.158 387.533 394.683 388.288 391.362 389.664C376.788 395.708 351.244 437.051 351.244 437.051C335.24 436.273 320.256 435.495 320.256 435.495L328.089 462.02C328.089 462.02 347.838 469.429 362.14 465.131C376.649 460.779 390.404 437.44 390.404 437.44L395.158 453.04L386.985 479.171H458.155L446.237 454.992C448.274 433.539 451.67 391.803 451.67 391.803C448.517 389.605 445.065 388.027 441.456 387.136C437.392 386.086 432.923 386.712 428.832 385.783Z" fill="#3EC1F3"/>
<path d="M332.116 476.445H391.09L377.681 427.938C377.287 426.509 376.505 425.261 375.45 424.374C374.394 423.488 373.119 423.011 371.81 423.011H321.971C321.002 423.01 320.047 423.271 319.183 423.773C318.32 424.274 317.571 425.002 316.999 425.897C316.427 426.792 316.048 427.829 315.891 428.924C315.735 430.019 315.806 431.14 316.1 432.197L327.183 472.311C327.515 473.511 328.173 474.558 329.06 475.302C329.947 476.045 331.017 476.446 332.116 476.445V476.445Z" fill="#F2F2F2"/>
<path d="M340.904 444.954C342.469 442.504 349.569 448.975 350.092 449.508C350.364 448.975 354.062 442.508 356.771 444.954C359.125 447.077 353.953 456.563 352.578 458.982C352.52 459.056 352.45 459.114 352.371 459.154C352.293 459.195 352.207 459.215 352.121 459.215C352.035 459.215 351.95 459.195 351.871 459.154C351.793 459.114 351.722 459.056 351.665 458.982C349.155 456.563 339.546 447.077 340.904 444.954Z" fill="#A15842"/>
<path d="M349.507 446.594C350.1 446.383 350.123 444.527 349.558 442.45C348.993 440.373 348.054 438.86 347.462 439.071C346.869 439.283 346.847 441.138 347.412 443.216C347.976 445.293 348.915 446.806 349.507 446.594Z" fill="#A15842"/>
<path d="M425.334 470.985C425.505 471.612 425.545 472.277 425.45 472.925C425.355 473.573 425.129 474.187 424.79 474.717C424.45 475.247 424.006 475.678 423.495 475.975C422.983 476.273 422.417 476.428 421.844 476.43H332.116C331.017 476.43 329.947 476.029 329.06 475.286C328.173 474.543 327.515 473.495 327.183 472.295L326.816 470.969L425.334 470.985Z" fill="#30242A"/>
<path d="M531.886 476.445H269V486.195H531.886V476.445Z" fill="#FFBE21"/>
<path d="M479.422 529.876L484.882 505.416H453.032C445.936 505.417 439.042 508.122 433.438 513.107C427.833 518.091 423.836 525.07 422.078 532.944L418.377 549.512H457.341C462.402 549.512 467.32 547.582 471.318 544.026C475.316 540.471 478.167 535.492 479.422 529.876V529.876Z" fill="#FFB7D5"/>
<path d="M419.131 543.099L417.871 549.197" stroke="#A15842" stroke-width="4" stroke-linecap="round" stroke-linejoin="round"/>
<path d="M317.417 436.899C313.455 439.167 311.475 442.947 311.475 445.596C311.475 449.462 314.911 450.189 314.911 450.189C314.911 450.189 312.348 454.805 316.806 456.972C316.806 456.972 316.806 461.724 320.959 461.724C320.959 461.724 320.409 465.431 324.741 465.781C329.074 466.131 333.533 463.541 333.909 461.864C334.341 459.885 333.176 458.228 330.032 457.703C330.032 457.703 334.276 455.432 333.604 452.565C332.931 449.699 330.062 449.765 330.062 449.765C330.062 449.765 332.809 447.879 331.342 445.098C329.875 442.317 327.071 443.282 327.071 443.282C327.071 443.282 327.804 441.337 326.521 439.855C324.993 438.105 318.422 440.314 318.422 440.314L317.417 436.899Z" fill="#EAA58A"/>
<path d="M320.989 461.907C324.565 460.925 328.034 459.49 331.332 457.629" stroke="#A15842" stroke-width="4" stroke-miterlimit="10" stroke-linecap="round"/>
<path d="M316.796 456.948C321.753 455.391 326.486 453.016 330.847 449.897" stroke="#A15842" stroke-width="4" stroke-miterlimit="10" stroke-linecap="round"/>
<path d="M314.572 450.741C319.166 449.184 323.506 446.776 327.42 443.612" stroke="#A15842" stroke-width="4" stroke-miterlimit="10" stroke-linecap="round"/>
<path d="M456.811 362.945C450.95 353.249 435.015 357.112 435.015 357.112C435.402 351.787 436.665 336.448 426.594 328.02C416.523 319.592 403.745 324.03 399.09 330.68C397.195 333.403 396.268 337.066 395.729 341.065C398.819 341.66 403.352 340.442 403.352 340.442C409.548 348.427 415.1 349.695 415.1 349.695C419.436 344.728 427.042 344.892 428.278 352.417C429.562 360.231 418.665 363.743 418.665 363.743C418.665 363.743 417.647 377.783 423.08 382.854C424.747 384.368 426.719 385.38 428.815 385.799C432.889 386.728 437.375 386.102 441.47 387.144C445.078 388.035 448.531 389.613 451.684 391.811C452.928 390.556 454.065 389.168 455.079 387.665C458.651 382.477 462.923 373.057 456.811 362.945Z" fill="#30242A"/>
<path d="M409.817 337.595C407.78 339.54 405.403 340.707 402.666 341.485" stroke="#EAA58B" stroke-width="4" stroke-miterlimit="10" stroke-linecap="round"/>
<path d="M407.64 378.269C409.221 377.665 410.747 376.883 412.193 375.935" stroke="#A15842" stroke-width="4" stroke-miterlimit="10" stroke-linecap="round"/>
<path d="M419.084 355.898L422.18 353.681" stroke="#A15842" stroke-width="4" stroke-miterlimit="10" stroke-linecap="round"/>
<path d="M401.314 366.31C401.956 366.765 404.37 367.119 405.328 365.007" stroke="#A15842" stroke-width="4" stroke-miterlimit="10" stroke-linecap="round"/>
<path d="M407.623 356.33C408.265 356.33 408.785 355.734 408.785 355C408.785 354.265 408.265 353.67 407.623 353.67C406.982 353.67 406.462 354.265 406.462 355C406.462 355.734 406.982 356.33 407.623 356.33Z" fill="#30242A"/>
<path d="M397.997 354.568C398.638 354.568 399.158 353.972 399.158 353.238C399.158 352.503 398.638 351.908 397.997 351.908C397.356 351.908 396.836 352.503 396.836 353.238C396.836 353.972 397.356 354.568 397.997 354.568Z" fill="#30242A"/>
<path d="M401.267 358.376C401.036 359.212 400.836 360.122 400.968 360.425C401.15 360.81 401.426 361.125 401.763 361.331" stroke="#A15842" stroke-width="4" stroke-miterlimit="10" stroke-linecap="round"/>
<path d="M420.54 368.931C422.786 368.931 424.608 366.845 424.608 364.272C424.608 361.698 422.786 359.612 420.54 359.612C418.293 359.612 416.472 361.698 416.472 364.272C416.472 366.845 418.293 368.931 420.54 368.931Z" fill="#F5EBDD"/>
<path d="M400.971 353.986C401.674 349.843 399.605 345.896 396.349 345.17C393.092 344.444 389.882 347.215 389.178 351.358C388.475 355.501 390.544 359.448 393.8 360.173C397.057 360.899 400.267 358.129 400.971 353.986Z" stroke="#30242A" stroke-width="4" stroke-miterlimit="10" stroke-linecap="round"/>
<path d="M415.724 356.058C416.428 351.915 414.359 347.968 411.102 347.242C407.846 346.516 404.636 349.287 403.932 353.43C403.228 357.573 405.298 361.52 408.554 362.246C411.81 362.971 415.02 360.201 415.724 356.058Z" stroke="#30242A" stroke-width="4" stroke-miterlimit="10" stroke-linecap="round"/>
<path d="M401.25 353.358L403.596 353.645" stroke="#30242A" stroke-width="4" stroke-miterlimit="10" stroke-linecap="round"/>
<path d="M435.792 357.625L435.117 362.603" stroke="#30242A" stroke-width="4" stroke-miterlimit="10" stroke-linecap="round"/>
<path d="M386.662 427.301L389.949 438.257" stroke="#30242A" stroke-width="4" stroke-linecap="round" stroke-linejoin="round"/>
<path d="M404.027 452.262H395.386" stroke="#30242A" stroke-width="4" stroke-linecap="round" stroke-linejoin="round"/>
<path d="M410.839 424.182L413.562 439.392V453.432" stroke="#30242A" stroke-width="4" stroke-linecap="round" stroke-linejoin="round"/>
<path d="M392.727 389.326L397.898 402.728L391.769 401.951L413.562 439.392" stroke="#30242A" stroke-width="4" stroke-linecap="round" stroke-linejoin="round"/>
<path d="M443.113 387.731L434.336 401.951L442.509 401.169L412.54 431.591" stroke="#30242A" stroke-width="4" stroke-linecap="round" stroke-linejoin="round"/>
<path d="M447.677 435.41L441.147 424.963" stroke="#30242A" stroke-width="4" stroke-linecap="round" stroke-linejoin="round"/>
<path d="M455.232 473.913C451.677 472.556 445.297 469.934 441.45 467.301" stroke="#30242A" stroke-width="4" stroke-linecap="round" stroke-linejoin="round"/>
<path d="M561 617.78V617.733L551.808 620.456L560.885 617.799L561 617.78Z" fill="#30242A"/>
<path d="M441.487 441.893C437.297 441.463 433.083 441.41 428.886 441.734C422.883 442.298 414.812 444.098 411.569 445.895C408.326 447.692 395.909 454.035 399.253 456.163C402.309 458.107 408.72 455.183 408.72 455.183C408.72 455.183 402.323 461.919 401.223 464.738C400.123 467.558 403.759 469.141 403.759 469.141C404.717 473.956 409.002 471.887 409.002 471.887C411.701 478.464 426.285 464.213 426.285 464.213C429.755 464.626 433.258 464.457 436.686 463.712C436.686 463.712 438.533 464.898 441.497 466.547L441.487 441.893Z" fill="#EAA58A"/>
<path d="M477.921 474.885C505.163 460.064 465.673 404.685 451.701 391.807L443.871 428.082L453.745 443.682C449.419 442.826 445.283 442.239 441.487 441.893V466.547C450.132 471.362 468.298 480.136 477.921 474.885Z" fill="#3EC1F3"/>
<path d="M407.416 455.591C409.834 453.3 413.847 449.598 416.842 447.365" stroke="#A15842" stroke-width="4" stroke-miterlimit="10" stroke-linecap="round"/>
<path d="M420.142 452.837C413.185 457.998 406.846 464.894 403.708 468.503" stroke="#A15842" stroke-width="4" stroke-miterlimit="10" stroke-linecap="round"/>
<path d="M423.229 458.675C418.476 462.413 412.958 468.079 409.355 471.969" stroke="#A15842" stroke-width="4" stroke-miterlimit="10" stroke-linecap="round"/>
<path d="M504.96 456.579C505.475 456.58 505.968 456.815 506.332 457.232C506.696 457.649 506.901 458.214 506.902 458.804V459.134C506.901 459.724 506.696 460.289 506.332 460.706C505.968 461.123 505.475 461.358 504.96 461.359H494.953V456.579H504.96ZM504.96 453.468H492.604C492.555 453.468 492.507 453.479 492.462 453.5C492.418 453.521 492.377 453.553 492.343 453.592C492.309 453.631 492.282 453.678 492.264 453.73C492.246 453.781 492.236 453.836 492.237 453.891V464.062C492.237 464.173 492.275 464.28 492.344 464.359C492.413 464.438 492.506 464.482 492.604 464.482H504.96C505.572 464.482 506.179 464.343 506.745 464.075C507.311 463.806 507.825 463.412 508.258 462.915C508.69 462.418 509.033 461.828 509.267 461.18C509.5 460.531 509.62 459.836 509.618 459.134V458.792C509.618 457.377 509.128 456.019 508.254 455.019C507.38 454.018 506.195 453.456 504.96 453.456V453.468Z" fill="#3EC1F3"/>
<path d="M490.02 451.791C479.901 451.791 475.225 442.554 475.225 442.554L482.016 476.445H498.003L504.794 442.554C503.216 445.402 501.033 447.744 498.449 449.36C495.864 450.975 492.964 451.812 490.02 451.791Z" fill="#4756DF"/>
<path d="M490.02 451.791C492.967 451.816 495.872 450.981 498.46 449.365C501.048 447.749 503.235 445.405 504.814 442.554H475.225C475.225 442.554 479.901 451.791 490.02 451.791Z" fill="#30242A"/>
</svg>
