<svg width="548" height="414" viewBox="0 0 548 414" fill="none" xmlns="http://www.w3.org/2000/svg">
<rect width="548" height="414" fill="#E5E5E5"/>
<rect width="548" height="414" fill="white"/>
<path fill-rule="evenodd" clip-rule="evenodd" d="M511.14 118.924C510.745 118.688 509.808 118.604 509.372 118.533C507.559 118.24 505.692 118.112 503.845 118.112C498.148 118.119 492.358 118.579 486.756 119.374C483.198 119.879 478.898 121.579 475.36 120.656C469.195 119.048 462.965 119.127 457.116 121.423C451.769 123.523 447.71 127.511 445.341 131.821C444.984 132.471 443.534 134.866 443.123 136.48C442.948 136.81 442.779 137.142 442.627 137.479C442.196 138.437 441.809 139.411 441.449 140.387C441.296 140.804 440.91 141.723 441.368 141.901C440.635 143.013 439.986 144.159 439.445 145.342C437.871 148.783 436.15 152.558 435.597 156.204C435.393 157.555 435.385 158.913 435.575 160.266C435.669 160.935 435.63 162.28 436.182 162.788C437.352 163.867 437.953 162.357 437.821 161.637C436.813 156.154 438.759 151.005 441.065 145.85C442.556 142.517 445.005 139.468 447.75 136.707C449.971 134.472 452.353 132.711 455.398 131.229C459.121 129.417 463.101 127.952 467.045 126.482C469.639 125.515 472.236 124.574 474.902 123.741C475.495 123.556 476.428 123.081 477.085 123.079C478.475 123.075 480.445 123.918 481.788 124.232C486.205 125.264 490.678 126.586 495.243 127.113C498.17 127.452 500.913 127.071 503.652 126.269C503.931 126.187 504.4 125.976 504.975 125.676C507.008 125.033 508.931 124.224 510.605 123.056C511.57 122.384 512.446 121.514 513.244 120.719C513.483 120.481 513.588 120.208 513.592 119.949C513.773 119.872 513.893 119.781 513.92 119.675C514.119 118.892 512.303 118.877 511.14 118.924Z" fill="#89C5CC"/>
<path fill-rule="evenodd" clip-rule="evenodd" d="M48.3376 184.194C47.2199 184.938 46.1237 185.698 45.0542 186.489C44.2391 187.092 42.7966 187.813 42.504 188.726C42.1999 189.675 43.1601 190.563 43.9187 191.137C47.9303 194.171 52.4474 196.223 58.006 196.564C66.565 197.089 74.0139 195.292 81.4399 191.757C86.6564 189.273 90.1117 185.599 90.8663 180.638C97.0786 182.761 103.087 185.687 108.193 189.278C110.712 191.049 112.882 193.012 114.889 195.188C116.174 196.582 117.418 197.999 118.572 199.469C119.073 200.108 119.583 201.242 120.411 201.61C121.383 202.042 122.558 201.364 122.51 200.476C122.47 199.736 121.499 198.878 121.045 198.274C120.29 197.27 119.524 196.272 118.718 195.296C117.413 193.715 116.065 192.157 114.594 190.677C111.289 187.354 107.083 184.608 102.724 182.266C94.3599 177.775 85.181 174.945 75.0043 174.705C68.7468 174.558 63.4827 176.315 58.1315 178.94C54.7999 180.574 51.3608 182.181 48.3376 184.194Z" fill="#3EC1F3"/>
<path fill-rule="evenodd" clip-rule="evenodd" d="M129.508 162.468C122.987 156.947 116.444 151.495 109.158 146.633C104.865 143.768 100.339 141.163 95.9078 138.447C96.4193 138.815 96.9207 139.194 97.4102 139.582C96.0269 138.81 94.216 138.374 92.7494 137.659C91.1136 136.862 89.5499 135.951 88.0161 135.032C85.0222 133.238 82.0732 131.41 78.9958 129.71C75.567 127.817 72.0135 126.067 68.5264 124.244C65.5669 122.697 62.5711 121.004 59.405 119.74C57.6794 119.051 55.9498 118.234 54.2171 117.515C53.6372 117.275 47.7531 114.22 47.7679 114.211C48.0932 114.009 51.0542 115.153 51.512 115.307C52.8497 115.756 54.1289 116.293 55.415 116.829C54.7091 115.684 54.1503 114.482 53.8461 113.216C53.7522 112.825 52.9994 109.98 53.3846 109.742C53.577 109.623 55.4542 114.712 55.5504 115.201C55.6285 115.599 55.617 116.171 55.7753 116.547C56.0308 117.155 56.0179 116.972 56.5807 117.314C57.6123 117.942 58.9817 118.334 60.0982 118.859C60.7003 119.135 62.5643 120.231 63.6871 120.543C67.0843 121.9 70.5278 123.987 73.7556 125.719C72.9085 124.41 72.2638 123.042 71.7937 121.607C71.6818 121.267 70.4754 118.212 70.7681 118.031C71.0975 117.827 73.3962 122.492 73.5324 122.934C73.7853 123.754 73.8378 124.667 74.1545 125.466C74.5022 126.342 75.5868 126.652 76.5646 127.163C80.1616 129.042 83.6351 131.038 87.0508 133.127C90.7777 127.677 86.4805 121.097 82.8587 116.524C80.2482 113.229 76.7338 110.404 73.023 107.938C68.0707 104.646 62.4046 102.016 56.7454 99.611C50.1514 96.8083 43.0244 95.0717 35.615 94.2695C31.7398 93.8498 27.7752 93.8616 23.8608 93.9961C21.9486 94.0617 20.1132 94.27 18.2807 94.7827C17.4548 95.0141 16.6566 95.3056 15.8787 95.6321C15.2877 95.8801 13.858 96.142 13.5182 96.5116C10.721 99.5048 9.2899 102.487 9.50843 106.249C9.71508 109.809 11.0829 113.372 12.9391 116.548C15.0063 120.084 17.665 123.294 21.1422 125.988C23.7951 128.043 26.7611 129.832 29.7075 131.597C40.1869 137.876 53.4731 143.337 67.0458 141.934C71.4393 141.48 75.6181 140.217 79.5232 138.5C80.4434 138.096 81.358 137.687 82.2266 137.209C82.8123 136.887 84.3779 135.436 84.9668 135.384C85.7742 135.312 87.5136 136.662 88.2711 137.073C94.0279 140.197 99.6338 143.49 105.122 146.917C110.962 150.563 116.514 154.457 121.904 158.534C124.196 160.268 126.474 162.006 128.7 163.798C129.218 164.215 130.485 165.751 131.424 165.82C132.018 165.864 132.419 165.447 132.334 164.995C132.187 164.209 130.176 163.033 129.508 162.468Z" fill="#63CC94"/>
<path fill-rule="evenodd" clip-rule="evenodd" d="M504.294 141.04C501.768 140.586 498.979 140.621 496.406 140.658C482.607 140.813 469.057 146.184 460.238 154.766C452.73 162.072 450.666 171.155 449.183 180.338C449.036 181.249 448.972 182.155 448.89 183.069C448.872 183.265 448.845 183.44 448.817 183.604C448.233 184.033 447.927 184.533 448.273 185.082C446.988 187.394 445.901 189.764 444.968 192.209C442.223 199.406 439.431 206.739 441.151 214.306C441.553 210.142 442.398 205.883 443.409 201.787C443.467 201.552 443.53 201.319 443.595 201.086C443.602 201.062 443.608 201.037 443.615 201.013C443.973 199.759 444.438 198.542 445.004 197.344C445.01 197.331 445.015 197.318 445.022 197.306C445.096 197.148 445.176 196.991 445.254 196.834C445.416 196.51 445.582 196.186 445.759 195.864C445.819 195.754 445.876 195.643 445.931 195.531C446.755 193.872 447.102 192.002 447.84 190.285C448.017 189.894 448.201 189.505 448.395 189.118C448.406 189.096 448.418 189.073 448.429 189.05C448.952 188.009 449.529 186.981 450.14 185.963C450.471 185.758 450.649 185.249 450.935 184.787C450.994 184.696 451.457 184.089 451.594 183.739C451.954 183.167 452.312 182.595 452.674 182.024C452.663 182.028 452.652 182.031 452.642 182.034C453.004 181.486 453.367 180.94 453.728 180.397C453.807 180.278 453.887 180.158 453.967 180.038C454.096 179.848 454.226 179.657 454.355 179.467C455.564 177.689 456.845 175.946 458.176 174.225C458.651 173.611 459.786 172.73 460.004 172.04C460.012 172.015 460.014 171.991 460.019 171.966C462.907 168.632 466.231 165.556 470.218 163.119C469.736 163.547 468.712 165 468.441 165.288C467.612 166.169 466.713 166.989 465.809 167.82C464.192 169.307 462.612 170.841 461.209 172.464C458.643 175.431 456.429 178.554 454.336 181.74C454.316 181.758 454.294 181.776 454.276 181.795C453.224 182.861 452.562 184.472 451.804 185.692C454.801 184.551 458.114 183.807 461.19 182.794C464.257 181.784 467.24 180.659 470.12 179.338C473.948 177.583 477.92 175.601 481.537 173.358C485.682 171.244 489.165 168.335 492.239 165.281C495.877 161.669 499.211 158.025 501.273 153.638C502.286 151.483 503.082 149.235 503.555 146.962C503.575 146.863 503.602 146.755 503.631 146.643C504.114 145.858 504.546 145.055 504.908 144.234C505.484 142.931 506.844 141.498 504.294 141.04Z" fill="#69A1AC"/>
<path fill-rule="evenodd" clip-rule="evenodd" d="M76.282 156.302C75.4906 155.598 74.6019 154.963 73.5584 154.509C73.2946 154.395 71.3295 153.627 71.2015 153.796C70.9034 154.188 76.0443 156.078 76.282 156.302ZM85.5989 151.597C85.5924 151.627 86.2739 152.577 86.4593 152.87C86.8542 153.491 87.2187 154.125 87.5617 154.759C87.0539 153.638 86.5323 152.598 85.5989 151.597ZM37.9491 159.335C37.2929 159.508 36.5038 158.823 37.3551 158.655C38.0438 158.519 38.01 158.487 38.3193 158.031C38.5704 157.661 38.7251 157.209 38.9455 156.821C39.4129 155.996 39.9432 155.21 40.594 154.473C41.9889 152.894 43.6884 151.533 45.5945 150.386C48.9211 148.385 52.6509 146.556 56.6075 145.637C62.8985 144.176 70.0586 144.086 76.3594 145.099C80.2617 145.726 83.828 146.817 86.4192 149.4C87.7143 150.691 88.7309 152.203 89.1753 153.869C89.2912 154.304 89.2696 154.788 89.4147 155.214C89.6379 155.87 89.5394 155.695 90.4716 155.823C91.4895 155.962 92.5065 156.104 93.5232 156.248C96.1853 156.627 98.863 157.029 101.457 157.643C102.311 157.845 103.146 158.092 103.961 158.379C104.578 158.596 107.035 159.277 107.333 159.936C107.83 161.032 106.165 160.535 105.648 160.297C105.195 160.088 104.729 159.892 104.257 159.713C103.069 159.261 101.831 158.911 100.565 158.633C99.1963 158.332 97.8 158.107 96.4091 157.882C95.1119 157.673 93.81 157.482 92.5063 157.3C91.7821 157.198 91.0573 157.1 90.3324 157.001C90.0848 156.968 89.6481 156.791 89.6812 157.056C88.1573 156.815 86.5093 156.85 84.9571 156.783C83.0558 156.701 81.1476 156.635 79.24 156.683C77.8642 156.719 76.4871 156.793 75.1183 156.945C74.3185 157.034 73.5314 157.164 72.7466 157.328C72.3156 157.419 70.6157 157.61 70.3809 157.919C70.4818 157.787 72.3578 157.915 72.5966 157.908C73.5517 157.878 74.4993 157.8 75.4509 157.713C77.2167 157.551 78.9833 157.466 80.7545 157.479C80.7478 157.734 79.5379 158.19 79.2425 158.359C78.5803 158.739 77.946 159.153 77.3543 159.608C76.3118 160.409 75.0636 161.401 74.3426 162.349C74.5551 162.07 75.6034 161.706 75.9754 161.492C76.5714 161.15 77.1552 160.785 77.7076 160.394C78.2176 160.034 78.6935 159.645 79.1615 159.247C79.6294 158.849 80.2645 158.022 80.8795 157.757C80.9166 157.741 81.1846 157.915 81.3369 157.856C81.4903 157.796 81.6816 157.498 81.7205 157.486C82.2929 157.304 83.38 157.53 83.9817 157.553C85.5423 157.612 87.1013 157.689 88.6608 157.76C89.1439 157.782 89.5544 157.692 89.7369 157.984C89.9313 158.297 89.5751 159.118 89.4737 159.459C89.0977 160.723 88.4299 161.856 87.3786 162.835C85.41 164.669 82.9824 165.892 80.24 166.71C69.7358 169.843 58.5607 171.098 48.0597 167.839C43.7124 166.49 37.1652 164.078 37.9491 159.335Z" fill="#89C5CC"/>
<g opacity="0.6">
<path opacity="0.6" fill-rule="evenodd" clip-rule="evenodd" d="M518.905 306.94C526.051 346.711 352.747 372.652 203.58 354.548C54.4136 336.444 -14.0171 265.748 57.1628 228.077C128.343 190.407 511.759 267.169 518.905 306.94Z" fill="#FFBE21"/>
</g>
<path d="M214.016 46.2706H108.119C104.847 46.2706 102.195 48.4512 102.195 51.1412V225.265C102.195 227.955 104.847 230.135 108.119 230.135H214.016C217.288 230.135 219.941 227.955 219.941 225.265V51.1412C219.941 48.4512 217.288 46.2706 214.016 46.2706Z" fill="#89C5CC"/>
<path d="M160.697 218.568C166.832 218.568 171.805 214.479 171.805 209.435C171.805 204.392 166.832 200.303 160.697 200.303C154.562 200.303 149.589 204.392 149.589 209.435C149.589 214.479 154.562 218.568 160.697 218.568Z" fill="white"/>
<path d="M151.07 58.447C151.888 58.447 152.551 57.9019 152.551 57.2294C152.551 56.5569 151.888 56.0118 151.07 56.0118C150.252 56.0118 149.589 56.5569 149.589 57.2294C149.589 57.9019 150.252 58.447 151.07 58.447Z" fill="white"/>
<path d="M170.324 56.0118H157.735C156.917 56.0118 156.254 56.5569 156.254 57.2294C156.254 57.9019 156.917 58.447 157.735 58.447H170.324C171.142 58.447 171.805 57.9019 171.805 57.2294C171.805 56.5569 171.142 56.0118 170.324 56.0118Z" fill="white"/>
<path d="M206.611 63.3176H115.524C113.888 63.3176 112.562 64.408 112.562 65.7529V93.7588C112.562 95.1038 113.888 96.1941 115.524 96.1941H206.611C208.247 96.1941 209.573 95.1038 209.573 93.7588V65.7529C209.573 64.408 208.247 63.3176 206.611 63.3176Z" fill="white"/>
<path d="M193.281 73.1806H143.665C142.438 73.1806 141.443 73.9983 141.443 75.0071V76.2856C141.443 77.2943 142.438 78.1121 143.665 78.1121H193.281C194.508 78.1121 195.503 77.2943 195.503 76.2856V75.0071C195.503 73.9983 194.508 73.1806 193.281 73.1806Z" fill="#DDE3E9"/>
<path d="M175.508 81.3997H143.665C142.438 81.3997 141.443 82.2174 141.443 83.2262V84.5047C141.443 85.5134 142.438 86.3312 143.665 86.3312H175.508C176.735 86.3312 177.73 85.5134 177.73 84.5047V83.2262C177.73 82.2174 176.735 81.3997 175.508 81.3997Z" fill="#DDE3E9"/>
<path d="M128.114 87.0618C133.021 87.0618 137 83.7908 137 79.7559C137 75.721 133.021 72.45 128.114 72.45C123.206 72.45 119.227 75.721 119.227 79.7559C119.227 83.7908 123.206 87.0618 128.114 87.0618Z" fill="#C5CFD6"/>
<path d="M206.611 101.065H115.524C113.888 101.065 112.562 102.155 112.562 103.5V124.2C112.562 125.545 113.888 126.635 115.524 126.635H206.611C208.247 126.635 209.573 125.545 209.573 124.2V103.5C209.573 102.155 208.247 101.065 206.611 101.065Z" fill="white"/>
<path d="M193.281 108.736H143.665C142.438 108.736 141.443 109.554 141.443 110.562V110.745C141.443 111.754 142.438 112.571 143.665 112.571H193.281C194.508 112.571 195.503 111.754 195.503 110.745V110.562C195.503 109.554 194.508 108.736 193.281 108.736Z" fill="#DDE3E9"/>
<path d="M175.508 115.129H143.665C142.438 115.129 141.443 115.946 141.443 116.955V117.138C141.443 118.146 142.438 118.964 143.665 118.964H175.508C176.735 118.964 177.73 118.146 177.73 117.138V116.955C177.73 115.946 176.735 115.129 175.508 115.129Z" fill="#DDE3E9"/>
<path d="M128.114 121.156C133.021 121.156 137 117.885 137 113.85C137 109.815 133.021 106.544 128.114 106.544C123.206 106.544 119.227 109.815 119.227 113.85C119.227 117.885 123.206 121.156 128.114 121.156Z" fill="#C5CFD6"/>
<path d="M206.611 131.506H115.524C113.888 131.506 112.562 132.596 112.562 133.941V154.641C112.562 155.986 113.888 157.076 115.524 157.076H206.611C208.247 157.076 209.573 155.986 209.573 154.641V133.941C209.573 132.596 208.247 131.506 206.611 131.506Z" fill="white"/>
<path d="M193.281 139.177H143.665C142.438 139.177 141.443 139.995 141.443 141.004V141.186C141.443 142.195 142.438 143.013 143.665 143.013H193.281C194.508 143.013 195.503 142.195 195.503 141.186V141.004C195.503 139.995 194.508 139.177 193.281 139.177Z" fill="#DDE3E9"/>
<path d="M175.508 145.57H143.665C142.438 145.57 141.443 146.387 141.443 147.396V147.579C141.443 148.588 142.438 149.405 143.665 149.405H175.508C176.735 149.405 177.73 148.588 177.73 147.579V147.396C177.73 146.387 176.735 145.57 175.508 145.57Z" fill="#DDE3E9"/>
<path d="M128.114 151.597C133.021 151.597 137 148.326 137 144.291C137 140.256 133.021 136.985 128.114 136.985C123.206 136.985 119.227 140.256 119.227 144.291C119.227 148.326 123.206 151.597 128.114 151.597Z" fill="#AFB9C5"/>
<path d="M206.611 161.947H115.524C113.888 161.947 112.562 163.037 112.562 164.382V185.082C112.562 186.427 113.888 187.518 115.524 187.518H206.611C208.247 187.518 209.573 186.427 209.573 185.082V164.382C209.573 163.037 208.247 161.947 206.611 161.947Z" fill="white"/>
<path d="M193.281 169.618H143.665C142.438 169.618 141.443 170.436 141.443 171.445V171.627C141.443 172.636 142.438 173.454 143.665 173.454H193.281C194.508 173.454 195.503 172.636 195.503 171.627V171.445C195.503 170.436 194.508 169.618 193.281 169.618Z" fill="#DDE3E9"/>
<path d="M175.508 176.011H143.665C142.438 176.011 141.443 176.829 141.443 177.837V178.02C141.443 179.029 142.438 179.846 143.665 179.846H175.508C176.735 179.846 177.73 179.029 177.73 178.02V177.837C177.73 176.829 176.735 176.011 175.508 176.011Z" fill="#DDE3E9"/>
<path d="M128.114 182.038C133.021 182.038 137 178.767 137 174.732C137 170.697 133.021 167.426 128.114 167.426C123.206 167.426 119.227 170.697 119.227 174.732C119.227 178.767 123.206 182.038 128.114 182.038Z" fill="#C5CFD6"/>
<path fill-rule="evenodd" clip-rule="evenodd" d="M124.514 194.824C123.533 194.824 122.555 194.84 121.575 194.882C120.828 194.914 119.687 194.786 119.055 195.169C118.398 195.567 118.444 196.38 118.546 196.955C119.088 199.994 120.412 202.689 123.181 204.842C127.444 208.157 132.331 209.842 138.114 210.592C142.176 211.119 145.926 210.387 148.917 208.012C151.102 211.346 152.759 215.036 153.591 218.759C154.001 220.597 154.127 222.412 154.054 224.283C154.008 225.481 153.928 226.677 153.771 227.87C153.704 228.388 153.382 229.172 153.629 229.662C153.919 230.237 154.895 230.293 155.334 229.803C155.699 229.394 155.632 228.593 155.707 228.11C155.831 227.307 155.946 226.504 156.028 225.698C156.162 224.393 156.261 223.085 156.254 221.775C156.237 218.833 155.441 215.878 154.353 213.085C152.264 207.726 148.876 202.963 143.606 199.226C140.366 196.928 136.657 195.998 132.45 195.498C129.83 195.187 127.168 194.824 124.514 194.824Z" fill="#89C5CC"/>
<path fill-rule="evenodd" clip-rule="evenodd" d="M139.645 216.132C129.056 216.132 121.924 223.149 118.552 230.441C117.281 233.189 116.983 236.208 116.493 239.094C116.336 240.02 116.394 241.431 115.937 242.256C115.771 242.556 115.391 242.663 115.572 243.071C115.683 243.318 115.899 243.469 116.223 243.518C116.889 243.619 117.831 243.022 118.402 242.787C123.138 240.834 126.251 237.814 128.789 234.12C130.363 231.83 131.96 229.453 132.895 226.939C133.466 225.403 133.798 223.786 133.993 222.193C134.07 221.565 134.144 220.923 134.14 220.292C134.135 219.665 133.781 219.334 133.526 218.789C137.059 217.69 141.048 217.39 144.627 218.529C147.937 219.583 150.687 221.62 152.226 224.178C152.626 224.843 152.935 225.545 153.16 226.261C153.307 226.729 153.314 227.337 153.586 227.761C154.247 228.788 155.638 228.102 155.505 227.145C155.132 224.478 153.276 221.8 150.904 219.945C147.911 217.606 143.856 216.132 139.645 216.132Z" fill="#89C5CC"/>
<path d="M262.892 62.1H156.995C153.723 62.1 151.07 64.2806 151.07 66.9706V241.094C151.07 243.784 153.723 245.965 156.995 245.965H262.892C266.164 245.965 268.816 243.784 268.816 241.094V66.9706C268.816 64.2806 266.164 62.1 262.892 62.1Z" fill="#E24C82"/>
<path d="M209.573 234.397C215.708 234.397 220.681 230.308 220.681 225.265C220.681 220.221 215.708 216.132 209.573 216.132C203.438 216.132 198.465 220.221 198.465 225.265C198.465 230.308 203.438 234.397 209.573 234.397Z" fill="white"/>
<path d="M199.946 74.2765C200.764 74.2765 201.427 73.7313 201.427 73.0588C201.427 72.3863 200.764 71.8412 199.946 71.8412C199.128 71.8412 198.465 72.3863 198.465 73.0588C198.465 73.7313 199.128 74.2765 199.946 74.2765Z" fill="white"/>
<path d="M219.2 71.8412H206.611C205.793 71.8412 205.13 72.3863 205.13 73.0588C205.13 73.7313 205.793 74.2765 206.611 74.2765H219.2C220.018 74.2765 220.681 73.7313 220.681 73.0588C220.681 72.3863 220.018 71.8412 219.2 71.8412Z" fill="white"/>
<path d="M255.487 79.147H164.4C162.764 79.147 161.438 80.2374 161.438 81.5823V109.588C161.438 110.933 162.764 112.024 164.4 112.024H255.487C257.122 112.024 258.449 110.933 258.449 109.588V81.5823C258.449 80.2374 257.122 79.147 255.487 79.147Z" fill="white"/>
<path d="M219.941 89.01H170.324C169.097 89.01 168.103 89.8277 168.103 90.8365V92.115C168.103 93.1237 169.097 93.9415 170.324 93.9415H219.941C221.167 93.9415 222.162 93.1237 222.162 92.115V90.8365C222.162 89.8277 221.167 89.01 219.941 89.01Z" fill="#DDE3E9"/>
<path d="M202.168 97.2291H170.324C169.097 97.2291 168.103 98.0469 168.103 99.0556V100.334C168.103 101.343 169.097 102.161 170.324 102.161H202.168C203.395 102.161 204.389 101.343 204.389 100.334V99.0556C204.389 98.0469 203.395 97.2291 202.168 97.2291Z" fill="#DDE3E9"/>
<path d="M248.081 99.8471C250.944 99.8471 253.265 97.939 253.265 95.5853C253.265 93.2316 250.944 91.3235 248.081 91.3235C245.218 91.3235 242.897 93.2316 242.897 95.5853C242.897 97.939 245.218 99.8471 248.081 99.8471Z" fill="#DDE3E9"/>
<path d="M248.081 97.4118C249.308 97.4118 250.303 96.594 250.303 95.5853C250.303 94.5766 249.308 93.7588 248.081 93.7588C246.854 93.7588 245.859 94.5766 245.859 95.5853C245.859 96.594 246.854 97.4118 248.081 97.4118Z" fill="#F2F2F2"/>
<path d="M255.487 116.894H164.4C162.764 116.894 161.438 117.984 161.438 119.329V140.029C161.438 141.374 162.764 142.465 164.4 142.465H255.487C257.122 142.465 258.449 141.374 258.449 140.029V119.329C258.449 117.984 257.122 116.894 255.487 116.894Z" fill="white"/>
<path d="M242.157 124.565H192.541C191.314 124.565 190.319 125.383 190.319 126.392V126.574C190.319 127.583 191.314 128.401 192.541 128.401H242.157C243.384 128.401 244.378 127.583 244.378 126.574V126.392C244.378 125.383 243.384 124.565 242.157 124.565Z" fill="#DDE3E9"/>
<path d="M224.384 130.958H192.541C191.314 130.958 190.319 131.776 190.319 132.784V132.967C190.319 133.976 191.314 134.794 192.541 134.794H224.384C225.611 134.794 226.605 133.976 226.605 132.967V132.784C226.605 131.776 225.611 130.958 224.384 130.958Z" fill="#DDE3E9"/>
<path d="M176.989 136.985C181.897 136.985 185.876 133.714 185.876 129.679C185.876 125.644 181.897 122.374 176.989 122.374C172.081 122.374 168.103 125.644 168.103 129.679C168.103 133.714 172.081 136.985 176.989 136.985Z" fill="#C5CFD6"/>
<path d="M255.487 147.335H164.4C162.764 147.335 161.438 148.426 161.438 149.771V170.471C161.438 171.816 162.764 172.906 164.4 172.906H255.487C257.122 172.906 258.449 171.816 258.449 170.471V149.771C258.449 148.426 257.122 147.335 255.487 147.335Z" fill="white"/>
<path d="M219.941 155.006H170.324C169.097 155.006 168.103 155.824 168.103 156.833V157.016C168.103 158.024 169.097 158.842 170.324 158.842H219.941C221.167 158.842 222.162 158.024 222.162 157.016V156.833C222.162 155.824 221.167 155.006 219.941 155.006Z" fill="#DDE3E9"/>
<path d="M202.168 161.399H170.324C169.097 161.399 168.103 162.217 168.103 163.226V163.408C168.103 164.417 169.097 165.235 170.324 165.235H202.168C203.395 165.235 204.389 164.417 204.389 163.408V163.226C204.389 162.217 203.395 161.399 202.168 161.399Z" fill="#AFB9C5"/>
<path d="M248.081 164.382C250.944 164.382 253.265 162.474 253.265 160.121C253.265 157.767 250.944 155.859 248.081 155.859C245.218 155.859 242.897 157.767 242.897 160.121C242.897 162.474 245.218 164.382 248.081 164.382Z" fill="#DDE3E9"/>
<path d="M248.081 161.947C249.308 161.947 250.303 161.129 250.303 160.121C250.303 159.112 249.308 158.294 248.081 158.294C246.854 158.294 245.859 159.112 245.859 160.121C245.859 161.129 246.854 161.947 248.081 161.947Z" fill="#F2F2F2"/>
<path d="M255.487 177.776H164.4C162.764 177.776 161.438 178.867 161.438 180.212V200.912C161.438 202.257 162.764 203.347 164.4 203.347H255.487C257.122 203.347 258.449 202.257 258.449 200.912V180.212C258.449 178.867 257.122 177.776 255.487 177.776Z" fill="white"/>
<path d="M242.157 185.448H192.541C191.314 185.448 190.319 186.265 190.319 187.274V187.457C190.319 188.465 191.314 189.283 192.541 189.283H242.157C243.384 189.283 244.378 188.465 244.378 187.457V187.274C244.378 186.265 243.384 185.448 242.157 185.448Z" fill="#DDE3E9"/>
<path d="M224.384 191.84H192.541C191.314 191.84 190.319 192.658 190.319 193.667V193.849C190.319 194.858 191.314 195.676 192.541 195.676H224.384C225.611 195.676 226.605 194.858 226.605 193.849V193.667C226.605 192.658 225.611 191.84 224.384 191.84Z" fill="#DDE3E9"/>
<path d="M176.989 197.868C181.897 197.868 185.876 194.597 185.876 190.562C185.876 186.527 181.897 183.256 176.989 183.256C172.081 183.256 168.103 186.527 168.103 190.562C168.103 194.597 172.081 197.868 176.989 197.868Z" fill="#C5CFD6"/>
<path d="M442.103 77.3206H205.87C202.598 77.3206 199.946 79.5012 199.946 82.1912V283.103C199.946 285.793 202.598 287.974 205.87 287.974H442.103C445.375 287.974 448.027 285.793 448.027 283.103V82.1912C448.027 79.5012 445.375 77.3206 442.103 77.3206Z" fill="#F2F2F2"/>
<path d="M430.254 103.5H390.265C386.993 103.5 384.341 105.681 384.341 108.371V147.944C384.341 150.634 386.993 152.815 390.265 152.815H430.254C433.526 152.815 436.178 150.634 436.178 147.944V108.371C436.178 105.681 433.526 103.5 430.254 103.5Z" fill="white"/>
<path d="M410.259 132.115C416.803 132.115 422.108 127.753 422.108 122.374C422.108 116.994 416.803 112.632 410.259 112.632C403.716 112.632 398.411 116.994 398.411 122.374C398.411 127.753 403.716 132.115 410.259 132.115Z" fill="#4756DF"/>
<path d="M426.551 134.55H393.968C392.741 134.55 391.746 135.368 391.746 136.376C391.746 137.385 392.741 138.203 393.968 138.203H426.551C427.778 138.203 428.773 137.385 428.773 136.376C428.773 135.368 427.778 134.55 426.551 134.55Z" fill="#DDE3E9"/>
<path d="M420.627 140.638H399.892C398.665 140.638 397.67 141.456 397.67 142.465C397.67 143.473 398.665 144.291 399.892 144.291H420.627C421.854 144.291 422.849 143.473 422.849 142.465C422.849 141.456 421.854 140.638 420.627 140.638Z" fill="#DDE3E9"/>
<path fill-rule="evenodd" clip-rule="evenodd" d="M205.87 77.3206H442.103C445.375 77.3206 448.027 79.5012 448.027 82.1912V93.7588H199.946V82.1912C199.946 79.5012 202.598 77.3206 205.87 77.3206Z" fill="#3EC1F3"/>
<path d="M209.573 88.2794C211.209 88.2794 212.535 87.1891 212.535 85.8441C212.535 84.4991 211.209 83.4088 209.573 83.4088C207.937 83.4088 206.611 84.4991 206.611 85.8441C206.611 87.1891 207.937 88.2794 209.573 88.2794Z" fill="#F2F2F2"/>
<path d="M218.459 88.2794C220.095 88.2794 221.422 87.1891 221.422 85.8441C221.422 84.4991 220.095 83.4088 218.459 83.4088C216.824 83.4088 215.497 84.4991 215.497 85.8441C215.497 87.1891 216.824 88.2794 218.459 88.2794Z" fill="#F2F2F2"/>
<path d="M227.346 88.2794C228.982 88.2794 230.308 87.1891 230.308 85.8441C230.308 84.4991 228.982 83.4088 227.346 83.4088C225.71 83.4088 224.384 84.4991 224.384 85.8441C224.384 87.1891 225.71 88.2794 227.346 88.2794Z" fill="#F2F2F2"/>
<path d="M430.254 157.685H390.265C386.993 157.685 384.341 159.866 384.341 162.556V270.926C384.341 273.616 386.993 275.797 390.265 275.797H430.254C433.526 275.797 436.178 273.616 436.178 270.926V162.556C436.178 159.866 433.526 157.685 430.254 157.685Z" fill="white"/>
<path d="M419.887 168.644H400.632C398.996 168.644 397.67 169.734 397.67 171.079V182.038C397.67 183.383 398.996 184.474 400.632 184.474H419.887C421.522 184.474 422.849 183.383 422.849 182.038V171.079C422.849 169.734 421.522 168.644 419.887 168.644Z" fill="#FFBE21"/>
<path d="M419.887 189.344H400.632C398.996 189.344 397.67 190.434 397.67 191.779V202.129C397.67 203.474 398.996 204.565 400.632 204.565H419.887C421.522 204.565 422.849 203.474 422.849 202.129V191.779C422.849 190.434 421.522 189.344 419.887 189.344Z" fill="#E24C82"/>
<path d="M419.887 209.435H400.632C398.996 209.435 397.67 210.526 397.67 211.871V222.221C397.67 223.566 398.996 224.656 400.632 224.656H419.887C421.522 224.656 422.849 223.566 422.849 222.221V211.871C422.849 210.526 421.522 209.435 419.887 209.435Z" fill="#89C5CC"/>
<path d="M419.887 249.618H400.632C398.996 249.618 397.67 250.708 397.67 252.053V262.403C397.67 263.748 398.996 264.838 400.632 264.838H419.887C421.522 264.838 422.849 263.748 422.849 262.403V252.053C422.849 250.708 421.522 249.618 419.887 249.618Z" fill="#FFB7D5"/>
<path d="M419.887 229.526H400.632C398.996 229.526 397.67 230.617 397.67 231.962V242.312C397.67 243.657 398.996 244.747 400.632 244.747H419.887C421.522 244.747 422.849 243.657 422.849 242.312V231.962C422.849 230.617 421.522 229.526 419.887 229.526Z" fill="#69A1AC"/>
<path d="M375.454 104.109H214.757C213.121 104.109 211.795 105.199 211.795 106.544V130.288C211.795 131.633 213.121 132.724 214.757 132.724H375.454C377.09 132.724 378.416 131.633 378.416 130.288V106.544C378.416 105.199 377.09 104.109 375.454 104.109Z" fill="white"/>
<path d="M339.908 112.693H220.681C219.454 112.693 218.459 113.511 218.459 114.52V115.159C218.459 116.168 219.454 116.985 220.681 116.985H339.908C341.135 116.985 342.13 116.168 342.13 115.159V114.52C342.13 113.511 341.135 112.693 339.908 112.693Z" fill="#DDE3E9"/>
<path d="M299.249 119.847H220.681C219.454 119.847 218.459 120.665 218.459 121.673V122.313C218.459 123.321 219.454 124.139 220.681 124.139H299.249C300.476 124.139 301.471 123.321 301.471 122.313V121.673C301.471 120.665 300.476 119.847 299.249 119.847Z" fill="#DDE3E9"/>
<path d="M360.609 122.678C363.472 122.678 365.793 120.77 365.793 118.416C365.793 116.062 363.472 114.154 360.609 114.154C357.746 114.154 355.426 116.062 355.426 118.416C355.426 120.77 357.746 122.678 360.609 122.678Z" fill="#DDE3E9"/>
<path d="M360.609 120.243C361.836 120.243 362.831 119.425 362.831 118.416C362.831 117.407 361.836 116.59 360.609 116.59C359.382 116.59 358.388 117.407 358.388 118.416C358.388 119.425 359.382 120.243 360.609 120.243Z" fill="#F2F2F2"/>
<path d="M375.454 137.594H214.757C213.121 137.594 211.795 138.684 211.795 140.029V158.903C211.795 160.248 213.121 161.338 214.757 161.338H375.454C377.09 161.338 378.416 160.248 378.416 158.903V140.029C378.416 138.684 377.09 137.594 375.454 137.594Z" fill="white"/>
<path d="M339.964 144.717H220.626C219.429 144.717 218.459 145.515 218.459 146.498C218.459 147.482 219.429 148.279 220.626 148.279H339.964C341.16 148.279 342.13 147.482 342.13 146.498C342.13 145.515 341.16 144.717 339.964 144.717Z" fill="#DDE3E9"/>
<path d="M299.305 150.653H220.626C219.429 150.653 218.459 151.451 218.459 152.434C218.459 153.418 219.429 154.215 220.626 154.215H299.305C300.501 154.215 301.471 153.418 301.471 152.434C301.471 151.451 300.501 150.653 299.305 150.653Z" fill="#DDE3E9"/>
<path d="M360.609 153.728C363.472 153.728 365.793 151.82 365.793 149.466C365.793 147.112 363.472 145.204 360.609 145.204C357.746 145.204 355.426 147.112 355.426 149.466C355.426 151.82 357.746 153.728 360.609 153.728Z" fill="#DDE3E9"/>
<path d="M360.609 151.293C361.836 151.293 362.831 150.475 362.831 149.466C362.831 148.457 361.836 147.64 360.609 147.64C359.382 147.64 358.388 148.457 358.388 149.466C358.388 150.475 359.382 151.293 360.609 151.293Z" fill="#F2F2F2"/>
<path d="M375.454 166.209H214.757C213.121 166.209 211.795 167.299 211.795 168.644V187.518C211.795 188.863 213.121 189.953 214.757 189.953H375.454C377.09 189.953 378.416 188.863 378.416 187.518V168.644C378.416 167.299 377.09 166.209 375.454 166.209Z" fill="white"/>
<path d="M339.964 173.332H220.626C219.429 173.332 218.459 174.129 218.459 175.113C218.459 176.096 219.429 176.894 220.626 176.894H339.964C341.16 176.894 342.13 176.096 342.13 175.113C342.13 174.129 341.16 173.332 339.964 173.332Z" fill="#DDE3E9"/>
<path d="M299.305 179.268H220.626C219.429 179.268 218.459 180.065 218.459 181.049C218.459 182.032 219.429 182.83 220.626 182.83H299.305C300.501 182.83 301.471 182.032 301.471 181.049C301.471 180.065 300.501 179.268 299.305 179.268Z" fill="#DDE3E9"/>
<path d="M360.609 182.343C363.472 182.343 365.793 180.435 365.793 178.081C365.793 175.727 363.472 173.819 360.609 173.819C357.746 173.819 355.426 175.727 355.426 178.081C355.426 180.435 357.746 182.343 360.609 182.343Z" fill="#DDE3E9"/>
<path d="M360.609 179.907C361.836 179.907 362.831 179.09 362.831 178.081C362.831 177.072 361.836 176.254 360.609 176.254C359.382 176.254 358.388 177.072 358.388 178.081C358.388 179.09 359.382 179.907 360.609 179.907Z" fill="#AFB9C5"/>
<path d="M375.454 252.053H214.757C213.121 252.053 211.795 253.143 211.795 254.488V273.362C211.795 274.707 213.121 275.797 214.757 275.797H375.454C377.09 275.797 378.416 274.707 378.416 273.362V254.488C378.416 253.143 377.09 252.053 375.454 252.053Z" fill="white"/>
<path d="M339.964 259.176H220.626C219.429 259.176 218.459 259.973 218.459 260.957C218.459 261.94 219.429 262.738 220.626 262.738H339.964C341.16 262.738 342.13 261.94 342.13 260.957C342.13 259.973 341.16 259.176 339.964 259.176Z" fill="#DDE3E9"/>
<path d="M299.305 265.112H220.626C219.429 265.112 218.459 265.909 218.459 266.893C218.459 267.877 219.429 268.674 220.626 268.674H299.305C300.501 268.674 301.471 267.877 301.471 266.893C301.471 265.909 300.501 265.112 299.305 265.112Z" fill="#DDE3E9"/>
<path d="M360.609 268.187C363.472 268.187 365.793 266.279 365.793 263.925C365.793 261.571 363.472 259.663 360.609 259.663C357.746 259.663 355.426 261.571 355.426 263.925C355.426 266.279 357.746 268.187 360.609 268.187Z" fill="#DDE3E9"/>
<path d="M360.609 265.751C361.836 265.751 362.831 264.934 362.831 263.925C362.831 262.916 361.836 262.099 360.609 262.099C359.382 262.099 358.388 262.916 358.388 263.925C358.388 264.934 359.382 265.751 360.609 265.751Z" fill="#F2F2F2"/>
<path d="M375.454 223.438H214.757C213.121 223.438 211.795 224.529 211.795 225.874V244.747C211.795 246.092 213.121 247.182 214.757 247.182H375.454C377.09 247.182 378.416 246.092 378.416 244.747V225.874C378.416 224.529 377.09 223.438 375.454 223.438Z" fill="white"/>
<path d="M339.964 230.561H220.626C219.429 230.561 218.459 231.359 218.459 232.342C218.459 233.326 219.429 234.123 220.626 234.123H339.964C341.16 234.123 342.13 233.326 342.13 232.342C342.13 231.359 341.16 230.561 339.964 230.561Z" fill="#DDE3E9"/>
<path d="M299.305 236.497H220.626C219.429 236.497 218.459 237.295 218.459 238.278C218.459 239.262 219.429 240.059 220.626 240.059H299.305C300.501 240.059 301.471 239.262 301.471 238.278C301.471 237.295 300.501 236.497 299.305 236.497Z" fill="#DDE3E9"/>
<path d="M360.609 239.572C363.472 239.572 365.793 237.664 365.793 235.31C365.793 232.957 363.472 231.049 360.609 231.049C357.746 231.049 355.426 232.957 355.426 235.31C355.426 237.664 357.746 239.572 360.609 239.572Z" fill="#DDE3E9"/>
<path d="M360.609 237.137C361.836 237.137 362.831 236.319 362.831 235.31C362.831 234.302 361.836 233.484 360.609 233.484C359.382 233.484 358.388 234.302 358.388 235.31C358.388 236.319 359.382 237.137 360.609 237.137Z" fill="#F2F2F2"/>
<path d="M375.454 194.824H214.757C213.121 194.824 211.795 195.914 211.795 197.259V216.132C211.795 217.477 213.121 218.568 214.757 218.568H375.454C377.09 218.568 378.416 217.477 378.416 216.132V197.259C378.416 195.914 377.09 194.824 375.454 194.824Z" fill="white"/>
<path d="M339.964 201.947H220.626C219.429 201.947 218.459 202.744 218.459 203.728C218.459 204.711 219.429 205.508 220.626 205.508H339.964C341.16 205.508 342.13 204.711 342.13 203.728C342.13 202.744 341.16 201.947 339.964 201.947Z" fill="#DDE3E9"/>
<path d="M299.305 207.883H220.626C219.429 207.883 218.459 208.68 218.459 209.664C218.459 210.647 219.429 211.444 220.626 211.444H299.305C300.501 211.444 301.471 210.647 301.471 209.664C301.471 208.68 300.501 207.883 299.305 207.883Z" fill="#DDE3E9"/>
<path d="M360.609 210.957C363.472 210.957 365.793 209.049 365.793 206.696C365.793 204.342 363.472 202.434 360.609 202.434C357.746 202.434 355.426 204.342 355.426 206.696C355.426 209.049 357.746 210.957 360.609 210.957Z" fill="#DDE3E9"/>
<path d="M360.609 208.522C361.836 208.522 362.831 207.704 362.831 206.696C362.831 205.687 361.836 204.869 360.609 204.869C359.382 204.869 358.388 205.687 358.388 206.696C358.388 207.704 359.382 208.522 360.609 208.522Z" fill="#F2F2F2"/>
<path fill-rule="evenodd" clip-rule="evenodd" d="M509.481 181.049C506.56 179.421 502.676 178.994 499.181 178.994C485.528 178.994 472.695 183.158 461.609 189.364C455.535 192.763 450.101 197.093 445.303 201.601C442.534 204.203 440.065 207.019 438.317 210.149C437.137 212.263 436.327 214.464 435.779 216.736C435.11 219.503 434.578 222.327 434.338 225.141C434.243 226.249 433.46 232.129 435.701 232.228C435.688 232.373 435.685 232.511 435.699 232.635C430.833 238.89 427.827 246.22 425.039 253.17C422.614 259.218 420.453 265.317 419.05 271.574C417.202 279.811 415.989 288.172 415.412 296.527C415.288 298.323 415.203 300.12 415.13 301.918C415.068 303.451 415.005 304.985 414.944 306.519C414.875 308.237 414.507 310.216 414.84 311.925C415.129 313.413 416.696 313.188 416.765 311.707C416.849 309.919 416.835 308.127 416.93 306.337C417.057 303.962 417.187 301.587 417.328 299.213C418.313 282.719 422.005 266.467 428.818 250.887C431.576 244.582 434.735 238.613 438.796 232.78C442.367 227.652 446.661 222.688 451.051 218.064C455.318 213.571 459.754 209.181 464.982 205.374C469.225 202.285 473.891 199.594 478.688 197.09C484.781 193.909 490.862 190.806 497.462 188.364C500.893 187.095 504.388 185.959 507.845 184.742C508.468 184.523 509.134 184.31 509.733 184.056C511.729 183.21 511.071 181.936 509.481 181.049Z" fill="#63CC94"/>
<path fill-rule="evenodd" clip-rule="evenodd" d="M454.557 238.659C460.094 238.659 465.021 239.25 470.123 241.059C474.527 242.621 478.541 244.688 482.438 246.938C487.919 250.103 492.236 253.787 495.258 258.668C497.064 261.584 498.388 265.71 497.175 268.89C495.747 272.636 491.825 275.76 486.661 275.1C483.467 274.692 480.539 272.954 478.111 271.318C475.207 269.361 472.883 267.007 470.963 264.394C467.832 260.13 465.992 255.311 463.333 250.856C462.07 248.741 460.851 246.612 459.339 244.602C458.591 243.607 457.794 242.621 456.659 241.882C456.051 241.486 453.49 240.802 454.47 239.913C440.11 240.068 427.389 249.135 424.633 260.358C424.376 261.404 424.175 262.458 423.964 263.511C423.83 264.175 423.884 266.626 423.161 267.051C421.567 267.987 422.237 265.142 422.306 264.732C422.482 263.674 422.671 262.616 422.869 261.56C423.945 255.816 427.056 250.477 432.242 246.381C438.174 241.697 446.177 238.659 454.557 238.659Z" fill="#89C5CC"/>
<path fill-rule="evenodd" clip-rule="evenodd" d="M55.4945 224.495C69.3178 243.561 85.4176 262.022 95.086 282.867C94.6964 280.41 94.2833 277.956 93.8209 275.505C91.3676 262.512 88.3187 249.614 85.1147 236.732C83.4831 230.173 81.7574 223.638 79.9875 217.103C79.0356 213.593 78.0953 210.081 77.1238 206.575C76.8884 205.725 76.6863 204.242 76.3916 202.738C85.7879 228.088 94.849 253.456 101.477 279.415C102.346 282.822 103.087 286.222 103.693 289.617C103.901 288.843 104.105 288.068 104.328 287.296C107.01 278.037 111.033 268.853 115.823 260.196C118.112 256.056 120.742 252.006 123.839 248.233C125.77 245.881 130.324 243.085 132.086 240.677C122.452 255.204 118.973 273.381 113.41 289.175C112.052 293.029 110.686 296.877 109.348 300.732C117.737 286.9 130.752 275.536 148.849 270.611C126.944 282.511 113.805 303.349 104.951 324.661C104.922 324.914 104.887 325.167 104.857 325.42C107.462 321.355 110.744 317.678 115.192 315.102C124.712 309.589 135.272 311.196 144.507 315.925C137.259 312.137 124.161 315.586 118.063 319.436C113.697 322.191 109.966 325.888 106.727 329.495C105.95 330.36 104.891 331.368 103.772 332.445C102.204 340.817 99.6471 349.131 96.0277 357.379C96.625 355.012 96.1931 351.225 96.3588 349.461C96.3768 349.27 96.3914 349.078 96.4093 348.888C95.8591 350.694 95.3276 352.479 94.8158 354.236C95.8332 350.884 96.3861 347.385 96.8177 343.849C96.9289 342.33 97.0373 340.81 97.1519 339.291C97.1155 336.408 96.9711 333.513 96.7268 330.613C95.8604 327.795 94.8904 325.137 94.0905 322.927C91.2039 314.951 86.9722 307.31 81.7637 300.181C77.0116 293.676 71.3232 287.783 64.7564 282.454C61.2163 279.582 57.5114 276.847 53.8587 274.074C52.5378 273.071 50.177 270.606 48.1351 269.321C63.0055 276.061 78.3113 283.353 89.1593 294.213C87.8875 290.197 86.5061 286.239 85.0449 282.36C77.6317 262.68 68.2714 242.283 55.4945 224.495Z" fill="#63CC94"/>
<path fill-rule="evenodd" clip-rule="evenodd" d="M70.3513 332.418C70.3513 354.274 72.4566 371.991 100.714 371.991C128.97 371.991 131.076 354.274 131.076 332.418" fill="#69A1AC"/>
<path d="M389.524 52.9676C389.524 51.9589 388.53 51.1412 387.303 51.1412C386.076 51.1412 385.081 51.9589 385.081 52.9676V64.5353C385.081 65.544 386.076 66.3618 387.303 66.3618C388.53 66.3618 389.524 65.544 389.524 64.5353V52.9676Z" fill="#63CC94"/>
<path d="M399.892 43.2265C399.892 42.2177 398.897 41.4 397.67 41.4C396.443 41.4 395.449 42.2177 395.449 43.2265V64.5353C395.449 65.544 396.443 66.3618 397.67 66.3618C398.897 66.3618 399.892 65.544 399.892 64.5353V43.2265Z" fill="#DDE3E9"/>
<path d="M410.259 38.3559C410.259 37.3471 409.265 36.5294 408.038 36.5294C406.811 36.5294 405.816 37.3471 405.816 38.3559V64.5353C405.816 65.544 406.811 66.3618 408.038 66.3618C409.265 66.3618 410.259 65.544 410.259 64.5353V38.3559Z" fill="#3EC1F3"/>
<path d="M420.627 43.2265C420.627 42.2177 419.632 41.4 418.405 41.4C417.178 41.4 416.184 42.2177 416.184 43.2265V64.5353C416.184 65.544 417.178 66.3618 418.405 66.3618C419.632 66.3618 420.627 65.544 420.627 64.5353V43.2265Z" fill="#DDE3E9"/>
<path d="M430.995 33.4853C430.995 32.4766 430 31.6588 428.773 31.6588C427.546 31.6588 426.551 32.4766 426.551 33.4853V64.5353C426.551 65.544 427.546 66.3618 428.773 66.3618C430 66.3618 430.995 65.544 430.995 64.5353V33.4853Z" fill="#E24C82"/>
<path fill-rule="evenodd" clip-rule="evenodd" d="M20.7351 218.115C20.7351 211.333 27.4015 205.782 35.5459 205.782V218.115L25.4242 227.091C22.545 224.897 20.7351 221.677 20.7351 218.115Z" fill="#F2F2F2"/>
<path fill-rule="evenodd" clip-rule="evenodd" d="M35.154 217.959H50.1109C50.1109 221.137 48.5337 224.116 46.0404 226.28C43.298 228.647 39.3928 230.135 35.154 230.135C31.2495 230.135 27.6756 228.851 24.9325 226.821L35.154 217.959Z" fill="#AFB9C5"/>
<path fill-rule="evenodd" clip-rule="evenodd" d="M50.3568 217.959C50.3568 211.263 43.6904 205.782 35.5459 205.782V217.959H50.3568ZM28.1405 205.782L34.0649 216.741L20.7351 211.871C22.0533 209.03 25.0132 206.866 28.1405 205.782Z" fill="#C5CFD6"/>
<path fill-rule="evenodd" clip-rule="evenodd" d="M502.654 223.547C501.231 224.789 499.215 225.569 496.973 225.569C492.665 225.569 489.173 222.707 489.173 219.176C489.173 215.646 492.665 212.784 496.973 212.784V200.912C484.718 200.912 474.686 209.133 474.686 219.176C474.686 229.22 484.718 237.441 496.973 237.441C503.411 237.441 509.229 235.209 513.195 231.659L502.654 223.547Z" fill="#E5E5E5"/>
<path fill-rule="evenodd" clip-rule="evenodd" d="M496.903 200.912V212.784C501.197 212.784 504.678 215.646 504.678 219.176H519.119C519.119 209.133 509.119 200.912 496.903 200.912Z" fill="#E24C82"/>
<path fill-rule="evenodd" clip-rule="evenodd" d="M504.38 219.176C504.38 221.251 503.192 223.094 501.346 224.285L510.426 233.788C515.712 230.386 519.119 225.112 519.119 219.176H504.38Z" fill="#69A1AC"/>
<path fill-rule="evenodd" clip-rule="evenodd" d="M361.422 55.7097C360.327 56.6619 358.776 57.2598 357.052 57.2598C353.738 57.2598 351.051 55.0656 351.051 52.3588C351.051 49.6521 353.738 47.4578 357.052 47.4578V38.3559C347.624 38.3559 339.908 44.6586 339.908 52.3588C339.908 60.059 347.624 66.3618 357.052 66.3618C362.004 66.3618 366.479 64.6506 369.53 61.9284L361.422 55.7097Z" fill="#F2F2F2"/>
<path fill-rule="evenodd" clip-rule="evenodd" d="M356.941 38.3559V47.4578C360.233 47.4578 362.902 49.652 362.902 52.3588H373.973C373.973 44.6586 366.307 38.3559 356.941 38.3559Z" fill="#AFB9C5"/>
<path fill-rule="evenodd" clip-rule="evenodd" d="M362.919 52.3588C362.919 53.9145 362.028 55.2973 360.643 56.1902L367.454 63.3176C371.418 60.7659 373.973 56.8105 373.973 52.3588H362.919Z" fill="#C5CFD6"/>
<path fill-rule="evenodd" clip-rule="evenodd" d="M91.832 66.3534C91.8291 66.3594 91.8262 66.3655 91.8218 66.3727C91.8262 66.3667 91.832 66.3425 91.832 66.3534Z" fill="#C5CFD6"/>
<path fill-rule="evenodd" clip-rule="evenodd" d="M91.8252 66.3624C91.8252 66.3636 91.8238 66.3659 91.8238 66.3683C91.8238 66.3624 91.8363 66.3448 91.8252 66.3624Z" fill="#C5CFD6"/>
<path fill-rule="evenodd" clip-rule="evenodd" d="M91.8768 66.2597C91.8664 66.284 91.8531 66.3072 91.8412 66.3315C91.8471 66.3193 91.8531 66.3096 91.859 66.2974C91.705 66.614 91.8027 66.4082 91.8768 66.2597Z" fill="#C5CFD6"/>
<path fill-rule="evenodd" clip-rule="evenodd" d="M91.8431 66.333C91.8373 66.3439 91.8314 66.3559 91.8256 66.3668C91.7833 66.4343 91.8431 66.333 91.8431 66.333Z" fill="#C5CFD6"/>
<path fill-rule="evenodd" clip-rule="evenodd" d="M91.8263 66.3627C91.8263 66.3616 91.8263 66.3616 91.8277 66.3605C91.8263 66.3616 91.8263 66.3616 91.8263 66.3627Z" fill="#C5CFD6"/>
<path fill-rule="evenodd" clip-rule="evenodd" d="M91.8193 66.3715C91.8105 66.386 91.8601 66.316 91.8193 66.3715Z" fill="#C5CFD6"/>
<path fill-rule="evenodd" clip-rule="evenodd" d="M91.8255 66.3624L91.8278 66.3605C91.8267 66.3615 91.8267 66.3624 91.8255 66.3624Z" fill="#C5CFD6"/>
<path d="M123.67 34.7029H59.2432C57.6073 34.7029 56.2811 35.7933 56.2811 37.1382V70.6235C56.2811 71.9685 57.6073 73.0588 59.2432 73.0588H123.67C125.306 73.0588 126.632 71.9685 126.632 70.6235V37.1382C126.632 35.7933 125.306 34.7029 123.67 34.7029Z" fill="#F2F2F2"/>
<path fill-rule="evenodd" clip-rule="evenodd" d="M82.9406 45.6618L62.2054 73.0588H103.676L82.9406 45.6618Z" fill="#3EC1F3"/>
<path fill-rule="evenodd" clip-rule="evenodd" d="M103.305 52.9677L85.1622 73.0588H121.449L103.305 52.9677Z" fill="#C5CFD6"/>
<path d="M111.081 52.9676C114.762 52.9676 117.746 50.5144 117.746 47.4882C117.746 44.462 114.762 42.0088 111.081 42.0088C107.4 42.0088 104.416 44.462 104.416 47.4882C104.416 50.5144 107.4 52.9676 111.081 52.9676Z" fill="white"/>
<path fill-rule="evenodd" clip-rule="evenodd" d="M445.06 326.321C445.063 326.327 445.066 326.333 445.07 326.34C445.066 326.334 445.06 326.31 445.06 326.321Z" fill="#C5CFD6"/>
<path fill-rule="evenodd" clip-rule="evenodd" d="M445.067 326.33C445.067 326.331 445.068 326.334 445.068 326.336C445.068 326.33 445.056 326.312 445.067 326.33Z" fill="#C5CFD6"/>
<path fill-rule="evenodd" clip-rule="evenodd" d="M445.015 326.227C445.026 326.252 445.039 326.275 445.051 326.299C445.045 326.287 445.039 326.277 445.033 326.265C445.187 326.582 445.089 326.376 445.015 326.227Z" fill="#C5CFD6"/>
<path fill-rule="evenodd" clip-rule="evenodd" d="M445.049 326.301C445.055 326.312 445.06 326.324 445.066 326.334C445.109 326.402 445.049 326.301 445.049 326.301Z" fill="#C5CFD6"/>
<path fill-rule="evenodd" clip-rule="evenodd" d="M445.066 326.33C445.066 326.329 445.066 326.329 445.064 326.328C445.066 326.329 445.066 326.329 445.066 326.33Z" fill="#C5CFD6"/>
<path fill-rule="evenodd" clip-rule="evenodd" d="M445.073 326.339C445.081 326.354 445.032 326.284 445.073 326.339Z" fill="#C5CFD6"/>
<path fill-rule="evenodd" clip-rule="evenodd" d="M445.066 326.33L445.064 326.328C445.065 326.329 445.065 326.33 445.066 326.33Z" fill="#C5CFD6"/>
<path d="M395.449 279.45H494.681C496.317 279.45 497.643 280.54 497.643 281.885V334.244C497.643 335.589 496.317 336.679 494.681 336.679H395.449C393.813 336.679 392.486 335.589 392.486 334.244V281.885C392.486 280.54 393.813 279.45 395.449 279.45Z" fill="#DDE3E9"/>
<path fill-rule="evenodd" clip-rule="evenodd" d="M458.598 295.888L489.001 336.679H428.195L458.598 295.888Z" fill="#69A1AC"/>
<path fill-rule="evenodd" clip-rule="evenodd" d="M427.251 306.814L454.128 336.679H400.373L427.251 306.814Z" fill="#3EC1F3"/>
<path d="M415.814 306.847C410.292 306.847 405.816 303.167 405.816 298.628C405.816 294.089 410.292 290.409 415.814 290.409C421.335 290.409 425.811 294.089 425.811 298.628C425.811 303.167 421.335 306.847 415.814 306.847Z" fill="white"/>
</svg>
